%
M48
M72
T01C0.0197
T02C0.0236
T03C0.0240
T04C0.0360
T05C0.0400
T06C0.1260
%
T01
X5562Y11117
X5512Y12154
X5512Y13142
X5512Y14129
X5512Y15117
X5512Y16154
X6499Y16154
X6499Y15117
X6499Y14129
X6499Y13142
X6449Y12104
X6449Y11117
X7487Y13145
X10430Y13196
X11417Y13193
X11417Y14180
X11417Y15168
X11417Y16205
X12405Y16205
X12405Y15168
X12405Y14180
X12405Y13193
X12355Y12156
X12355Y11168
X11467Y11168
X11417Y12206
X13392Y13196
X4524Y13145
T02
X2738Y12462
X2423Y10691
X2738Y14391
X2738Y15769
X1281Y18210
X2580Y19864
X3171Y19391
X3801Y20454
X4746Y19706
X4903Y18486
X6478Y18486
X6675Y19352
X7974Y18506
X8643Y18525
X9746Y17029
X9746Y15159
X8761Y14943
X8761Y13171
X9746Y12797
X8761Y11281
X10179Y11006
X8919Y8722
X10809Y6754
X11517Y4726
X12541Y6754
X13525Y6635
X14824Y6675
X15139Y9470
X16478Y11635
X12029Y18958
X8565Y20612
X5966Y23092
X4509Y22974
X2580Y21320
X9746Y4332
X16478Y21675
T03
X15061Y20572
X15454Y19391
X13880Y20100
X13486Y20572
X13092Y19431
X11517Y20572
X10336Y20572
X10336Y18998
X9155Y20572
X7974Y20572
X8013Y19746
X5809Y18998
X7187Y16635
X7974Y15061
X7580Y14667
X8368Y10415
X9549Y10454
X10691Y10927
X11517Y10454
X11517Y9352
X11517Y8368
X10297Y6754
X8722Y6754
X8761Y7974
X6399Y8368
X6399Y10336
X4824Y10336
X4037Y11517
X4824Y13958
X4037Y14667
X2462Y16793
X1675Y16635
X2069Y13880
X2265Y9903
X1281Y9943
X10730Y15454
X12698Y16635
X13880Y16635
X16124Y16045
X15061Y13092
X16242Y9155
X12698Y8761
X14549Y22541
T04
X12458Y24206
X12458Y25206
X11458Y25206
X11458Y24206
X10458Y24206
X10458Y25206
X9458Y25206
X9458Y24206
X8458Y24206
X8458Y25206
X7458Y25206
X7458Y24206
X6458Y24206
X6458Y25206
X5458Y25206
X5458Y24206
X5419Y3179
X5419Y2179
X6419Y2179
X6419Y3179
X7419Y3179
X7419Y2179
X8419Y2179
X8419Y3179
X9419Y3179
X9419Y2179
X10419Y2179
X10419Y3179
X11419Y3179
X11419Y2179
X12419Y2179
X12419Y3179
T05
X16033Y6399
X16033Y7399
X16033Y8399
X1297Y8376
X1297Y7376
X1297Y6376
T06
X1281Y1281
X16635Y1281
X16635Y26478
X1281Y26478
M30
