G75*
G70*
%OFA0B0*%
%FSLAX24Y24*%
%IPPOS*%
%LPD*%
%AMOC8*
5,1,8,0,0,1.08239X$1,22.5*
%
%ADD10C,0.0000*%
%ADD11OC8,0.0437*%
%ADD12C,0.0640*%
%ADD13OC8,0.0600*%
%ADD14R,0.0670X0.0552*%
%ADD15C,0.1700*%
D10*
X000100Y000100D02*
X000100Y027659D01*
X017817Y027659D01*
X017817Y000100D01*
X000100Y000100D01*
D11*
X005562Y011117D03*
X005512Y012154D03*
X005512Y013142D03*
X005512Y014129D03*
X005512Y015117D03*
X005512Y016154D03*
X006499Y016154D03*
X006499Y015117D03*
X006499Y014129D03*
X006499Y013142D03*
X006449Y012104D03*
X006449Y011117D03*
X007487Y013145D03*
X010430Y013196D03*
X011417Y013193D03*
X011417Y014180D03*
X011417Y015168D03*
X011417Y016205D03*
X012405Y016205D03*
X012405Y015168D03*
X012405Y014180D03*
X012405Y013193D03*
X012355Y012156D03*
X012355Y011168D03*
X011467Y011168D03*
X011417Y012206D03*
X013392Y013196D03*
X004524Y013145D03*
D12*
X001597Y008376D02*
X000997Y008376D01*
X000997Y007376D02*
X001597Y007376D01*
X001597Y006376D02*
X000997Y006376D01*
X015733Y006399D02*
X016333Y006399D01*
X016333Y007399D02*
X015733Y007399D01*
X015733Y008399D02*
X016333Y008399D01*
D13*
X012419Y003179D03*
X012419Y002179D03*
X011419Y002179D03*
X011419Y003179D03*
X010419Y003179D03*
X010419Y002179D03*
X009419Y002179D03*
X009419Y003179D03*
X008419Y003179D03*
X008419Y002179D03*
X007419Y002179D03*
X007419Y003179D03*
X006419Y003179D03*
X006419Y002179D03*
X005419Y002179D03*
X005419Y003179D03*
X005458Y024206D03*
X005458Y025206D03*
X006458Y025206D03*
X006458Y024206D03*
X007458Y024206D03*
X007458Y025206D03*
X008458Y025206D03*
X008458Y024206D03*
X009458Y024206D03*
X009458Y025206D03*
X010458Y025206D03*
X010458Y024206D03*
X011458Y024206D03*
X011458Y025206D03*
X012458Y025206D03*
X012458Y024206D03*
D14*
X007541Y010120D03*
X007541Y009372D03*
X009943Y009726D03*
X009943Y008978D03*
D15*
X016635Y001281D03*
X001281Y001281D03*
X001281Y026478D03*
X016635Y026478D03*
M02*
