G75*
G70*
%OFA0B0*%
%FSLAX24Y24*%
%IPPOS*%
%LPD*%
%AMOC8*
5,1,8,0,0,1.08239X$1,22.5*
%
%ADD10C,0.0010*%
%ADD11C,0.0000*%
%ADD12C,0.0600*%
%ADD13C,0.0768*%
%ADD14C,0.0356*%
%ADD15C,0.0240*%
%ADD16C,0.0100*%
%ADD17R,0.0356X0.0356*%
%ADD18C,0.0160*%
%ADD19C,0.0320*%
D10*
X000290Y001875D02*
X000290Y019985D01*
X018006Y019985D01*
D11*
X015329Y001875D02*
X000290Y001875D01*
X004522Y004828D02*
X004524Y004862D01*
X004530Y004896D01*
X004540Y004929D01*
X004553Y004960D01*
X004571Y004990D01*
X004591Y005018D01*
X004615Y005043D01*
X004641Y005065D01*
X004669Y005083D01*
X004700Y005099D01*
X004732Y005111D01*
X004766Y005119D01*
X004800Y005123D01*
X004834Y005123D01*
X004868Y005119D01*
X004902Y005111D01*
X004934Y005099D01*
X004964Y005083D01*
X004993Y005065D01*
X005019Y005043D01*
X005043Y005018D01*
X005063Y004990D01*
X005081Y004960D01*
X005094Y004929D01*
X005104Y004896D01*
X005110Y004862D01*
X005112Y004828D01*
X005110Y004794D01*
X005104Y004760D01*
X005094Y004727D01*
X005081Y004696D01*
X005063Y004666D01*
X005043Y004638D01*
X005019Y004613D01*
X004993Y004591D01*
X004965Y004573D01*
X004934Y004557D01*
X004902Y004545D01*
X004868Y004537D01*
X004834Y004533D01*
X004800Y004533D01*
X004766Y004537D01*
X004732Y004545D01*
X004700Y004557D01*
X004669Y004573D01*
X004641Y004591D01*
X004615Y004613D01*
X004591Y004638D01*
X004571Y004666D01*
X004553Y004696D01*
X004540Y004727D01*
X004530Y004760D01*
X004524Y004794D01*
X004522Y004828D01*
X006156Y005339D02*
X006158Y005360D01*
X006164Y005380D01*
X006173Y005400D01*
X006185Y005417D01*
X006200Y005431D01*
X006218Y005443D01*
X006238Y005451D01*
X006258Y005456D01*
X006279Y005457D01*
X006300Y005454D01*
X006320Y005448D01*
X006339Y005437D01*
X006356Y005424D01*
X006369Y005408D01*
X006380Y005390D01*
X006388Y005370D01*
X006392Y005350D01*
X006392Y005328D01*
X006388Y005308D01*
X006380Y005288D01*
X006369Y005270D01*
X006356Y005254D01*
X006339Y005241D01*
X006320Y005230D01*
X006300Y005224D01*
X006279Y005221D01*
X006258Y005222D01*
X006238Y005227D01*
X006218Y005235D01*
X006200Y005247D01*
X006185Y005261D01*
X006173Y005278D01*
X006164Y005298D01*
X006158Y005318D01*
X006156Y005339D01*
X009936Y005339D02*
X009938Y005360D01*
X009944Y005380D01*
X009953Y005400D01*
X009965Y005417D01*
X009980Y005431D01*
X009998Y005443D01*
X010018Y005451D01*
X010038Y005456D01*
X010059Y005457D01*
X010080Y005454D01*
X010100Y005448D01*
X010119Y005437D01*
X010136Y005424D01*
X010149Y005408D01*
X010160Y005390D01*
X010168Y005370D01*
X010172Y005350D01*
X010172Y005328D01*
X010168Y005308D01*
X010160Y005288D01*
X010149Y005270D01*
X010136Y005254D01*
X010119Y005241D01*
X010100Y005230D01*
X010080Y005224D01*
X010059Y005221D01*
X010038Y005222D01*
X010018Y005227D01*
X009998Y005235D01*
X009980Y005247D01*
X009965Y005261D01*
X009953Y005278D01*
X009944Y005298D01*
X009938Y005318D01*
X009936Y005339D01*
X011215Y004828D02*
X011217Y004862D01*
X011223Y004896D01*
X011233Y004929D01*
X011246Y004960D01*
X011264Y004990D01*
X011284Y005018D01*
X011308Y005043D01*
X011334Y005065D01*
X011362Y005083D01*
X011393Y005099D01*
X011425Y005111D01*
X011459Y005119D01*
X011493Y005123D01*
X011527Y005123D01*
X011561Y005119D01*
X011595Y005111D01*
X011627Y005099D01*
X011657Y005083D01*
X011686Y005065D01*
X011712Y005043D01*
X011736Y005018D01*
X011756Y004990D01*
X011774Y004960D01*
X011787Y004929D01*
X011797Y004896D01*
X011803Y004862D01*
X011805Y004828D01*
X011803Y004794D01*
X011797Y004760D01*
X011787Y004727D01*
X011774Y004696D01*
X011756Y004666D01*
X011736Y004638D01*
X011712Y004613D01*
X011686Y004591D01*
X011658Y004573D01*
X011627Y004557D01*
X011595Y004545D01*
X011561Y004537D01*
X011527Y004533D01*
X011493Y004533D01*
X011459Y004537D01*
X011425Y004545D01*
X011393Y004557D01*
X011362Y004573D01*
X011334Y004591D01*
X011308Y004613D01*
X011284Y004638D01*
X011264Y004666D01*
X011246Y004696D01*
X011233Y004727D01*
X011223Y004760D01*
X011217Y004794D01*
X011215Y004828D01*
X015329Y001875D02*
X015329Y000300D01*
X018006Y000300D01*
X018006Y019985D01*
X015891Y018208D02*
X015893Y018239D01*
X015899Y018270D01*
X015909Y018300D01*
X015922Y018328D01*
X015939Y018355D01*
X015959Y018379D01*
X015982Y018401D01*
X016007Y018419D01*
X016035Y018434D01*
X016064Y018446D01*
X016094Y018454D01*
X016125Y018458D01*
X016157Y018458D01*
X016188Y018454D01*
X016218Y018446D01*
X016247Y018434D01*
X016275Y018419D01*
X016300Y018401D01*
X016323Y018379D01*
X016343Y018355D01*
X016360Y018328D01*
X016373Y018300D01*
X016383Y018270D01*
X016389Y018239D01*
X016391Y018208D01*
X016389Y018177D01*
X016383Y018146D01*
X016373Y018116D01*
X016360Y018088D01*
X016343Y018061D01*
X016323Y018037D01*
X016300Y018015D01*
X016275Y017997D01*
X016247Y017982D01*
X016218Y017970D01*
X016188Y017962D01*
X016157Y017958D01*
X016125Y017958D01*
X016094Y017962D01*
X016064Y017970D01*
X016035Y017982D01*
X016007Y017997D01*
X015982Y018015D01*
X015959Y018037D01*
X015939Y018061D01*
X015922Y018088D01*
X015909Y018116D01*
X015899Y018146D01*
X015893Y018177D01*
X015891Y018208D01*
X015891Y016408D02*
X015893Y016439D01*
X015899Y016470D01*
X015909Y016500D01*
X015922Y016528D01*
X015939Y016555D01*
X015959Y016579D01*
X015982Y016601D01*
X016007Y016619D01*
X016035Y016634D01*
X016064Y016646D01*
X016094Y016654D01*
X016125Y016658D01*
X016157Y016658D01*
X016188Y016654D01*
X016218Y016646D01*
X016247Y016634D01*
X016275Y016619D01*
X016300Y016601D01*
X016323Y016579D01*
X016343Y016555D01*
X016360Y016528D01*
X016373Y016500D01*
X016383Y016470D01*
X016389Y016439D01*
X016391Y016408D01*
X016389Y016377D01*
X016383Y016346D01*
X016373Y016316D01*
X016360Y016288D01*
X016343Y016261D01*
X016323Y016237D01*
X016300Y016215D01*
X016275Y016197D01*
X016247Y016182D01*
X016218Y016170D01*
X016188Y016162D01*
X016157Y016158D01*
X016125Y016158D01*
X016094Y016162D01*
X016064Y016170D01*
X016035Y016182D01*
X016007Y016197D01*
X015982Y016215D01*
X015959Y016237D01*
X015939Y016261D01*
X015922Y016288D01*
X015909Y016316D01*
X015899Y016346D01*
X015893Y016377D01*
X015891Y016408D01*
X011215Y011520D02*
X011217Y011554D01*
X011223Y011588D01*
X011233Y011621D01*
X011246Y011652D01*
X011264Y011682D01*
X011284Y011710D01*
X011308Y011735D01*
X011334Y011757D01*
X011362Y011775D01*
X011393Y011791D01*
X011425Y011803D01*
X011459Y011811D01*
X011493Y011815D01*
X011527Y011815D01*
X011561Y011811D01*
X011595Y011803D01*
X011627Y011791D01*
X011657Y011775D01*
X011686Y011757D01*
X011712Y011735D01*
X011736Y011710D01*
X011756Y011682D01*
X011774Y011652D01*
X011787Y011621D01*
X011797Y011588D01*
X011803Y011554D01*
X011805Y011520D01*
X011803Y011486D01*
X011797Y011452D01*
X011787Y011419D01*
X011774Y011388D01*
X011756Y011358D01*
X011736Y011330D01*
X011712Y011305D01*
X011686Y011283D01*
X011658Y011265D01*
X011627Y011249D01*
X011595Y011237D01*
X011561Y011229D01*
X011527Y011225D01*
X011493Y011225D01*
X011459Y011229D01*
X011425Y011237D01*
X011393Y011249D01*
X011362Y011265D01*
X011334Y011283D01*
X011308Y011305D01*
X011284Y011330D01*
X011264Y011358D01*
X011246Y011388D01*
X011233Y011419D01*
X011223Y011452D01*
X011217Y011486D01*
X011215Y011520D01*
X004522Y011520D02*
X004524Y011554D01*
X004530Y011588D01*
X004540Y011621D01*
X004553Y011652D01*
X004571Y011682D01*
X004591Y011710D01*
X004615Y011735D01*
X004641Y011757D01*
X004669Y011775D01*
X004700Y011791D01*
X004732Y011803D01*
X004766Y011811D01*
X004800Y011815D01*
X004834Y011815D01*
X004868Y011811D01*
X004902Y011803D01*
X004934Y011791D01*
X004964Y011775D01*
X004993Y011757D01*
X005019Y011735D01*
X005043Y011710D01*
X005063Y011682D01*
X005081Y011652D01*
X005094Y011621D01*
X005104Y011588D01*
X005110Y011554D01*
X005112Y011520D01*
X005110Y011486D01*
X005104Y011452D01*
X005094Y011419D01*
X005081Y011388D01*
X005063Y011358D01*
X005043Y011330D01*
X005019Y011305D01*
X004993Y011283D01*
X004965Y011265D01*
X004934Y011249D01*
X004902Y011237D01*
X004868Y011229D01*
X004834Y011225D01*
X004800Y011225D01*
X004766Y011229D01*
X004732Y011237D01*
X004700Y011249D01*
X004669Y011265D01*
X004641Y011283D01*
X004615Y011305D01*
X004591Y011330D01*
X004571Y011358D01*
X004553Y011388D01*
X004540Y011419D01*
X004530Y011452D01*
X004524Y011486D01*
X004522Y011520D01*
D12*
X001787Y005583D02*
X001187Y005583D01*
X001187Y004583D02*
X001787Y004583D01*
X001787Y003583D02*
X001187Y003583D01*
X016761Y003166D02*
X017361Y003166D01*
X017361Y004166D02*
X016761Y004166D01*
X016761Y005166D02*
X017361Y005166D01*
X017361Y006166D02*
X016761Y006166D01*
X016761Y007930D02*
X017361Y007930D01*
X017361Y008930D02*
X016761Y008930D01*
X016761Y009930D02*
X017361Y009930D01*
X017361Y010930D02*
X016761Y010930D01*
X016761Y011930D02*
X017361Y011930D01*
X017361Y012930D02*
X016761Y012930D01*
X016761Y013930D02*
X017361Y013930D01*
X017361Y002166D02*
X016761Y002166D01*
X016761Y001166D02*
X017361Y001166D01*
D13*
X012668Y013914D03*
X011668Y013914D03*
X011668Y014914D03*
X012668Y014914D03*
X012668Y015914D03*
X011668Y015914D03*
X011668Y016914D03*
X012668Y016914D03*
X012668Y017914D03*
X011668Y017914D03*
X011668Y018914D03*
X012668Y018914D03*
D14*
X012632Y008253D03*
X009443Y007643D03*
X007081Y007820D03*
X007711Y004237D03*
X009187Y003607D03*
X010132Y004040D03*
X012061Y003607D03*
X009168Y002800D03*
X008636Y002721D03*
D15*
X009817Y003548D02*
X012002Y003548D01*
X012015Y003549D01*
X012028Y003554D01*
X012039Y003561D01*
X012048Y003570D01*
X012055Y003581D01*
X012060Y003594D01*
X012061Y003607D01*
X009817Y003548D02*
X009791Y003550D01*
X009766Y003555D01*
X009742Y003563D01*
X009719Y003574D01*
X009697Y003589D01*
X009678Y003606D01*
X009661Y003625D01*
X009646Y003647D01*
X009635Y003670D01*
X009627Y003694D01*
X009622Y003719D01*
X009620Y003745D01*
X009618Y003788D01*
X009613Y003830D01*
X009603Y003872D01*
X009590Y003913D01*
X009574Y003953D01*
X009554Y003991D01*
X009531Y004027D01*
X009505Y004061D01*
X009476Y004093D01*
X009444Y004122D01*
X009410Y004148D01*
X009374Y004171D01*
X009336Y004191D01*
X009296Y004207D01*
X009255Y004220D01*
X009213Y004230D01*
X009171Y004235D01*
X009128Y004237D01*
X007711Y004237D01*
X013833Y007394D02*
X013833Y012564D01*
X009739Y012564D01*
X009667Y012562D01*
X009595Y012556D01*
X009523Y012547D01*
X009452Y012534D01*
X009382Y012517D01*
X009313Y012497D01*
X009245Y012472D01*
X009179Y012445D01*
X009113Y012414D01*
X009050Y012379D01*
X008988Y012342D01*
X008929Y012301D01*
X008872Y012257D01*
X008817Y012210D01*
X008765Y012160D01*
X008715Y012108D01*
X008668Y012053D01*
X008624Y011996D01*
X008583Y011937D01*
X008546Y011875D01*
X008511Y011812D01*
X008480Y011746D01*
X008453Y011680D01*
X008428Y011612D01*
X008408Y011543D01*
X008391Y011473D01*
X008378Y011402D01*
X008369Y011330D01*
X008363Y011258D01*
X008361Y011186D01*
X008360Y011186D02*
X008358Y011098D01*
X008352Y011010D01*
X008341Y010923D01*
X008327Y010836D01*
X008308Y010750D01*
X008285Y010665D01*
X008258Y010581D01*
X008227Y010498D01*
X008193Y010417D01*
X008154Y010338D01*
X008112Y010261D01*
X008066Y010186D01*
X008017Y010113D01*
X007964Y010042D01*
X007908Y009975D01*
X007849Y009909D01*
X007787Y009847D01*
X007721Y009788D01*
X007654Y009732D01*
X007583Y009679D01*
X007510Y009630D01*
X007435Y009584D01*
X007358Y009542D01*
X007279Y009503D01*
X007198Y009469D01*
X007115Y009438D01*
X007031Y009411D01*
X006946Y009388D01*
X006860Y009369D01*
X006773Y009355D01*
X006686Y009344D01*
X006598Y009338D01*
X006510Y009336D01*
X006510Y009335D02*
X005487Y009335D01*
X007081Y007820D02*
X009266Y007820D01*
X009291Y007818D01*
X009316Y007813D01*
X009340Y007804D01*
X009362Y007792D01*
X009382Y007777D01*
X009400Y007759D01*
X009415Y007739D01*
X009427Y007717D01*
X009436Y007693D01*
X009441Y007668D01*
X009443Y007643D01*
X015014Y007170D02*
X015014Y011883D01*
X013833Y012564D02*
X013833Y016639D01*
X014620Y018489D02*
X014618Y018528D01*
X014613Y018567D01*
X014604Y018605D01*
X014591Y018643D01*
X014575Y018678D01*
X014556Y018713D01*
X014534Y018745D01*
X014509Y018775D01*
X014481Y018803D01*
X014451Y018828D01*
X014419Y018850D01*
X014384Y018869D01*
X014349Y018885D01*
X014311Y018898D01*
X014273Y018907D01*
X014234Y018912D01*
X014195Y018914D01*
X012668Y018914D01*
X017061Y013930D02*
X016964Y013928D01*
X016866Y013921D01*
X016770Y013909D01*
X016674Y013893D01*
X016578Y013872D01*
X016484Y013847D01*
X016391Y013817D01*
X016300Y013783D01*
X016211Y013745D01*
X016123Y013702D01*
X016038Y013656D01*
X015954Y013605D01*
X015874Y013550D01*
X015796Y013492D01*
X015721Y013430D01*
X015648Y013364D01*
X015580Y013296D01*
X015514Y013223D01*
X015452Y013148D01*
X015394Y013070D01*
X015339Y012990D01*
X015288Y012907D01*
X015242Y012821D01*
X015199Y012733D01*
X015161Y012644D01*
X015127Y012553D01*
X015097Y012460D01*
X015072Y012366D01*
X015051Y012270D01*
X015035Y012174D01*
X015023Y012078D01*
X015016Y011980D01*
X015014Y011883D01*
X013833Y007394D02*
X013837Y007240D01*
X013848Y007087D01*
X013866Y006935D01*
X013891Y006783D01*
X013924Y006633D01*
X013964Y006485D01*
X014011Y006338D01*
X014064Y006194D01*
X014125Y006053D01*
X014192Y005915D01*
X014265Y005780D01*
X014345Y005649D01*
X014432Y005522D01*
X014524Y005399D01*
X014621Y005280D01*
X014725Y005166D01*
X014833Y005058D01*
X014947Y004954D01*
X015066Y004857D01*
X015189Y004765D01*
X015316Y004678D01*
X015447Y004598D01*
X015582Y004525D01*
X015720Y004458D01*
X015861Y004397D01*
X016005Y004344D01*
X016152Y004297D01*
X016300Y004257D01*
X016450Y004224D01*
X016602Y004199D01*
X016754Y004181D01*
X016907Y004170D01*
X017061Y004166D01*
X017061Y006166D02*
X016018Y006166D01*
X015957Y006168D01*
X015897Y006173D01*
X015837Y006182D01*
X015778Y006195D01*
X015719Y006211D01*
X015662Y006231D01*
X015606Y006254D01*
X015551Y006281D01*
X015499Y006311D01*
X015448Y006344D01*
X015399Y006380D01*
X015352Y006418D01*
X015308Y006460D01*
X015266Y006504D01*
X015228Y006551D01*
X015192Y006600D01*
X015159Y006651D01*
X015129Y006703D01*
X015102Y006758D01*
X015079Y006814D01*
X015059Y006871D01*
X015043Y006930D01*
X015030Y006989D01*
X015021Y007049D01*
X015016Y007109D01*
X015014Y007170D01*
D16*
X012014Y007621D02*
X012050Y008033D01*
X012041Y008445D01*
X011988Y008855D01*
X011890Y009256D01*
X011750Y009644D01*
X011569Y010015D01*
X011349Y010365D01*
X011092Y010688D01*
X010802Y010982D01*
X010482Y011242D01*
X010135Y011467D01*
X009766Y011652D01*
X009380Y011797D01*
X008980Y011899D01*
X008859Y011916D01*
X008828Y011885D01*
X008678Y011625D01*
X008601Y011336D01*
X008591Y011186D01*
X008591Y010912D01*
X008449Y010383D01*
X008449Y010383D01*
X008175Y009908D01*
X008175Y009908D01*
X007788Y009521D01*
X007788Y009521D01*
X007313Y009247D01*
X007313Y009247D01*
X006784Y009105D01*
X005768Y009105D01*
X005710Y009047D01*
X005263Y009047D01*
X005199Y009112D01*
X005199Y009559D01*
X004696Y009559D01*
X004662Y009481D02*
X004833Y009873D01*
X005038Y010231D01*
X005281Y010565D01*
X005559Y010871D01*
X005867Y011145D01*
X006204Y011384D01*
X006565Y011585D01*
X006945Y011745D01*
X007340Y011864D01*
X007746Y011940D01*
X008158Y011971D01*
X008332Y011965D01*
X008240Y011806D01*
X008131Y011398D01*
X008131Y011186D01*
X008117Y010974D01*
X008007Y010566D01*
X007796Y010199D01*
X007497Y009900D01*
X007130Y009689D01*
X006722Y009579D01*
X006510Y009565D01*
X005768Y009565D01*
X005710Y009624D01*
X005263Y009624D01*
X005199Y009559D01*
X005199Y009461D02*
X004656Y009461D01*
X004662Y009481D02*
X004537Y009072D01*
X004458Y008652D01*
X004426Y008225D01*
X004443Y007798D01*
X004507Y007375D01*
X004618Y006963D01*
X004775Y006565D01*
X004975Y006187D01*
X005216Y005834D01*
X005496Y005510D01*
X005809Y005220D01*
X006154Y004966D01*
X006524Y004753D01*
X006916Y004582D01*
X007325Y004457D01*
X007745Y004378D01*
X008172Y004346D01*
X008599Y004363D01*
X009022Y004427D01*
X009435Y004538D01*
X009833Y004695D01*
X010210Y004895D01*
X010563Y005136D01*
X010887Y005415D01*
X011178Y005729D01*
X011431Y006073D01*
X011645Y006444D01*
X011810Y006822D01*
X011934Y007216D01*
X012014Y007621D01*
X012007Y007589D02*
X009731Y007589D01*
X009731Y007585D02*
X009688Y007479D01*
X009607Y007398D01*
X009501Y007354D01*
X009386Y007354D01*
X009280Y007398D01*
X009199Y007479D01*
X009155Y007585D01*
X009155Y007590D01*
X007259Y007590D01*
X007244Y007575D01*
X007138Y007532D01*
X007024Y007532D01*
X006918Y007575D01*
X006837Y007656D01*
X006793Y007762D01*
X006793Y007877D01*
X006837Y007983D01*
X004436Y007983D01*
X004439Y007885D02*
X006796Y007885D01*
X006793Y007786D02*
X004445Y007786D01*
X004460Y007688D02*
X006824Y007688D01*
X006904Y007589D02*
X004474Y007589D01*
X004489Y007491D02*
X009194Y007491D01*
X009155Y007589D02*
X007258Y007589D01*
X007259Y008050D02*
X007244Y008064D01*
X007138Y008108D01*
X007024Y008108D01*
X006918Y008064D01*
X006837Y007983D01*
X006960Y008082D02*
X004432Y008082D01*
X004428Y008180D02*
X012047Y008180D01*
X012049Y008082D02*
X007202Y008082D01*
X007259Y008050D02*
X009375Y008050D01*
X009564Y007941D01*
X009564Y007941D01*
X009564Y007941D01*
X009592Y007893D01*
X009607Y007887D01*
X009688Y007806D01*
X009731Y007700D01*
X009731Y007585D01*
X009692Y007491D02*
X011988Y007491D01*
X011968Y007392D02*
X009591Y007392D01*
X009295Y007392D02*
X004504Y007392D01*
X004529Y007294D02*
X011949Y007294D01*
X011927Y007195D02*
X004555Y007195D01*
X004582Y007097D02*
X011896Y007097D01*
X011865Y006998D02*
X004609Y006998D01*
X004643Y006900D02*
X011834Y006900D01*
X011801Y006801D02*
X004682Y006801D01*
X004720Y006703D02*
X011758Y006703D01*
X011715Y006604D02*
X004759Y006604D01*
X004806Y006506D02*
X011671Y006506D01*
X011623Y006407D02*
X004858Y006407D01*
X004911Y006309D02*
X011567Y006309D01*
X011510Y006210D02*
X004963Y006210D01*
X005026Y006112D02*
X011453Y006112D01*
X011387Y006013D02*
X005094Y006013D01*
X005161Y005915D02*
X011314Y005915D01*
X011242Y005816D02*
X005232Y005816D01*
X005317Y005718D02*
X011167Y005718D01*
X011076Y005619D02*
X005402Y005619D01*
X005487Y005521D02*
X006076Y005521D01*
X006047Y005491D02*
X006006Y005393D01*
X006006Y005286D01*
X006047Y005187D01*
X006122Y005112D01*
X006221Y005071D01*
X006327Y005071D01*
X006426Y005112D01*
X006501Y005187D01*
X006542Y005286D01*
X006542Y005393D01*
X006501Y005491D01*
X006426Y005567D01*
X006327Y005607D01*
X006221Y005607D01*
X006122Y005567D01*
X006047Y005491D01*
X006018Y005422D02*
X005591Y005422D01*
X005697Y005324D02*
X006006Y005324D01*
X006031Y005225D02*
X005803Y005225D01*
X005936Y005127D02*
X006108Y005127D01*
X006069Y005028D02*
X010405Y005028D01*
X010261Y004930D02*
X006217Y004930D01*
X006388Y004831D02*
X010090Y004831D01*
X009904Y004733D02*
X006571Y004733D01*
X006797Y004634D02*
X009679Y004634D01*
X009426Y004536D02*
X007068Y004536D01*
X007429Y004437D02*
X009060Y004437D01*
X009826Y005187D02*
X009902Y005112D01*
X010000Y005071D01*
X010107Y005071D01*
X010205Y005112D01*
X010281Y005187D01*
X010322Y005286D01*
X010322Y005393D01*
X010281Y005491D01*
X010205Y005567D01*
X010107Y005607D01*
X010000Y005607D01*
X009902Y005567D01*
X009826Y005491D01*
X009785Y005393D01*
X009785Y005286D01*
X009826Y005187D01*
X009811Y005225D02*
X006517Y005225D01*
X006542Y005324D02*
X009785Y005324D01*
X009798Y005422D02*
X006530Y005422D01*
X006472Y005521D02*
X009856Y005521D01*
X010252Y005521D02*
X010985Y005521D01*
X010893Y005422D02*
X010310Y005422D01*
X010322Y005324D02*
X010781Y005324D01*
X010667Y005225D02*
X010296Y005225D01*
X010220Y005127D02*
X010549Y005127D01*
X009887Y005127D02*
X006440Y005127D01*
X009731Y007688D02*
X012020Y007688D01*
X012028Y007786D02*
X009696Y007786D01*
X009609Y007885D02*
X012037Y007885D01*
X012045Y007983D02*
X009491Y007983D01*
X012042Y008377D02*
X004437Y008377D01*
X004430Y008279D02*
X012045Y008279D01*
X012037Y008476D02*
X004445Y008476D01*
X004452Y008574D02*
X012024Y008574D01*
X012011Y008673D02*
X004462Y008673D01*
X004480Y008771D02*
X011999Y008771D01*
X011984Y008870D02*
X004499Y008870D01*
X004517Y008968D02*
X011960Y008968D01*
X011936Y009067D02*
X005730Y009067D01*
X005244Y009067D02*
X004536Y009067D01*
X004565Y009165D02*
X005199Y009165D01*
X005199Y009264D02*
X004595Y009264D01*
X004626Y009362D02*
X005199Y009362D01*
X004739Y009658D02*
X007014Y009658D01*
X007247Y009756D02*
X004782Y009756D01*
X004825Y009855D02*
X007417Y009855D01*
X007549Y009953D02*
X004879Y009953D01*
X004935Y010052D02*
X007648Y010052D01*
X007746Y010150D02*
X004992Y010150D01*
X005051Y010249D02*
X007824Y010249D01*
X007881Y010347D02*
X005122Y010347D01*
X005194Y010446D02*
X007938Y010446D01*
X007995Y010544D02*
X005266Y010544D01*
X005351Y010643D02*
X008028Y010643D01*
X008054Y010741D02*
X005441Y010741D01*
X005530Y010840D02*
X008081Y010840D01*
X008107Y010938D02*
X005634Y010938D01*
X005746Y011037D02*
X008121Y011037D01*
X008127Y011135D02*
X005857Y011135D01*
X005993Y011234D02*
X008131Y011234D01*
X008131Y011332D02*
X006132Y011332D01*
X006289Y011431D02*
X008140Y011431D01*
X008166Y011529D02*
X006465Y011529D01*
X006666Y011628D02*
X008192Y011628D01*
X008219Y011726D02*
X006899Y011726D01*
X007208Y011825D02*
X008251Y011825D01*
X008240Y011806D02*
X008240Y011806D01*
X008308Y011923D02*
X007657Y011923D01*
X008679Y011628D02*
X009815Y011628D01*
X010011Y011529D02*
X008652Y011529D01*
X008626Y011431D02*
X010191Y011431D01*
X010343Y011332D02*
X008600Y011332D01*
X008594Y011234D02*
X010492Y011234D01*
X010613Y011135D02*
X008591Y011135D01*
X008591Y011037D02*
X010734Y011037D01*
X010845Y010938D02*
X008591Y010938D01*
X008571Y010840D02*
X010942Y010840D01*
X011040Y010741D02*
X008545Y010741D01*
X008518Y010643D02*
X011128Y010643D01*
X011206Y010544D02*
X008492Y010544D01*
X008466Y010446D02*
X011285Y010446D01*
X011360Y010347D02*
X008428Y010347D01*
X008371Y010249D02*
X011422Y010249D01*
X011484Y010150D02*
X008314Y010150D01*
X008258Y010052D02*
X011546Y010052D01*
X011600Y009953D02*
X008201Y009953D01*
X008121Y009855D02*
X011648Y009855D01*
X011696Y009756D02*
X008023Y009756D01*
X007924Y009658D02*
X011744Y009658D01*
X011781Y009559D02*
X007826Y009559D01*
X007683Y009461D02*
X011817Y009461D01*
X011852Y009362D02*
X007512Y009362D01*
X007342Y009264D02*
X011888Y009264D01*
X011912Y009165D02*
X007007Y009165D01*
X008736Y011726D02*
X009569Y011726D01*
X009271Y011825D02*
X008793Y011825D01*
D17*
X005487Y009335D03*
X013833Y016639D03*
X014621Y018489D03*
X016117Y019139D03*
X014325Y019631D03*
D18*
X014327Y019588D01*
X014332Y019546D01*
X014342Y019504D01*
X014355Y019463D01*
X014371Y019423D01*
X014391Y019385D01*
X014414Y019349D01*
X014440Y019315D01*
X014469Y019283D01*
X014501Y019254D01*
X014535Y019228D01*
X014571Y019205D01*
X014609Y019185D01*
X014649Y019169D01*
X014690Y019156D01*
X014732Y019146D01*
X014774Y019141D01*
X014817Y019139D01*
X016117Y019139D01*
X015467Y017938D02*
X015469Y017901D01*
X015474Y017865D01*
X015483Y017829D01*
X015495Y017795D01*
X015511Y017762D01*
X015530Y017730D01*
X015552Y017701D01*
X015577Y017674D01*
X015604Y017649D01*
X015633Y017627D01*
X015665Y017608D01*
X015698Y017592D01*
X015732Y017580D01*
X015768Y017571D01*
X015804Y017566D01*
X015841Y017564D01*
X015900Y017564D01*
X015467Y017938D02*
X015465Y017986D01*
X015459Y018033D01*
X015450Y018080D01*
X015437Y018127D01*
X015420Y018171D01*
X015400Y018215D01*
X015376Y018256D01*
X015349Y018296D01*
X015319Y018334D01*
X015286Y018368D01*
X015251Y018401D01*
X015213Y018430D01*
X015173Y018456D01*
X015131Y018479D01*
X015087Y018498D01*
X015042Y018514D01*
X014995Y018527D01*
X014948Y018535D01*
X014900Y018540D01*
X014853Y018541D01*
X014805Y018538D01*
X014757Y018531D01*
X014710Y018521D01*
X014665Y018507D01*
X014620Y018489D01*
X015900Y017563D02*
X015964Y017561D01*
X016028Y017556D01*
X016091Y017546D01*
X016154Y017533D01*
X016216Y017517D01*
X016277Y017497D01*
X016336Y017473D01*
X016395Y017446D01*
X016451Y017415D01*
X016506Y017382D01*
X016558Y017345D01*
X016608Y017305D01*
X016656Y017263D01*
X016702Y017217D01*
X016744Y017169D01*
X016784Y017119D01*
X016821Y017067D01*
X016854Y017012D01*
X016885Y016956D01*
X016912Y016897D01*
X016936Y016838D01*
X016956Y016777D01*
X016972Y016715D01*
X016985Y016652D01*
X016995Y016589D01*
X017000Y016525D01*
X017002Y016461D01*
X017002Y013989D01*
X017003Y013976D01*
X017008Y013963D01*
X017015Y013952D01*
X017024Y013943D01*
X017035Y013936D01*
X017048Y013931D01*
X017061Y013930D01*
X012632Y008253D02*
X012610Y008251D01*
X012589Y008246D01*
X012569Y008238D01*
X012551Y008227D01*
X012534Y008213D01*
X012520Y008196D01*
X012509Y008178D01*
X012501Y008158D01*
X012496Y008137D01*
X012494Y008115D01*
X012495Y008115D02*
X012495Y004709D01*
X012494Y004709D02*
X012492Y004659D01*
X012487Y004609D01*
X012477Y004560D01*
X012464Y004512D01*
X012448Y004465D01*
X012428Y004419D01*
X012404Y004375D01*
X012378Y004332D01*
X012348Y004292D01*
X012315Y004254D01*
X012280Y004219D01*
X012242Y004186D01*
X012202Y004156D01*
X012160Y004130D01*
X012115Y004106D01*
X012069Y004086D01*
X012022Y004070D01*
X011974Y004057D01*
X011925Y004047D01*
X011875Y004042D01*
X011825Y004040D01*
X010132Y004040D01*
X009187Y003607D02*
X009168Y003587D01*
X009168Y002800D01*
X008636Y002721D02*
X009148Y002209D01*
X015546Y002209D01*
X016589Y001166D01*
X017061Y001166D01*
X008794Y005320D02*
X008731Y005318D01*
X008668Y005313D01*
X008606Y005304D01*
X008544Y005291D01*
X008483Y005275D01*
X008424Y005255D01*
X008365Y005231D01*
X008308Y005205D01*
X008253Y005175D01*
X008199Y005142D01*
X008147Y005106D01*
X008098Y005067D01*
X008051Y005025D01*
X008006Y004980D01*
X007964Y004933D01*
X007925Y004884D01*
X007889Y004832D01*
X007856Y004779D01*
X007826Y004723D01*
X007800Y004666D01*
X007776Y004607D01*
X007756Y004548D01*
X007740Y004487D01*
X007727Y004425D01*
X007718Y004363D01*
X007713Y004300D01*
X007711Y004237D01*
D19*
X003597Y006930D02*
X003597Y011206D01*
X003597Y011205D02*
X003607Y011344D01*
X003623Y011482D01*
X003645Y011619D01*
X003675Y011754D01*
X003711Y011888D01*
X003753Y012021D01*
X003802Y012150D01*
X003858Y012278D01*
X003919Y012402D01*
X003987Y012524D01*
X004060Y012641D01*
X004139Y012756D01*
X004224Y012866D01*
X004314Y012971D01*
X004409Y013073D01*
X004509Y013169D01*
X004613Y013261D01*
X004722Y013347D01*
X004835Y013428D01*
X004952Y013503D01*
X005072Y013572D01*
X005196Y013635D01*
X005322Y013693D01*
X005451Y013744D01*
X005583Y013788D01*
X005717Y013826D01*
X005852Y013858D01*
X005988Y013882D01*
X006126Y013900D01*
X006264Y013911D01*
X006403Y013916D01*
X006542Y013914D01*
X011668Y013914D01*
X011668Y014887D02*
X012691Y014887D01*
X012691Y014906D01*
X012672Y014906D01*
X012672Y018922D01*
X003597Y006930D02*
X003600Y006824D01*
X003598Y006718D01*
X003591Y006612D01*
X003579Y006506D01*
X003562Y006402D01*
X003540Y006298D01*
X003513Y006195D01*
X003481Y006094D01*
X003445Y005994D01*
X003403Y005896D01*
X003357Y005800D01*
X003307Y005707D01*
X003252Y005616D01*
X003193Y005528D01*
X003130Y005442D01*
X003063Y005360D01*
X002992Y005281D01*
X002917Y005206D01*
X002839Y005134D01*
X002757Y005066D01*
X002673Y005002D01*
X002585Y004942D01*
X002495Y004886D01*
X002402Y004835D01*
X002307Y004788D01*
X002209Y004745D01*
X002110Y004708D01*
X002009Y004675D01*
X001907Y004647D01*
X001803Y004624D01*
X001698Y004605D01*
X001593Y004592D01*
X001487Y004584D01*
M02*
