%
M48
M72
T01C0.0236
T02C0.0400
T03C0.0500
T04C0.0512
T05C0.0591
%
T01
X7711Y4237
X9187Y3607
X10132Y4040
X10054Y5339
X12061Y3607
X9168Y2800
X8636Y2721
X6274Y5339
X7081Y7820
X9443Y7643
X12632Y8253
X5487Y9335
X13833Y16639
X14621Y18489
X16117Y19139
X14325Y19631
T02
X1487Y3583
X1487Y4583
X1487Y5583
X17061Y5166
X17061Y6166
X17061Y7930
X17061Y8930
X17061Y9930
X17061Y10930
X17061Y11930
X17061Y12930
X17061Y13930
X17061Y4166
X17061Y3166
X17061Y2166
X17061Y1166
T03
X16141Y16408
X16141Y18208
T04
X12668Y17914
X11668Y17914
X11668Y16914
X12668Y16914
X12668Y15914
X11668Y15914
X11668Y14914
X12668Y14914
X12668Y13914
X11668Y13914
X11668Y18914
X12668Y18914
T05
X11510Y11520
X4817Y11520
X4817Y4828
X11510Y4828
M30
