<?xml version="1.0" encoding="UTF-8"?>
<svg xmlns="http://www.w3.org/2000/svg" xmlns:xlink="http://www.w3.org/1999/xlink" width="140pt" height="219pt" viewBox="0 0 140 219" version="1.1">
<g id="surface2862">
<path style=" stroke:none;fill-rule:evenodd;fill:rgb(45.098039%,45.098039%,87.058824%);fill-opacity:1;" d="M 34 116 L 38 116 Z M 34 116 "/>
<path style=" stroke:none;fill-rule:evenodd;fill:rgb(45.098039%,45.098039%,87.058824%);fill-opacity:1;" d="M 34 114 L 38 114 Z M 34 114 "/>
<path style=" stroke:none;fill-rule:evenodd;fill:rgb(45.098039%,45.098039%,87.058824%);fill-opacity:1;" d="M 34 112 L 38 112 Z M 34 112 "/>
<path style=" stroke:none;fill-rule:evenodd;fill:rgb(45.098039%,45.098039%,87.058824%);fill-opacity:1;" d="M 34 110 L 38 110 Z M 34 110 "/>
<path style=" stroke:none;fill-rule:evenodd;fill:rgb(45.098039%,45.098039%,87.058824%);fill-opacity:1;" d="M 34 108 L 38 108 Z M 34 108 "/>
<path style=" stroke:none;fill-rule:evenodd;fill:rgb(45.098039%,45.098039%,87.058824%);fill-opacity:1;" d="M 34 106 L 38 106 Z M 34 106 "/>
<path style=" stroke:none;fill-rule:evenodd;fill:rgb(45.098039%,45.098039%,87.058824%);fill-opacity:1;" d="M 34 105 L 38 105 Z M 34 105 "/>
<path style=" stroke:none;fill-rule:evenodd;fill:rgb(45.098039%,45.098039%,87.058824%);fill-opacity:1;" d="M 34 103 L 38 103 Z M 34 103 "/>
<path style=" stroke:none;fill-rule:evenodd;fill:rgb(45.098039%,45.098039%,87.058824%);fill-opacity:1;" d="M 34 101 L 38 101 Z M 34 101 "/>
<path style=" stroke:none;fill-rule:evenodd;fill:rgb(45.098039%,45.098039%,87.058824%);fill-opacity:1;" d="M 34 99 L 38 99 Z M 34 99 "/>
<path style=" stroke:none;fill-rule:evenodd;fill:rgb(45.098039%,45.098039%,87.058824%);fill-opacity:1;" d="M 34 97 L 38 97 Z M 34 97 "/>
<path style=" stroke:none;fill-rule:evenodd;fill:rgb(45.098039%,45.098039%,87.058824%);fill-opacity:1;" d="M 34 95 L 38 95 Z M 34 95 "/>
<path style=" stroke:none;fill-rule:evenodd;fill:rgb(45.098039%,45.098039%,87.058824%);fill-opacity:1;" d="M 34 94 L 38 94 Z M 34 94 "/>
<path style=" stroke:none;fill-rule:evenodd;fill:rgb(45.098039%,45.098039%,87.058824%);fill-opacity:1;" d="M 34 92 L 38 92 Z M 34 92 "/>
<path style=" stroke:none;fill-rule:evenodd;fill:rgb(45.098039%,45.098039%,87.058824%);fill-opacity:1;" d="M 55 92 L 59 92 Z M 55 92 "/>
<path style=" stroke:none;fill-rule:evenodd;fill:rgb(45.098039%,45.098039%,87.058824%);fill-opacity:1;" d="M 55 94 L 59 94 Z M 55 94 "/>
<path style=" stroke:none;fill-rule:evenodd;fill:rgb(45.098039%,45.098039%,87.058824%);fill-opacity:1;" d="M 55 95 L 59 95 Z M 55 95 "/>
<path style=" stroke:none;fill-rule:evenodd;fill:rgb(45.098039%,45.098039%,87.058824%);fill-opacity:1;" d="M 55 97 L 59 97 Z M 55 97 "/>
<path style=" stroke:none;fill-rule:evenodd;fill:rgb(45.098039%,45.098039%,87.058824%);fill-opacity:1;" d="M 55 99 L 59 99 Z M 55 99 "/>
<path style=" stroke:none;fill-rule:evenodd;fill:rgb(45.098039%,45.098039%,87.058824%);fill-opacity:1;" d="M 55 101 L 59 101 Z M 55 101 "/>
<path style=" stroke:none;fill-rule:evenodd;fill:rgb(45.098039%,45.098039%,87.058824%);fill-opacity:1;" d="M 55 103 L 59 103 Z M 55 103 "/>
<path style=" stroke:none;fill-rule:evenodd;fill:rgb(45.098039%,45.098039%,87.058824%);fill-opacity:1;" d="M 55 105 L 59 105 Z M 55 105 "/>
<path style=" stroke:none;fill-rule:evenodd;fill:rgb(45.098039%,45.098039%,87.058824%);fill-opacity:1;" d="M 55 106 L 59 106 Z M 55 106 "/>
<path style=" stroke:none;fill-rule:evenodd;fill:rgb(45.098039%,45.098039%,87.058824%);fill-opacity:1;" d="M 55 108 L 59 108 Z M 55 108 "/>
<path style=" stroke:none;fill-rule:evenodd;fill:rgb(45.098039%,45.098039%,87.058824%);fill-opacity:1;" d="M 55 110 L 59 110 Z M 55 110 "/>
<path style=" stroke:none;fill-rule:evenodd;fill:rgb(45.098039%,45.098039%,87.058824%);fill-opacity:1;" d="M 55 112 L 59 112 Z M 55 112 "/>
<path style=" stroke:none;fill-rule:evenodd;fill:rgb(45.098039%,45.098039%,87.058824%);fill-opacity:1;" d="M 55 114 L 59 114 Z M 55 114 "/>
<path style=" stroke:none;fill-rule:evenodd;fill:rgb(45.098039%,45.098039%,87.058824%);fill-opacity:1;" d="M 55 116 L 59 116 Z M 55 116 "/>
<path style=" stroke:none;fill-rule:evenodd;fill:rgb(45.098039%,45.098039%,87.058824%);fill-opacity:1;" d="M 78 115 L 82 115 Z M 78 115 "/>
<path style=" stroke:none;fill-rule:evenodd;fill:rgb(45.098039%,45.098039%,87.058824%);fill-opacity:1;" d="M 78 113 L 82 113 Z M 78 113 "/>
<path style=" stroke:none;fill-rule:evenodd;fill:rgb(45.098039%,45.098039%,87.058824%);fill-opacity:1;" d="M 78 111 L 82 111 Z M 78 111 "/>
<path style=" stroke:none;fill-rule:evenodd;fill:rgb(45.098039%,45.098039%,87.058824%);fill-opacity:1;" d="M 78 109 L 82 109 Z M 78 109 "/>
<path style=" stroke:none;fill-rule:evenodd;fill:rgb(45.098039%,45.098039%,87.058824%);fill-opacity:1;" d="M 78 108 L 82 108 Z M 78 108 "/>
<path style=" stroke:none;fill-rule:evenodd;fill:rgb(45.098039%,45.098039%,87.058824%);fill-opacity:1;" d="M 78 106 L 82 106 Z M 78 106 "/>
<path style=" stroke:none;fill-rule:evenodd;fill:rgb(45.098039%,45.098039%,87.058824%);fill-opacity:1;" d="M 78 104 L 82 104 Z M 78 104 "/>
<path style=" stroke:none;fill-rule:evenodd;fill:rgb(45.098039%,45.098039%,87.058824%);fill-opacity:1;" d="M 78 102 L 82 102 Z M 78 102 "/>
<path style=" stroke:none;fill-rule:evenodd;fill:rgb(45.098039%,45.098039%,87.058824%);fill-opacity:1;" d="M 78 100 L 82 100 Z M 78 100 "/>
<path style=" stroke:none;fill-rule:evenodd;fill:rgb(45.098039%,45.098039%,87.058824%);fill-opacity:1;" d="M 78 98 L 82 98 Z M 78 98 "/>
<path style=" stroke:none;fill-rule:evenodd;fill:rgb(45.098039%,45.098039%,87.058824%);fill-opacity:1;" d="M 78 96 L 82 96 Z M 78 96 "/>
<path style=" stroke:none;fill-rule:evenodd;fill:rgb(45.098039%,45.098039%,87.058824%);fill-opacity:1;" d="M 78 117 L 82 117 Z M 78 117 "/>
<path style=" stroke:none;fill-rule:evenodd;fill:rgb(45.098039%,45.098039%,87.058824%);fill-opacity:1;" d="M 78 119 L 82 119 Z M 78 119 "/>
<path style=" stroke:none;fill-rule:evenodd;fill:rgb(45.098039%,45.098039%,87.058824%);fill-opacity:1;" d="M 78 120 L 82 120 Z M 78 120 "/>
<path style=" stroke:none;fill-rule:evenodd;fill:rgb(45.098039%,45.098039%,87.058824%);fill-opacity:1;" d="M 99 120 L 103 120 Z M 99 120 "/>
<path style=" stroke:none;fill-rule:evenodd;fill:rgb(45.098039%,45.098039%,87.058824%);fill-opacity:1;" d="M 99 119 L 103 119 Z M 99 119 "/>
<path style=" stroke:none;fill-rule:evenodd;fill:rgb(45.098039%,45.098039%,87.058824%);fill-opacity:1;" d="M 99 117 L 103 117 Z M 99 117 "/>
<path style=" stroke:none;fill-rule:evenodd;fill:rgb(45.098039%,45.098039%,87.058824%);fill-opacity:1;" d="M 99 115 L 103 115 Z M 99 115 "/>
<path style=" stroke:none;fill-rule:evenodd;fill:rgb(45.098039%,45.098039%,87.058824%);fill-opacity:1;" d="M 99 113 L 103 113 Z M 99 113 "/>
<path style=" stroke:none;fill-rule:evenodd;fill:rgb(45.098039%,45.098039%,87.058824%);fill-opacity:1;" d="M 99 111 L 103 111 Z M 99 111 "/>
<path style=" stroke:none;fill-rule:evenodd;fill:rgb(45.098039%,45.098039%,87.058824%);fill-opacity:1;" d="M 99 109 L 103 109 Z M 99 109 "/>
<path style=" stroke:none;fill-rule:evenodd;fill:rgb(45.098039%,45.098039%,87.058824%);fill-opacity:1;" d="M 99 108 L 103 108 Z M 99 108 "/>
<path style=" stroke:none;fill-rule:evenodd;fill:rgb(45.098039%,45.098039%,87.058824%);fill-opacity:1;" d="M 99 106 L 103 106 Z M 99 106 "/>
<path style=" stroke:none;fill-rule:evenodd;fill:rgb(45.098039%,45.098039%,87.058824%);fill-opacity:1;" d="M 99 104 L 103 104 Z M 99 104 "/>
<path style=" stroke:none;fill-rule:evenodd;fill:rgb(45.098039%,45.098039%,87.058824%);fill-opacity:1;" d="M 99 102 L 103 102 Z M 99 102 "/>
<path style=" stroke:none;fill-rule:evenodd;fill:rgb(45.098039%,45.098039%,87.058824%);fill-opacity:1;" d="M 99 100 L 103 100 Z M 99 100 "/>
<path style=" stroke:none;fill-rule:evenodd;fill:rgb(45.098039%,45.098039%,87.058824%);fill-opacity:1;" d="M 99 98 L 103 98 Z M 99 98 "/>
<path style=" stroke:none;fill-rule:evenodd;fill:rgb(45.098039%,45.098039%,87.058824%);fill-opacity:1;" d="M 99 96 L 103 96 Z M 99 96 "/>
<path style="fill:none;stroke-width:0.111111;stroke-linecap:round;stroke-linejoin:miter;stroke:rgb(45.098039%,45.098039%,87.058824%);stroke-opacity:1;stroke-miterlimit:10;" d="M 1.636184 1.579553 L 1.733406 1.579553 " transform="matrix(72,0,0,-72,0.19476,209.72784)"/>
<path style="fill:none;stroke-width:0.111111;stroke-linecap:round;stroke-linejoin:miter;stroke:rgb(45.098039%,45.098039%,87.058824%);stroke-opacity:1;stroke-miterlimit:10;" d="M 1.733406 1.732331 L 1.636184 1.732331 " transform="matrix(72,0,0,-72,0.19476,209.72784)"/>
<path style="fill:none;stroke-width:0.111111;stroke-linecap:round;stroke-linejoin:miter;stroke:rgb(45.098039%,45.098039%,87.058824%);stroke-opacity:1;stroke-miterlimit:10;" d="M 1.636184 1.426776 L 1.733406 1.426776 " transform="matrix(72,0,0,-72,0.19476,209.72784)"/>
<path style="fill:none;stroke-width:0.111111;stroke-linecap:round;stroke-linejoin:miter;stroke:rgb(45.098039%,45.098039%,87.058824%);stroke-opacity:1;stroke-miterlimit:10;" d="M 1.733406 1.273998 L 1.636184 1.273998 " transform="matrix(72,0,0,-72,0.19476,209.72784)"/>
<path style="fill:none;stroke-width:0.111111;stroke-linecap:round;stroke-linejoin:miter;stroke:rgb(45.098039%,45.098039%,87.058824%);stroke-opacity:1;stroke-miterlimit:10;" d="M 1.636184 1.107331 L 1.733406 1.107331 " transform="matrix(72,0,0,-72,0.19476,209.72784)"/>
<path style="fill:none;stroke-width:0.111111;stroke-linecap:round;stroke-linejoin:miter;stroke:rgb(45.098039%,45.098039%,87.058824%);stroke-opacity:1;stroke-miterlimit:10;" d="M 1.733406 0.954553 L 1.636184 0.954553 " transform="matrix(72,0,0,-72,0.19476,209.72784)"/>
<path style="fill:none;stroke-width:0.111111;stroke-linecap:round;stroke-linejoin:miter;stroke:rgb(45.098039%,45.098039%,87.058824%);stroke-opacity:1;stroke-miterlimit:10;" d="M 1.636184 0.801776 L 1.733406 0.801776 " transform="matrix(72,0,0,-72,0.19476,209.72784)"/>
<path style="fill:none;stroke-width:0.111111;stroke-linecap:round;stroke-linejoin:miter;stroke:rgb(45.098039%,45.098039%,87.058824%);stroke-opacity:1;stroke-miterlimit:10;" d="M 0.261184 0.815664 L 0.163962 0.815664 " transform="matrix(72,0,0,-72,0.19476,209.72784)"/>
<path style="fill:none;stroke-width:0.111111;stroke-linecap:round;stroke-linejoin:miter;stroke:rgb(45.098039%,45.098039%,87.058824%);stroke-opacity:1;stroke-miterlimit:10;" d="M 0.163962 0.968442 L 0.261184 0.968442 " transform="matrix(72,0,0,-72,0.19476,209.72784)"/>
<path style="fill:none;stroke-width:0.111111;stroke-linecap:round;stroke-linejoin:miter;stroke:rgb(45.098039%,45.098039%,87.058824%);stroke-opacity:1;stroke-miterlimit:10;" d="M 0.261184 1.12122 L 0.163962 1.12122 " transform="matrix(72,0,0,-72,0.19476,209.72784)"/>
<path style="fill:none;stroke-width:0.111111;stroke-linecap:round;stroke-linejoin:miter;stroke:rgb(45.098039%,45.098039%,87.058824%);stroke-opacity:1;stroke-miterlimit:10;" d="M 0.163962 1.273998 L 0.261184 1.273998 " transform="matrix(72,0,0,-72,0.19476,209.72784)"/>
<path style="fill:none;stroke-width:0.111111;stroke-linecap:round;stroke-linejoin:miter;stroke:rgb(45.098039%,45.098039%,87.058824%);stroke-opacity:1;stroke-miterlimit:10;" d="M 0.261184 1.426776 L 0.163962 1.426776 " transform="matrix(72,0,0,-72,0.19476,209.72784)"/>
<path style="fill:none;stroke-width:0.111111;stroke-linecap:round;stroke-linejoin:miter;stroke:rgb(45.098039%,45.098039%,87.058824%);stroke-opacity:1;stroke-miterlimit:10;" d="M 0.163962 1.593442 L 0.261184 1.593442 " transform="matrix(72,0,0,-72,0.19476,209.72784)"/>
<path style="fill:none;stroke-width:0.111111;stroke-linecap:round;stroke-linejoin:miter;stroke:rgb(45.098039%,45.098039%,87.058824%);stroke-opacity:1;stroke-miterlimit:10;" d="M 0.261184 1.74622 L 0.163962 1.74622 " transform="matrix(72,0,0,-72,0.19476,209.72784)"/>
<path style=" stroke:none;fill-rule:evenodd;fill:rgb(45.098039%,45.098039%,87.058824%);fill-opacity:1;" d="M 16 71 L 20 71 L 20 67 L 16 67 Z M 16 71 "/>
<path style=" stroke:none;fill-rule:evenodd;fill:rgb(45.098039%,45.098039%,87.058824%);fill-opacity:1;" d="M 16 65 L 20 65 L 20 61 L 16 61 Z M 16 65 "/>
<path style=" stroke:none;fill-rule:evenodd;fill:rgb(45.098039%,45.098039%,87.058824%);fill-opacity:1;" d="M 14 55 L 18 55 L 18 51 L 14 51 Z M 14 55 "/>
<path style=" stroke:none;fill-rule:evenodd;fill:rgb(45.098039%,45.098039%,87.058824%);fill-opacity:1;" d="M 14 50 L 18 50 L 18 46 L 14 46 Z M 14 50 "/>
<path style=" stroke:none;fill-rule:evenodd;fill:rgb(45.098039%,45.098039%,87.058824%);fill-opacity:1;" d="M 50 80 L 54 80 L 54 76 L 50 76 Z M 50 80 "/>
<path style=" stroke:none;fill-rule:evenodd;fill:rgb(45.098039%,45.098039%,87.058824%);fill-opacity:1;" d="M 50 86 L 54 86 L 54 82 L 50 82 Z M 50 86 "/>
<path style=" stroke:none;fill-rule:evenodd;fill:rgb(45.098039%,45.098039%,87.058824%);fill-opacity:1;" d="M 52 124 L 56 124 L 56 120 L 52 120 Z M 52 124 "/>
<path style=" stroke:none;fill-rule:evenodd;fill:rgb(45.098039%,45.098039%,87.058824%);fill-opacity:1;" d="M 46 124 L 50 124 L 50 120 L 46 120 Z M 46 124 "/>
<path style=" stroke:none;fill-rule:evenodd;fill:rgb(45.098039%,45.098039%,87.058824%);fill-opacity:1;" d="M 88 88 L 92 88 L 92 84 L 88 84 Z M 88 88 "/>
<path style=" stroke:none;fill-rule:evenodd;fill:rgb(45.098039%,45.098039%,87.058824%);fill-opacity:1;" d="M 93 88 L 97 88 L 97 84 L 93 84 Z M 93 88 "/>
<path style=" stroke:none;fill-rule:evenodd;fill:rgb(45.098039%,45.098039%,87.058824%);fill-opacity:1;" d="M 97.160156 35.105469 L 95.894531 33.839844 L 94.105469 33.839844 L 92.839844 35.105469 L 92.839844 36.894531 L 94.105469 38.160156 L 95.894531 38.160156 L 97.160156 36.894531 L 97.160156 35.105469 "/>
<path style=" stroke:none;fill-rule:evenodd;fill:rgb(45.098039%,45.098039%,87.058824%);fill-opacity:1;" d="M 97.160156 27.105469 L 95.894531 25.839844 L 94.105469 25.839844 L 92.839844 27.105469 L 92.839844 28.894531 L 94.105469 30.160156 L 95.894531 30.160156 L 97.160156 28.894531 L 97.160156 27.105469 "/>
<path style=" stroke:none;fill-rule:evenodd;fill:rgb(45.098039%,45.098039%,87.058824%);fill-opacity:1;" d="M 90.160156 27.105469 L 88.894531 25.839844 L 87.105469 25.839844 L 85.839844 27.105469 L 85.839844 28.894531 L 87.105469 30.160156 L 88.894531 30.160156 L 90.160156 28.894531 L 90.160156 27.105469 "/>
<path style=" stroke:none;fill-rule:evenodd;fill:rgb(45.098039%,45.098039%,87.058824%);fill-opacity:1;" d="M 90.160156 35.105469 L 88.894531 33.839844 L 87.105469 33.839844 L 85.839844 35.105469 L 85.839844 36.894531 L 87.105469 38.160156 L 88.894531 38.160156 L 90.160156 36.894531 L 90.160156 35.105469 "/>
<path style=" stroke:none;fill-rule:evenodd;fill:rgb(45.098039%,45.098039%,87.058824%);fill-opacity:1;" d="M 83.160156 35.105469 L 81.894531 33.839844 L 80.105469 33.839844 L 78.839844 35.105469 L 78.839844 36.894531 L 80.105469 38.160156 L 81.894531 38.160156 L 83.160156 36.894531 L 83.160156 35.105469 "/>
<path style=" stroke:none;fill-rule:evenodd;fill:rgb(45.098039%,45.098039%,87.058824%);fill-opacity:1;" d="M 83.160156 27.105469 L 81.894531 25.839844 L 80.105469 25.839844 L 78.839844 27.105469 L 78.839844 28.894531 L 80.105469 30.160156 L 81.894531 30.160156 L 83.160156 28.894531 L 83.160156 27.105469 "/>
<path style=" stroke:none;fill-rule:evenodd;fill:rgb(45.098039%,45.098039%,87.058824%);fill-opacity:1;" d="M 76.160156 27.105469 L 74.894531 25.839844 L 73.105469 25.839844 L 71.839844 27.105469 L 71.839844 28.894531 L 73.105469 30.160156 L 74.894531 30.160156 L 76.160156 28.894531 L 76.160156 27.105469 "/>
<path style=" stroke:none;fill-rule:evenodd;fill:rgb(45.098039%,45.098039%,87.058824%);fill-opacity:1;" d="M 76.160156 35.105469 L 74.894531 33.839844 L 73.105469 33.839844 L 71.839844 35.105469 L 71.839844 36.894531 L 73.105469 38.160156 L 74.894531 38.160156 L 76.160156 36.894531 L 76.160156 35.105469 "/>
<path style=" stroke:none;fill-rule:evenodd;fill:rgb(45.098039%,45.098039%,87.058824%);fill-opacity:1;" d="M 68.160156 35.105469 L 66.894531 33.839844 L 65.105469 33.839844 L 63.839844 35.105469 L 63.839844 36.894531 L 65.105469 38.160156 L 66.894531 38.160156 L 68.160156 36.894531 L 68.160156 35.105469 "/>
<path style=" stroke:none;fill-rule:evenodd;fill:rgb(45.098039%,45.098039%,87.058824%);fill-opacity:1;" d="M 68.160156 27.105469 L 66.894531 25.839844 L 65.105469 25.839844 L 63.839844 27.105469 L 63.839844 28.894531 L 65.105469 30.160156 L 66.894531 30.160156 L 68.160156 28.894531 L 68.160156 27.105469 "/>
<path style=" stroke:none;fill-rule:evenodd;fill:rgb(45.098039%,45.098039%,87.058824%);fill-opacity:1;" d="M 61.160156 27.105469 L 59.894531 25.839844 L 58.105469 25.839844 L 56.839844 27.105469 L 56.839844 28.894531 L 58.105469 30.160156 L 59.894531 30.160156 L 61.160156 28.894531 L 61.160156 27.105469 "/>
<path style=" stroke:none;fill-rule:evenodd;fill:rgb(45.098039%,45.098039%,87.058824%);fill-opacity:1;" d="M 61.160156 35.105469 L 59.894531 33.839844 L 58.105469 33.839844 L 56.839844 35.105469 L 56.839844 36.894531 L 58.105469 38.160156 L 59.894531 38.160156 L 61.160156 36.894531 L 61.160156 35.105469 "/>
<path style=" stroke:none;fill-rule:evenodd;fill:rgb(45.098039%,45.098039%,87.058824%);fill-opacity:1;" d="M 54.160156 35.105469 L 52.894531 33.839844 L 51.105469 33.839844 L 49.839844 35.105469 L 49.839844 36.894531 L 51.105469 38.160156 L 52.894531 38.160156 L 54.160156 36.894531 L 54.160156 35.105469 "/>
<path style=" stroke:none;fill-rule:evenodd;fill:rgb(45.098039%,45.098039%,87.058824%);fill-opacity:1;" d="M 54.160156 27.105469 L 52.894531 25.839844 L 51.105469 25.839844 L 49.839844 27.105469 L 49.839844 28.894531 L 51.105469 30.160156 L 52.894531 30.160156 L 54.160156 28.894531 L 54.160156 27.105469 "/>
<path style=" stroke:none;fill-rule:evenodd;fill:rgb(45.098039%,45.098039%,87.058824%);fill-opacity:1;" d="M 47.160156 27.105469 L 45.894531 25.839844 L 44.105469 25.839844 L 42.839844 27.105469 L 42.839844 28.894531 L 44.105469 30.160156 L 45.894531 30.160156 L 47.160156 28.894531 L 47.160156 27.105469 "/>
<path style=" stroke:none;fill-rule:evenodd;fill:rgb(45.098039%,45.098039%,87.058824%);fill-opacity:1;" d="M 47.160156 35.105469 L 45.894531 33.839844 L 44.105469 33.839844 L 42.839844 35.105469 L 42.839844 36.894531 L 44.105469 38.160156 L 45.894531 38.160156 L 47.160156 36.894531 L 47.160156 35.105469 "/>
<path style=" stroke:none;fill-rule:evenodd;fill:rgb(45.098039%,45.098039%,87.058824%);fill-opacity:1;" d="M 47.160156 186.105469 L 45.894531 184.839844 L 44.105469 184.839844 L 42.839844 186.105469 L 42.839844 187.894531 L 44.105469 189.160156 L 45.894531 189.160156 L 47.160156 187.894531 L 47.160156 186.105469 "/>
<path style=" stroke:none;fill-rule:evenodd;fill:rgb(45.098039%,45.098039%,87.058824%);fill-opacity:1;" d="M 47.160156 193.105469 L 45.894531 191.839844 L 44.105469 191.839844 L 42.839844 193.105469 L 42.839844 194.894531 L 44.105469 196.160156 L 45.894531 196.160156 L 47.160156 194.894531 L 47.160156 193.105469 "/>
<path style=" stroke:none;fill-rule:evenodd;fill:rgb(45.098039%,45.098039%,87.058824%);fill-opacity:1;" d="M 54.160156 193.105469 L 52.894531 191.839844 L 51.105469 191.839844 L 49.839844 193.105469 L 49.839844 194.894531 L 51.105469 196.160156 L 52.894531 196.160156 L 54.160156 194.894531 L 54.160156 193.105469 "/>
<path style=" stroke:none;fill-rule:evenodd;fill:rgb(45.098039%,45.098039%,87.058824%);fill-opacity:1;" d="M 54.160156 186.105469 L 52.894531 184.839844 L 51.105469 184.839844 L 49.839844 186.105469 L 49.839844 187.894531 L 51.105469 189.160156 L 52.894531 189.160156 L 54.160156 187.894531 L 54.160156 186.105469 "/>
<path style=" stroke:none;fill-rule:evenodd;fill:rgb(45.098039%,45.098039%,87.058824%);fill-opacity:1;" d="M 61.160156 186.105469 L 59.894531 184.839844 L 58.105469 184.839844 L 56.839844 186.105469 L 56.839844 187.894531 L 58.105469 189.160156 L 59.894531 189.160156 L 61.160156 187.894531 L 61.160156 186.105469 "/>
<path style=" stroke:none;fill-rule:evenodd;fill:rgb(45.098039%,45.098039%,87.058824%);fill-opacity:1;" d="M 61.160156 193.105469 L 59.894531 191.839844 L 58.105469 191.839844 L 56.839844 193.105469 L 56.839844 194.894531 L 58.105469 196.160156 L 59.894531 196.160156 L 61.160156 194.894531 L 61.160156 193.105469 "/>
<path style=" stroke:none;fill-rule:evenodd;fill:rgb(45.098039%,45.098039%,87.058824%);fill-opacity:1;" d="M 69.160156 193.105469 L 67.894531 191.839844 L 66.105469 191.839844 L 64.839844 193.105469 L 64.839844 194.894531 L 66.105469 196.160156 L 67.894531 196.160156 L 69.160156 194.894531 L 69.160156 193.105469 "/>
<path style=" stroke:none;fill-rule:evenodd;fill:rgb(45.098039%,45.098039%,87.058824%);fill-opacity:1;" d="M 69.160156 186.105469 L 67.894531 184.839844 L 66.105469 184.839844 L 64.839844 186.105469 L 64.839844 187.894531 L 66.105469 189.160156 L 67.894531 189.160156 L 69.160156 187.894531 L 69.160156 186.105469 "/>
<path style=" stroke:none;fill-rule:evenodd;fill:rgb(45.098039%,45.098039%,87.058824%);fill-opacity:1;" d="M 76.160156 186.105469 L 74.894531 184.839844 L 73.105469 184.839844 L 71.839844 186.105469 L 71.839844 187.894531 L 73.105469 189.160156 L 74.894531 189.160156 L 76.160156 187.894531 L 76.160156 186.105469 "/>
<path style=" stroke:none;fill-rule:evenodd;fill:rgb(45.098039%,45.098039%,87.058824%);fill-opacity:1;" d="M 76.160156 193.105469 L 74.894531 191.839844 L 73.105469 191.839844 L 71.839844 193.105469 L 71.839844 194.894531 L 73.105469 196.160156 L 74.894531 196.160156 L 76.160156 194.894531 L 76.160156 193.105469 "/>
<path style=" stroke:none;fill-rule:evenodd;fill:rgb(45.098039%,45.098039%,87.058824%);fill-opacity:1;" d="M 83.160156 193.105469 L 81.894531 191.839844 L 80.105469 191.839844 L 78.839844 193.105469 L 78.839844 194.894531 L 80.105469 196.160156 L 81.894531 196.160156 L 83.160156 194.894531 L 83.160156 193.105469 "/>
<path style=" stroke:none;fill-rule:evenodd;fill:rgb(45.098039%,45.098039%,87.058824%);fill-opacity:1;" d="M 83.160156 186.105469 L 81.894531 184.839844 L 80.105469 184.839844 L 78.839844 186.105469 L 78.839844 187.894531 L 80.105469 189.160156 L 81.894531 189.160156 L 83.160156 187.894531 L 83.160156 186.105469 "/>
<path style=" stroke:none;fill-rule:evenodd;fill:rgb(45.098039%,45.098039%,87.058824%);fill-opacity:1;" d="M 90.160156 186.105469 L 88.894531 184.839844 L 87.105469 184.839844 L 85.839844 186.105469 L 85.839844 187.894531 L 87.105469 189.160156 L 88.894531 189.160156 L 90.160156 187.894531 L 90.160156 186.105469 "/>
<path style=" stroke:none;fill-rule:evenodd;fill:rgb(45.098039%,45.098039%,87.058824%);fill-opacity:1;" d="M 90.160156 193.105469 L 88.894531 191.839844 L 87.105469 191.839844 L 85.839844 193.105469 L 85.839844 194.894531 L 87.105469 196.160156 L 88.894531 196.160156 L 90.160156 194.894531 L 90.160156 193.105469 "/>
<path style=" stroke:none;fill-rule:evenodd;fill:rgb(45.098039%,45.098039%,87.058824%);fill-opacity:1;" d="M 97.160156 193.105469 L 95.894531 191.839844 L 94.105469 191.839844 L 92.839844 193.105469 L 92.839844 194.894531 L 94.105469 196.160156 L 95.894531 196.160156 L 97.160156 194.894531 L 97.160156 193.105469 "/>
<path style=" stroke:none;fill-rule:evenodd;fill:rgb(45.098039%,45.098039%,87.058824%);fill-opacity:1;" d="M 97.160156 186.105469 L 95.894531 184.839844 L 94.105469 184.839844 L 92.839844 186.105469 L 92.839844 187.894531 L 94.105469 189.160156 L 95.894531 189.160156 L 97.160156 187.894531 L 97.160156 186.105469 "/>
<path style=" stroke:none;fill-rule:evenodd;fill:rgb(45.098039%,45.098039%,87.058824%);fill-opacity:1;" d="M 91 174 L 93 174 L 93 170 L 91 170 Z M 91 174 "/>
<path style=" stroke:none;fill-rule:evenodd;fill:rgb(45.098039%,45.098039%,87.058824%);fill-opacity:1;" d="M 94 168 L 96 168 L 96 164 L 94 164 Z M 94 168 "/>
<path style=" stroke:none;fill-rule:evenodd;fill:rgb(45.098039%,45.098039%,87.058824%);fill-opacity:1;" d="M 99 168 L 101 168 L 101 164 L 99 164 Z M 99 168 "/>
<path style=" stroke:none;fill-rule:evenodd;fill:rgb(45.098039%,45.098039%,87.058824%);fill-opacity:1;" d="M 101 174 L 103 174 L 103 170 L 101 170 Z M 101 174 "/>
<path style=" stroke:none;fill-rule:evenodd;fill:rgb(45.098039%,45.098039%,87.058824%);fill-opacity:1;" d="M 104 168 L 106 168 L 106 164 L 104 164 Z M 104 168 "/>
<path style=" stroke:none;fill-rule:evenodd;fill:rgb(45.098039%,45.098039%,87.058824%);fill-opacity:1;" d="M 96 158 L 98 158 L 98 154 L 96 154 Z M 96 158 "/>
<path style=" stroke:none;fill-rule:evenodd;fill:rgb(45.098039%,45.098039%,87.058824%);fill-opacity:1;" d="M 99 151 L 101 151 L 101 147 L 99 147 Z M 99 151 "/>
<path style=" stroke:none;fill-rule:evenodd;fill:rgb(45.098039%,45.098039%,87.058824%);fill-opacity:1;" d="M 94 151 L 96 151 L 96 147 L 94 147 Z M 94 151 "/>
<path style=" stroke:none;fill-rule:evenodd;fill:rgb(45.098039%,45.098039%,87.058824%);fill-opacity:1;" d="M 87 151 L 89 151 L 89 147 L 87 147 Z M 87 151 "/>
<path style=" stroke:none;fill-rule:evenodd;fill:rgb(45.098039%,45.098039%,87.058824%);fill-opacity:1;" d="M 81 151 L 83 151 L 83 147 L 81 147 Z M 81 151 "/>
<path style=" stroke:none;fill-rule:evenodd;fill:rgb(45.098039%,45.098039%,87.058824%);fill-opacity:1;" d="M 84 157 L 86 157 L 86 153 L 84 153 Z M 84 157 "/>
<path style=" stroke:none;fill-rule:evenodd;fill:rgb(45.098039%,45.098039%,87.058824%);fill-opacity:1;" d="M 82 168 L 84 168 L 84 164 L 82 164 Z M 82 168 "/>
<path style=" stroke:none;fill-rule:evenodd;fill:rgb(45.098039%,45.098039%,87.058824%);fill-opacity:1;" d="M 77 168 L 79 168 L 79 164 L 77 164 Z M 77 168 "/>
<path style=" stroke:none;fill-rule:evenodd;fill:rgb(45.098039%,45.098039%,87.058824%);fill-opacity:1;" d="M 80 174 L 82 174 L 82 170 L 80 170 Z M 80 174 "/>
<path style=" stroke:none;fill-rule:evenodd;fill:rgb(45.098039%,45.098039%,87.058824%);fill-opacity:1;" d="M 72 168 L 74 168 L 74 164 L 72 164 Z M 72 168 "/>
<path style=" stroke:none;fill-rule:evenodd;fill:rgb(45.098039%,45.098039%,87.058824%);fill-opacity:1;" d="M 69 175 L 71 175 L 71 171 L 69 171 Z M 69 175 "/>
<path style=" stroke:none;fill-rule:evenodd;fill:rgb(45.098039%,45.098039%,87.058824%);fill-opacity:1;" d="M 67 168 L 69 168 L 69 164 L 67 164 Z M 67 168 "/>
<path style=" stroke:none;fill-rule:evenodd;fill:rgb(45.098039%,45.098039%,87.058824%);fill-opacity:1;" d="M 59 168 L 61 168 L 61 164 L 59 164 Z M 59 168 "/>
<path style=" stroke:none;fill-rule:evenodd;fill:rgb(45.098039%,45.098039%,87.058824%);fill-opacity:1;" d="M 57 175 L 59 175 L 59 171 L 57 171 Z M 57 175 "/>
<path style=" stroke:none;fill-rule:evenodd;fill:rgb(45.098039%,45.098039%,87.058824%);fill-opacity:1;" d="M 54 168 L 56 168 L 56 164 L 54 164 Z M 54 168 "/>
<path style=" stroke:none;fill-rule:evenodd;fill:rgb(45.098039%,45.098039%,87.058824%);fill-opacity:1;" d="M 48 168 L 50 168 L 50 164 L 48 164 Z M 48 168 "/>
<path style=" stroke:none;fill-rule:evenodd;fill:rgb(45.098039%,45.098039%,87.058824%);fill-opacity:1;" d="M 45 175 L 47 175 L 47 171 L 45 171 Z M 45 175 "/>
<path style=" stroke:none;fill-rule:evenodd;fill:rgb(45.098039%,45.098039%,87.058824%);fill-opacity:1;" d="M 43 168 L 45 168 L 45 164 L 43 164 Z M 43 168 "/>
<path style=" stroke:none;fill-rule:evenodd;fill:rgb(45.098039%,45.098039%,87.058824%);fill-opacity:1;" d="M 35 173 L 37 173 L 37 169 L 35 169 Z M 35 173 "/>
<path style=" stroke:none;fill-rule:evenodd;fill:rgb(45.098039%,45.098039%,87.058824%);fill-opacity:1;" d="M 32 179 L 34 179 L 34 175 L 32 175 Z M 32 179 "/>
<path style=" stroke:none;fill-rule:evenodd;fill:rgb(45.098039%,45.098039%,87.058824%);fill-opacity:1;" d="M 30 173 L 32 173 L 32 169 L 30 169 Z M 30 173 "/>
<path style=" stroke:none;fill-rule:evenodd;fill:rgb(45.098039%,45.098039%,87.058824%);fill-opacity:1;" d="M 20 178 L 22 178 L 22 174 L 20 174 Z M 20 178 "/>
<path style=" stroke:none;fill-rule:evenodd;fill:rgb(45.098039%,45.098039%,87.058824%);fill-opacity:1;" d="M 18 184 L 20 184 L 20 180 L 18 180 Z M 18 184 "/>
<path style=" stroke:none;fill-rule:evenodd;fill:rgb(45.098039%,45.098039%,87.058824%);fill-opacity:1;" d="M 15 178 L 17 178 L 17 174 L 15 174 Z M 15 178 "/>
<path style=" stroke:none;fill-rule:evenodd;fill:rgb(45.098039%,45.098039%,87.058824%);fill-opacity:1;" d="M 33 151 L 35 151 L 35 147 L 33 147 Z M 33 151 "/>
<path style=" stroke:none;fill-rule:evenodd;fill:rgb(45.098039%,45.098039%,87.058824%);fill-opacity:1;" d="M 38 151 L 40 151 L 40 147 L 38 147 Z M 38 151 "/>
<path style=" stroke:none;fill-rule:evenodd;fill:rgb(45.098039%,45.098039%,87.058824%);fill-opacity:1;" d="M 36 158 L 38 158 L 38 154 L 36 154 Z M 36 158 "/>
<path style=" stroke:none;fill-rule:evenodd;fill:rgb(45.098039%,45.098039%,87.058824%);fill-opacity:1;" d="M 46 151 L 48 151 L 48 147 L 46 147 Z M 46 151 "/>
<path style=" stroke:none;fill-rule:evenodd;fill:rgb(45.098039%,45.098039%,87.058824%);fill-opacity:1;" d="M 52 151 L 54 151 L 54 147 L 52 147 Z M 52 151 "/>
<path style=" stroke:none;fill-rule:evenodd;fill:rgb(45.098039%,45.098039%,87.058824%);fill-opacity:1;" d="M 49 158 L 51 158 L 51 154 L 49 154 Z M 49 158 "/>
<path style=" stroke:none;fill-rule:evenodd;fill:rgb(45.098039%,45.098039%,87.058824%);fill-opacity:1;" d="M 60 151 L 62 151 L 62 147 L 60 147 Z M 60 151 "/>
<path style=" stroke:none;fill-rule:evenodd;fill:rgb(45.098039%,45.098039%,87.058824%);fill-opacity:1;" d="M 63 157 L 65 157 L 65 153 L 63 153 Z M 63 157 "/>
<path style=" stroke:none;fill-rule:evenodd;fill:rgb(45.098039%,45.098039%,87.058824%);fill-opacity:1;" d="M 66 151 L 68 151 L 68 147 L 66 147 Z M 66 151 "/>
<path style=" stroke:none;fill-rule:evenodd;fill:rgb(45.098039%,45.098039%,87.058824%);fill-opacity:1;" d="M 71 151 L 73 151 L 73 147 L 71 147 Z M 71 151 "/>
<path style=" stroke:none;fill-rule:evenodd;fill:rgb(45.098039%,45.098039%,87.058824%);fill-opacity:1;" d="M 74 158 L 76 158 L 76 154 L 74 154 Z M 74 158 "/>
<path style=" stroke:none;fill-rule:evenodd;fill:rgb(45.098039%,45.098039%,87.058824%);fill-opacity:1;" d="M 76 151 L 78 151 L 78 147 L 76 147 Z M 76 151 "/>
<path style=" stroke:none;fill-rule:evenodd;fill:rgb(45.098039%,45.098039%,87.058824%);fill-opacity:1;" d="M 88 168 L 90 168 L 90 164 L 88 164 Z M 88 168 "/>
<path style=" stroke:none;fill-rule:evenodd;fill:rgb(45.098039%,45.098039%,87.058824%);fill-opacity:1;" d="M 119 186 L 121 186 L 121 182 L 119 182 Z M 119 186 "/>
<path style=" stroke:none;fill-rule:evenodd;fill:rgb(45.098039%,45.098039%,87.058824%);fill-opacity:1;" d="M 121 192 L 123 192 L 123 188 L 121 188 Z M 121 192 "/>
<path style=" stroke:none;fill-rule:evenodd;fill:rgb(45.098039%,45.098039%,87.058824%);fill-opacity:1;" d="M 124 186 L 126 186 L 126 182 L 124 182 Z M 124 186 "/>
<path style=" stroke:none;fill-rule:evenodd;fill:rgb(45.098039%,45.098039%,87.058824%);fill-opacity:1;" d="M 65 66 L 67 66 L 67 62 L 65 62 Z M 65 66 "/>
<path style=" stroke:none;fill-rule:evenodd;fill:rgb(45.098039%,45.098039%,87.058824%);fill-opacity:1;" d="M 63 60 L 65 60 L 65 56 L 63 56 Z M 63 60 "/>
<path style=" stroke:none;fill-rule:evenodd;fill:rgb(45.098039%,45.098039%,87.058824%);fill-opacity:1;" d="M 60 66 L 62 66 L 62 62 L 60 62 Z M 60 66 "/>
<path style=" stroke:none;fill-rule:evenodd;fill:rgb(45.098039%,45.098039%,87.058824%);fill-opacity:1;" d="M 59 52 L 61 52 L 61 48 L 59 48 Z M 59 52 "/>
<path style=" stroke:none;fill-rule:evenodd;fill:rgb(45.098039%,45.098039%,87.058824%);fill-opacity:1;" d="M 56 45 L 58 45 L 58 41 L 56 41 Z M 56 45 "/>
<path style=" stroke:none;fill-rule:evenodd;fill:rgb(45.098039%,45.098039%,87.058824%);fill-opacity:1;" d="M 53 52 L 55 52 L 55 48 L 53 48 Z M 53 52 "/>
<path style=" stroke:none;fill-rule:evenodd;fill:rgb(45.098039%,45.098039%,87.058824%);fill-opacity:1;" d="M 49 51 L 51 51 L 51 47 L 49 47 Z M 49 51 "/>
<path style=" stroke:none;fill-rule:evenodd;fill:rgb(45.098039%,45.098039%,87.058824%);fill-opacity:1;" d="M 47 45 L 49 45 L 49 41 L 47 41 Z M 47 45 "/>
<path style=" stroke:none;fill-rule:evenodd;fill:rgb(45.098039%,45.098039%,87.058824%);fill-opacity:1;" d="M 44 51 L 46 51 L 46 47 L 44 47 Z M 44 51 "/>
<path style=" stroke:none;fill-rule:evenodd;fill:rgb(45.098039%,45.098039%,87.058824%);fill-opacity:1;" d="M 40 52 L 42 52 L 42 48 L 40 48 Z M 40 52 "/>
<path style=" stroke:none;fill-rule:evenodd;fill:rgb(45.098039%,45.098039%,87.058824%);fill-opacity:1;" d="M 37 46 L 39 46 L 39 42 L 37 42 Z M 37 46 "/>
<path style=" stroke:none;fill-rule:evenodd;fill:rgb(45.098039%,45.098039%,87.058824%);fill-opacity:1;" d="M 34 52 L 36 52 L 36 48 L 34 48 Z M 34 52 "/>
<path style=" stroke:none;fill-rule:evenodd;fill:rgb(45.098039%,45.098039%,87.058824%);fill-opacity:1;" d="M 29 51 L 31 51 L 31 47 L 29 47 Z M 29 51 "/>
<path style=" stroke:none;fill-rule:evenodd;fill:rgb(45.098039%,45.098039%,87.058824%);fill-opacity:1;" d="M 26 45 L 28 45 L 28 41 L 26 41 Z M 26 45 "/>
<path style=" stroke:none;fill-rule:evenodd;fill:rgb(45.098039%,45.098039%,87.058824%);fill-opacity:1;" d="M 23 51 L 25 51 L 25 47 L 23 47 Z M 23 51 "/>
<path style=" stroke:none;fill-rule:evenodd;fill:rgb(45.098039%,45.098039%,87.058824%);fill-opacity:1;" d="M 64 52 L 66 52 L 66 48 L 64 48 Z M 64 52 "/>
<path style=" stroke:none;fill-rule:evenodd;fill:rgb(45.098039%,45.098039%,87.058824%);fill-opacity:1;" d="M 69 52 L 71 52 L 71 48 L 69 48 Z M 69 52 "/>
<path style=" stroke:none;fill-rule:evenodd;fill:rgb(45.098039%,45.098039%,87.058824%);fill-opacity:1;" d="M 66 45 L 68 45 L 68 41 L 66 41 Z M 66 45 "/>
<path style=" stroke:none;fill-rule:evenodd;fill:rgb(45.098039%,45.098039%,87.058824%);fill-opacity:1;" d="M 75 52 L 77 52 L 77 48 L 75 48 Z M 75 52 "/>
<path style=" stroke:none;fill-rule:evenodd;fill:rgb(45.098039%,45.098039%,87.058824%);fill-opacity:1;" d="M 77 45 L 79 45 L 79 41 L 77 41 Z M 77 45 "/>
<path style=" stroke:none;fill-rule:evenodd;fill:rgb(45.098039%,45.098039%,87.058824%);fill-opacity:1;" d="M 80 52 L 82 52 L 82 48 L 80 48 Z M 80 52 "/>
<path style=" stroke:none;fill-rule:evenodd;fill:rgb(45.098039%,45.098039%,87.058824%);fill-opacity:1;" d="M 86 51 L 88 51 L 88 47 L 86 47 Z M 86 51 "/>
<path style=" stroke:none;fill-rule:evenodd;fill:rgb(45.098039%,45.098039%,87.058824%);fill-opacity:1;" d="M 88 45 L 90 45 L 90 41 L 88 41 Z M 88 45 "/>
<path style=" stroke:none;fill-rule:evenodd;fill:rgb(45.098039%,45.098039%,87.058824%);fill-opacity:1;" d="M 91 51 L 93 51 L 93 47 L 91 47 Z M 91 51 "/>
<path style=" stroke:none;fill-rule:evenodd;fill:rgb(45.098039%,45.098039%,87.058824%);fill-opacity:1;" d="M 100 53 L 102 53 L 102 49 L 100 49 Z M 100 53 "/>
<path style=" stroke:none;fill-rule:evenodd;fill:rgb(45.098039%,45.098039%,87.058824%);fill-opacity:1;" d="M 103 47 L 105 47 L 105 43 L 103 43 Z M 103 47 "/>
<path style=" stroke:none;fill-rule:evenodd;fill:rgb(45.098039%,45.098039%,87.058824%);fill-opacity:1;" d="M 105 53 L 107 53 L 107 49 L 105 49 Z M 105 53 "/>
<path style=" stroke:none;fill-rule:evenodd;fill:rgb(45.098039%,45.098039%,87.058824%);fill-opacity:1;" d="M 108 40 L 112 40 L 112 38 L 108 38 Z M 108 40 "/>
<path style=" stroke:none;fill-rule:evenodd;fill:rgb(45.098039%,45.098039%,87.058824%);fill-opacity:1;" d="M 115 43 L 119 43 L 119 41 L 115 41 Z M 115 43 "/>
<path style=" stroke:none;fill-rule:evenodd;fill:rgb(45.098039%,45.098039%,87.058824%);fill-opacity:1;" d="M 115 37 L 119 37 L 119 35 L 115 35 Z M 115 37 "/>
<path style=" stroke:none;fill-rule:evenodd;fill:rgb(45.098039%,45.098039%,87.058824%);fill-opacity:1;" d="M 106 20 L 110 20 L 110 18 L 106 18 Z M 106 20 "/>
<path style=" stroke:none;fill-rule:evenodd;fill:rgb(45.098039%,45.098039%,87.058824%);fill-opacity:1;" d="M 106 15 L 110 15 L 110 13 L 106 13 Z M 106 15 "/>
<path style=" stroke:none;fill-rule:evenodd;fill:rgb(45.098039%,45.098039%,87.058824%);fill-opacity:1;" d="M 99 18 L 103 18 L 103 16 L 99 16 Z M 99 18 "/>
<path style=" stroke:none;fill-rule:evenodd;fill:rgb(45.098039%,45.098039%,87.058824%);fill-opacity:1;" d="M 88 17 L 92 17 L 92 15 L 88 15 Z M 88 17 "/>
<path style=" stroke:none;fill-rule:evenodd;fill:rgb(45.098039%,45.098039%,87.058824%);fill-opacity:1;" d="M 82 15 L 86 15 L 86 13 L 82 13 Z M 82 15 "/>
<path style=" stroke:none;fill-rule:evenodd;fill:rgb(45.098039%,45.098039%,87.058824%);fill-opacity:1;" d="M 82 20 L 86 20 L 86 18 L 82 18 Z M 82 20 "/>
<path style=" stroke:none;fill-rule:evenodd;fill:rgb(45.098039%,45.098039%,87.058824%);fill-opacity:1;" d="M 69 17 L 73 17 L 73 15 L 69 15 Z M 69 17 "/>
<path style=" stroke:none;fill-rule:evenodd;fill:rgb(45.098039%,45.098039%,87.058824%);fill-opacity:1;" d="M 63 19 L 67 19 L 67 17 L 63 17 Z M 63 19 "/>
<path style=" stroke:none;fill-rule:evenodd;fill:rgb(45.098039%,45.098039%,87.058824%);fill-opacity:1;" d="M 63 14 L 67 14 L 67 12 L 63 12 Z M 63 14 "/>
<path style=" stroke:none;fill-rule:evenodd;fill:rgb(45.098039%,45.098039%,87.058824%);fill-opacity:1;" d="M 47 17 L 51 17 L 51 15 L 47 15 Z M 47 17 "/>
<path style=" stroke:none;fill-rule:evenodd;fill:rgb(45.098039%,45.098039%,87.058824%);fill-opacity:1;" d="M 40 15 L 44 15 L 44 13 L 40 13 Z M 40 15 "/>
<path style=" stroke:none;fill-rule:evenodd;fill:rgb(45.098039%,45.098039%,87.058824%);fill-opacity:1;" d="M 40 20 L 44 20 L 44 18 L 40 18 Z M 40 20 "/>
<path style=" stroke:none;fill-rule:evenodd;fill:rgb(45.098039%,45.098039%,87.058824%);fill-opacity:1;" d="M 24 21 L 28 21 L 28 19 L 24 19 Z M 24 21 "/>
<path style=" stroke:none;fill-rule:evenodd;fill:rgb(45.098039%,45.098039%,87.058824%);fill-opacity:1;" d="M 18 19 L 22 19 L 22 17 L 18 17 Z M 18 19 "/>
<path style=" stroke:none;fill-rule:evenodd;fill:rgb(45.098039%,45.098039%,87.058824%);fill-opacity:1;" d="M 18 24 L 22 24 L 22 22 L 18 22 Z M 18 24 "/>
<path style=" stroke:none;fill-rule:evenodd;fill:rgb(45.098039%,45.098039%,87.058824%);fill-opacity:1;" d="M 20.550781 201 C 20.550781 197.933594 18.066406 195.449219 15 195.449219 C 11.933594 195.449219 9.449219 197.933594 9.449219 201 C 9.449219 204.066406 11.933594 206.550781 15 206.550781 C 18.066406 206.550781 20.550781 204.066406 20.550781 201 "/>
<path style=" stroke:none;fill-rule:evenodd;fill:rgb(45.098039%,45.098039%,87.058824%);fill-opacity:1;" d="M 130.550781 201 C 130.550781 197.933594 128.066406 195.449219 125 195.449219 C 121.933594 195.449219 119.449219 197.933594 119.449219 201 C 119.449219 204.066406 121.933594 206.550781 125 206.550781 C 128.066406 206.550781 130.550781 204.066406 130.550781 201 "/>
</g>
</svg>
