G75*
G70*
%OFA0B0*%
%FSLAX24Y24*%
%IPPOS*%
%LPD*%
%AMOC8*
5,1,8,0,0,1.08239X$1,22.5*
%
%ADD10C,0.0000*%
%ADD11C,0.1044*%
%ADD12OC8,0.0600*%
%ADD13C,0.1542*%
D10*
X000860Y000100D02*
X000900Y027856D01*
X018601Y027844D01*
X018577Y000100D01*
X000860Y000100D01*
D11*
X001587Y008096D02*
X002591Y008096D01*
X002591Y009655D02*
X001587Y009655D01*
X001587Y011214D02*
X002591Y011214D01*
X002591Y012773D02*
X001587Y012773D01*
X001587Y014332D02*
X002591Y014332D01*
X002591Y015891D02*
X001587Y015891D01*
X001587Y017450D02*
X002591Y017450D01*
X016311Y017364D02*
X017315Y017364D01*
X017315Y015805D02*
X016311Y015805D01*
X016311Y014246D02*
X017315Y014246D01*
X017315Y012687D02*
X016311Y012687D01*
X016311Y011128D02*
X017315Y011128D01*
X017315Y009569D02*
X016311Y009569D01*
X016311Y008009D02*
X017315Y008009D01*
D12*
X013215Y003155D03*
X013215Y002155D03*
X012215Y002155D03*
X012215Y003155D03*
X011215Y003155D03*
X011215Y002155D03*
X010215Y002155D03*
X010215Y003155D03*
X009215Y003155D03*
X009215Y002155D03*
X008215Y002155D03*
X008215Y003155D03*
X007215Y003155D03*
X007215Y002155D03*
X006215Y002155D03*
X006215Y003155D03*
X006199Y024198D03*
X006199Y025198D03*
X007199Y025198D03*
X007199Y024198D03*
X008199Y024198D03*
X008199Y025198D03*
X009199Y025198D03*
X009199Y024198D03*
X010199Y024198D03*
X010199Y025198D03*
X011199Y025198D03*
X011199Y024198D03*
X012199Y024198D03*
X012199Y025198D03*
X013199Y025198D03*
X013199Y024198D03*
D13*
X017396Y001281D03*
X002042Y001281D03*
M02*
