%
M48
M72
T01C0.0236
T02C0.0240
T03C0.0360
T04C0.0669
T05C0.1102
%
T01
X2947Y5218
X4994Y6557
X5506Y8880
X6097Y9234
X6687Y9549
X6000Y10240
X6451Y10730
X6530Y11202
X5820Y12480
X6097Y13092
X5585Y14076
X4503Y13574
X4325Y14273
X3813Y15376
X3577Y14509
X3695Y13092
X3892Y12344
X5191Y12383
X6804Y14283
X8380Y13840
X9140Y12980
X8470Y12640
X8280Y11940
X9168Y13840
X10160Y11100
X11412Y11754
X11727Y13171
X12790Y13998
X13065Y14824
X13262Y14313
X12514Y14943
X12671Y15927
X12149Y15936
X13301Y16635
X13538Y15809
X15309Y15848
X15309Y14943
X12960Y11620
X13734Y10021
X14325Y9706
X14551Y10560
X13892Y8919
X14572Y8611
X14719Y7974
X15112Y7502
X15585Y7108
X15050Y6060
X14207Y3880
X13090Y6590
X11560Y6590
X10112Y6635
X9522Y7383
X9561Y7895
X9168Y8998
X8183Y7423
X8420Y6635
X6805Y6596
X7357Y8880
X10664Y8958
X12160Y8919
X17360Y5364
X17829Y4352
X10231Y18347
X9168Y19706
X8026Y20021
X7435Y21635
X6687Y20100
X6215Y21675
X5860Y23210
X4837Y21714
X4876Y20494
X4985Y19876
X5400Y19250
X5664Y18210
X5320Y17200
X3140Y19560
X3238Y21131
X3341Y21754
X2430Y21050
X1845Y21084
X2357Y23250
X2671Y25336
X2160Y26675
X2790Y27108
X4246Y24864
X5073Y27187
X5860Y25966
X8341Y27147
X10703Y26439
X13341Y27344
X14443Y25730
X16097Y26439
X17002Y23368
X13026Y21596
X12514Y20100
X11648Y21242
X10664Y21635
X10231Y21320
X10467Y20730
X8971Y21675
T02
X10309Y16635
X10506Y15454
X10034Y15139
X12120Y15454
X13853Y16635
X14640Y16635
X7160Y16635
X7160Y15848
X7160Y15061
X6372Y15061
X5703Y14667
X6057Y14194
X6057Y13604
X5585Y15454
X4010Y13565
X3341Y13998
X5260Y11802
T03
X6215Y3155
X6215Y2155
X7215Y2155
X7215Y3155
X8215Y3155
X8215Y2155
X9215Y2155
X9215Y3155
X10215Y3155
X10215Y2155
X11215Y2155
X11215Y3155
X12215Y3155
X12215Y2155
X13215Y2155
X13215Y3155
X13199Y24198
X13199Y25198
X12199Y25198
X12199Y24198
X11199Y24198
X11199Y25198
X10199Y25198
X10199Y24198
X9199Y24198
X9199Y25198
X8199Y25198
X8199Y24198
X7199Y24198
X7199Y25198
X6199Y25198
X6199Y24198
T04
X2089Y17450
X2089Y15891
X2089Y14332
X2089Y12773
X2089Y11214
X2089Y9655
X2089Y8096
X16813Y8009
X16813Y9569
X16813Y11128
X16813Y12687
X16813Y14246
X16813Y15805
X16813Y17364
T05
X2042Y1281
X17396Y1281
M30
