G75*
G70*
%OFA0B0*%
%FSLAX24Y24*%
%IPPOS*%
%LPD*%
%AMOC8*
5,1,8,0,0,1.08239X$1,22.5*
%
%ADD10C,0.0000*%
%ADD11C,0.0060*%
%ADD12C,0.0050*%
%ADD13C,0.0040*%
D10*
X000860Y000100D02*
X000900Y027856D01*
X018601Y027844D01*
X018577Y000100D01*
X000860Y000100D01*
D11*
X005355Y012685D02*
X007500Y012685D01*
X007500Y016759D01*
X005355Y016759D01*
X005355Y012685D01*
X005548Y013049D02*
X005550Y013075D01*
X005556Y013101D01*
X005565Y013126D01*
X005578Y013149D01*
X005594Y013170D01*
X005613Y013188D01*
X005635Y013204D01*
X005658Y013216D01*
X005683Y013224D01*
X005709Y013229D01*
X005736Y013230D01*
X005762Y013227D01*
X005787Y013220D01*
X005812Y013210D01*
X005834Y013196D01*
X005855Y013179D01*
X005872Y013160D01*
X005887Y013138D01*
X005898Y013114D01*
X005906Y013088D01*
X005910Y013062D01*
X005910Y013036D01*
X005906Y013010D01*
X005898Y012984D01*
X005887Y012960D01*
X005872Y012938D01*
X005855Y012919D01*
X005834Y012902D01*
X005812Y012888D01*
X005787Y012878D01*
X005762Y012871D01*
X005736Y012868D01*
X005709Y012869D01*
X005683Y012874D01*
X005658Y012882D01*
X005635Y012894D01*
X005613Y012910D01*
X005594Y012928D01*
X005578Y012949D01*
X005565Y012972D01*
X005556Y012997D01*
X005550Y013023D01*
X005548Y013049D01*
X011504Y012027D02*
X013650Y012027D01*
X013650Y016102D01*
X011504Y016102D01*
X011504Y012027D01*
X013095Y015738D02*
X013097Y015764D01*
X013103Y015790D01*
X013112Y015815D01*
X013125Y015838D01*
X013141Y015859D01*
X013160Y015877D01*
X013182Y015893D01*
X013205Y015905D01*
X013230Y015913D01*
X013256Y015918D01*
X013283Y015919D01*
X013309Y015916D01*
X013334Y015909D01*
X013359Y015899D01*
X013381Y015885D01*
X013402Y015868D01*
X013419Y015849D01*
X013434Y015827D01*
X013445Y015803D01*
X013453Y015777D01*
X013457Y015751D01*
X013457Y015725D01*
X013453Y015699D01*
X013445Y015673D01*
X013434Y015649D01*
X013419Y015627D01*
X013402Y015608D01*
X013381Y015591D01*
X013359Y015577D01*
X013334Y015567D01*
X013309Y015560D01*
X013283Y015557D01*
X013256Y015558D01*
X013230Y015563D01*
X013205Y015571D01*
X013182Y015583D01*
X013160Y015599D01*
X013141Y015617D01*
X013125Y015638D01*
X013112Y015661D01*
X013103Y015686D01*
X013097Y015712D01*
X013095Y015738D01*
D12*
X013028Y016265D02*
X013028Y016865D01*
X013103Y016790D02*
X012953Y016790D01*
X012878Y016715D01*
X012953Y016565D02*
X013103Y016565D01*
X013178Y016640D01*
X013178Y016715D01*
X013103Y016790D01*
X013338Y016790D02*
X013338Y016415D01*
X013413Y016340D01*
X013564Y016340D01*
X013639Y016415D01*
X013639Y016790D01*
X013178Y016415D02*
X013103Y016340D01*
X012953Y016340D01*
X012878Y016415D01*
X012878Y016490D01*
X012953Y016565D01*
X012718Y016640D02*
X012568Y016790D01*
X012568Y016340D01*
X012718Y016340D02*
X012418Y016340D01*
X006697Y012447D02*
X006697Y012072D01*
X006622Y011997D01*
X006472Y011997D01*
X006397Y012072D01*
X006397Y012447D01*
X006237Y012372D02*
X006162Y012447D01*
X006011Y012447D01*
X005936Y012372D01*
X005776Y012372D02*
X005701Y012447D01*
X005551Y012447D01*
X005476Y012372D01*
X005476Y012297D01*
X005776Y011997D01*
X005476Y011997D01*
X005936Y012072D02*
X005936Y012147D01*
X006011Y012222D01*
X006162Y012222D01*
X006237Y012297D01*
X006237Y012372D01*
X006086Y012522D02*
X006086Y011922D01*
X006011Y011997D02*
X005936Y012072D01*
X006011Y011997D02*
X006162Y011997D01*
X006237Y012072D01*
D13*
X006694Y012579D02*
X007001Y012579D01*
X006694Y012886D01*
X006694Y012963D01*
X006770Y013039D01*
X006924Y013039D01*
X007001Y012963D01*
X007154Y012963D02*
X007231Y013039D01*
X007461Y013039D01*
X007461Y012579D01*
X007461Y012733D02*
X007231Y012733D01*
X007154Y012809D01*
X007154Y012963D01*
X007307Y012733D02*
X007154Y012579D01*
X006709Y017359D02*
X006248Y017359D01*
X006402Y017359D02*
X006402Y017589D01*
X006478Y017666D01*
X006632Y017666D01*
X006709Y017589D01*
X006709Y017359D01*
X006402Y017513D02*
X006248Y017666D01*
X006325Y017819D02*
X006248Y017896D01*
X006248Y018050D01*
X006325Y018126D01*
X006478Y018126D01*
X006555Y018050D01*
X006555Y017973D01*
X006478Y017819D01*
X006709Y017819D01*
X006709Y018126D01*
X008408Y021409D02*
X008331Y021486D01*
X008331Y021793D01*
X008638Y021486D01*
X008561Y021409D01*
X008408Y021409D01*
X008638Y021486D02*
X008638Y021793D01*
X008561Y021870D01*
X008408Y021870D01*
X008331Y021793D01*
X008792Y021793D02*
X008868Y021870D01*
X009022Y021870D01*
X009099Y021793D01*
X009252Y021793D02*
X009252Y021486D01*
X009329Y021409D01*
X009482Y021409D01*
X009559Y021486D01*
X009559Y021793D01*
X009482Y021870D01*
X009329Y021870D01*
X009252Y021793D01*
X009406Y021563D02*
X009252Y021409D01*
X009099Y021409D02*
X008792Y021716D01*
X008792Y021793D01*
X008792Y021409D02*
X009099Y021409D01*
X009142Y023425D02*
X008835Y023425D01*
X008594Y023502D02*
X008594Y023809D01*
X008518Y023886D01*
X008364Y023886D01*
X008287Y023809D01*
X008287Y023502D01*
X008364Y023425D01*
X008518Y023425D01*
X008594Y023502D01*
X008441Y023579D02*
X008287Y023425D01*
X008134Y023425D02*
X007827Y023732D01*
X007827Y023809D01*
X007904Y023886D01*
X008057Y023886D01*
X008134Y023809D01*
X008134Y023425D02*
X007827Y023425D01*
X007674Y023425D02*
X007367Y023425D01*
X007331Y023533D02*
X007254Y023457D01*
X007100Y023457D01*
X007024Y023533D01*
X007024Y023840D01*
X007100Y023917D01*
X007254Y023917D01*
X007331Y023840D01*
X007331Y023533D01*
X007177Y023610D02*
X007024Y023457D01*
X006870Y023457D02*
X006563Y023457D01*
X006717Y023457D02*
X006717Y023917D01*
X006870Y023764D01*
X006410Y023764D02*
X006410Y023840D01*
X006333Y023917D01*
X006180Y023917D01*
X006103Y023840D01*
X006103Y023764D01*
X006180Y023687D01*
X006333Y023687D01*
X006410Y023764D01*
X006333Y023687D02*
X006410Y023610D01*
X006410Y023533D01*
X006333Y023457D01*
X006180Y023457D01*
X006103Y023533D01*
X006103Y023610D01*
X006180Y023687D01*
X005964Y023801D02*
X005964Y023494D01*
X005888Y023417D01*
X005734Y023417D01*
X005658Y023494D01*
X005658Y023801D01*
X005734Y023878D01*
X005888Y023878D01*
X005964Y023801D01*
X005811Y023571D02*
X005658Y023417D01*
X005504Y023417D02*
X005197Y023417D01*
X005351Y023417D02*
X005351Y023878D01*
X005504Y023724D01*
X005044Y023724D02*
X004967Y023647D01*
X004737Y023647D01*
X004737Y023494D02*
X004737Y023801D01*
X004814Y023878D01*
X004967Y023878D01*
X005044Y023801D01*
X005044Y023724D01*
X005044Y023494D02*
X004967Y023417D01*
X004814Y023417D01*
X004737Y023494D01*
X004472Y023612D02*
X004396Y023535D01*
X004242Y023535D01*
X004165Y023612D01*
X004165Y023919D01*
X004242Y023996D01*
X004396Y023996D01*
X004472Y023919D01*
X004472Y023612D01*
X004319Y023689D02*
X004165Y023535D01*
X004012Y023535D02*
X003705Y023535D01*
X003859Y023535D02*
X003859Y023996D01*
X004012Y023842D01*
X003552Y023766D02*
X003552Y023612D01*
X003475Y023535D01*
X003321Y023535D01*
X003245Y023612D01*
X003245Y023689D01*
X003321Y023766D01*
X003552Y023766D01*
X003398Y023919D01*
X003245Y023996D01*
X002631Y022515D02*
X002631Y022208D01*
X002631Y022361D02*
X003091Y022361D01*
X002938Y022208D01*
X003015Y022054D02*
X002861Y022054D01*
X002784Y021978D01*
X002784Y021748D01*
X002784Y021901D02*
X002631Y022054D01*
X002631Y021748D02*
X003091Y021748D01*
X003091Y021978D01*
X003015Y022054D01*
X003023Y020325D02*
X002947Y020325D01*
X002870Y020248D01*
X002870Y020095D01*
X002947Y020018D01*
X002870Y019865D02*
X003023Y019711D01*
X003023Y019788D02*
X003023Y019558D01*
X002870Y019558D02*
X003330Y019558D01*
X003330Y019788D01*
X003254Y019865D01*
X003100Y019865D01*
X003023Y019788D01*
X003254Y020018D02*
X003330Y020095D01*
X003330Y020248D01*
X003254Y020325D01*
X003177Y020325D01*
X003100Y020248D01*
X003023Y020325D01*
X003100Y020248D02*
X003100Y020172D01*
X004018Y025571D02*
X003941Y025648D01*
X003941Y025801D01*
X004018Y025878D01*
X004325Y025878D01*
X004402Y025801D01*
X004402Y025648D01*
X004325Y025571D01*
X004018Y025571D01*
X004095Y025724D02*
X003941Y025878D01*
X003941Y026031D02*
X003941Y026338D01*
X003941Y026185D02*
X004402Y026185D01*
X004248Y026031D01*
X004402Y026492D02*
X004402Y026799D01*
X004325Y026799D01*
X004018Y026492D01*
X003941Y026492D01*
X007060Y026429D02*
X007213Y026275D01*
X007060Y026199D02*
X007136Y026122D01*
X007443Y026122D01*
X007520Y026199D01*
X007520Y026352D01*
X007443Y026429D01*
X007136Y026429D01*
X007060Y026352D01*
X007060Y026199D01*
X007060Y026582D02*
X007367Y026889D01*
X007443Y026889D01*
X007520Y026813D01*
X007520Y026659D01*
X007443Y026582D01*
X007060Y026582D02*
X007060Y026889D01*
X007136Y027043D02*
X007060Y027119D01*
X007060Y027273D01*
X007136Y027350D01*
X007213Y027350D01*
X007290Y027273D01*
X007290Y027196D01*
X007290Y027273D02*
X007367Y027350D01*
X007443Y027350D01*
X007520Y027273D01*
X007520Y027119D01*
X007443Y027043D01*
X007520Y023886D02*
X007520Y023425D01*
X007674Y023732D02*
X007520Y023886D01*
X008835Y023809D02*
X008912Y023886D01*
X009065Y023886D01*
X009142Y023809D01*
X009296Y023809D02*
X009372Y023886D01*
X009526Y023886D01*
X009603Y023809D01*
X009756Y023809D02*
X009756Y023502D01*
X009833Y023425D01*
X009986Y023425D01*
X010063Y023502D01*
X010063Y023809D01*
X009986Y023886D01*
X009833Y023886D01*
X009756Y023809D01*
X009909Y023579D02*
X009756Y023425D01*
X009603Y023425D02*
X009296Y023732D01*
X009296Y023809D01*
X009296Y023425D02*
X009603Y023425D01*
X009142Y023425D02*
X008835Y023732D01*
X008835Y023809D01*
X010355Y023655D02*
X010662Y023655D01*
X010432Y023886D01*
X010432Y023425D01*
X010815Y023425D02*
X011122Y023425D01*
X010815Y023732D01*
X010815Y023809D01*
X010892Y023886D01*
X011045Y023886D01*
X011122Y023809D01*
X011276Y023809D02*
X011276Y023502D01*
X011352Y023425D01*
X011506Y023425D01*
X011583Y023502D01*
X011583Y023809D01*
X011506Y023886D01*
X011352Y023886D01*
X011276Y023809D01*
X011429Y023579D02*
X011276Y023425D01*
X011875Y023541D02*
X011875Y023618D01*
X011951Y023695D01*
X012181Y023695D01*
X012181Y023541D01*
X012105Y023464D01*
X011951Y023464D01*
X011875Y023541D01*
X012181Y023695D02*
X012028Y023848D01*
X011875Y023925D01*
X012335Y023848D02*
X012412Y023925D01*
X012565Y023925D01*
X012642Y023848D01*
X012795Y023848D02*
X012795Y023541D01*
X012872Y023464D01*
X013026Y023464D01*
X013102Y023541D01*
X013102Y023848D01*
X013026Y023925D01*
X012872Y023925D01*
X012795Y023848D01*
X012949Y023618D02*
X012795Y023464D01*
X012642Y023464D02*
X012335Y023771D01*
X012335Y023848D01*
X012335Y023464D02*
X012642Y023464D01*
X013875Y023429D02*
X013875Y023352D01*
X013951Y023276D01*
X014105Y023276D01*
X014181Y023352D01*
X014181Y023429D01*
X014105Y023506D01*
X013951Y023506D01*
X013875Y023429D01*
X013951Y023506D02*
X013875Y023582D01*
X013875Y023659D01*
X013951Y023736D01*
X014105Y023736D01*
X014181Y023659D01*
X014181Y023582D01*
X014105Y023506D01*
X014335Y023582D02*
X014335Y023659D01*
X014412Y023736D01*
X014565Y023736D01*
X014642Y023659D01*
X014585Y023563D02*
X014508Y023640D01*
X014508Y023794D01*
X014585Y023870D01*
X014662Y023870D01*
X014739Y023794D01*
X014739Y023717D01*
X014739Y023794D02*
X014815Y023870D01*
X014892Y023870D01*
X014969Y023794D01*
X014969Y023640D01*
X014892Y023563D01*
X014795Y023659D02*
X014795Y023352D01*
X014872Y023276D01*
X015026Y023276D01*
X015102Y023352D01*
X015102Y023659D01*
X015026Y023736D01*
X014872Y023736D01*
X014795Y023659D01*
X014892Y023410D02*
X014585Y023410D01*
X014508Y023333D01*
X014508Y023180D01*
X014585Y023103D01*
X014892Y023103D01*
X014969Y023180D01*
X014969Y023333D01*
X014892Y023410D01*
X014949Y023429D02*
X014795Y023276D01*
X014662Y023256D02*
X014508Y023410D01*
X014642Y023276D02*
X014335Y023276D01*
X014335Y023582D02*
X014642Y023276D01*
X014585Y024024D02*
X014892Y024331D01*
X014585Y024331D01*
X014508Y024254D01*
X014508Y024101D01*
X014585Y024024D01*
X014892Y024024D01*
X014969Y024101D01*
X014969Y024254D01*
X014892Y024331D01*
X013632Y026201D02*
X013709Y026278D01*
X013709Y026432D01*
X013632Y026508D01*
X013325Y026508D01*
X013249Y026432D01*
X013249Y026278D01*
X013325Y026201D01*
X013632Y026201D01*
X013632Y026662D02*
X013709Y026739D01*
X013709Y026892D01*
X013632Y026969D01*
X013556Y026969D01*
X013249Y026662D01*
X013249Y026969D01*
X013239Y026913D02*
X013315Y026836D01*
X013315Y026683D01*
X013239Y026606D01*
X013249Y026508D02*
X013402Y026355D01*
X013315Y026376D02*
X013239Y026453D01*
X012932Y026453D01*
X012855Y026376D01*
X012855Y026222D01*
X012932Y026146D01*
X013239Y026146D01*
X013315Y026222D01*
X013315Y026376D01*
X013008Y026299D02*
X012855Y026453D01*
X012855Y026606D02*
X013162Y026913D01*
X013239Y026913D01*
X013315Y027066D02*
X013315Y027373D01*
X013239Y027373D01*
X012932Y027066D01*
X012855Y027066D01*
X012855Y026913D02*
X012855Y026606D01*
X013325Y027122D02*
X013249Y027199D01*
X013249Y027352D01*
X013325Y027429D01*
X013632Y027429D01*
X013709Y027352D01*
X013709Y027199D01*
X013632Y027122D01*
X013556Y027122D01*
X013479Y027199D01*
X013479Y027429D01*
X010670Y027444D02*
X010670Y027137D01*
X010439Y027137D01*
X010516Y027291D01*
X010516Y027367D01*
X010439Y027444D01*
X010286Y027444D01*
X010209Y027367D01*
X010209Y027214D01*
X010286Y027137D01*
X010209Y026984D02*
X010209Y026677D01*
X010516Y026984D01*
X010593Y026984D01*
X010670Y026907D01*
X010670Y026754D01*
X010593Y026677D01*
X010593Y026523D02*
X010286Y026523D01*
X010209Y026447D01*
X010209Y026293D01*
X010286Y026216D01*
X010593Y026216D01*
X010670Y026293D01*
X010670Y026447D01*
X010593Y026523D01*
X010363Y026370D02*
X010209Y026523D01*
X012659Y016755D02*
X012889Y016525D01*
X012582Y016525D01*
X012659Y016295D02*
X012659Y016755D01*
X013043Y016678D02*
X013043Y016525D01*
X013119Y016448D01*
X013349Y016448D01*
X013196Y016448D02*
X013043Y016295D01*
X013349Y016295D02*
X013349Y016755D01*
X013119Y016755D01*
X013043Y016678D01*
X012308Y007224D02*
X012155Y007224D01*
X012078Y007147D01*
X012078Y006840D01*
X012155Y006764D01*
X012308Y006764D01*
X012385Y006840D01*
X012385Y007147D01*
X012308Y007224D01*
X012232Y006917D02*
X012078Y006764D01*
X011925Y006764D02*
X011618Y006764D01*
X011771Y006764D02*
X011771Y007224D01*
X011925Y007071D01*
X011464Y007147D02*
X011388Y007224D01*
X011234Y007224D01*
X011157Y007147D01*
X011157Y007071D01*
X011464Y006764D01*
X011157Y006764D01*
X010952Y006801D02*
X010952Y007108D01*
X010875Y007185D01*
X010722Y007185D01*
X010645Y007108D01*
X010645Y006801D01*
X010722Y006724D01*
X010875Y006724D01*
X010952Y006801D01*
X010799Y006878D02*
X010645Y006724D01*
X010492Y006724D02*
X010185Y006724D01*
X010338Y006724D02*
X010338Y007185D01*
X010492Y007031D01*
X010031Y007108D02*
X010031Y006801D01*
X009724Y007108D01*
X009724Y006801D01*
X009801Y006724D01*
X009954Y006724D01*
X010031Y006801D01*
X010031Y007108D02*
X009954Y007185D01*
X009801Y007185D01*
X009724Y007108D01*
X008988Y007155D02*
X008988Y006848D01*
X008911Y006772D01*
X008757Y006772D01*
X008681Y006848D01*
X008681Y007155D01*
X008757Y007232D01*
X008911Y007232D01*
X008988Y007155D01*
X008834Y006925D02*
X008681Y006772D01*
X008527Y006848D02*
X008527Y006925D01*
X008451Y007002D01*
X008297Y007002D01*
X008220Y006925D01*
X008220Y006848D01*
X008297Y006772D01*
X008451Y006772D01*
X008527Y006848D01*
X008451Y007002D02*
X008527Y007079D01*
X008527Y007155D01*
X008451Y007232D01*
X008297Y007232D01*
X008220Y007155D01*
X008220Y007079D01*
X008297Y007002D01*
X007094Y007116D02*
X007094Y006809D01*
X007017Y006732D01*
X006864Y006732D01*
X006787Y006809D01*
X006787Y007116D01*
X006864Y007193D01*
X007017Y007193D01*
X007094Y007116D01*
X006940Y006886D02*
X006787Y006732D01*
X006634Y006809D02*
X006557Y006732D01*
X006403Y006732D01*
X006327Y006809D01*
X006327Y006962D01*
X006403Y007039D01*
X006480Y007039D01*
X006634Y006962D01*
X006634Y007193D01*
X006327Y007193D01*
X005228Y007116D02*
X005228Y006809D01*
X005151Y006732D01*
X004998Y006732D01*
X004921Y006809D01*
X004921Y007116D01*
X004998Y007193D01*
X005151Y007193D01*
X005228Y007116D01*
X005074Y006886D02*
X004921Y006732D01*
X004767Y006809D02*
X004691Y006732D01*
X004537Y006732D01*
X004460Y006809D01*
X004460Y006886D01*
X004537Y006962D01*
X004614Y006962D01*
X004537Y006962D02*
X004460Y007039D01*
X004460Y007116D01*
X004537Y007193D01*
X004691Y007193D01*
X004767Y007116D01*
X005864Y004830D02*
X006094Y004600D01*
X005787Y004600D01*
X005864Y004370D02*
X005864Y004830D01*
X006248Y004754D02*
X006248Y004447D01*
X006324Y004370D01*
X006478Y004370D01*
X006555Y004447D01*
X006555Y004754D01*
X006478Y004830D01*
X006324Y004830D01*
X006248Y004754D01*
X006401Y004523D02*
X006248Y004370D01*
X007378Y004447D02*
X007378Y004523D01*
X007455Y004600D01*
X007685Y004600D01*
X007685Y004447D01*
X007608Y004370D01*
X007455Y004370D01*
X007378Y004447D01*
X007531Y004754D02*
X007378Y004830D01*
X007531Y004754D02*
X007685Y004600D01*
X007838Y004447D02*
X007915Y004370D01*
X008068Y004370D01*
X008145Y004447D01*
X008145Y004754D01*
X008068Y004830D01*
X007915Y004830D01*
X007838Y004754D01*
X007838Y004447D01*
X007838Y004370D02*
X007992Y004523D01*
X009138Y004754D02*
X009445Y004447D01*
X009445Y004370D01*
X009598Y004370D02*
X009751Y004523D01*
X009598Y004447D02*
X009675Y004370D01*
X009828Y004370D01*
X009905Y004447D01*
X009905Y004754D01*
X009828Y004830D01*
X009675Y004830D01*
X009598Y004754D01*
X009598Y004447D01*
X009445Y004830D02*
X009138Y004830D01*
X009138Y004754D01*
X010563Y004785D02*
X010563Y004478D01*
X010640Y004401D01*
X010793Y004401D01*
X010870Y004478D01*
X011023Y004478D02*
X011023Y004785D01*
X011100Y004862D01*
X011253Y004862D01*
X011330Y004785D01*
X011330Y004478D01*
X011253Y004401D01*
X011100Y004401D01*
X011023Y004478D01*
X011023Y004401D02*
X011177Y004555D01*
X010870Y004708D02*
X010793Y004632D01*
X010563Y004632D01*
X010563Y004785D02*
X010640Y004862D01*
X010793Y004862D01*
X010870Y004785D01*
X010870Y004708D01*
X012114Y004401D02*
X012421Y004401D01*
X012574Y004401D02*
X012881Y004401D01*
X012728Y004401D02*
X012728Y004862D01*
X012881Y004708D01*
X013035Y004785D02*
X013035Y004478D01*
X013112Y004401D01*
X013265Y004401D01*
X013342Y004478D01*
X013342Y004785D01*
X013265Y004862D01*
X013112Y004862D01*
X013035Y004785D01*
X013188Y004555D02*
X013035Y004401D01*
X013586Y004478D02*
X013663Y004401D01*
X013817Y004401D01*
X013893Y004478D01*
X014047Y004401D02*
X014354Y004401D01*
X014507Y004401D02*
X014661Y004555D01*
X014814Y004478D02*
X014814Y004785D01*
X014737Y004862D01*
X014584Y004862D01*
X014507Y004785D01*
X014507Y004478D01*
X014584Y004401D01*
X014737Y004401D01*
X014814Y004478D01*
X014354Y004708D02*
X014200Y004862D01*
X014200Y004401D01*
X013893Y004785D02*
X013817Y004862D01*
X013663Y004862D01*
X013586Y004785D01*
X013586Y004708D01*
X013663Y004632D01*
X013586Y004555D01*
X013586Y004478D01*
X013663Y004632D02*
X013740Y004632D01*
X012421Y004708D02*
X012267Y004862D01*
X012267Y004401D01*
X012943Y006724D02*
X012943Y007185D01*
X013173Y006955D01*
X012866Y006955D01*
X013326Y006724D02*
X013633Y006724D01*
X013480Y006724D02*
X013480Y007185D01*
X013633Y007031D01*
X013787Y007108D02*
X013787Y006801D01*
X013864Y006724D01*
X014017Y006724D01*
X014094Y006801D01*
X014094Y007108D01*
X014017Y007185D01*
X013864Y007185D01*
X013787Y007108D01*
X013940Y006878D02*
X013787Y006724D01*
X016350Y002374D02*
X016657Y002374D01*
X016657Y002144D01*
X016504Y002220D01*
X016427Y002220D01*
X016350Y002144D01*
X016350Y001990D01*
X016427Y001913D01*
X016580Y001913D01*
X016657Y001990D01*
X016811Y001913D02*
X017118Y001913D01*
X017271Y001913D02*
X017424Y002067D01*
X017271Y001990D02*
X017348Y001913D01*
X017501Y001913D01*
X017578Y001990D01*
X017578Y002297D01*
X017501Y002374D01*
X017348Y002374D01*
X017271Y002297D01*
X017271Y001990D01*
X017118Y002220D02*
X016964Y002374D01*
X016964Y001913D01*
X004751Y003762D02*
X004675Y003685D01*
X004521Y003685D01*
X004444Y003762D01*
X004444Y004069D01*
X004521Y004145D01*
X004675Y004145D01*
X004751Y004069D01*
X004751Y003762D01*
X004598Y003838D02*
X004444Y003685D01*
X004291Y003685D02*
X003984Y003992D01*
X003984Y004069D01*
X004061Y004145D01*
X004214Y004145D01*
X004291Y004069D01*
X004291Y003685D02*
X003984Y003685D01*
X002716Y003439D02*
X002716Y003132D01*
X002639Y003055D01*
X002486Y003055D01*
X002409Y003132D01*
X002409Y003439D01*
X002486Y003515D01*
X002639Y003515D01*
X002716Y003439D01*
X002563Y003209D02*
X002409Y003055D01*
X002256Y003055D02*
X001949Y003055D01*
X002102Y003055D02*
X002102Y003515D01*
X002256Y003362D01*
M02*
