G75*
G70*
%OFA0B0*%
%FSLAX24Y24*%
%IPPOS*%
%LPD*%
%AMOC8*
5,1,8,0,0,1.08239X$1,22.5*
%
%ADD10C,0.0000*%
%ADD11C,0.0040*%
D10*
X000100Y000100D02*
X000100Y027659D01*
X017817Y027659D01*
X017817Y000100D01*
X000100Y000100D01*
D11*
X004130Y005287D02*
X004591Y005287D01*
X004591Y005517D01*
X004514Y005594D01*
X004360Y005594D01*
X004284Y005517D01*
X004284Y005287D01*
X004284Y005440D02*
X004130Y005594D01*
X004130Y005747D02*
X004130Y006054D01*
X004130Y005901D02*
X004591Y005901D01*
X004437Y005747D01*
X005111Y005747D02*
X005417Y006054D01*
X005494Y006054D01*
X005571Y005978D01*
X005571Y005824D01*
X005494Y005747D01*
X005494Y005594D02*
X005341Y005594D01*
X005264Y005517D01*
X005264Y005287D01*
X005264Y005440D02*
X005111Y005594D01*
X005111Y005747D02*
X005111Y006054D01*
X005494Y005594D02*
X005571Y005517D01*
X005571Y005287D01*
X005111Y005287D01*
X006051Y005295D02*
X006512Y005295D01*
X006512Y005525D01*
X006435Y005602D01*
X006282Y005602D01*
X006205Y005525D01*
X006205Y005295D01*
X006205Y005448D02*
X006051Y005602D01*
X006128Y005755D02*
X006051Y005832D01*
X006051Y005985D01*
X006128Y006062D01*
X006205Y006062D01*
X006282Y005985D01*
X006282Y005909D01*
X006282Y005985D02*
X006358Y006062D01*
X006435Y006062D01*
X006512Y005985D01*
X006512Y005832D01*
X006435Y005755D01*
X007024Y005590D02*
X007177Y005436D01*
X007177Y005513D02*
X007177Y005283D01*
X007024Y005283D02*
X007484Y005283D01*
X007484Y005513D01*
X007408Y005590D01*
X007254Y005590D01*
X007177Y005513D01*
X007254Y005743D02*
X007254Y006050D01*
X007024Y005974D02*
X007484Y005974D01*
X007254Y005743D01*
X007985Y005844D02*
X008061Y005767D01*
X007985Y005844D02*
X007985Y005997D01*
X008061Y006074D01*
X008215Y006074D01*
X008291Y005997D01*
X008291Y005920D01*
X008215Y005767D01*
X008445Y005767D01*
X008445Y006074D01*
X008368Y005614D02*
X008215Y005614D01*
X008138Y005537D01*
X008138Y005307D01*
X008138Y005460D02*
X007985Y005614D01*
X007985Y005307D02*
X008445Y005307D01*
X008445Y005537D01*
X008368Y005614D01*
X009004Y005614D02*
X009158Y005460D01*
X009158Y005537D02*
X009158Y005307D01*
X009004Y005307D02*
X009465Y005307D01*
X009465Y005537D01*
X009388Y005614D01*
X009234Y005614D01*
X009158Y005537D01*
X009234Y005767D02*
X009081Y005767D01*
X009004Y005844D01*
X009004Y005997D01*
X009081Y006074D01*
X009158Y006074D01*
X009234Y005997D01*
X009234Y005767D01*
X009388Y005920D01*
X009465Y006074D01*
X009945Y005767D02*
X010022Y005767D01*
X010329Y006074D01*
X010406Y006074D01*
X010406Y005767D01*
X010329Y005614D02*
X010175Y005614D01*
X010099Y005537D01*
X010099Y005307D01*
X010099Y005460D02*
X009945Y005614D01*
X009945Y005307D02*
X010406Y005307D01*
X010406Y005537D01*
X010329Y005614D01*
X010965Y005614D02*
X011118Y005460D01*
X011118Y005537D02*
X011118Y005307D01*
X010965Y005307D02*
X011425Y005307D01*
X011425Y005537D01*
X011349Y005614D01*
X011195Y005614D01*
X011118Y005537D01*
X011118Y005767D02*
X011195Y005844D01*
X011195Y005997D01*
X011118Y006074D01*
X011042Y006074D01*
X010965Y005997D01*
X010965Y005844D01*
X011042Y005767D01*
X011118Y005767D01*
X011195Y005844D02*
X011272Y005767D01*
X011349Y005767D01*
X011425Y005844D01*
X011425Y005997D01*
X011349Y006074D01*
X011272Y006074D01*
X011195Y005997D01*
X011965Y005997D02*
X012042Y006074D01*
X012349Y006074D01*
X012425Y005997D01*
X012425Y005844D01*
X012349Y005767D01*
X012272Y005767D01*
X012195Y005844D01*
X012195Y006074D01*
X011965Y005997D02*
X011965Y005844D01*
X012042Y005767D01*
X011965Y005614D02*
X012118Y005460D01*
X012118Y005537D02*
X012118Y005307D01*
X011965Y005307D02*
X012425Y005307D01*
X012425Y005537D01*
X012349Y005614D01*
X012195Y005614D01*
X012118Y005537D01*
X012949Y005598D02*
X013103Y005444D01*
X013103Y005521D02*
X013103Y005291D01*
X012949Y005291D02*
X013410Y005291D01*
X013410Y005521D01*
X013333Y005598D01*
X013179Y005598D01*
X013103Y005521D01*
X013256Y005751D02*
X013410Y005905D01*
X012949Y005905D01*
X012949Y006058D02*
X012949Y005751D01*
X013026Y006212D02*
X012949Y006288D01*
X012949Y006442D01*
X013026Y006519D01*
X013333Y006519D01*
X013026Y006212D01*
X013333Y006212D01*
X013410Y006288D01*
X013410Y006442D01*
X013333Y006519D01*
X013886Y006523D02*
X013886Y006216D01*
X013886Y006369D02*
X014347Y006369D01*
X014193Y006216D01*
X013886Y006062D02*
X013886Y005755D01*
X013886Y005602D02*
X014040Y005448D01*
X014040Y005525D02*
X014040Y005295D01*
X013886Y005295D02*
X014347Y005295D01*
X014347Y005525D01*
X014270Y005602D01*
X014116Y005602D01*
X014040Y005525D01*
X014193Y005755D02*
X014347Y005909D01*
X013886Y005909D01*
X014827Y005909D02*
X015287Y005909D01*
X015134Y005755D01*
X015211Y005602D02*
X015057Y005602D01*
X014981Y005525D01*
X014981Y005295D01*
X014981Y005448D02*
X014827Y005602D01*
X014827Y005755D02*
X014827Y006062D01*
X014827Y006216D02*
X015134Y006523D01*
X015211Y006523D01*
X015287Y006446D01*
X015287Y006292D01*
X015211Y006216D01*
X014827Y006216D02*
X014827Y006523D01*
X015211Y005602D02*
X015287Y005525D01*
X015287Y005295D01*
X014827Y005295D01*
X014600Y010740D02*
X014446Y010740D01*
X014370Y010817D01*
X014370Y011124D01*
X014446Y011200D01*
X014600Y011200D01*
X014676Y011124D01*
X014676Y010817D01*
X014600Y010740D01*
X014523Y010894D02*
X014370Y010740D01*
X014216Y010740D02*
X013909Y010740D01*
X014063Y010740D02*
X014063Y011200D01*
X014216Y011047D01*
X013756Y011047D02*
X013756Y011124D01*
X013679Y011200D01*
X013525Y011200D01*
X013449Y011124D01*
X013449Y011047D01*
X013525Y010970D01*
X013679Y010970D01*
X013756Y011047D01*
X013679Y010970D02*
X013756Y010894D01*
X013756Y010817D01*
X013679Y010740D01*
X013525Y010740D01*
X013449Y010817D01*
X013449Y010894D01*
X013525Y010970D01*
X013293Y011544D02*
X013370Y011621D01*
X013370Y011774D01*
X013293Y011851D01*
X012986Y011851D01*
X012909Y011774D01*
X012909Y011621D01*
X012986Y011544D01*
X013293Y011544D01*
X013063Y011697D02*
X012909Y011851D01*
X012909Y012004D02*
X013216Y012311D01*
X013293Y012311D01*
X013370Y012235D01*
X013370Y012081D01*
X013293Y012004D01*
X013140Y012465D02*
X013140Y012772D01*
X013370Y012695D02*
X013140Y012465D01*
X012909Y012695D02*
X013370Y012695D01*
X012909Y012311D02*
X012909Y012004D01*
X012883Y011200D02*
X012807Y011124D01*
X012807Y010817D01*
X012883Y010740D01*
X013037Y010740D01*
X013113Y010817D01*
X013113Y011124D01*
X013037Y011200D01*
X012883Y011200D01*
X012653Y011047D02*
X012500Y011200D01*
X012500Y010740D01*
X012653Y010740D02*
X012346Y010740D01*
X012193Y010817D02*
X012116Y010740D01*
X011962Y010740D01*
X011886Y010817D01*
X011886Y011124D01*
X011962Y011200D01*
X012116Y011200D01*
X012193Y011124D01*
X012193Y011047D01*
X012116Y010970D01*
X011886Y010970D01*
X011393Y010817D02*
X011316Y010740D01*
X011163Y010740D01*
X011086Y010817D01*
X011086Y011124D01*
X011163Y011200D01*
X011316Y011200D01*
X011393Y011124D01*
X011393Y010817D01*
X011240Y010894D02*
X011086Y010740D01*
X010933Y010740D02*
X010626Y011047D01*
X010626Y011124D01*
X010702Y011200D01*
X010856Y011200D01*
X010933Y011124D01*
X011014Y011276D02*
X010937Y011352D01*
X010937Y011506D01*
X011014Y011582D01*
X011321Y011582D01*
X011397Y011506D01*
X011397Y011352D01*
X011321Y011276D01*
X011014Y011276D01*
X011090Y011429D02*
X010937Y011582D01*
X010937Y011736D02*
X011244Y012043D01*
X011321Y012043D01*
X011397Y011966D01*
X011397Y011813D01*
X011321Y011736D01*
X011244Y012196D02*
X011397Y012350D01*
X010937Y012350D01*
X010937Y012503D02*
X010937Y012196D01*
X010937Y012043D02*
X010937Y011736D01*
X010395Y011200D02*
X010472Y011124D01*
X010472Y010817D01*
X010165Y011124D01*
X010165Y010817D01*
X010242Y010740D01*
X010395Y010740D01*
X010472Y010817D01*
X010626Y010740D02*
X010933Y010740D01*
X010395Y011200D02*
X010242Y011200D01*
X010165Y011124D01*
X011120Y013606D02*
X011043Y013683D01*
X011043Y013836D01*
X011120Y013913D01*
X011427Y013913D01*
X011504Y013836D01*
X011504Y013683D01*
X011427Y013606D01*
X011120Y013606D01*
X011197Y013760D02*
X011043Y013913D01*
X011043Y014067D02*
X011350Y014374D01*
X011427Y014374D01*
X011504Y014297D01*
X011504Y014143D01*
X011427Y014067D01*
X011043Y014067D02*
X011043Y014374D01*
X011120Y014527D02*
X011043Y014604D01*
X011043Y014757D01*
X011120Y014834D01*
X011197Y014834D01*
X011273Y014757D01*
X011273Y014680D01*
X011273Y014757D02*
X011350Y014834D01*
X011427Y014834D01*
X011504Y014757D01*
X011504Y014604D01*
X011427Y014527D01*
X011419Y015417D02*
X011112Y015417D01*
X011035Y015494D01*
X011035Y015647D01*
X011112Y015724D01*
X011419Y015724D01*
X011496Y015647D01*
X011496Y015494D01*
X011419Y015417D01*
X011189Y015571D02*
X011035Y015724D01*
X011035Y015878D02*
X011342Y016185D01*
X011419Y016185D01*
X011496Y016108D01*
X011496Y015954D01*
X011419Y015878D01*
X011419Y016338D02*
X011496Y016415D01*
X011496Y016568D01*
X011419Y016645D01*
X011342Y016645D01*
X011035Y016338D01*
X011035Y016645D01*
X010928Y016644D02*
X010851Y016567D01*
X010698Y016567D01*
X010621Y016644D01*
X010621Y016951D01*
X010698Y017027D01*
X010851Y017027D01*
X010928Y016951D01*
X010928Y016644D01*
X010774Y016720D02*
X010621Y016567D01*
X010467Y016567D02*
X010160Y016567D01*
X010314Y016567D02*
X010314Y017027D01*
X010467Y016874D01*
X010007Y016951D02*
X009930Y017027D01*
X009777Y017027D01*
X009700Y016951D01*
X009700Y016874D01*
X009777Y016797D01*
X009700Y016720D01*
X009700Y016644D01*
X009777Y016567D01*
X009930Y016567D01*
X010007Y016644D01*
X009853Y016797D02*
X009777Y016797D01*
X011035Y016185D02*
X011035Y015878D01*
X011359Y016567D02*
X011359Y017027D01*
X011590Y016797D01*
X011283Y016797D01*
X011743Y016567D02*
X012050Y016567D01*
X011897Y016567D02*
X011897Y017027D01*
X012050Y016874D01*
X012203Y016951D02*
X012203Y016644D01*
X012280Y016567D01*
X012434Y016567D01*
X012510Y016644D01*
X012510Y016951D01*
X012434Y017027D01*
X012280Y017027D01*
X012203Y016951D01*
X012357Y016720D02*
X012203Y016567D01*
X012925Y016541D02*
X013002Y016618D01*
X013079Y016618D01*
X013155Y016541D01*
X013155Y016311D01*
X013002Y016311D01*
X012925Y016388D01*
X012925Y016541D01*
X013021Y016567D02*
X012944Y016644D01*
X012944Y016797D01*
X013021Y016874D01*
X013098Y016874D01*
X013251Y016797D01*
X013251Y017027D01*
X012944Y017027D01*
X013021Y016567D02*
X013174Y016567D01*
X013251Y016644D01*
X013386Y016618D02*
X013309Y016465D01*
X013155Y016311D01*
X013404Y016567D02*
X013711Y016567D01*
X013558Y016567D02*
X013558Y017027D01*
X013711Y016874D01*
X013865Y016951D02*
X013865Y016644D01*
X013942Y016567D01*
X014095Y016567D01*
X014172Y016644D01*
X014172Y016951D01*
X014095Y017027D01*
X013942Y017027D01*
X013865Y016951D01*
X014018Y016720D02*
X013865Y016567D01*
X013386Y016004D02*
X012925Y016004D01*
X012925Y015851D02*
X012925Y016158D01*
X013232Y015851D02*
X013386Y016004D01*
X013309Y015697D02*
X013002Y015697D01*
X012925Y015621D01*
X012925Y015467D01*
X013002Y015390D01*
X013309Y015390D01*
X013386Y015467D01*
X013386Y015621D01*
X013309Y015697D01*
X013079Y015544D02*
X012925Y015697D01*
X013301Y014807D02*
X012994Y014500D01*
X012917Y014500D01*
X012917Y014347D02*
X012917Y014040D01*
X012917Y014193D02*
X013378Y014193D01*
X013224Y014040D01*
X013301Y013886D02*
X012994Y013886D01*
X012917Y013810D01*
X012917Y013656D01*
X012994Y013579D01*
X013301Y013579D01*
X013378Y013656D01*
X013378Y013810D01*
X013301Y013886D01*
X013071Y013733D02*
X012917Y013886D01*
X013378Y014500D02*
X013378Y014807D01*
X013301Y014807D01*
X012960Y010894D02*
X012807Y010740D01*
X008247Y010734D02*
X008171Y010657D01*
X008017Y010657D01*
X007940Y010734D01*
X007940Y011041D01*
X008017Y011118D01*
X008171Y011118D01*
X008247Y011041D01*
X008247Y010734D01*
X008094Y010811D02*
X007940Y010657D01*
X007787Y010734D02*
X007787Y010888D01*
X007557Y010888D01*
X007480Y010811D01*
X007480Y010734D01*
X007557Y010657D01*
X007710Y010657D01*
X007787Y010734D01*
X007787Y010888D02*
X007633Y011041D01*
X007480Y011118D01*
X007384Y011465D02*
X007460Y011542D01*
X007460Y011695D01*
X007384Y011772D01*
X007077Y011772D01*
X007000Y011695D01*
X007000Y011542D01*
X007077Y011465D01*
X007384Y011465D01*
X007307Y011926D02*
X007460Y012079D01*
X007000Y012079D01*
X007000Y011926D02*
X007000Y012233D01*
X007000Y012386D02*
X007307Y012693D01*
X007384Y012693D01*
X007460Y012616D01*
X007460Y012463D01*
X007384Y012386D01*
X007000Y012386D02*
X007000Y012693D01*
X007000Y011772D02*
X007153Y011619D01*
X006637Y011029D02*
X006637Y010722D01*
X006560Y010646D01*
X006407Y010646D01*
X006330Y010722D01*
X006330Y011029D01*
X006407Y011106D01*
X006560Y011106D01*
X006637Y011029D01*
X006484Y010799D02*
X006330Y010646D01*
X006177Y010646D02*
X006177Y010722D01*
X005870Y011029D01*
X005870Y011106D01*
X006177Y011106D01*
X005074Y011029D02*
X005074Y010722D01*
X004997Y010646D01*
X004844Y010646D01*
X004767Y010722D01*
X004767Y011029D01*
X004844Y011106D01*
X004997Y011106D01*
X005074Y011029D01*
X004921Y010799D02*
X004767Y010646D01*
X004614Y010722D02*
X004614Y010799D01*
X004537Y010876D01*
X004384Y010876D01*
X004307Y010799D01*
X004307Y010722D01*
X004384Y010646D01*
X004537Y010646D01*
X004614Y010722D01*
X004537Y010876D02*
X004614Y010953D01*
X004614Y011029D01*
X004537Y011106D01*
X004384Y011106D01*
X004307Y011029D01*
X004307Y010953D01*
X004384Y010876D01*
X004620Y011374D02*
X004543Y011451D01*
X004543Y011604D01*
X004620Y011681D01*
X004927Y011681D01*
X005004Y011604D01*
X005004Y011451D01*
X004927Y011374D01*
X004620Y011374D01*
X004697Y011527D02*
X004543Y011681D01*
X004620Y011834D02*
X004543Y011911D01*
X004543Y012065D01*
X004620Y012141D01*
X004927Y012141D01*
X005004Y012065D01*
X005004Y011911D01*
X004927Y011834D01*
X004850Y011834D01*
X004773Y011911D01*
X004773Y012141D01*
X004628Y013311D02*
X004551Y013388D01*
X004551Y013541D01*
X004628Y013618D01*
X004935Y013618D01*
X005011Y013541D01*
X005011Y013388D01*
X004935Y013311D01*
X004628Y013311D01*
X004705Y013464D02*
X004551Y013618D01*
X004551Y013771D02*
X004551Y014078D01*
X004551Y013925D02*
X005011Y013925D01*
X004858Y013771D01*
X004858Y014232D02*
X005011Y014385D01*
X004551Y014385D01*
X004551Y014232D02*
X004551Y014539D01*
X004620Y015024D02*
X004543Y015100D01*
X004543Y015254D01*
X004620Y015330D01*
X004927Y015330D01*
X005004Y015254D01*
X005004Y015100D01*
X004927Y015024D01*
X004620Y015024D01*
X004697Y015177D02*
X004543Y015330D01*
X004543Y015484D02*
X004543Y015791D01*
X004543Y015637D02*
X005004Y015637D01*
X004850Y015484D01*
X004927Y015944D02*
X004620Y015944D01*
X004927Y016251D01*
X004620Y016251D01*
X004543Y016175D01*
X004543Y016021D01*
X004620Y015944D01*
X004599Y016197D02*
X004446Y016197D01*
X004369Y016274D01*
X004369Y016580D01*
X004446Y016657D01*
X004599Y016657D01*
X004676Y016580D01*
X004676Y016274D01*
X004599Y016197D01*
X004523Y016350D02*
X004369Y016197D01*
X004216Y016197D02*
X003909Y016197D01*
X004062Y016197D02*
X004062Y016657D01*
X004216Y016504D01*
X004927Y016251D02*
X005004Y016175D01*
X005004Y016021D01*
X004927Y015944D01*
X005480Y016197D02*
X005786Y016197D01*
X005480Y016504D01*
X005480Y016580D01*
X005556Y016657D01*
X005710Y016657D01*
X005786Y016580D01*
X005940Y016580D02*
X005940Y016274D01*
X006017Y016197D01*
X006170Y016197D01*
X006247Y016274D01*
X006247Y016580D01*
X006170Y016657D01*
X006017Y016657D01*
X005940Y016580D01*
X006093Y016350D02*
X005940Y016197D01*
X006996Y016160D02*
X007073Y016083D01*
X006996Y016160D02*
X006996Y016313D01*
X007073Y016390D01*
X007226Y016390D01*
X007303Y016313D01*
X007303Y016236D01*
X007226Y016083D01*
X007456Y016083D01*
X007456Y016390D01*
X007479Y016352D02*
X007556Y016276D01*
X007709Y016276D01*
X007786Y016352D01*
X007786Y016659D01*
X007709Y016736D01*
X007556Y016736D01*
X007479Y016659D01*
X007479Y016352D01*
X007479Y016276D02*
X007633Y016429D01*
X007326Y016352D02*
X007249Y016276D01*
X007096Y016276D01*
X007019Y016352D01*
X007019Y016429D01*
X007096Y016506D01*
X007172Y016506D01*
X007096Y016506D02*
X007019Y016582D01*
X007019Y016659D01*
X007096Y016736D01*
X007249Y016736D01*
X007326Y016659D01*
X007380Y015929D02*
X007073Y015929D01*
X006996Y015853D01*
X006996Y015699D01*
X007073Y015622D01*
X007380Y015622D01*
X007456Y015699D01*
X007456Y015853D01*
X007380Y015929D01*
X007149Y015776D02*
X006996Y015929D01*
X007254Y014634D02*
X007254Y014327D01*
X007484Y014557D01*
X007024Y014557D01*
X007024Y014173D02*
X007177Y014020D01*
X007024Y013943D02*
X007100Y013867D01*
X007407Y013867D01*
X007484Y013943D01*
X007484Y014097D01*
X007407Y014173D01*
X007100Y014173D01*
X007024Y014097D01*
X007024Y013943D01*
X007342Y020777D02*
X007802Y020777D01*
X007802Y021007D01*
X007726Y021084D01*
X007572Y021084D01*
X007496Y021007D01*
X007496Y020777D01*
X007496Y020930D02*
X007342Y021084D01*
X007342Y021237D02*
X007342Y021544D01*
X007342Y021390D02*
X007802Y021390D01*
X007649Y021237D01*
X007649Y021697D02*
X007726Y021697D01*
X007802Y021774D01*
X007802Y021928D01*
X007726Y022004D01*
X007649Y022004D01*
X007572Y021928D01*
X007572Y021774D01*
X007649Y021697D01*
X007572Y021774D02*
X007496Y021697D01*
X007419Y021697D01*
X007342Y021774D01*
X007342Y021928D01*
X007419Y022004D01*
X007496Y022004D01*
X007572Y021928D01*
X008248Y021920D02*
X008324Y021996D01*
X008631Y021996D01*
X008708Y021920D01*
X008708Y021766D01*
X008631Y021690D01*
X008554Y021690D01*
X008478Y021766D01*
X008478Y021996D01*
X008248Y021766D02*
X008324Y021690D01*
X008248Y021766D02*
X008248Y021920D01*
X008248Y021536D02*
X008248Y021229D01*
X008248Y021076D02*
X008401Y020922D01*
X008401Y020999D02*
X008401Y020769D01*
X008248Y020769D02*
X008708Y020769D01*
X008708Y020999D01*
X008631Y021076D01*
X008478Y021076D01*
X008401Y020999D01*
X008554Y021229D02*
X008708Y021383D01*
X008248Y021383D01*
X009153Y021528D02*
X009153Y021221D01*
X009460Y021528D01*
X009537Y021528D01*
X009613Y021451D01*
X009613Y021298D01*
X009537Y021221D01*
X009537Y021068D02*
X009383Y021068D01*
X009307Y020991D01*
X009307Y020761D01*
X009307Y020914D02*
X009153Y021068D01*
X009153Y020761D02*
X009613Y020761D01*
X009613Y020991D01*
X009537Y021068D01*
X010063Y021076D02*
X010216Y020922D01*
X010216Y020999D02*
X010216Y020769D01*
X010063Y020769D02*
X010523Y020769D01*
X010523Y020999D01*
X010446Y021076D01*
X010293Y021076D01*
X010216Y020999D01*
X010063Y021229D02*
X010369Y021536D01*
X010446Y021536D01*
X010523Y021459D01*
X010523Y021306D01*
X010446Y021229D01*
X010369Y021690D02*
X010523Y021843D01*
X010063Y021843D01*
X010063Y021690D02*
X010063Y021996D01*
X009613Y021912D02*
X009537Y021989D01*
X009230Y021682D01*
X009153Y021758D01*
X009153Y021912D01*
X009230Y021989D01*
X009537Y021989D01*
X009613Y021912D02*
X009613Y021758D01*
X009537Y021682D01*
X009230Y021682D01*
X010063Y021536D02*
X010063Y021229D01*
X010964Y021229D02*
X011271Y021536D01*
X011348Y021536D01*
X011424Y021459D01*
X011424Y021306D01*
X011348Y021229D01*
X011348Y021076D02*
X011194Y021076D01*
X011118Y020999D01*
X011118Y020769D01*
X011118Y020922D02*
X010964Y021076D01*
X010964Y021229D02*
X010964Y021536D01*
X010964Y021690D02*
X011271Y021996D01*
X011348Y021996D01*
X011424Y021920D01*
X011424Y021766D01*
X011348Y021690D01*
X011877Y021766D02*
X011954Y021690D01*
X011877Y021766D02*
X011877Y021920D01*
X011954Y021996D01*
X012031Y021996D01*
X012108Y021920D01*
X012108Y021843D01*
X012108Y021920D02*
X012184Y021996D01*
X012261Y021996D01*
X012338Y021920D01*
X012338Y021766D01*
X012261Y021690D01*
X012261Y021536D02*
X012184Y021536D01*
X011877Y021229D01*
X011877Y021536D01*
X011877Y021076D02*
X012031Y020922D01*
X012031Y020999D02*
X012031Y020769D01*
X011877Y020769D02*
X012338Y020769D01*
X012338Y020999D01*
X012261Y021076D01*
X012108Y021076D01*
X012031Y020999D01*
X012261Y021229D02*
X012338Y021306D01*
X012338Y021459D01*
X012261Y021536D01*
X012791Y021536D02*
X012791Y021229D01*
X013098Y021536D01*
X013175Y021536D01*
X013251Y021459D01*
X013251Y021306D01*
X013175Y021229D01*
X013175Y021076D02*
X013021Y021076D01*
X012944Y020999D01*
X012944Y020769D01*
X012791Y020769D02*
X013251Y020769D01*
X013251Y020999D01*
X013175Y021076D01*
X012944Y020922D02*
X012791Y021076D01*
X013021Y021690D02*
X013021Y021996D01*
X012791Y021920D02*
X013251Y021920D01*
X013021Y021690D01*
X011424Y020999D02*
X011424Y020769D01*
X010964Y020769D01*
X011348Y021076D02*
X011424Y020999D01*
X010964Y021690D02*
X010964Y021996D01*
X006858Y022012D02*
X006858Y021705D01*
X006858Y021398D02*
X006397Y021398D01*
X006397Y021245D02*
X006397Y021552D01*
X006397Y021705D02*
X006474Y021705D01*
X006781Y022012D01*
X006858Y022012D01*
X006858Y021398D02*
X006704Y021245D01*
X006627Y021091D02*
X006551Y021015D01*
X006551Y020784D01*
X006397Y020784D02*
X006858Y020784D01*
X006858Y021015D01*
X006781Y021091D01*
X006627Y021091D01*
X006551Y020938D02*
X006397Y021091D01*
X005952Y021023D02*
X005952Y020792D01*
X005492Y020792D01*
X005645Y020792D02*
X005645Y021023D01*
X005722Y021099D01*
X005875Y021099D01*
X005952Y021023D01*
X005799Y021253D02*
X005952Y021406D01*
X005492Y021406D01*
X005492Y021253D02*
X005492Y021560D01*
X005568Y021713D02*
X005492Y021790D01*
X005492Y021943D01*
X005568Y022020D01*
X005645Y022020D01*
X005722Y021943D01*
X005722Y021713D01*
X005568Y021713D01*
X005722Y021713D02*
X005875Y021867D01*
X005952Y022020D01*
X005492Y021099D02*
X005645Y020946D01*
X005047Y021030D02*
X005047Y020800D01*
X004586Y020800D01*
X004740Y020800D02*
X004740Y021030D01*
X004816Y021107D01*
X004970Y021107D01*
X005047Y021030D01*
X004893Y021261D02*
X005047Y021414D01*
X004586Y021414D01*
X004586Y021261D02*
X004586Y021568D01*
X004663Y021721D02*
X004586Y021798D01*
X004586Y021951D01*
X004663Y022028D01*
X004816Y022028D01*
X004893Y021951D01*
X004893Y021874D01*
X004816Y021721D01*
X005047Y021721D01*
X005047Y022028D01*
X004586Y021107D02*
X004740Y020954D01*
X004102Y021038D02*
X004102Y020808D01*
X003641Y020808D01*
X003795Y020808D02*
X003795Y021038D01*
X003871Y021115D01*
X004025Y021115D01*
X004102Y021038D01*
X003948Y021269D02*
X004102Y021422D01*
X003641Y021422D01*
X003641Y021269D02*
X003641Y021575D01*
X003871Y021729D02*
X003871Y022036D01*
X003641Y021959D02*
X004102Y021959D01*
X003871Y021729D01*
X003641Y021115D02*
X003795Y020962D01*
X003157Y021046D02*
X003157Y020816D01*
X002696Y020816D01*
X002850Y020816D02*
X002850Y021046D01*
X002927Y021123D01*
X003080Y021123D01*
X003157Y021046D01*
X003003Y021276D02*
X003157Y021430D01*
X002696Y021430D01*
X002696Y021583D02*
X002696Y021276D01*
X002696Y021123D02*
X002850Y020969D01*
X002773Y021737D02*
X002696Y021814D01*
X002696Y021967D01*
X002773Y022044D01*
X002850Y022044D01*
X002927Y021967D01*
X002927Y021890D01*
X002927Y021967D02*
X003003Y022044D01*
X003080Y022044D01*
X003157Y021967D01*
X003157Y021814D01*
X003080Y021737D01*
M02*
