G75*
G70*
%OFA0B0*%
%FSLAX24Y24*%
%IPPOS*%
%LPD*%
%AMOC8*
5,1,8,0,0,1.08239X$1,22.5*
%
%ADD10C,0.0000*%
%ADD11OC8,0.0397*%
%ADD12C,0.0600*%
%ADD13OC8,0.0560*%
%ADD14R,0.0630X0.0512*%
%ADD15C,0.0100*%
%ADD16C,0.0360*%
%ADD17C,0.0356*%
%ADD18C,0.0120*%
%ADD19R,0.0356X0.0356*%
%ADD20C,0.0160*%
%ADD21C,0.0500*%
%ADD22C,0.0240*%
%ADD23C,0.1660*%
%ADD24C,0.0079*%
D10*
X000100Y000100D02*
X000100Y027659D01*
X017817Y027659D01*
X017817Y000100D01*
X000100Y000100D01*
D11*
X005562Y011117D03*
X005512Y012154D03*
X005512Y013142D03*
X005512Y014129D03*
X005512Y015117D03*
X005512Y016154D03*
X006499Y016154D03*
X006499Y015117D03*
X006499Y014129D03*
X006499Y013142D03*
X006449Y012104D03*
X006449Y011117D03*
X007487Y013145D03*
X010430Y013196D03*
X011417Y013193D03*
X011417Y014180D03*
X011417Y015168D03*
X011417Y016205D03*
X012405Y016205D03*
X012405Y015168D03*
X012405Y014180D03*
X012405Y013193D03*
X012355Y012156D03*
X012355Y011168D03*
X011467Y011168D03*
X011417Y012206D03*
X013392Y013196D03*
X004524Y013145D03*
D12*
X001597Y008376D02*
X000997Y008376D01*
X000997Y007376D02*
X001597Y007376D01*
X001597Y006376D02*
X000997Y006376D01*
X015733Y006399D02*
X016333Y006399D01*
X016333Y007399D02*
X015733Y007399D01*
X015733Y008399D02*
X016333Y008399D01*
D13*
X012419Y003179D03*
X012419Y002179D03*
X011419Y002179D03*
X011419Y003179D03*
X010419Y003179D03*
X010419Y002179D03*
X009419Y002179D03*
X009419Y003179D03*
X008419Y003179D03*
X008419Y002179D03*
X007419Y002179D03*
X007419Y003179D03*
X006419Y003179D03*
X006419Y002179D03*
X005419Y002179D03*
X005419Y003179D03*
X005458Y024206D03*
X005458Y025206D03*
X006458Y025206D03*
X006458Y024206D03*
X007458Y024206D03*
X007458Y025206D03*
X008458Y025206D03*
X008458Y024206D03*
X009458Y024206D03*
X009458Y025206D03*
X010458Y025206D03*
X010458Y024206D03*
X011458Y024206D03*
X011458Y025206D03*
X012458Y025206D03*
X012458Y024206D03*
D14*
X007541Y010120D03*
X007541Y009372D03*
X009943Y009726D03*
X009943Y008978D03*
D15*
X009943Y009155D01*
X011517Y007580D01*
X015848Y007580D01*
X016033Y007399D01*
X016242Y008368D02*
X016320Y008368D01*
X016242Y008368D02*
X016242Y009155D01*
X015454Y010730D02*
X015454Y019391D01*
X015061Y020572D02*
X015061Y013092D01*
X014667Y011911D02*
X014667Y020572D01*
X013880Y021360D01*
X009943Y021360D01*
X009155Y020572D01*
X009943Y020966D02*
X009943Y019785D01*
X009549Y019391D01*
X008407Y019391D01*
X008013Y019746D01*
X007974Y020572D02*
X007974Y022147D01*
X015061Y022147D01*
X016124Y021320D01*
X016124Y016045D01*
X013880Y016635D02*
X013880Y020100D01*
X014273Y020572D02*
X013880Y020966D01*
X011911Y020966D01*
X011517Y020572D01*
X011163Y020966D02*
X009943Y020966D01*
X010336Y020572D02*
X010336Y019785D01*
X009155Y018604D01*
X009155Y011006D01*
X010179Y011006D01*
X010691Y010927D02*
X011517Y011911D01*
X011517Y012305D01*
X011417Y012206D01*
X011517Y010454D02*
X009549Y010454D01*
X009943Y009943D02*
X009943Y009726D01*
X009943Y009943D02*
X011911Y009943D01*
X011911Y013880D01*
X011517Y014273D01*
X011417Y014180D01*
X010730Y015454D02*
X010730Y016242D01*
X013092Y018604D01*
X013486Y018604D01*
X013486Y020572D01*
X014273Y020572D02*
X014273Y011911D01*
X011714Y009352D01*
X011517Y009352D01*
X011517Y008368D02*
X013092Y008368D01*
X015454Y010730D01*
X014667Y011911D02*
X012698Y009943D01*
X012698Y008761D01*
X012541Y006754D02*
X010809Y006754D01*
X010297Y006754D02*
X008722Y006754D01*
X008761Y007974D02*
X005691Y007974D01*
X005691Y009155D01*
X004824Y010336D01*
X004037Y010730D02*
X006793Y010730D01*
X006793Y008683D01*
X006990Y008328D02*
X007108Y008328D01*
X007423Y008368D01*
X007423Y008367D02*
X007439Y008361D01*
X007456Y008358D01*
X007473Y008359D01*
X007490Y008363D01*
X007506Y008370D01*
X007520Y008380D01*
X007532Y008392D01*
X007541Y008407D01*
X007580Y008407D01*
X007581Y008407D02*
X007580Y008441D01*
X007584Y008474D01*
X007591Y008506D01*
X007601Y008537D01*
X007615Y008567D01*
X007633Y008596D01*
X007653Y008622D01*
X007676Y008646D01*
X007702Y008667D01*
X007730Y008685D01*
X007760Y008699D01*
X007791Y008711D01*
X007823Y008718D01*
X007856Y008722D01*
X008919Y008722D01*
X007974Y009155D02*
X007541Y009372D01*
X007580Y009943D02*
X007541Y010120D01*
X007580Y009943D02*
X007187Y010336D01*
X007187Y011596D01*
X007187Y011911D01*
X006006Y013092D01*
X006006Y013880D01*
X005612Y014273D01*
X005512Y014129D01*
X004824Y013958D02*
X004431Y013486D01*
X004431Y013092D01*
X004524Y013145D01*
X004037Y013880D02*
X004824Y014667D01*
X004824Y016242D01*
X005612Y017029D01*
X007580Y017029D01*
X008368Y016242D01*
X008368Y010415D01*
X007974Y009155D02*
X009943Y009155D01*
X011517Y004726D02*
X010533Y003939D01*
X009943Y003446D01*
X009943Y002659D01*
X009458Y002175D01*
X009419Y002179D01*
X008419Y003179D02*
X009746Y004332D01*
X006990Y008328D02*
X006960Y008339D01*
X006931Y008353D01*
X006903Y008370D01*
X006878Y008390D01*
X006855Y008412D01*
X006835Y008437D01*
X006818Y008465D01*
X006804Y008494D01*
X006793Y008524D01*
X006786Y008555D01*
X006782Y008587D01*
X006782Y008619D01*
X006786Y008651D01*
X006793Y008683D01*
X006399Y008368D02*
X006399Y010336D01*
X006399Y013092D02*
X006499Y013142D01*
X006399Y013092D02*
X006399Y013486D01*
X007580Y014667D01*
X007974Y015061D02*
X007187Y015848D01*
X007187Y016635D01*
X005809Y018998D02*
X004431Y018998D01*
X002541Y017187D01*
X002462Y016793D01*
X002069Y017502D02*
X007029Y022541D01*
X014549Y022541D01*
X013092Y019431D02*
X011163Y019431D01*
X011163Y020966D01*
X010336Y018998D02*
X009943Y018604D01*
X009943Y017029D01*
X009746Y017029D01*
X012305Y015061D02*
X012405Y015168D01*
X012305Y015061D02*
X013092Y015848D01*
X013092Y016242D01*
X012698Y016635D01*
X013565Y006675D02*
X014824Y006675D01*
X013565Y006674D02*
X013555Y006673D01*
X013546Y006669D01*
X013537Y006663D01*
X013531Y006654D01*
X013527Y006645D01*
X013526Y006635D01*
X004037Y010730D02*
X003643Y011124D01*
X003643Y014273D01*
X004037Y014667D01*
X004037Y013880D02*
X004037Y011517D01*
X002265Y009903D02*
X001675Y010730D01*
X001675Y016635D01*
X002069Y017502D02*
X002069Y013880D01*
X001281Y009943D02*
X001281Y017817D01*
X005966Y023092D02*
X005966Y024714D01*
X005968Y024757D01*
X005973Y024799D01*
X005983Y024841D01*
X005996Y024882D01*
X006012Y024922D01*
X006032Y024960D01*
X006055Y024996D01*
X006081Y025030D01*
X006110Y025062D01*
X006142Y025091D01*
X006176Y025117D01*
X006212Y025140D01*
X006250Y025160D01*
X006290Y025176D01*
X006331Y025189D01*
X006373Y025199D01*
X006415Y025204D01*
X006458Y025206D01*
D16*
X007974Y020572D03*
X008013Y019746D03*
X009155Y020572D03*
X010336Y020572D03*
X011517Y020572D03*
X010336Y018998D03*
X012698Y016635D03*
X013880Y016635D03*
X013092Y019431D03*
X013880Y020100D03*
X013486Y020572D03*
X014549Y022541D03*
X015061Y020572D03*
X015454Y019391D03*
X016124Y016045D03*
X015061Y013092D03*
X016242Y009155D03*
X012698Y008761D03*
X011517Y008368D03*
X011517Y009352D03*
X011517Y010454D03*
X010691Y010927D03*
X009549Y010454D03*
X008368Y010415D03*
X008761Y007974D03*
X008722Y006754D03*
X010297Y006754D03*
X006399Y008368D03*
X006399Y010336D03*
X004824Y010336D03*
X004037Y011517D03*
X004824Y013958D03*
X004037Y014667D03*
X002462Y016793D03*
X001675Y016635D03*
X002069Y013880D03*
X002265Y009903D03*
X001281Y009943D03*
X007187Y016635D03*
X007974Y015061D03*
X007580Y014667D03*
X005809Y018998D03*
X010730Y015454D03*
D17*
X008643Y018525D03*
X008565Y020612D03*
X006675Y019352D03*
X006478Y018486D03*
X004903Y018486D03*
X004746Y019706D03*
X003801Y020454D03*
X003171Y019391D03*
X002580Y019864D03*
X002580Y021320D03*
X001281Y018210D03*
X002738Y015769D03*
X002738Y014391D03*
X002738Y012462D03*
X002423Y010691D03*
X008919Y008722D03*
X010179Y011006D03*
X010809Y006754D03*
X012541Y006754D03*
X013525Y006635D03*
X014824Y006675D03*
X015139Y009470D03*
X012029Y018958D03*
D18*
X010376Y018958D01*
X010336Y018998D01*
X008526Y016596D02*
X008528Y016574D01*
X008532Y016552D01*
X008540Y016531D01*
X008551Y016511D01*
X008564Y016493D01*
X008580Y016477D01*
X008598Y016464D01*
X008618Y016453D01*
X008639Y016445D01*
X008661Y016441D01*
X008683Y016439D01*
X008683Y015139D01*
X008682Y015139D02*
X008675Y015117D01*
X008671Y015094D01*
X008670Y015070D01*
X008674Y015047D01*
X008681Y015024D01*
X008691Y015003D01*
X008705Y014984D01*
X008721Y014967D01*
X008740Y014953D01*
X008761Y014942D01*
X008525Y016596D02*
X008525Y017895D01*
X007974Y018446D01*
X007974Y018506D01*
X007954Y018486D01*
X006478Y018486D01*
X004903Y018486D01*
X004470Y018486D01*
X002895Y016911D01*
X002895Y015927D01*
X002738Y015769D01*
X002738Y014391D01*
X002738Y012462D01*
X002423Y010691D02*
X002895Y010218D01*
X002895Y009824D01*
X002893Y009789D01*
X002888Y009755D01*
X002880Y009721D01*
X002868Y009689D01*
X002853Y009657D01*
X002835Y009627D01*
X002815Y009599D01*
X002791Y009574D01*
X002766Y009550D01*
X002738Y009530D01*
X002708Y009512D01*
X002676Y009497D01*
X002644Y009485D01*
X002610Y009477D01*
X002576Y009472D01*
X002541Y009470D01*
X002540Y009460D01*
X002536Y009450D01*
X002530Y009442D01*
X002521Y009436D01*
X002512Y009432D01*
X002502Y009431D01*
X001360Y009431D01*
X001314Y009433D01*
X001269Y009439D01*
X001225Y009448D01*
X001181Y009461D01*
X001139Y009477D01*
X001098Y009497D01*
X001059Y009521D01*
X001022Y009547D01*
X000987Y009577D01*
X000955Y009609D01*
X000925Y009644D01*
X000899Y009681D01*
X000875Y009720D01*
X000855Y009761D01*
X000839Y009803D01*
X000826Y009847D01*
X000817Y009891D01*
X000811Y009936D01*
X000809Y009982D01*
X000809Y019509D01*
X000811Y019568D01*
X000816Y019627D01*
X000826Y019686D01*
X000839Y019744D01*
X000855Y019801D01*
X000875Y019857D01*
X000899Y019911D01*
X000926Y019964D01*
X000956Y020015D01*
X000989Y020064D01*
X001026Y020111D01*
X001065Y020156D01*
X001107Y020198D01*
X001152Y020237D01*
X001199Y020274D01*
X001248Y020307D01*
X001299Y020337D01*
X001352Y020364D01*
X001406Y020388D01*
X001462Y020408D01*
X001519Y020424D01*
X001577Y020437D01*
X001636Y020447D01*
X001695Y020452D01*
X001754Y020454D01*
X003801Y020454D01*
X003171Y019391D02*
X003127Y019388D01*
X003083Y019389D01*
X003039Y019393D01*
X002995Y019401D01*
X002953Y019412D01*
X002911Y019427D01*
X002871Y019446D01*
X002832Y019467D01*
X002795Y019492D01*
X002761Y019519D01*
X002729Y019550D01*
X002699Y019583D01*
X002672Y019618D01*
X002649Y019655D01*
X002628Y019694D01*
X002611Y019735D01*
X002597Y019777D01*
X002587Y019820D01*
X002580Y019864D01*
X002580Y021320D02*
X002580Y021950D01*
X002581Y021950D02*
X002583Y021978D01*
X002588Y022006D01*
X002596Y022034D01*
X002608Y022060D01*
X002623Y022084D01*
X002640Y022106D01*
X002661Y022127D01*
X002683Y022144D01*
X002707Y022159D01*
X002733Y022171D01*
X002761Y022179D01*
X002789Y022184D01*
X002817Y022186D01*
X002817Y022187D02*
X006242Y022187D01*
X006277Y022189D01*
X006311Y022194D01*
X006345Y022202D01*
X006377Y022214D01*
X006409Y022229D01*
X006439Y022247D01*
X006467Y022267D01*
X006492Y022291D01*
X006516Y022316D01*
X006536Y022344D01*
X006554Y022374D01*
X006569Y022406D01*
X006581Y022438D01*
X006589Y022472D01*
X006594Y022506D01*
X006596Y022541D01*
X006598Y022580D01*
X006604Y022618D01*
X006613Y022655D01*
X006626Y022692D01*
X006643Y022727D01*
X006662Y022760D01*
X006685Y022791D01*
X006711Y022820D01*
X006740Y022846D01*
X006771Y022869D01*
X006804Y022888D01*
X006839Y022905D01*
X006876Y022918D01*
X006913Y022927D01*
X006951Y022933D01*
X006990Y022935D01*
X015927Y022935D01*
X015927Y022934D02*
X015989Y022932D01*
X016050Y022926D01*
X016111Y022917D01*
X016172Y022903D01*
X016231Y022886D01*
X016289Y022865D01*
X016346Y022840D01*
X016401Y022812D01*
X016454Y022781D01*
X016505Y022746D01*
X016554Y022708D01*
X016601Y022667D01*
X016644Y022624D01*
X016685Y022577D01*
X016723Y022528D01*
X016758Y022477D01*
X016789Y022424D01*
X016817Y022369D01*
X016842Y022312D01*
X016863Y022254D01*
X016880Y022195D01*
X016894Y022134D01*
X016903Y022073D01*
X016909Y022012D01*
X016911Y021950D01*
X016911Y011242D01*
X016909Y011158D01*
X016903Y011074D01*
X016893Y010990D01*
X016879Y010907D01*
X016861Y010824D01*
X016839Y010743D01*
X016814Y010662D01*
X016784Y010583D01*
X016751Y010506D01*
X016714Y010430D01*
X016674Y010356D01*
X016630Y010284D01*
X016582Y010214D01*
X016532Y010147D01*
X016478Y010082D01*
X016421Y010019D01*
X016362Y009960D01*
X016299Y009903D01*
X016234Y009849D01*
X016167Y009799D01*
X016097Y009751D01*
X016025Y009707D01*
X015951Y009667D01*
X015875Y009630D01*
X015798Y009597D01*
X015719Y009567D01*
X015638Y009542D01*
X015557Y009520D01*
X015474Y009502D01*
X015391Y009488D01*
X015307Y009478D01*
X015223Y009472D01*
X015139Y009470D01*
X008171Y019194D02*
X007620Y019194D01*
X007581Y020140D02*
X007519Y020135D01*
X007458Y020126D01*
X007398Y020113D01*
X007339Y020096D01*
X007281Y020076D01*
X007224Y020052D01*
X007169Y020024D01*
X007116Y019993D01*
X007064Y019959D01*
X007015Y019922D01*
X006969Y019881D01*
X006925Y019838D01*
X006884Y019792D01*
X006846Y019744D01*
X006811Y019693D01*
X006780Y019640D01*
X006751Y019585D01*
X006727Y019529D01*
X006706Y019471D01*
X006688Y019412D01*
X006675Y019352D01*
X006478Y018958D02*
X006447Y018960D01*
X006417Y018965D01*
X006387Y018973D01*
X006358Y018985D01*
X006331Y019000D01*
X006306Y019018D01*
X006283Y019039D01*
X006262Y019062D01*
X006244Y019087D01*
X006229Y019114D01*
X006217Y019143D01*
X006209Y019173D01*
X006204Y019203D01*
X006202Y019234D01*
X006202Y019313D01*
X006478Y018958D02*
X007383Y018958D01*
X007398Y018960D01*
X007413Y018964D01*
X007427Y018971D01*
X007439Y018981D01*
X007449Y018993D01*
X007456Y019007D01*
X007460Y019022D01*
X007462Y019037D01*
X007463Y019037D02*
X007465Y019059D01*
X007469Y019081D01*
X007477Y019102D01*
X007488Y019122D01*
X007501Y019140D01*
X007517Y019156D01*
X007535Y019169D01*
X007555Y019180D01*
X007576Y019188D01*
X007598Y019192D01*
X007620Y019194D01*
X008170Y019195D02*
X008215Y019185D01*
X008258Y019172D01*
X008301Y019156D01*
X008342Y019136D01*
X008381Y019114D01*
X008419Y019088D01*
X008454Y019059D01*
X008487Y019028D01*
X008517Y018994D01*
X008545Y018958D01*
X008570Y018920D01*
X008591Y018880D01*
X008610Y018838D01*
X008625Y018795D01*
X008637Y018751D01*
X008645Y018707D01*
X008650Y018662D01*
X008651Y018616D01*
X008649Y018571D01*
X008643Y018526D01*
X008092Y020139D02*
X007580Y020139D01*
X008092Y020140D02*
X008133Y020142D01*
X008174Y020147D01*
X008214Y020156D01*
X008253Y020168D01*
X008291Y020184D01*
X008328Y020203D01*
X008363Y020225D01*
X008395Y020250D01*
X008426Y020278D01*
X008454Y020309D01*
X008479Y020341D01*
X008501Y020376D01*
X008520Y020413D01*
X008536Y020451D01*
X008548Y020490D01*
X008557Y020530D01*
X008562Y020571D01*
X008564Y020612D01*
X005809Y019706D02*
X004746Y019706D01*
X005809Y019707D02*
X005848Y019705D01*
X005886Y019699D01*
X005923Y019690D01*
X005960Y019677D01*
X005995Y019660D01*
X006028Y019641D01*
X006059Y019618D01*
X006088Y019592D01*
X006114Y019563D01*
X006137Y019532D01*
X006156Y019499D01*
X006173Y019464D01*
X006186Y019427D01*
X006195Y019390D01*
X006201Y019352D01*
X006203Y019313D01*
X001281Y018210D02*
X001281Y017817D01*
D19*
X004509Y022974D03*
X005966Y023092D03*
X007974Y018506D03*
X009746Y017029D03*
X009746Y015159D03*
X008761Y014943D03*
X008761Y013171D03*
X009746Y012797D03*
X008761Y011281D03*
X011517Y004726D03*
X009746Y004332D03*
D20*
X008761Y011281D02*
X008761Y013171D01*
X008761Y014943D01*
X009746Y015159D02*
X009746Y017029D01*
X009746Y015159D02*
X009746Y012797D01*
X011517Y011163D02*
X011872Y011163D01*
X016072Y006517D02*
X016635Y006517D01*
X016677Y006519D01*
X016719Y006524D01*
X016761Y006533D01*
X016801Y006545D01*
X016841Y006560D01*
X016879Y006579D01*
X016915Y006600D01*
X016949Y006625D01*
X016982Y006652D01*
X017012Y006682D01*
X017039Y006715D01*
X017064Y006749D01*
X017085Y006785D01*
X017104Y006823D01*
X017119Y006863D01*
X017131Y006903D01*
X017140Y006945D01*
X017145Y006987D01*
X017147Y007029D01*
X017147Y007541D01*
X017145Y007597D01*
X017139Y007654D01*
X017130Y007709D01*
X017116Y007764D01*
X017099Y007818D01*
X017079Y007870D01*
X017054Y007921D01*
X017027Y007971D01*
X016996Y008018D01*
X016962Y008063D01*
X016924Y008105D01*
X016884Y008145D01*
X016842Y008183D01*
X016797Y008217D01*
X016750Y008248D01*
X016700Y008275D01*
X016649Y008300D01*
X016597Y008320D01*
X016543Y008337D01*
X016488Y008351D01*
X016433Y008360D01*
X016376Y008366D01*
X016320Y008368D01*
X016073Y006518D02*
X016058Y006509D01*
X016046Y006497D01*
X016036Y006483D01*
X016029Y006467D01*
X016025Y006450D01*
X016024Y006433D01*
X016027Y006416D01*
X016033Y006400D01*
X004509Y022974D02*
X004509Y024257D01*
X004511Y024317D01*
X004516Y024376D01*
X004526Y024435D01*
X004539Y024493D01*
X004555Y024550D01*
X004576Y024606D01*
X004599Y024661D01*
X004626Y024714D01*
X004657Y024765D01*
X004690Y024815D01*
X004727Y024862D01*
X004766Y024907D01*
X004808Y024949D01*
X004853Y024988D01*
X004900Y025025D01*
X004950Y025058D01*
X005001Y025089D01*
X005054Y025116D01*
X005109Y025139D01*
X005165Y025160D01*
X005222Y025176D01*
X005280Y025189D01*
X005339Y025199D01*
X005398Y025204D01*
X005458Y025206D01*
D21*
X016033Y006399D02*
X016033Y002844D01*
X016031Y002764D01*
X016025Y002684D01*
X016016Y002605D01*
X016003Y002526D01*
X015986Y002448D01*
X015965Y002370D01*
X015941Y002294D01*
X015913Y002219D01*
X015881Y002146D01*
X015846Y002074D01*
X015808Y002004D01*
X015766Y001935D01*
X015721Y001869D01*
X015673Y001805D01*
X015622Y001743D01*
X015569Y001684D01*
X015512Y001627D01*
X015453Y001574D01*
X015391Y001523D01*
X015327Y001475D01*
X015261Y001430D01*
X015193Y001388D01*
X015122Y001350D01*
X015050Y001315D01*
X014977Y001283D01*
X014902Y001255D01*
X014826Y001231D01*
X014748Y001210D01*
X014670Y001193D01*
X014591Y001180D01*
X014512Y001171D01*
X014432Y001165D01*
X014352Y001163D01*
X003486Y001163D01*
X003471Y001161D01*
X003456Y001157D01*
X003442Y001150D01*
X003430Y001140D01*
X003420Y001128D01*
X003413Y001114D01*
X003409Y001099D01*
X003407Y001084D01*
X003308Y001086D01*
X003210Y001093D01*
X003112Y001105D01*
X003015Y001121D01*
X002919Y001142D01*
X002824Y001168D01*
X002730Y001198D01*
X002637Y001232D01*
X002547Y001271D01*
X002458Y001314D01*
X002371Y001361D01*
X002287Y001413D01*
X002206Y001468D01*
X002127Y001527D01*
X002051Y001590D01*
X001978Y001656D01*
X001908Y001726D01*
X001842Y001799D01*
X001779Y001875D01*
X001720Y001954D01*
X001665Y002035D01*
X001613Y002120D01*
X001566Y002206D01*
X001523Y002295D01*
X001484Y002385D01*
X001450Y002478D01*
X001420Y002572D01*
X001394Y002667D01*
X001373Y002763D01*
X001357Y002860D01*
X001345Y002958D01*
X001338Y003056D01*
X001336Y003155D01*
X001297Y006376D01*
D22*
X001297Y007376D02*
X015970Y007415D01*
X015977Y007406D01*
X015987Y007399D01*
X015998Y007394D01*
X016010Y007393D01*
X016022Y007395D01*
X016033Y007400D01*
D23*
X016635Y001281D03*
X001281Y001281D03*
X001281Y026478D03*
X016635Y026478D03*
D24*
X016268Y025052D02*
X015980Y025052D01*
X015941Y024671D01*
X015693Y024568D02*
X015396Y024810D01*
X015193Y024607D01*
X015435Y024310D01*
X015332Y024062D02*
X014951Y024023D01*
X014951Y023736D01*
X015332Y023697D01*
X015435Y023449D02*
X015193Y023152D01*
X015396Y022949D01*
X015693Y023191D01*
X015813Y023129D02*
X015982Y023539D01*
X016265Y023539D02*
X016434Y023129D01*
X016554Y023191D02*
X016851Y022949D01*
X017054Y023152D01*
X016812Y023449D01*
X016915Y023697D02*
X017296Y023736D01*
X017296Y024023D01*
X016915Y024062D01*
X016812Y024310D02*
X017054Y024607D01*
X016851Y024810D01*
X016554Y024568D01*
X016306Y024671D02*
X016268Y025052D01*
X016554Y023191D02*
X016516Y023169D01*
X016476Y023148D01*
X016435Y023130D01*
X015435Y023450D02*
X015408Y023496D01*
X015385Y023545D01*
X015364Y023594D01*
X015347Y023645D01*
X015333Y023697D01*
X015694Y023191D02*
X015732Y023169D01*
X015772Y023148D01*
X015813Y023130D01*
X016813Y023450D02*
X016840Y023496D01*
X016863Y023545D01*
X016884Y023594D01*
X016901Y023645D01*
X016915Y023697D01*
X016554Y024569D02*
X016508Y024596D01*
X016459Y024619D01*
X016410Y024640D01*
X016359Y024657D01*
X016307Y024671D01*
X015435Y024310D02*
X015408Y024264D01*
X015385Y024215D01*
X015364Y024166D01*
X015347Y024115D01*
X015333Y024063D01*
X015694Y024569D02*
X015740Y024596D01*
X015789Y024619D01*
X015838Y024640D01*
X015889Y024657D01*
X015941Y024671D01*
X016813Y024310D02*
X016840Y024264D01*
X016863Y024215D01*
X016884Y024166D01*
X016901Y024115D01*
X016915Y024063D01*
X016265Y023539D02*
X016299Y023555D01*
X016332Y023575D01*
X016362Y023598D01*
X016390Y023624D01*
X016415Y023653D01*
X016436Y023684D01*
X016455Y023717D01*
X016470Y023752D01*
X016481Y023788D01*
X016489Y023825D01*
X016493Y023863D01*
X016492Y023901D01*
X016488Y023938D01*
X016480Y023976D01*
X016469Y024012D01*
X016453Y024046D01*
X016435Y024079D01*
X016412Y024110D01*
X016387Y024138D01*
X016359Y024164D01*
X016329Y024187D01*
X016296Y024206D01*
X016262Y024222D01*
X016226Y024235D01*
X016189Y024243D01*
X016152Y024248D01*
X016114Y024249D01*
X016076Y024246D01*
X016039Y024239D01*
X016002Y024228D01*
X015967Y024214D01*
X015934Y024196D01*
X015902Y024175D01*
X015873Y024150D01*
X015847Y024123D01*
X015823Y024094D01*
X015803Y024062D01*
X015786Y024028D01*
X015772Y023992D01*
X015763Y023955D01*
X015757Y023918D01*
X015755Y023880D01*
X015757Y023844D01*
X015762Y023808D01*
X015771Y023773D01*
X015783Y023739D01*
X015799Y023706D01*
X015817Y023675D01*
X015839Y023646D01*
X015863Y023619D01*
X015890Y023595D01*
X015919Y023573D01*
X015950Y023555D01*
X015983Y023539D01*
X007187Y011596D02*
X005691Y011596D01*
X005691Y011124D01*
M02*
