G75*
G70*
%OFA0B0*%
%FSLAX24Y24*%
%IPPOS*%
%LPD*%
%AMOC8*
5,1,8,0,0,1.08239X$1,22.5*
%
%ADD10C,0.0000*%
%ADD11OC8,0.0437*%
%ADD12C,0.0640*%
%ADD13R,0.0434X0.0591*%
%ADD14R,0.0591X0.0434*%
%ADD15R,0.0670X0.0552*%
%ADD16OC8,0.0600*%
%ADD17C,0.1700*%
D10*
X000100Y000100D02*
X000100Y027659D01*
X017817Y027659D01*
X017817Y000100D01*
X000100Y000100D01*
D11*
X005562Y011117D03*
X005512Y012154D03*
X005512Y013142D03*
X005512Y014129D03*
X005512Y015117D03*
X005512Y016154D03*
X006499Y016154D03*
X006499Y015117D03*
X006499Y014129D03*
X006499Y013142D03*
X006449Y012104D03*
X006449Y011117D03*
X007487Y013145D03*
X010430Y013196D03*
X011417Y013193D03*
X011417Y014180D03*
X011417Y015168D03*
X011417Y016205D03*
X012405Y016205D03*
X012405Y015168D03*
X012405Y014180D03*
X012405Y013193D03*
X012355Y012156D03*
X012355Y011168D03*
X011467Y011168D03*
X011417Y012206D03*
X013392Y013196D03*
X004524Y013145D03*
D12*
X001597Y008376D02*
X000997Y008376D01*
X000997Y007376D02*
X001597Y007376D01*
X001597Y006376D02*
X000997Y006376D01*
X015733Y006399D02*
X016333Y006399D01*
X016333Y007399D02*
X015733Y007399D01*
X015733Y008399D02*
X016333Y008399D01*
D13*
X014320Y009537D03*
X013946Y010403D03*
X013572Y009537D03*
X012757Y009537D03*
X012383Y010403D03*
X012009Y009537D03*
X011037Y009537D03*
X010663Y010403D03*
X010289Y009537D03*
X007891Y009454D03*
X007517Y010320D03*
X007143Y009454D03*
X006281Y009443D03*
X005907Y010309D03*
X005533Y009443D03*
X004718Y009443D03*
X004344Y010309D03*
X003970Y009443D03*
X004525Y016994D03*
X004151Y017860D03*
X004899Y017860D03*
X005722Y017860D03*
X006096Y016994D03*
X006470Y017860D03*
X007261Y017939D03*
X007635Y017072D03*
X008009Y017939D03*
X009943Y018230D03*
X010317Y017364D03*
X010691Y018230D03*
X011525Y018230D03*
X011899Y017364D03*
X012273Y018230D03*
X013187Y018230D03*
X013561Y017364D03*
X013935Y018230D03*
D14*
X014588Y016376D03*
X014588Y015628D03*
X014580Y014565D03*
X014580Y013817D03*
X014572Y012529D03*
X014572Y011781D03*
X013706Y012155D03*
X013714Y014191D03*
X013722Y016002D03*
X010698Y016147D03*
X009832Y015773D03*
X009832Y016521D03*
X008659Y016147D03*
X008659Y015399D03*
X008687Y014391D03*
X008687Y013643D03*
X007820Y014017D03*
X007793Y015773D03*
X009840Y014710D03*
X009840Y013962D03*
X010706Y014336D03*
X009734Y012380D03*
X009734Y011631D03*
X010600Y012006D03*
X008663Y011702D03*
X008663Y012450D03*
X007797Y012076D03*
X004206Y012104D03*
X003340Y012478D03*
X003340Y011730D03*
X003348Y013667D03*
X003348Y014415D03*
X003340Y015380D03*
X003340Y016128D03*
X004206Y015754D03*
X004214Y014041D03*
D15*
X007277Y021372D03*
X007277Y022120D03*
X006372Y022128D03*
X006372Y021380D03*
X005466Y021387D03*
X005466Y022135D03*
X004521Y022143D03*
X004521Y021395D03*
X003576Y021403D03*
X003576Y022151D03*
X008222Y022112D03*
X008222Y021364D03*
X009128Y021356D03*
X009128Y022104D03*
X010033Y022096D03*
X010033Y021348D03*
X010943Y021356D03*
X010943Y022104D03*
X011844Y022104D03*
X011844Y021356D03*
X012757Y021356D03*
X012757Y022104D03*
X013671Y022104D03*
X013671Y021356D03*
X013466Y006049D03*
X013466Y005301D03*
X012529Y005297D03*
X012529Y006045D03*
X011545Y006061D03*
X011545Y005313D03*
X010545Y005313D03*
X010545Y006061D03*
X009525Y006061D03*
X009525Y005313D03*
X008584Y005313D03*
X008584Y006061D03*
X007565Y006061D03*
X007565Y005313D03*
X006604Y005289D03*
X006604Y006037D03*
X005631Y006049D03*
X005631Y005301D03*
X004691Y005293D03*
X004691Y006041D03*
X003710Y006041D03*
X003710Y005293D03*
X014407Y005301D03*
X014407Y006049D03*
D16*
X012419Y003179D03*
X012419Y002179D03*
X011419Y002179D03*
X011419Y003179D03*
X010419Y003179D03*
X010419Y002179D03*
X009419Y002179D03*
X009419Y003179D03*
X008419Y003179D03*
X008419Y002179D03*
X007419Y002179D03*
X007419Y003179D03*
X006419Y003179D03*
X006419Y002179D03*
X005419Y002179D03*
X005419Y003179D03*
X005458Y024206D03*
X005458Y025206D03*
X006458Y025206D03*
X006458Y024206D03*
X007458Y024206D03*
X007458Y025206D03*
X008458Y025206D03*
X008458Y024206D03*
X009458Y024206D03*
X009458Y025206D03*
X010458Y025206D03*
X010458Y024206D03*
X011458Y024206D03*
X011458Y025206D03*
X012458Y025206D03*
X012458Y024206D03*
D17*
X016635Y026478D03*
X001281Y026478D03*
X001281Y001281D03*
X016635Y001281D03*
M02*
