G75*
G70*
%OFA0B0*%
%FSLAX24Y24*%
%IPPOS*%
%LPD*%
%AMOC8*
5,1,8,0,0,1.08239X$1,22.5*
%
%ADD10C,0.0000*%
%ADD11OC8,0.0560*%
%ADD12C,0.0600*%
%ADD13C,0.0436*%
%ADD14R,0.2756X0.0925*%
%ADD15C,0.1502*%
%ADD16C,0.0356*%
%ADD17C,0.0320*%
%ADD18C,0.0160*%
%ADD19C,0.0240*%
%ADD20C,0.0100*%
%ADD21C,0.0120*%
D10*
X001415Y000100D02*
X001454Y027856D01*
X019132Y027844D01*
X019132Y000100D01*
X001415Y000100D01*
D11*
X006769Y002155D03*
X006769Y003155D03*
X007769Y003155D03*
X007769Y002155D03*
X008769Y002155D03*
X008769Y003155D03*
X009769Y003155D03*
X009769Y002155D03*
X010769Y002155D03*
X010769Y003155D03*
X011769Y003155D03*
X011769Y002155D03*
X012769Y002155D03*
X012769Y003155D03*
X013769Y003155D03*
X013769Y002155D03*
X013754Y024198D03*
X013754Y025198D03*
X012754Y025198D03*
X012754Y024198D03*
X011754Y024198D03*
X011754Y025198D03*
X010754Y025198D03*
X010754Y024198D03*
X009754Y024198D03*
X009754Y025198D03*
X008754Y025198D03*
X008754Y024198D03*
X007754Y024198D03*
X007754Y025198D03*
X006754Y025198D03*
X006754Y024198D03*
D12*
X002502Y016683D02*
X001902Y016683D01*
X001902Y015683D02*
X002502Y015683D01*
X002502Y014683D02*
X001902Y014683D01*
X001902Y013683D02*
X002502Y013683D01*
X002502Y012683D02*
X001902Y012683D01*
X001902Y011683D02*
X002502Y011683D01*
X002502Y010683D02*
X001902Y010683D01*
X017887Y010722D02*
X018487Y010722D01*
X018487Y011722D02*
X017887Y011722D01*
X017887Y012722D02*
X018487Y012722D01*
X018487Y013722D02*
X017887Y013722D01*
X017887Y014722D02*
X018487Y014722D01*
X018487Y015722D02*
X017887Y015722D01*
X017887Y016722D02*
X018487Y016722D01*
D13*
X010628Y014588D03*
X010628Y014194D03*
X010037Y014194D03*
X010037Y014588D03*
X009446Y014588D03*
X009446Y014194D03*
X008856Y014194D03*
X008856Y014588D03*
D14*
X009840Y014391D03*
D15*
X002596Y026675D03*
X017950Y026675D03*
X017950Y001281D03*
X002596Y001281D03*
D16*
X003187Y005494D03*
X004880Y005966D03*
X006494Y006675D03*
X008029Y006675D03*
X007242Y008919D03*
X009013Y008919D03*
X008974Y009509D03*
X010116Y009509D03*
X010706Y008919D03*
X010864Y009785D03*
X011848Y009470D03*
X012281Y009903D03*
X012281Y008919D03*
X013069Y008998D03*
X014250Y008958D03*
X015470Y009273D03*
X015194Y010769D03*
X014368Y013210D03*
X014368Y016281D03*
X012714Y016281D03*
X012163Y015179D03*
X011691Y014234D03*
X011061Y012187D03*
X007517Y017147D03*
X007793Y017580D03*
X007163Y016714D03*
X006809Y015887D03*
X006730Y013683D03*
X003974Y010730D03*
X005194Y008840D03*
X009722Y006675D03*
X011336Y006675D03*
X013029Y006675D03*
X013935Y004943D03*
X008738Y018486D03*
X009132Y018801D03*
X009407Y019273D03*
X009722Y019667D03*
X009998Y020061D03*
X010313Y020454D03*
X010155Y020966D03*
X011297Y020376D03*
X011848Y020966D03*
X012242Y020297D03*
X012714Y020494D03*
X013462Y020927D03*
X013935Y020297D03*
X014761Y022108D03*
X012596Y022305D03*
X011297Y026124D03*
X011257Y027580D03*
X009446Y027580D03*
X009486Y025927D03*
X007557Y027541D03*
X005234Y027620D03*
X003935Y025927D03*
X004446Y025494D03*
X003462Y024549D03*
X003462Y027226D03*
X003187Y021320D03*
X003974Y020966D03*
X005431Y019706D03*
X006100Y021006D03*
X007714Y018919D03*
X008423Y020927D03*
X008895Y021675D03*
X015194Y027462D03*
X016533Y018840D03*
D17*
X016574Y018838D01*
X016615Y018833D01*
X016655Y018824D01*
X016694Y018812D01*
X016732Y018796D01*
X016769Y018777D01*
X016804Y018755D01*
X016836Y018730D01*
X016867Y018702D01*
X016895Y018671D01*
X016920Y018639D01*
X016942Y018604D01*
X016961Y018567D01*
X016977Y018529D01*
X016989Y018490D01*
X016998Y018450D01*
X017003Y018409D01*
X017005Y018368D01*
X017006Y018368D02*
X017006Y015722D01*
X018187Y015722D01*
X017006Y015722D02*
X007517Y015722D01*
X007517Y015691D01*
X007515Y015658D01*
X007510Y015626D01*
X007502Y015594D01*
X007490Y015563D01*
X007475Y015534D01*
X007457Y015506D01*
X007436Y015480D01*
X007413Y015457D01*
X007387Y015436D01*
X007360Y015418D01*
X007330Y015403D01*
X007299Y015391D01*
X007267Y015383D01*
X007235Y015378D01*
X007202Y015376D01*
X006218Y015376D01*
X006218Y015375D02*
X006187Y015377D01*
X006157Y015382D01*
X006127Y015390D01*
X006098Y015402D01*
X006071Y015417D01*
X006046Y015435D01*
X006023Y015456D01*
X006002Y015479D01*
X005984Y015504D01*
X005969Y015531D01*
X005957Y015560D01*
X005949Y015590D01*
X005944Y015620D01*
X005942Y015651D01*
X005943Y015651D02*
X005943Y015691D01*
X005942Y015687D01*
X005939Y015684D01*
X005935Y015683D01*
X002202Y015683D01*
X002202Y013683D02*
X006730Y013683D01*
X003974Y010730D02*
X015116Y010691D01*
X015116Y010690D02*
X015131Y010692D01*
X015146Y010696D01*
X015160Y010703D01*
X015172Y010713D01*
X015182Y010725D01*
X015189Y010739D01*
X015193Y010754D01*
X015195Y010769D01*
X013620Y009903D02*
X012281Y009903D01*
X012281Y008919D02*
X010706Y008919D01*
X009013Y008919D01*
X007242Y008919D01*
X007163Y008840D02*
X005194Y008840D01*
X005588Y006675D02*
X006494Y006675D01*
X008029Y006675D01*
X009722Y006675D01*
X011336Y006675D01*
X013029Y006675D01*
X013856Y006675D01*
X013932Y006677D01*
X014007Y006683D01*
X014083Y006692D01*
X014157Y006706D01*
X014231Y006723D01*
X014304Y006744D01*
X014376Y006768D01*
X014446Y006796D01*
X014515Y006828D01*
X014582Y006863D01*
X014647Y006901D01*
X014711Y006943D01*
X014772Y006988D01*
X014830Y007036D01*
X014887Y007087D01*
X014940Y007140D01*
X014991Y007197D01*
X015039Y007255D01*
X015084Y007316D01*
X015126Y007380D01*
X015164Y007445D01*
X015199Y007512D01*
X015231Y007581D01*
X015259Y007651D01*
X015283Y007723D01*
X015304Y007796D01*
X015321Y007870D01*
X015335Y007944D01*
X015344Y008020D01*
X015350Y008095D01*
X015352Y008171D01*
X015350Y008253D01*
X015344Y008336D01*
X015334Y008417D01*
X015321Y008499D01*
X015303Y008579D01*
X015282Y008659D01*
X015257Y008737D01*
X015228Y008815D01*
X015195Y008890D01*
X015159Y008965D01*
X015120Y009037D01*
X015077Y009107D01*
X015031Y009176D01*
X014981Y009242D01*
X014929Y009305D01*
X014874Y009366D01*
X014815Y009425D01*
X014754Y009480D01*
X014691Y009532D01*
X014625Y009582D01*
X014556Y009628D01*
X014486Y009671D01*
X014414Y009710D01*
X014339Y009746D01*
X014264Y009779D01*
X014186Y009808D01*
X014108Y009833D01*
X014028Y009854D01*
X013948Y009872D01*
X013866Y009885D01*
X013785Y009895D01*
X013702Y009901D01*
X013620Y009903D01*
X011061Y011761D02*
X011061Y012187D01*
X016533Y018840D02*
X016531Y018939D01*
X016524Y019038D01*
X016512Y019137D01*
X016495Y019235D01*
X016474Y019332D01*
X016448Y019428D01*
X016418Y019523D01*
X016384Y019616D01*
X016344Y019707D01*
X016301Y019796D01*
X016253Y019884D01*
X016202Y019968D01*
X016146Y020051D01*
X016086Y020130D01*
X016023Y020207D01*
X015956Y020280D01*
X015886Y020350D01*
X015813Y020417D01*
X015736Y020480D01*
X015657Y020540D01*
X015574Y020596D01*
X015490Y020647D01*
X015402Y020695D01*
X015313Y020738D01*
X015222Y020778D01*
X015129Y020812D01*
X015034Y020842D01*
X014938Y020868D01*
X014841Y020889D01*
X014743Y020906D01*
X014644Y020918D01*
X014545Y020925D01*
X014446Y020927D01*
X013462Y020927D01*
X005588Y006675D02*
X005537Y006673D01*
X005487Y006668D01*
X005437Y006659D01*
X005388Y006646D01*
X005340Y006630D01*
X005293Y006611D01*
X005248Y006588D01*
X005205Y006562D01*
X005163Y006534D01*
X005124Y006502D01*
X005087Y006467D01*
X005052Y006430D01*
X005020Y006391D01*
X004992Y006349D01*
X004966Y006306D01*
X004943Y006261D01*
X004924Y006214D01*
X004908Y006166D01*
X004895Y006117D01*
X004886Y006067D01*
X004881Y006017D01*
X004879Y005966D01*
X004880Y005966D02*
X003777Y005966D01*
X003777Y005967D02*
X003733Y005970D01*
X003689Y005969D01*
X003645Y005965D01*
X003601Y005957D01*
X003559Y005946D01*
X003517Y005931D01*
X003477Y005912D01*
X003438Y005891D01*
X003401Y005866D01*
X003367Y005839D01*
X003335Y005808D01*
X003305Y005775D01*
X003278Y005740D01*
X003255Y005703D01*
X003234Y005664D01*
X003217Y005623D01*
X003203Y005581D01*
X003193Y005538D01*
X003186Y005494D01*
D18*
X007163Y008840D02*
X007242Y008919D01*
X008974Y009509D02*
X010116Y009509D01*
X013069Y008998D02*
X013070Y008988D01*
X013074Y008979D01*
X013080Y008970D01*
X013089Y008964D01*
X013098Y008960D01*
X013108Y008959D01*
X013108Y008958D02*
X014250Y008958D01*
X015470Y009273D02*
X015470Y008289D01*
X015468Y008269D01*
X015463Y008249D01*
X015454Y008230D01*
X015442Y008213D01*
X015428Y008199D01*
X015411Y008187D01*
X015392Y008178D01*
X015372Y008173D01*
X015352Y008171D01*
X014368Y012722D02*
X014368Y013210D01*
X012202Y013722D02*
X018187Y013722D01*
X014368Y016281D02*
X012714Y016281D01*
X012163Y015179D02*
X012163Y014761D01*
X011690Y014234D02*
X011692Y014192D01*
X011697Y014150D01*
X011706Y014108D01*
X011718Y014068D01*
X011733Y014028D01*
X011752Y013990D01*
X011773Y013954D01*
X011798Y013920D01*
X011825Y013887D01*
X011855Y013857D01*
X011888Y013830D01*
X011922Y013805D01*
X011958Y013784D01*
X011996Y013765D01*
X012036Y013750D01*
X012076Y013738D01*
X012118Y013729D01*
X012160Y013724D01*
X012202Y013722D01*
X014761Y022108D02*
X014801Y022110D01*
X014841Y022115D01*
X014879Y022125D01*
X014917Y022137D01*
X014954Y022153D01*
X014989Y022173D01*
X015022Y022195D01*
X015053Y022221D01*
X015081Y022249D01*
X015107Y022280D01*
X015129Y022313D01*
X015149Y022348D01*
X015165Y022385D01*
X015177Y022423D01*
X015187Y022461D01*
X015192Y022501D01*
X015194Y022541D01*
X015194Y025769D01*
X015194Y027462D01*
X003935Y025927D02*
X003935Y021006D01*
X003936Y020996D01*
X003940Y020987D01*
X003946Y020978D01*
X003955Y020972D01*
X003964Y020968D01*
X003974Y020967D01*
D19*
X003974Y020966D02*
X006100Y021006D01*
X008423Y020927D01*
X010155Y020966D01*
X011848Y020966D01*
X013462Y020927D01*
X011746Y015100D02*
X007714Y015100D01*
X007683Y015098D01*
X007653Y015093D01*
X007623Y015085D01*
X007594Y015073D01*
X007567Y015058D01*
X007542Y015040D01*
X007519Y015019D01*
X007498Y014996D01*
X007480Y014971D01*
X007465Y014944D01*
X007453Y014915D01*
X007445Y014885D01*
X007440Y014855D01*
X007438Y014824D01*
X007439Y014824D02*
X007297Y014683D01*
X002202Y014683D01*
X002202Y014722D01*
X002202Y012722D02*
X002202Y012683D01*
X002202Y012722D02*
X014368Y012722D01*
X014604Y012722D01*
X018187Y012722D01*
X018187Y011722D02*
X011100Y011722D01*
X002202Y011722D01*
X002202Y011683D01*
X011746Y015100D02*
X011783Y015098D01*
X011820Y015093D01*
X011856Y015084D01*
X011891Y015071D01*
X011924Y015055D01*
X011956Y015036D01*
X011986Y015014D01*
X012013Y014989D01*
X012038Y014962D01*
X012060Y014932D01*
X012079Y014900D01*
X012095Y014867D01*
X012108Y014832D01*
X012117Y014796D01*
X012122Y014759D01*
X012124Y014722D01*
X018187Y014722D01*
X014446Y006084D02*
X014446Y002832D01*
X014444Y002781D01*
X014438Y002731D01*
X014429Y002681D01*
X014416Y002632D01*
X014399Y002585D01*
X014379Y002538D01*
X014355Y002494D01*
X014328Y002451D01*
X014298Y002410D01*
X014265Y002372D01*
X014229Y002336D01*
X014191Y002303D01*
X014150Y002273D01*
X014108Y002246D01*
X014063Y002222D01*
X014016Y002202D01*
X013969Y002185D01*
X013920Y002172D01*
X013870Y002163D01*
X013820Y002157D01*
X013769Y002155D01*
X014447Y006084D02*
X014445Y006130D01*
X014440Y006176D01*
X014431Y006222D01*
X014418Y006267D01*
X014402Y006310D01*
X014383Y006352D01*
X014360Y006393D01*
X014334Y006431D01*
X014305Y006468D01*
X014274Y006502D01*
X014240Y006533D01*
X014203Y006562D01*
X014165Y006588D01*
X014124Y006611D01*
X014082Y006630D01*
X014039Y006646D01*
X013994Y006659D01*
X013948Y006668D01*
X013902Y006673D01*
X013856Y006675D01*
D20*
X013935Y004943D02*
X013935Y004470D01*
X013265Y003801D01*
X013265Y002651D01*
X012769Y002155D01*
X011848Y009470D02*
X011257Y009470D01*
X010864Y009785D01*
X011100Y011722D02*
X011090Y011723D01*
X011081Y011727D01*
X011072Y011733D01*
X011066Y011742D01*
X011062Y011751D01*
X011061Y011761D01*
X012124Y014722D02*
X012134Y014723D01*
X012144Y014727D01*
X012152Y014733D01*
X012158Y014742D01*
X012162Y014751D01*
X012163Y014761D01*
X010864Y016793D02*
X009053Y016793D01*
X008738Y018486D02*
X008738Y018525D01*
X008739Y018535D01*
X008743Y018545D01*
X008749Y018553D01*
X008758Y018559D01*
X008767Y018563D01*
X008777Y018564D01*
X009132Y018801D02*
X009132Y018958D01*
X009131Y018958D02*
X009130Y018948D01*
X009126Y018939D01*
X009120Y018930D01*
X009112Y018924D01*
X009102Y018920D01*
X009092Y018919D01*
X007714Y018919D01*
X007793Y017620D02*
X007793Y017580D01*
X007163Y016754D02*
X007163Y016714D01*
X007517Y016360D02*
X007515Y016340D01*
X007510Y016320D01*
X007501Y016301D01*
X007489Y016284D01*
X007475Y016270D01*
X007458Y016258D01*
X007439Y016249D01*
X007419Y016244D01*
X007399Y016242D01*
X007006Y016242D01*
X006978Y016240D01*
X006950Y016235D01*
X006922Y016227D01*
X006896Y016215D01*
X006872Y016200D01*
X006850Y016183D01*
X006829Y016162D01*
X006812Y016140D01*
X006797Y016116D01*
X006785Y016090D01*
X006777Y016062D01*
X006772Y016034D01*
X006770Y016006D01*
X006769Y016006D02*
X006769Y015927D01*
X006809Y015887D01*
X005431Y019706D02*
X009722Y019706D01*
X009722Y019667D01*
X009998Y020061D02*
X009998Y020100D01*
X009999Y020110D01*
X010003Y020120D01*
X010009Y020128D01*
X010018Y020134D01*
X010027Y020138D01*
X010037Y020139D01*
X010155Y020376D02*
X003895Y020376D01*
X003895Y020375D02*
X003844Y020377D01*
X003794Y020382D01*
X003744Y020391D01*
X003695Y020404D01*
X003647Y020420D01*
X003600Y020439D01*
X003555Y020462D01*
X003512Y020488D01*
X003470Y020516D01*
X003431Y020548D01*
X003394Y020583D01*
X003359Y020620D01*
X003327Y020659D01*
X003299Y020701D01*
X003273Y020744D01*
X003250Y020789D01*
X003231Y020836D01*
X003215Y020884D01*
X003202Y020933D01*
X003193Y020983D01*
X003188Y021033D01*
X003186Y021084D01*
X003187Y021084D02*
X003187Y021320D01*
X008265Y023368D02*
X008265Y025730D01*
X009486Y025927D02*
X009486Y027541D01*
X009485Y027541D02*
X009484Y027551D01*
X009480Y027561D01*
X009474Y027569D01*
X009466Y027575D01*
X009456Y027579D01*
X009446Y027580D01*
X011257Y027580D02*
X011297Y027620D01*
X011297Y026124D01*
X010273Y020494D02*
X010271Y020474D01*
X010266Y020454D01*
X010257Y020435D01*
X010245Y020418D01*
X010231Y020404D01*
X010214Y020392D01*
X010195Y020383D01*
X010175Y020378D01*
X010155Y020376D01*
X010273Y020493D02*
X010283Y020492D01*
X010293Y020488D01*
X010301Y020482D01*
X010307Y020474D01*
X010311Y020464D01*
X010312Y020454D01*
X009407Y019431D02*
X009407Y019273D01*
X010864Y016793D02*
X010952Y016795D01*
X011040Y016801D01*
X011127Y016812D01*
X011214Y016826D01*
X011300Y016845D01*
X011385Y016868D01*
X011469Y016895D01*
X011552Y016926D01*
X011633Y016960D01*
X011712Y016999D01*
X011789Y017041D01*
X011864Y017087D01*
X011937Y017136D01*
X012008Y017189D01*
X012075Y017245D01*
X012141Y017304D01*
X012203Y017366D01*
X012262Y017432D01*
X012318Y017499D01*
X012371Y017570D01*
X012420Y017643D01*
X012466Y017718D01*
X012508Y017795D01*
X012547Y017874D01*
X012581Y017955D01*
X012612Y018038D01*
X012639Y018122D01*
X012662Y018207D01*
X012681Y018293D01*
X012695Y018380D01*
X012706Y018467D01*
X012712Y018555D01*
X012714Y018643D01*
X012714Y020494D01*
X014368Y012722D02*
X014386Y012706D01*
X014406Y012693D01*
X014428Y012684D01*
X014451Y012677D01*
X014474Y012673D01*
X014498Y012673D01*
X014521Y012677D01*
X014544Y012684D01*
X014566Y012693D01*
X014586Y012706D01*
X014604Y012722D01*
D21*
X011966Y016517D02*
X007675Y016517D01*
X007517Y016360D01*
X007163Y016754D02*
X009053Y016793D01*
X008502Y017580D02*
X007793Y017580D01*
X007517Y017147D02*
X010903Y017147D01*
X010975Y017149D01*
X011047Y017155D01*
X011119Y017164D01*
X011190Y017177D01*
X011260Y017194D01*
X011329Y017214D01*
X011397Y017239D01*
X011463Y017266D01*
X011529Y017297D01*
X011592Y017332D01*
X011654Y017369D01*
X011713Y017410D01*
X011770Y017454D01*
X011825Y017501D01*
X011877Y017551D01*
X011927Y017603D01*
X011974Y017658D01*
X012018Y017715D01*
X012059Y017774D01*
X012096Y017836D01*
X012131Y017899D01*
X012162Y017965D01*
X012189Y018031D01*
X012214Y018099D01*
X012234Y018168D01*
X012251Y018238D01*
X012264Y018309D01*
X012273Y018381D01*
X012279Y018453D01*
X012281Y018525D01*
X012281Y020257D01*
X012280Y020267D01*
X012276Y020277D01*
X012270Y020285D01*
X012262Y020291D01*
X012252Y020295D01*
X012242Y020296D01*
X013974Y018525D02*
X013972Y018429D01*
X013965Y018334D01*
X013954Y018239D01*
X013938Y018145D01*
X013917Y018052D01*
X013893Y017959D01*
X013864Y017868D01*
X013830Y017779D01*
X013793Y017691D01*
X013751Y017605D01*
X013705Y017521D01*
X013655Y017439D01*
X013602Y017360D01*
X013544Y017284D01*
X013484Y017210D01*
X013419Y017139D01*
X013352Y017072D01*
X013281Y017007D01*
X013207Y016947D01*
X013131Y016889D01*
X013052Y016836D01*
X012970Y016786D01*
X012886Y016740D01*
X012800Y016698D01*
X012712Y016661D01*
X012623Y016627D01*
X012532Y016598D01*
X012439Y016574D01*
X012346Y016553D01*
X012252Y016537D01*
X012157Y016526D01*
X012062Y016519D01*
X011966Y016517D01*
X013974Y018525D02*
X013935Y020297D01*
X012596Y022305D02*
X012596Y024041D01*
X012754Y024198D01*
X012753Y025198D02*
X012755Y025243D01*
X012760Y025287D01*
X012769Y025331D01*
X012781Y025374D01*
X012796Y025417D01*
X012815Y025457D01*
X012837Y025496D01*
X012862Y025534D01*
X012890Y025569D01*
X012920Y025602D01*
X012953Y025632D01*
X012988Y025660D01*
X013026Y025685D01*
X013065Y025707D01*
X013105Y025726D01*
X013148Y025741D01*
X013191Y025753D01*
X013235Y025762D01*
X013279Y025767D01*
X013324Y025769D01*
X015194Y025769D01*
X010037Y020139D02*
X010035Y020119D01*
X010030Y020099D01*
X010021Y020080D01*
X010009Y020063D01*
X009995Y020049D01*
X009978Y020037D01*
X009959Y020028D01*
X009939Y020023D01*
X009919Y020021D01*
X003383Y020021D01*
X003337Y020023D01*
X003291Y020028D01*
X003245Y020037D01*
X003200Y020050D01*
X003157Y020066D01*
X003115Y020085D01*
X003074Y020108D01*
X003036Y020134D01*
X002999Y020163D01*
X002965Y020194D01*
X002934Y020228D01*
X002905Y020265D01*
X002879Y020303D01*
X002856Y020344D01*
X002837Y020386D01*
X002821Y020429D01*
X002808Y020474D01*
X002799Y020520D01*
X002794Y020566D01*
X002792Y020612D01*
X002793Y020612D02*
X002793Y023880D01*
X002478Y023407D02*
X002478Y025061D01*
X002424Y025063D01*
X002371Y025068D01*
X002318Y025077D01*
X002266Y025090D01*
X002214Y025106D01*
X002164Y025126D01*
X002116Y025149D01*
X002069Y025176D01*
X002024Y025205D01*
X001981Y025238D01*
X001941Y025273D01*
X001903Y025311D01*
X001868Y025351D01*
X001835Y025394D01*
X001806Y025439D01*
X001779Y025486D01*
X001756Y025534D01*
X001736Y025584D01*
X001720Y025636D01*
X001707Y025688D01*
X001698Y025741D01*
X001693Y025794D01*
X001691Y025848D01*
X001691Y026990D01*
X001690Y026990D02*
X001692Y027039D01*
X001698Y027089D01*
X001707Y027137D01*
X001721Y027185D01*
X001738Y027231D01*
X001759Y027276D01*
X001783Y027319D01*
X001810Y027360D01*
X001841Y027399D01*
X001875Y027435D01*
X001911Y027469D01*
X001950Y027500D01*
X001991Y027527D01*
X002034Y027551D01*
X002079Y027572D01*
X002125Y027589D01*
X002173Y027603D01*
X002221Y027612D01*
X002271Y027618D01*
X002320Y027620D01*
X005234Y027620D01*
X004446Y026202D02*
X004446Y025494D01*
X004447Y026202D02*
X004446Y026263D01*
X004442Y026323D01*
X004434Y026384D01*
X004422Y026443D01*
X004407Y026502D01*
X004389Y026560D01*
X004366Y026616D01*
X004341Y026671D01*
X004312Y026724D01*
X004280Y026776D01*
X004245Y026826D01*
X004207Y026873D01*
X004167Y026918D01*
X004123Y026960D01*
X004078Y027000D01*
X004029Y027037D01*
X003979Y027071D01*
X003927Y027102D01*
X003873Y027129D01*
X003817Y027154D01*
X003760Y027174D01*
X003702Y027192D01*
X003643Y027206D01*
X003584Y027216D01*
X003523Y027223D01*
X003463Y027226D01*
X003462Y024549D02*
X003412Y024547D01*
X003362Y024542D01*
X003313Y024532D01*
X003265Y024519D01*
X003218Y024503D01*
X003172Y024483D01*
X003128Y024459D01*
X003085Y024433D01*
X003045Y024403D01*
X003007Y024370D01*
X002972Y024335D01*
X002939Y024297D01*
X002909Y024257D01*
X002883Y024215D01*
X002859Y024170D01*
X002839Y024124D01*
X002823Y024077D01*
X002810Y024029D01*
X002800Y023980D01*
X002795Y023930D01*
X002793Y023880D01*
X002478Y023407D02*
X002477Y023397D01*
X002473Y023388D01*
X002467Y023379D01*
X002459Y023373D01*
X002449Y023369D01*
X002439Y023368D01*
X002439Y019667D01*
X002438Y019667D02*
X002440Y019628D01*
X002446Y019590D01*
X002455Y019553D01*
X002468Y019516D01*
X002485Y019481D01*
X002504Y019448D01*
X002527Y019417D01*
X002553Y019388D01*
X002582Y019362D01*
X002613Y019339D01*
X002646Y019320D01*
X002681Y019303D01*
X002718Y019290D01*
X002755Y019281D01*
X002793Y019275D01*
X002832Y019273D01*
X009250Y019273D01*
X009250Y019274D02*
X009272Y019276D01*
X009294Y019280D01*
X009315Y019288D01*
X009335Y019299D01*
X009353Y019312D01*
X009369Y019328D01*
X009382Y019346D01*
X009393Y019366D01*
X009401Y019387D01*
X009405Y019409D01*
X009407Y019431D01*
X008502Y017581D02*
X008635Y017584D01*
X008768Y017594D01*
X008900Y017609D01*
X009031Y017632D01*
X009161Y017660D01*
X009289Y017694D01*
X009416Y017735D01*
X009541Y017781D01*
X009663Y017834D01*
X009783Y017892D01*
X009900Y017955D01*
X010013Y018025D01*
X010123Y018099D01*
X010230Y018179D01*
X010332Y018264D01*
X010431Y018353D01*
X010525Y018447D01*
X010614Y018546D01*
X010699Y018648D01*
X010779Y018755D01*
X010853Y018865D01*
X010923Y018979D01*
X010986Y019095D01*
X011044Y019215D01*
X011097Y019337D01*
X011143Y019462D01*
X011184Y019589D01*
X011218Y019717D01*
X011246Y019847D01*
X011269Y019978D01*
X011284Y020110D01*
X011294Y020243D01*
X011297Y020376D01*
X008895Y021675D02*
X008846Y021677D01*
X008796Y021683D01*
X008748Y021692D01*
X008700Y021706D01*
X008654Y021723D01*
X008609Y021744D01*
X008566Y021768D01*
X008525Y021795D01*
X008486Y021826D01*
X008450Y021860D01*
X008416Y021896D01*
X008385Y021935D01*
X008358Y021976D01*
X008334Y022019D01*
X008313Y022064D01*
X008296Y022110D01*
X008282Y022158D01*
X008273Y022206D01*
X008267Y022256D01*
X008265Y022305D01*
X008265Y023368D01*
X008265Y025730D02*
X008265Y025966D01*
X008263Y026006D01*
X008258Y026046D01*
X008248Y026084D01*
X008236Y026122D01*
X008220Y026159D01*
X008200Y026194D01*
X008178Y026227D01*
X008152Y026258D01*
X008124Y026286D01*
X008093Y026312D01*
X008060Y026334D01*
X008025Y026354D01*
X007988Y026370D01*
X007950Y026382D01*
X007912Y026392D01*
X007872Y026397D01*
X007832Y026399D01*
X007832Y026400D02*
X007799Y026402D01*
X007766Y026407D01*
X007735Y026417D01*
X007704Y026429D01*
X007675Y026445D01*
X007648Y026465D01*
X007624Y026487D01*
X007602Y026512D01*
X007583Y026539D01*
X007567Y026568D01*
X007555Y026599D01*
X007546Y026630D01*
X007541Y026663D01*
X007539Y026696D01*
X007541Y026729D01*
X007547Y026762D01*
X007557Y026793D01*
X007557Y027541D01*
M02*
