G75*
G70*
%OFA0B0*%
%FSLAX24Y24*%
%IPPOS*%
%LPD*%
%AMOC8*
5,1,8,0,0,1.08239X$1,22.5*
%
%ADD10C,0.0000*%
%ADD11R,0.0394X0.0551*%
%ADD12R,0.0551X0.0394*%
%ADD13R,0.0315X0.0315*%
%ADD14R,0.0512X0.0630*%
%ADD15R,0.0110X0.0780*%
%ADD16C,0.0050*%
%ADD17R,0.0591X0.0394*%
D10*
X001415Y000100D02*
X001454Y027856D01*
X019132Y027844D01*
X019132Y000100D01*
X001415Y000100D01*
D11*
X003372Y003773D03*
X003746Y004639D03*
X002998Y004639D03*
X004820Y005348D03*
X005194Y004482D03*
X005569Y005348D03*
X006482Y006072D03*
X006856Y005206D03*
X007230Y006072D03*
X008041Y006033D03*
X008415Y005167D03*
X008789Y006033D03*
X009706Y006072D03*
X010080Y005206D03*
X010454Y006072D03*
X011313Y006065D03*
X011687Y005198D03*
X012061Y006065D03*
X013029Y006065D03*
X013403Y005198D03*
X013777Y006065D03*
X012667Y007521D03*
X013041Y008387D03*
X012293Y008387D03*
X011443Y008387D03*
X011069Y007521D03*
X010694Y008387D03*
X009718Y008395D03*
X009344Y007529D03*
X008970Y008395D03*
X007911Y008395D03*
X007537Y007529D03*
X007163Y008395D03*
X005958Y008317D03*
X005584Y007450D03*
X005210Y008317D03*
X005380Y021663D03*
X005754Y022529D03*
X006128Y021663D03*
X007679Y021663D03*
X008427Y021663D03*
X008053Y022529D03*
X009380Y021671D03*
X009754Y022537D03*
X010128Y021671D03*
X011088Y021671D03*
X011462Y022537D03*
X011836Y021671D03*
X012718Y021671D03*
X013092Y022537D03*
X013466Y021671D03*
X003946Y021860D03*
X003572Y022726D03*
X003198Y021860D03*
D12*
X003923Y026478D03*
X003923Y027226D03*
X004789Y026852D03*
X005852Y026856D03*
X005852Y027604D03*
X006718Y027230D03*
X007828Y027517D03*
X007828Y026769D03*
X008694Y027143D03*
X009600Y027502D03*
X009600Y026754D03*
X010466Y027128D03*
X011411Y027486D03*
X011411Y026738D03*
X012277Y027112D03*
X013348Y027478D03*
X013348Y026730D03*
X014214Y027104D03*
D13*
X013718Y018840D03*
X013128Y018840D03*
D14*
X015214Y018840D03*
X015962Y018840D03*
D15*
X011572Y015868D03*
X011317Y015868D03*
X011061Y015868D03*
X010805Y015868D03*
X010549Y015868D03*
X010293Y015868D03*
X010037Y015868D03*
X009781Y015868D03*
X009525Y015868D03*
X009269Y015868D03*
X009013Y015868D03*
X008757Y015868D03*
X008502Y015868D03*
X008246Y015868D03*
X007990Y015868D03*
X007734Y015868D03*
X007734Y012915D03*
X007990Y012915D03*
X008246Y012915D03*
X008502Y012915D03*
X008757Y012915D03*
X009013Y012915D03*
X009269Y012915D03*
X009525Y012915D03*
X009781Y012915D03*
X010037Y012915D03*
X010293Y012915D03*
X010549Y012915D03*
X010805Y012915D03*
X011061Y012915D03*
X011317Y012915D03*
X011572Y012915D03*
D16*
X010332Y014096D02*
X010332Y014687D01*
X009742Y014687D01*
X009742Y014096D01*
X010332Y014096D01*
X010332Y014117D02*
X009742Y014117D01*
X009742Y014165D02*
X010332Y014165D01*
X010332Y014214D02*
X009742Y014214D01*
X009742Y014262D02*
X010332Y014262D01*
X010332Y014311D02*
X009742Y014311D01*
X009742Y014359D02*
X010332Y014359D01*
X010332Y014408D02*
X009742Y014408D01*
X009742Y014456D02*
X010332Y014456D01*
X010332Y014505D02*
X009742Y014505D01*
X009742Y014553D02*
X010332Y014553D01*
X010332Y014602D02*
X009742Y014602D01*
X009742Y014650D02*
X010332Y014650D01*
D17*
X012817Y014194D03*
X013557Y014194D03*
M02*
