G75*
G70*
%OFA0B0*%
%FSLAX24Y24*%
%IPPOS*%
%LPD*%
%AMOC8*
5,1,8,0,0,1.08239X$1,22.5*
%
%ADD10C,0.0000*%
%ADD11C,0.0079*%
%ADD12C,0.0060*%
%ADD13C,0.0080*%
%ADD14C,0.0050*%
%ADD15C,0.0020*%
%ADD16C,0.0070*%
%ADD17C,0.0040*%
%ADD18R,0.0098X0.0098*%
%ADD19C,0.0020*%
%ADD20C,0.0010*%
D10*
X001415Y000100D02*
X001454Y027856D01*
X019132Y027844D01*
X019132Y000100D01*
X001415Y000100D01*
D11*
X016790Y023815D02*
X016587Y024019D01*
X016829Y024315D01*
X016785Y024394D01*
X016751Y024477D01*
X016726Y024563D01*
X016345Y024602D01*
X016345Y024890D01*
X016726Y024928D01*
X016751Y025014D01*
X016785Y025097D01*
X016829Y025176D01*
X016587Y025473D01*
X016790Y025676D01*
X017087Y025434D01*
X017166Y025478D01*
X017249Y025512D01*
X017785Y025512D01*
X017786Y025512D02*
X017700Y025537D01*
X017661Y025918D01*
X017373Y025918D01*
X017335Y025537D01*
X017249Y025512D01*
X017340Y025589D02*
X017695Y025589D01*
X017687Y025667D02*
X017348Y025667D01*
X017356Y025744D02*
X017679Y025744D01*
X017671Y025821D02*
X017364Y025821D01*
X017371Y025898D02*
X017663Y025898D01*
X017786Y025512D02*
X017869Y025478D01*
X017948Y025434D01*
X018244Y025676D01*
X018448Y025473D01*
X018206Y025176D01*
X018249Y025097D01*
X018284Y025014D01*
X018309Y024928D01*
X018690Y024890D01*
X018690Y024602D01*
X018309Y024563D01*
X018284Y024477D01*
X018249Y024394D01*
X018206Y024315D01*
X018448Y024019D01*
X018244Y023815D01*
X017948Y024057D01*
X017889Y024024D01*
X017828Y023995D01*
X017659Y024405D01*
X017722Y024439D01*
X017778Y024485D01*
X017824Y024541D01*
X017858Y024604D01*
X017879Y024674D01*
X017886Y024746D01*
X017879Y024818D01*
X017858Y024887D01*
X017824Y024951D01*
X017778Y025007D01*
X017722Y025053D01*
X017659Y025087D01*
X017589Y025108D01*
X017517Y025115D01*
X017445Y025108D01*
X017376Y025087D01*
X017312Y025053D01*
X017256Y025007D01*
X017210Y024951D01*
X017176Y024887D01*
X017155Y024818D01*
X017148Y024746D01*
X017155Y024674D01*
X017176Y024604D01*
X017210Y024541D01*
X017256Y024485D01*
X017312Y024439D01*
X017376Y024405D01*
X017207Y023995D01*
X017146Y024024D01*
X017087Y024057D01*
X016790Y023815D01*
X016715Y023890D02*
X016882Y023890D01*
X016977Y023967D02*
X016638Y023967D01*
X016608Y024045D02*
X017072Y024045D01*
X017109Y024045D02*
X017227Y024045D01*
X017259Y024122D02*
X016671Y024122D01*
X016734Y024199D02*
X017291Y024199D01*
X017323Y024276D02*
X016797Y024276D01*
X016808Y024353D02*
X017355Y024353D01*
X017327Y024431D02*
X016770Y024431D01*
X016742Y024508D02*
X017237Y024508D01*
X017187Y024585D02*
X016508Y024585D01*
X016345Y024662D02*
X017159Y024662D01*
X017149Y024740D02*
X016345Y024740D01*
X016345Y024817D02*
X017155Y024817D01*
X017180Y024894D02*
X016390Y024894D01*
X016681Y025358D02*
X018354Y025358D01*
X018417Y025435D02*
X017948Y025435D01*
X017947Y025435D02*
X017088Y025435D01*
X017086Y025435D02*
X016618Y025435D01*
X016626Y025512D02*
X016992Y025512D01*
X016897Y025589D02*
X016703Y025589D01*
X016780Y025667D02*
X016802Y025667D01*
X016744Y025280D02*
X018291Y025280D01*
X018228Y025203D02*
X016807Y025203D01*
X016801Y025126D02*
X018234Y025126D01*
X018269Y025049D02*
X017727Y025049D01*
X017807Y024971D02*
X018296Y024971D01*
X018645Y024894D02*
X017854Y024894D01*
X017879Y024817D02*
X018690Y024817D01*
X018690Y024740D02*
X017886Y024740D01*
X017876Y024662D02*
X018690Y024662D01*
X018527Y024585D02*
X017848Y024585D01*
X017797Y024508D02*
X018293Y024508D01*
X018264Y024431D02*
X017707Y024431D01*
X017680Y024353D02*
X018227Y024353D01*
X018238Y024276D02*
X017712Y024276D01*
X017744Y024199D02*
X018301Y024199D01*
X018364Y024122D02*
X017776Y024122D01*
X017808Y024045D02*
X017926Y024045D01*
X017963Y024045D02*
X018427Y024045D01*
X018397Y023967D02*
X018058Y023967D01*
X018152Y023890D02*
X018320Y023890D01*
X017227Y024971D02*
X016739Y024971D01*
X016765Y025049D02*
X017308Y025049D01*
X018043Y025512D02*
X018409Y025512D01*
X018332Y025589D02*
X018138Y025589D01*
X018232Y025667D02*
X018254Y025667D01*
D12*
X018135Y018172D02*
X018562Y017532D01*
X018562Y018172D01*
X018135Y018172D02*
X018135Y017532D01*
X017918Y017532D02*
X017705Y017532D01*
X017812Y017532D02*
X017812Y018172D01*
X017918Y018172D02*
X017705Y018172D01*
X017937Y017222D02*
X017687Y016972D01*
X017687Y016472D01*
X017937Y016222D01*
X017687Y015972D01*
X017687Y015472D01*
X017937Y015222D01*
X018437Y015222D01*
X018687Y015472D01*
X018687Y015972D01*
X018437Y016222D01*
X017937Y016222D01*
X018437Y016222D02*
X018687Y016472D01*
X018687Y016972D01*
X018437Y017222D01*
X017937Y017222D01*
X017452Y017148D02*
X017452Y016508D01*
X017132Y016508D01*
X017025Y016615D01*
X017025Y016828D01*
X017132Y016935D01*
X017452Y016935D01*
X017398Y016125D02*
X016971Y016125D01*
X016971Y015805D01*
X017185Y015911D01*
X017292Y015911D01*
X017398Y015805D01*
X017398Y015591D01*
X017292Y015484D01*
X017078Y015484D01*
X016971Y015591D01*
X016754Y015805D02*
X016327Y015805D01*
X016540Y016018D02*
X016540Y015591D01*
X016317Y015023D02*
X016317Y014382D01*
X016744Y014382D01*
X016961Y014382D02*
X016961Y015023D01*
X017068Y014702D02*
X017388Y014382D01*
X017687Y014472D02*
X017687Y014972D01*
X017937Y015222D01*
X018437Y015222D02*
X018687Y014972D01*
X018687Y014472D01*
X018437Y014222D01*
X018687Y013972D01*
X018687Y013472D01*
X018437Y013222D01*
X018687Y012972D01*
X018687Y012472D01*
X018437Y012222D01*
X017937Y012222D01*
X017687Y012472D01*
X017687Y012972D01*
X017937Y013222D01*
X017687Y013472D01*
X017687Y013972D01*
X017937Y014222D01*
X017687Y014472D01*
X017937Y014222D02*
X018437Y014222D01*
X017592Y013757D02*
X017592Y013437D01*
X017592Y013757D02*
X017485Y013864D01*
X017165Y013864D01*
X017165Y013437D01*
X016949Y013437D02*
X016735Y013437D01*
X016842Y013437D02*
X016842Y014078D01*
X016735Y014078D02*
X016949Y014078D01*
X016961Y014595D02*
X017388Y015023D01*
X016411Y014078D02*
X016197Y014078D01*
X016091Y013971D01*
X016091Y013864D01*
X016197Y013757D01*
X016411Y013757D01*
X016518Y013651D01*
X016518Y013544D01*
X016411Y013437D01*
X016197Y013437D01*
X016091Y013544D01*
X015858Y013054D02*
X015858Y012413D01*
X015964Y012413D02*
X015751Y012413D01*
X015776Y012070D02*
X016203Y011429D01*
X016420Y011429D02*
X016634Y011429D01*
X016527Y011429D02*
X016527Y012070D01*
X016420Y012070D01*
X016203Y012070D02*
X015776Y011429D01*
X015427Y012413D02*
X015106Y012413D01*
X015106Y013054D01*
X015427Y013054D01*
X015533Y012947D01*
X015533Y012840D01*
X015427Y012734D01*
X015106Y012734D01*
X015427Y012734D02*
X015533Y012627D01*
X015533Y012520D01*
X015427Y012413D01*
X015751Y013054D02*
X015858Y013054D01*
X016287Y012840D02*
X016501Y012840D01*
X016608Y012734D01*
X016608Y012413D01*
X016287Y012413D01*
X016181Y012520D01*
X016287Y012627D01*
X016608Y012627D01*
X016825Y012413D02*
X016825Y012840D01*
X017145Y012840D01*
X017252Y012734D01*
X017252Y012413D01*
X017470Y012413D02*
X017470Y013054D01*
X017790Y012840D02*
X017470Y012627D01*
X017790Y012413D01*
X017937Y012222D02*
X017687Y011972D01*
X017687Y011472D01*
X017937Y011222D01*
X017687Y010972D01*
X017687Y010472D01*
X017937Y010222D01*
X018437Y010222D01*
X018687Y010472D01*
X018687Y010972D01*
X018437Y011222D01*
X017937Y011222D01*
X017708Y011429D02*
X017601Y011536D01*
X017601Y011963D01*
X017494Y011856D02*
X017708Y011856D01*
X017277Y011749D02*
X017277Y011429D01*
X016957Y011429D01*
X016850Y011536D01*
X016957Y011643D01*
X017277Y011643D01*
X017277Y011749D02*
X017170Y011856D01*
X016957Y011856D01*
X017937Y013222D02*
X018437Y013222D01*
X018437Y012222D02*
X018687Y011972D01*
X018687Y011472D01*
X018437Y011222D01*
X016518Y013971D02*
X016411Y014078D01*
X016099Y014489D02*
X015992Y014382D01*
X015779Y014382D01*
X015672Y014489D01*
X015672Y014916D01*
X015779Y015023D01*
X015992Y015023D01*
X016099Y014916D01*
X015455Y014916D02*
X015348Y015023D01*
X015134Y015023D01*
X015028Y014916D01*
X015028Y014809D01*
X015134Y014702D01*
X015348Y014702D01*
X015455Y014595D01*
X015455Y014489D01*
X015348Y014382D01*
X015134Y014382D01*
X015028Y014489D01*
X015843Y016508D02*
X015736Y016615D01*
X015736Y017042D01*
X015843Y017148D01*
X016057Y017148D01*
X016163Y017042D01*
X016163Y016828D02*
X015950Y016828D01*
X016163Y016828D02*
X016163Y016615D01*
X016057Y016508D01*
X015843Y016508D01*
X016381Y016508D02*
X016381Y016935D01*
X016701Y016935D01*
X016808Y016828D01*
X016808Y016508D01*
X015574Y018077D02*
X015467Y018077D01*
X015254Y017863D01*
X015254Y017650D02*
X015254Y018077D01*
X015036Y018077D02*
X015036Y017756D01*
X014929Y017650D01*
X014823Y017756D01*
X014716Y017650D01*
X014609Y017756D01*
X014609Y018077D01*
X014392Y018183D02*
X014392Y017970D01*
X014285Y017863D01*
X013965Y017863D01*
X013965Y017650D02*
X013965Y018290D01*
X014285Y018290D01*
X014392Y018183D01*
X015028Y005928D02*
X015348Y005928D01*
X015455Y005821D01*
X015455Y005608D01*
X015348Y005501D01*
X015028Y005501D01*
X015241Y005501D02*
X015455Y005287D01*
X015672Y005394D02*
X015672Y005608D01*
X015779Y005715D01*
X015992Y005715D01*
X016099Y005608D01*
X016099Y005501D01*
X015672Y005501D01*
X015672Y005394D02*
X015779Y005287D01*
X015992Y005287D01*
X016317Y005715D02*
X016530Y005287D01*
X016744Y005715D01*
X017606Y005821D02*
X017713Y005928D01*
X017926Y005928D01*
X018033Y005821D01*
X018033Y005715D01*
X017606Y005287D01*
X018033Y005287D01*
X015028Y005287D02*
X015028Y005928D01*
X005124Y002762D02*
X004911Y002762D01*
X005017Y002869D02*
X005017Y002441D01*
X005124Y002335D01*
X004693Y002335D02*
X004693Y002655D01*
X004586Y002762D01*
X004373Y002762D01*
X004266Y002655D01*
X004049Y002762D02*
X003728Y002762D01*
X003622Y002655D01*
X003622Y002441D01*
X003728Y002335D01*
X004049Y002335D01*
X004049Y002228D02*
X004049Y002762D01*
X004266Y002975D02*
X004266Y002335D01*
X004049Y002228D02*
X003942Y002121D01*
X003835Y002121D01*
X003405Y002335D02*
X003192Y002335D01*
X003299Y002335D02*
X003299Y002762D01*
X003192Y002762D01*
X003299Y002975D02*
X003299Y003082D01*
X002974Y002869D02*
X002974Y002655D01*
X002868Y002548D01*
X002547Y002548D01*
X002547Y002335D02*
X002547Y002975D01*
X002868Y002975D01*
X002974Y002869D01*
X002761Y002548D02*
X002974Y002335D01*
X002452Y010183D02*
X001952Y010183D01*
X001702Y010433D01*
X001702Y010933D01*
X001952Y011183D01*
X001702Y011433D01*
X001702Y011933D01*
X001952Y012183D01*
X001702Y012433D01*
X001702Y012933D01*
X001952Y013183D01*
X001702Y013433D01*
X001702Y013933D01*
X001952Y014183D01*
X001702Y014433D01*
X001702Y014933D01*
X001952Y015183D01*
X001702Y015433D01*
X001702Y015933D01*
X001952Y016183D01*
X001702Y016433D01*
X001702Y016933D01*
X001952Y017183D01*
X002452Y017183D01*
X002702Y016933D01*
X002702Y016433D01*
X002452Y016183D01*
X002702Y015933D01*
X002702Y015433D01*
X002452Y015183D01*
X001952Y015183D01*
X002452Y015183D02*
X002702Y014933D01*
X002702Y014433D01*
X002452Y014183D01*
X002702Y013933D01*
X002702Y013433D01*
X002452Y013183D01*
X002702Y012933D01*
X002702Y012433D01*
X002452Y012183D01*
X001952Y012183D01*
X002452Y012183D02*
X002702Y011933D01*
X002702Y011433D01*
X002452Y011183D01*
X002702Y010933D01*
X002702Y010433D01*
X002452Y010183D01*
X002452Y011183D02*
X001952Y011183D01*
X001952Y013183D02*
X002452Y013183D01*
X002452Y014183D02*
X001952Y014183D01*
X001952Y016183D02*
X002452Y016183D01*
X002472Y017532D02*
X002685Y017532D01*
X002792Y017638D01*
X002792Y018172D01*
X003010Y018172D02*
X003437Y018172D01*
X003223Y018172D02*
X003223Y017532D01*
X002472Y017532D02*
X002365Y017638D01*
X002365Y018172D01*
X002148Y018065D02*
X002148Y017638D01*
X002041Y017532D01*
X001827Y017532D01*
X001721Y017638D01*
X001721Y018065D01*
X001827Y018172D01*
X002041Y018172D01*
X002148Y018065D01*
X003059Y024343D02*
X003486Y024343D01*
X003704Y024449D02*
X003704Y024663D01*
X003810Y024770D01*
X004024Y024770D01*
X004131Y024663D01*
X004131Y024556D01*
X003704Y024556D01*
X003704Y024449D02*
X003810Y024343D01*
X004024Y024343D01*
X004455Y024343D02*
X004455Y024876D01*
X004562Y024983D01*
X004778Y024770D02*
X004991Y024770D01*
X004885Y024876D02*
X004885Y024449D01*
X004991Y024343D01*
X004562Y024663D02*
X004348Y024663D01*
X003059Y024983D02*
X003059Y024343D01*
D13*
X004237Y011958D02*
X004237Y011844D01*
X004237Y011617D02*
X004237Y011164D01*
X004350Y011164D02*
X004123Y011164D01*
X003877Y011277D02*
X003764Y011164D01*
X003537Y011164D01*
X003423Y011277D01*
X003423Y011731D01*
X003537Y011844D01*
X003764Y011844D01*
X003877Y011731D01*
X004123Y011617D02*
X004237Y011617D01*
X004590Y011617D02*
X004590Y011164D01*
X004590Y011617D02*
X004930Y011617D01*
X005044Y011504D01*
X005044Y011164D01*
X005290Y011277D02*
X005290Y011504D01*
X005403Y011617D01*
X005743Y011617D01*
X005989Y011504D02*
X006103Y011617D01*
X006330Y011617D01*
X006443Y011504D01*
X006443Y011164D01*
X006689Y011277D02*
X006689Y011731D01*
X006803Y011844D01*
X007029Y011844D01*
X007143Y011731D01*
X007389Y011617D02*
X007502Y011617D01*
X007502Y011164D01*
X007389Y011164D02*
X007616Y011164D01*
X007856Y011164D02*
X007856Y011617D01*
X008082Y011617D02*
X007856Y011390D01*
X007502Y011844D02*
X007502Y011958D01*
X008082Y011617D02*
X008196Y011617D01*
X008439Y011504D02*
X008439Y011277D01*
X008552Y011164D01*
X008892Y011164D01*
X009138Y011277D02*
X009252Y011164D01*
X009592Y011164D01*
X009592Y011617D01*
X009838Y011617D02*
X009952Y011617D01*
X009952Y011164D01*
X010065Y011164D02*
X009838Y011164D01*
X010418Y011277D02*
X010418Y011731D01*
X010305Y011617D02*
X010532Y011617D01*
X010771Y011504D02*
X010885Y011617D01*
X011225Y011617D01*
X011112Y011390D02*
X010885Y011390D01*
X010771Y011504D01*
X010771Y011164D02*
X011112Y011164D01*
X011225Y011277D01*
X011112Y011390D01*
X011471Y011277D02*
X011585Y011277D01*
X011585Y011164D01*
X011471Y011164D01*
X011471Y011277D01*
X011821Y011277D02*
X011934Y011164D01*
X012275Y011164D01*
X012521Y011277D02*
X012521Y011504D01*
X012634Y011617D01*
X012861Y011617D01*
X012975Y011504D01*
X012975Y011277D01*
X012861Y011164D01*
X012634Y011164D01*
X012521Y011277D01*
X012275Y011617D02*
X011934Y011617D01*
X011821Y011504D01*
X011821Y011277D01*
X011774Y010397D02*
X011547Y010397D01*
X011433Y010283D01*
X011433Y010057D01*
X011547Y009943D01*
X011774Y009943D01*
X011887Y010057D01*
X011887Y010283D01*
X011774Y010397D01*
X012133Y010057D02*
X012246Y010170D01*
X012587Y010170D01*
X012587Y010283D02*
X012587Y009943D01*
X012246Y009943D01*
X012133Y010057D01*
X012246Y010397D02*
X012473Y010397D01*
X012587Y010283D01*
X012833Y010170D02*
X013060Y010397D01*
X013173Y010397D01*
X012833Y010397D02*
X012833Y009943D01*
X013416Y010057D02*
X013416Y010283D01*
X013529Y010397D01*
X013870Y010397D01*
X013870Y010624D02*
X013870Y009943D01*
X013529Y009943D01*
X013416Y010057D01*
X013447Y011164D02*
X013447Y011504D01*
X013561Y011617D01*
X013674Y011504D01*
X013674Y011164D01*
X013447Y011504D02*
X013334Y011617D01*
X013221Y011617D01*
X013221Y011164D01*
X011187Y010510D02*
X011187Y010397D01*
X011074Y010283D01*
X010733Y010283D01*
X010733Y009943D02*
X011074Y009943D01*
X011187Y010057D01*
X011187Y010170D01*
X011074Y010283D01*
X011187Y010510D02*
X011074Y010624D01*
X010733Y010624D01*
X010733Y009943D01*
X010532Y011164D02*
X010418Y011277D01*
X009952Y011844D02*
X009952Y011958D01*
X009138Y011617D02*
X009138Y011277D01*
X008892Y011617D02*
X008552Y011617D01*
X008439Y011504D01*
X007575Y010624D02*
X007688Y010510D01*
X007688Y010397D01*
X007575Y010283D01*
X007234Y010283D01*
X007234Y009943D02*
X007575Y009943D01*
X007688Y010057D01*
X007688Y010170D01*
X007575Y010283D01*
X007575Y010624D02*
X007234Y010624D01*
X007234Y009943D01*
X007934Y010057D02*
X008048Y010170D01*
X008388Y010170D01*
X008388Y010283D02*
X008388Y009943D01*
X008048Y009943D01*
X007934Y010057D01*
X008048Y010397D02*
X008275Y010397D01*
X008388Y010283D01*
X008634Y010283D02*
X008747Y010397D01*
X009088Y010397D01*
X008974Y010170D02*
X008747Y010170D01*
X008634Y010283D01*
X008634Y009943D02*
X008974Y009943D01*
X009088Y010057D01*
X008974Y010170D01*
X009334Y010170D02*
X009788Y010170D01*
X009788Y010283D01*
X009674Y010397D01*
X009447Y010397D01*
X009334Y010283D01*
X009334Y010057D01*
X009447Y009943D01*
X009674Y009943D01*
X007143Y011277D02*
X007029Y011164D01*
X006803Y011164D01*
X006689Y011277D01*
X006175Y010397D02*
X006289Y010283D01*
X006289Y010170D01*
X005835Y010170D01*
X005835Y010057D02*
X005835Y010283D01*
X005948Y010397D01*
X006175Y010397D01*
X006175Y009943D02*
X005948Y009943D01*
X005835Y010057D01*
X005595Y009943D02*
X005368Y009943D01*
X005482Y009943D02*
X005482Y010397D01*
X005368Y010397D01*
X005122Y010397D02*
X004669Y009943D01*
X004429Y009943D02*
X004202Y009943D01*
X004315Y009943D02*
X004315Y010397D01*
X004202Y010397D01*
X004315Y010624D02*
X004315Y010737D01*
X003956Y010624D02*
X003956Y009943D01*
X003502Y010624D01*
X003502Y009943D01*
X004669Y010397D02*
X005122Y009943D01*
X005482Y010624D02*
X005482Y010737D01*
X005403Y011164D02*
X005290Y011277D01*
X005403Y011164D02*
X005743Y011164D01*
X005989Y011164D02*
X005989Y011844D01*
D14*
X007596Y013495D02*
X007596Y015287D01*
X011964Y015287D01*
X011964Y013495D01*
X007596Y013495D01*
X003397Y015932D02*
X003397Y016082D01*
X003322Y016157D01*
X003022Y016157D01*
X002947Y016082D01*
X002947Y015932D01*
X003022Y015856D01*
X003322Y015856D01*
X003397Y015932D01*
X003322Y016317D02*
X003397Y016392D01*
X003397Y016542D01*
X003322Y016617D01*
X002947Y016617D01*
X002947Y016777D02*
X002947Y017078D01*
X002947Y016927D02*
X003397Y016927D01*
X003322Y016317D02*
X002947Y016317D01*
X004754Y022948D02*
X006454Y022948D01*
X006454Y022998D01*
X007054Y022998D01*
X007054Y022948D01*
X007604Y022948D01*
X007754Y023148D01*
X007954Y023148D01*
X008554Y023148D01*
X008754Y023148D01*
X008904Y022948D01*
X009454Y022948D01*
X009454Y023348D01*
X008554Y023348D01*
X008554Y023448D01*
X007954Y023448D01*
X005254Y023448D01*
X005254Y025948D01*
X015254Y025948D01*
X015254Y023448D01*
X013554Y023448D01*
X012954Y023448D01*
X011054Y023448D01*
X011054Y023348D01*
X011054Y022948D01*
X009454Y022948D01*
X009454Y023348D02*
X009454Y023448D01*
X008554Y023448D01*
X008554Y023348D02*
X008554Y023148D01*
X007954Y023148D02*
X007954Y023348D01*
X007954Y023448D01*
X007954Y023348D02*
X005154Y023348D01*
X004754Y022948D02*
X004754Y026448D01*
X005254Y026448D01*
X005254Y026548D01*
X005754Y026548D01*
X005754Y026448D01*
X010004Y026448D01*
X010004Y026548D01*
X010504Y026548D01*
X010504Y026448D01*
X014754Y026448D01*
X014754Y026548D01*
X015254Y026548D01*
X015254Y026448D01*
X015754Y026448D01*
X015754Y022948D01*
X013904Y022948D01*
X013754Y023148D01*
X013554Y023148D01*
X012954Y023148D01*
X012754Y023148D01*
X012604Y022948D01*
X011054Y022948D01*
X011054Y023448D02*
X011054Y023748D01*
X009454Y023748D01*
X009454Y023448D01*
X009879Y023424D02*
X010029Y023574D01*
X010029Y023123D01*
X009879Y023123D02*
X010179Y023123D01*
X010339Y023198D02*
X010414Y023123D01*
X010564Y023123D01*
X010639Y023198D01*
X010639Y023274D01*
X010564Y023349D01*
X010339Y023349D01*
X010339Y023198D01*
X010339Y023349D02*
X010489Y023499D01*
X010639Y023574D01*
X012954Y023448D02*
X012954Y023348D01*
X012954Y023148D01*
X013554Y023148D02*
X013554Y023348D01*
X013554Y023448D01*
X018931Y017117D02*
X019382Y017117D01*
X018931Y016817D01*
X019382Y016817D01*
X019382Y016660D02*
X019382Y016510D01*
X019382Y016585D02*
X018931Y016585D01*
X018931Y016510D02*
X018931Y016660D01*
X015769Y004405D02*
X015269Y004405D01*
X015269Y004505D01*
X014769Y004505D01*
X014769Y004405D01*
X010519Y004405D01*
X010519Y004505D01*
X010019Y004505D01*
X010019Y004405D01*
X005769Y004405D01*
X005769Y004505D01*
X005269Y004505D01*
X005269Y004405D01*
X004769Y004405D01*
X004769Y000905D01*
X006469Y000905D01*
X006469Y000955D01*
X007069Y000955D01*
X007069Y000905D01*
X007619Y000905D01*
X007769Y001105D01*
X007969Y001105D01*
X008569Y001105D01*
X008769Y001105D01*
X008919Y000905D01*
X009469Y000905D01*
X009469Y001305D01*
X008569Y001305D01*
X008569Y001405D01*
X007969Y001405D01*
X005269Y001405D01*
X005269Y003905D01*
X015269Y003905D01*
X015269Y001405D01*
X013569Y001405D01*
X012969Y001405D01*
X011069Y001405D01*
X011069Y001305D01*
X011069Y000905D01*
X009469Y000905D01*
X009469Y001305D02*
X009469Y001405D01*
X008569Y001405D01*
X008569Y001305D02*
X008569Y001105D01*
X007969Y001105D02*
X007969Y001305D01*
X007969Y001405D01*
X007969Y001305D02*
X005169Y001305D01*
X005794Y001930D02*
X006095Y001930D01*
X005944Y001930D02*
X005944Y002381D01*
X005794Y002230D01*
X005794Y002930D02*
X006095Y003230D01*
X006095Y003305D01*
X006019Y003381D01*
X005869Y003381D01*
X005794Y003305D01*
X005794Y002930D02*
X006095Y002930D01*
X009469Y001705D02*
X009469Y001405D01*
X009469Y001705D02*
X011069Y001705D01*
X011069Y001405D01*
X011069Y000905D02*
X012619Y000905D01*
X012769Y001105D01*
X012969Y001105D01*
X013569Y001105D01*
X013569Y001305D01*
X013569Y001405D01*
X013569Y001105D02*
X013769Y001105D01*
X013919Y000905D01*
X015769Y000905D01*
X015769Y004405D01*
X012969Y001405D02*
X012969Y001305D01*
X012969Y001105D01*
X010655Y001155D02*
X010655Y001230D01*
X010580Y001305D01*
X010355Y001305D01*
X010355Y001155D01*
X010430Y001080D01*
X010580Y001080D01*
X010655Y001155D01*
X010505Y001455D02*
X010355Y001305D01*
X010505Y001455D02*
X010655Y001531D01*
X010044Y001531D02*
X010044Y001080D01*
X009894Y001080D02*
X010195Y001080D01*
X009894Y001380D02*
X010044Y001531D01*
X006079Y023973D02*
X005779Y023973D01*
X005929Y023973D02*
X005929Y024424D01*
X005779Y024274D01*
X005779Y024973D02*
X006079Y025274D01*
X006079Y025349D01*
X006004Y025424D01*
X005854Y025424D01*
X005779Y025349D01*
X005779Y024973D02*
X006079Y024973D01*
D15*
X005154Y026048D02*
X005154Y023348D01*
X005154Y026048D02*
X015354Y026048D01*
X015354Y023348D01*
X013554Y023348D01*
X012954Y023348D02*
X011054Y023348D01*
X015369Y004005D02*
X005169Y004005D01*
X005169Y001305D01*
X011069Y001305D02*
X012969Y001305D01*
X013569Y001305D02*
X015369Y001305D01*
X015369Y004005D01*
D16*
X006514Y004690D02*
X006093Y004690D01*
X005869Y004900D02*
X005869Y005321D01*
X006093Y005110D02*
X006304Y005321D01*
X006304Y004690D01*
X005869Y004900D02*
X005659Y004690D01*
X005449Y004900D01*
X005449Y005321D01*
X005225Y005216D02*
X005120Y005321D01*
X004909Y005321D01*
X004804Y005216D01*
X004804Y005110D01*
X004909Y005005D01*
X005120Y005005D01*
X005225Y004900D01*
X005225Y004795D01*
X005120Y004690D01*
X004909Y004690D01*
X004804Y004795D01*
X004894Y026733D02*
X004789Y026839D01*
X004894Y026733D02*
X005104Y026733D01*
X005209Y026839D01*
X005209Y026944D01*
X005104Y027049D01*
X004894Y027049D01*
X004789Y027154D01*
X004789Y027259D01*
X004894Y027364D01*
X005104Y027364D01*
X005209Y027259D01*
X005433Y027364D02*
X005433Y026944D01*
X005643Y026733D01*
X005853Y026944D01*
X005853Y027364D01*
X006078Y027259D02*
X006183Y027364D01*
X006393Y027364D01*
X006498Y027259D01*
X006498Y027154D01*
X006078Y026733D01*
X006498Y026733D01*
D17*
X007055Y026695D02*
X007055Y026849D01*
X007131Y026926D01*
X007438Y026926D01*
X007515Y026849D01*
X007515Y026695D01*
X007438Y026619D01*
X007131Y026619D01*
X007055Y026695D01*
X007208Y027079D02*
X007055Y027233D01*
X007515Y027233D01*
X007515Y027386D02*
X007515Y027079D01*
X007515Y026926D02*
X007362Y026772D01*
X007438Y027540D02*
X007515Y027616D01*
X007515Y027770D01*
X007438Y027846D01*
X007131Y027846D01*
X007055Y027770D01*
X007055Y027616D01*
X007131Y027540D01*
X007208Y027540D01*
X007285Y027616D01*
X007285Y027846D01*
X009031Y027606D02*
X009491Y027606D01*
X009491Y027453D02*
X009491Y027760D01*
X009184Y027453D02*
X009031Y027606D01*
X009108Y027299D02*
X009031Y027223D01*
X009031Y027069D01*
X009108Y026993D01*
X009108Y026839D02*
X009031Y026762D01*
X009031Y026609D01*
X009108Y026532D01*
X009415Y026532D01*
X009491Y026609D01*
X009491Y026762D01*
X009415Y026839D01*
X009108Y026839D01*
X009338Y026686D02*
X009491Y026839D01*
X009491Y026993D02*
X009184Y027299D01*
X009108Y027299D01*
X009491Y027299D02*
X009491Y026993D01*
X010803Y027054D02*
X010879Y026977D01*
X010803Y027054D02*
X010803Y027207D01*
X010879Y027284D01*
X010956Y027284D01*
X011263Y026977D01*
X011263Y027284D01*
X011186Y027437D02*
X011263Y027514D01*
X011263Y027667D01*
X011186Y027744D01*
X011110Y027744D01*
X011033Y027667D01*
X011033Y027591D01*
X011033Y027667D02*
X010956Y027744D01*
X010879Y027744D01*
X010803Y027667D01*
X010803Y027514D01*
X010879Y027437D01*
X010879Y026823D02*
X010803Y026747D01*
X010803Y026593D01*
X010879Y026516D01*
X011186Y026516D01*
X011263Y026593D01*
X011263Y026747D01*
X011186Y026823D01*
X010879Y026823D01*
X011110Y026670D02*
X011263Y026823D01*
X012614Y026731D02*
X012614Y026577D01*
X012690Y026501D01*
X012997Y026501D01*
X013074Y026577D01*
X013074Y026731D01*
X012997Y026808D01*
X012690Y026808D01*
X012614Y026731D01*
X012690Y026961D02*
X012614Y027038D01*
X012614Y027191D01*
X012690Y027268D01*
X012767Y027268D01*
X013074Y026961D01*
X013074Y027268D01*
X012997Y027421D02*
X013074Y027498D01*
X013074Y027652D01*
X012997Y027728D01*
X012844Y027728D01*
X012767Y027652D01*
X012767Y027575D01*
X012844Y027421D01*
X012614Y027421D01*
X012614Y027728D01*
X013074Y026808D02*
X012921Y026654D01*
X014551Y026723D02*
X014551Y026569D01*
X014627Y026493D01*
X014934Y026493D01*
X015011Y026569D01*
X015011Y026723D01*
X014934Y026800D01*
X014627Y026800D01*
X014551Y026723D01*
X014627Y026953D02*
X014551Y027030D01*
X014551Y027183D01*
X014627Y027260D01*
X014704Y027260D01*
X015011Y026953D01*
X015011Y027260D01*
X015011Y027414D02*
X014934Y027414D01*
X014627Y027720D01*
X014551Y027720D01*
X014551Y027414D01*
X015011Y026800D02*
X014858Y026646D01*
X013590Y023334D02*
X013436Y023258D01*
X013283Y023104D01*
X013513Y023104D01*
X013590Y023027D01*
X013590Y022951D01*
X013513Y022874D01*
X013360Y022874D01*
X013283Y022951D01*
X013283Y023104D01*
X013129Y023181D02*
X013129Y023258D01*
X013053Y023334D01*
X012899Y023334D01*
X012823Y023258D01*
X012669Y023258D02*
X012669Y022951D01*
X012592Y022874D01*
X012439Y022874D01*
X012362Y022951D01*
X012362Y023258D01*
X012439Y023334D01*
X012592Y023334D01*
X012669Y023258D01*
X012516Y023027D02*
X012669Y022874D01*
X012823Y022874D02*
X013129Y023181D01*
X013129Y022874D02*
X012823Y022874D01*
X011960Y023104D02*
X011653Y023104D01*
X011883Y023334D01*
X011883Y022874D01*
X011500Y022874D02*
X011193Y022874D01*
X011500Y023181D01*
X011500Y023258D01*
X011423Y023334D01*
X011269Y023334D01*
X011193Y023258D01*
X011039Y023258D02*
X011039Y022951D01*
X010962Y022874D01*
X010809Y022874D01*
X010732Y022951D01*
X010732Y023258D01*
X010809Y023334D01*
X010962Y023334D01*
X011039Y023258D01*
X010886Y023027D02*
X011039Y022874D01*
X010251Y022874D02*
X009944Y022874D01*
X010251Y023181D01*
X010251Y023258D01*
X010175Y023334D01*
X010021Y023334D01*
X009944Y023258D01*
X009791Y023258D02*
X009791Y023181D01*
X009484Y022874D01*
X009791Y022874D01*
X009791Y023258D02*
X009714Y023334D01*
X009561Y023334D01*
X009484Y023258D01*
X009330Y023258D02*
X009330Y022951D01*
X009254Y022874D01*
X009100Y022874D01*
X009024Y022951D01*
X009024Y023258D01*
X009100Y023334D01*
X009254Y023334D01*
X009330Y023258D01*
X009177Y023027D02*
X009330Y022874D01*
X008550Y022943D02*
X008474Y022866D01*
X008320Y022866D01*
X008244Y022943D01*
X008550Y023250D01*
X008550Y022943D01*
X008550Y023250D02*
X008474Y023326D01*
X008320Y023326D01*
X008244Y023250D01*
X008244Y022943D01*
X008090Y022866D02*
X007783Y022866D01*
X008090Y023173D01*
X008090Y023250D01*
X008013Y023326D01*
X007860Y023326D01*
X007783Y023250D01*
X007630Y023250D02*
X007630Y022943D01*
X007553Y022866D01*
X007399Y022866D01*
X007323Y022943D01*
X007323Y023250D01*
X007399Y023326D01*
X007553Y023326D01*
X007630Y023250D01*
X007476Y023020D02*
X007630Y022866D01*
X006251Y022943D02*
X006175Y022866D01*
X006021Y022866D01*
X005944Y022943D01*
X005944Y023020D01*
X006021Y023096D01*
X006175Y023096D01*
X006251Y023020D01*
X006251Y022943D01*
X006175Y023096D02*
X006251Y023173D01*
X006251Y023250D01*
X006175Y023326D01*
X006021Y023326D01*
X005944Y023250D01*
X005944Y023173D01*
X006021Y023096D01*
X005791Y022866D02*
X005484Y022866D01*
X005637Y022866D02*
X005637Y023326D01*
X005484Y023173D01*
X005330Y023250D02*
X005330Y022943D01*
X005254Y022866D01*
X005100Y022866D01*
X005024Y022943D01*
X005024Y023250D01*
X005100Y023326D01*
X005254Y023326D01*
X005330Y023250D01*
X005177Y023020D02*
X005330Y022866D01*
X004070Y023140D02*
X004070Y023216D01*
X003993Y023293D01*
X003763Y023293D01*
X003763Y023140D01*
X003840Y023063D01*
X003993Y023063D01*
X004070Y023140D01*
X003917Y023447D02*
X003763Y023293D01*
X003917Y023447D02*
X004070Y023523D01*
X003610Y023063D02*
X003303Y023063D01*
X003456Y023063D02*
X003456Y023523D01*
X003303Y023370D01*
X003149Y023447D02*
X003149Y023140D01*
X003073Y023063D01*
X002919Y023063D01*
X002842Y023140D01*
X002842Y023447D01*
X002919Y023523D01*
X003073Y023523D01*
X003149Y023447D01*
X002996Y023216D02*
X003149Y023063D01*
X005202Y026241D02*
X005126Y026318D01*
X005126Y026471D01*
X005202Y026548D01*
X005509Y026548D01*
X005586Y026471D01*
X005586Y026318D01*
X005509Y026241D01*
X005202Y026241D01*
X005432Y026394D02*
X005586Y026548D01*
X005586Y026701D02*
X005586Y027008D01*
X005586Y026855D02*
X005126Y026855D01*
X005279Y026701D01*
X005126Y027162D02*
X005126Y027469D01*
X005202Y027469D01*
X005509Y027162D01*
X005586Y027162D01*
X012101Y018571D02*
X012101Y018110D01*
X012408Y018110D01*
X012562Y018110D02*
X012869Y018110D01*
X013022Y018110D02*
X013022Y018571D01*
X013252Y018571D01*
X013329Y018494D01*
X013329Y018187D01*
X013252Y018110D01*
X013022Y018110D01*
X012869Y018571D02*
X012562Y018571D01*
X012562Y018110D01*
X012562Y018340D02*
X012715Y018340D01*
X013482Y018417D02*
X013636Y018571D01*
X013636Y018110D01*
X013789Y018110D02*
X013482Y018110D01*
X015208Y019260D02*
X015208Y019721D01*
X015438Y019721D01*
X015515Y019644D01*
X015515Y019490D01*
X015438Y019414D01*
X015208Y019414D01*
X015362Y019414D02*
X015515Y019260D01*
X015669Y019260D02*
X015976Y019260D01*
X015822Y019260D02*
X015822Y019721D01*
X015669Y019567D01*
X013647Y015075D02*
X013494Y015075D01*
X013417Y014998D01*
X013264Y014998D02*
X013264Y014845D01*
X013187Y014768D01*
X012957Y014768D01*
X013110Y014768D02*
X013264Y014614D01*
X013417Y014614D02*
X013724Y014921D01*
X013724Y014998D01*
X013647Y015075D01*
X013264Y014998D02*
X013187Y015075D01*
X012957Y015075D01*
X012957Y014614D01*
X013417Y014614D02*
X013724Y014614D01*
X013207Y007185D02*
X013053Y007185D01*
X012977Y007108D01*
X012670Y007185D02*
X012670Y006724D01*
X012823Y006724D02*
X012516Y006724D01*
X012363Y006724D02*
X012209Y006878D01*
X012056Y006801D02*
X012132Y006724D01*
X012286Y006724D01*
X012363Y006801D01*
X012363Y007108D01*
X012286Y007185D01*
X012132Y007185D01*
X012056Y007108D01*
X012056Y006801D01*
X011685Y006801D02*
X011608Y006724D01*
X011455Y006724D01*
X011378Y006801D01*
X011685Y007108D01*
X011685Y006801D01*
X011685Y007108D02*
X011608Y007185D01*
X011455Y007185D01*
X011378Y007108D01*
X011378Y006801D01*
X011225Y006724D02*
X010918Y006724D01*
X011071Y006724D02*
X011071Y007185D01*
X010918Y007031D01*
X010764Y007108D02*
X010764Y006801D01*
X010688Y006724D01*
X010534Y006724D01*
X010457Y006801D01*
X010457Y007108D01*
X010534Y007185D01*
X010688Y007185D01*
X010764Y007108D01*
X010611Y006878D02*
X010764Y006724D01*
X009961Y006809D02*
X009884Y006732D01*
X009730Y006732D01*
X009654Y006809D01*
X009654Y006886D01*
X009730Y006962D01*
X009884Y006962D01*
X009961Y006886D01*
X009961Y006809D01*
X009884Y006962D02*
X009961Y007039D01*
X009961Y007116D01*
X009884Y007193D01*
X009730Y007193D01*
X009654Y007116D01*
X009654Y007039D01*
X009730Y006962D01*
X009500Y007116D02*
X009500Y006809D01*
X009424Y006732D01*
X009270Y006732D01*
X009193Y006809D01*
X009193Y007116D01*
X009270Y007193D01*
X009424Y007193D01*
X009500Y007116D01*
X009347Y006886D02*
X009500Y006732D01*
X010006Y004870D02*
X010160Y004870D01*
X010236Y004793D01*
X010236Y004486D01*
X010160Y004409D01*
X010006Y004409D01*
X009930Y004486D01*
X009930Y004793D01*
X010006Y004870D01*
X010083Y004563D02*
X010236Y004409D01*
X010390Y004409D02*
X010390Y004486D01*
X010697Y004793D01*
X010697Y004870D01*
X010390Y004870D01*
X011536Y004785D02*
X011536Y004478D01*
X011613Y004401D01*
X011766Y004401D01*
X011843Y004478D01*
X011843Y004785D01*
X011766Y004862D01*
X011613Y004862D01*
X011536Y004785D01*
X011689Y004555D02*
X011843Y004401D01*
X011996Y004478D02*
X012073Y004401D01*
X012226Y004401D01*
X012303Y004478D01*
X012303Y004785D01*
X012226Y004862D01*
X012073Y004862D01*
X011996Y004785D01*
X011996Y004708D01*
X012073Y004632D01*
X012303Y004632D01*
X012792Y004478D02*
X012792Y004785D01*
X012869Y004862D01*
X013022Y004862D01*
X013099Y004785D01*
X013099Y004478D01*
X013022Y004401D01*
X012869Y004401D01*
X012792Y004478D01*
X012945Y004555D02*
X013099Y004401D01*
X013252Y004401D02*
X013559Y004401D01*
X013406Y004401D02*
X013406Y004862D01*
X013252Y004708D01*
X013713Y004708D02*
X013866Y004862D01*
X013866Y004401D01*
X013713Y004401D02*
X014020Y004401D01*
X013283Y006724D02*
X012977Y006724D01*
X013283Y007031D01*
X013283Y007108D01*
X013207Y007185D01*
X012670Y007185D02*
X012516Y007031D01*
X009032Y004830D02*
X008878Y004754D01*
X008725Y004600D01*
X008955Y004600D01*
X009032Y004523D01*
X009032Y004447D01*
X008955Y004370D01*
X008801Y004370D01*
X008725Y004447D01*
X008725Y004600D01*
X008571Y004447D02*
X008494Y004370D01*
X008341Y004370D01*
X008264Y004447D01*
X008264Y004754D01*
X008341Y004830D01*
X008494Y004830D01*
X008571Y004754D01*
X008571Y004447D01*
X008571Y004370D02*
X008418Y004523D01*
X007472Y004640D02*
X007166Y004640D01*
X007396Y004870D01*
X007396Y004409D01*
X007012Y004409D02*
X006859Y004563D01*
X007012Y004486D02*
X006935Y004409D01*
X006782Y004409D01*
X006705Y004486D01*
X006705Y004793D01*
X006782Y004870D01*
X006935Y004870D01*
X007012Y004793D01*
X007012Y004486D01*
X005811Y004069D02*
X005734Y004145D01*
X005581Y004145D01*
X005504Y004069D01*
X005351Y004069D02*
X005351Y003762D01*
X005274Y003685D01*
X005120Y003685D01*
X005044Y003762D01*
X005044Y004069D01*
X005120Y004145D01*
X005274Y004145D01*
X005351Y004069D01*
X005197Y003838D02*
X005351Y003685D01*
X005504Y003685D02*
X005811Y003992D01*
X005811Y004069D01*
X005811Y003685D02*
X005504Y003685D01*
X003988Y002976D02*
X003681Y002976D01*
X003528Y002976D02*
X003374Y003130D01*
X003298Y002976D02*
X003221Y003053D01*
X003221Y003360D01*
X003298Y003437D01*
X003451Y003437D01*
X003528Y003360D01*
X003528Y003053D01*
X003451Y002976D01*
X003298Y002976D01*
X003681Y003283D02*
X003835Y003437D01*
X003835Y002976D01*
X005510Y006653D02*
X005433Y006730D01*
X005433Y007037D01*
X005510Y007114D01*
X005664Y007114D01*
X005740Y007037D01*
X005740Y006730D01*
X005664Y006653D01*
X005510Y006653D01*
X005587Y006807D02*
X005740Y006653D01*
X005894Y006730D02*
X005971Y006653D01*
X006124Y006653D01*
X006201Y006730D01*
X006201Y006807D01*
X006124Y006884D01*
X006047Y006884D01*
X006124Y006884D02*
X006201Y006960D01*
X006201Y007037D01*
X006124Y007114D01*
X005971Y007114D01*
X005894Y007037D01*
X007386Y007116D02*
X007386Y006809D01*
X007463Y006732D01*
X007616Y006732D01*
X007693Y006809D01*
X007693Y007116D01*
X007616Y007193D01*
X007463Y007193D01*
X007386Y007116D01*
X007540Y006886D02*
X007693Y006732D01*
X007847Y006809D02*
X007923Y006732D01*
X008077Y006732D01*
X008154Y006809D01*
X008154Y006962D01*
X008077Y007039D01*
X008000Y007039D01*
X007847Y006962D01*
X007847Y007193D01*
X008154Y007193D01*
D18*
X013374Y018840D03*
D19*
X011712Y015061D02*
X011714Y015075D01*
X011720Y015089D01*
X011728Y015101D01*
X011740Y015109D01*
X011754Y015115D01*
X011768Y015117D01*
X011782Y015115D01*
X011796Y015109D01*
X011808Y015101D01*
X011816Y015089D01*
X011822Y015075D01*
X011824Y015061D01*
X011822Y015047D01*
X011816Y015033D01*
X011808Y015021D01*
X011796Y015013D01*
X011782Y015007D01*
X011768Y015005D01*
X011754Y015007D01*
X011740Y015013D01*
X011728Y015021D01*
X011720Y015033D01*
X011714Y015047D01*
X011712Y015061D01*
D20*
X012048Y015039D02*
X012123Y015039D01*
X012138Y015054D01*
X012138Y015084D01*
X012123Y015099D01*
X012048Y015099D01*
X012078Y015131D02*
X012048Y015161D01*
X012138Y015161D01*
X012138Y015131D02*
X012138Y015191D01*
M02*
