%
M48
M72
T01C0.0236
T02C0.0360
T03C0.0400
T04C0.1102
%
T01
X3187Y5494
X4880Y5966
X6494Y6675
X8029Y6675
X7242Y8919
X9013Y8919
X8974Y9509
X10116Y9509
X10706Y8919
X10864Y9785
X11848Y9470
X12281Y9903
X12281Y8919
X13069Y8998
X14250Y8958
X15470Y9273
X15194Y10769
X14368Y13210
X14368Y16281
X12714Y16281
X12163Y15179
X11691Y14234
X10628Y14194
X10628Y14588
X10037Y14588
X10037Y14194
X9446Y14194
X9446Y14588
X8856Y14588
X8856Y14194
X7163Y16714
X7517Y17147
X7793Y17580
X7714Y18919
X8738Y18486
X9132Y18801
X9407Y19273
X9722Y19667
X9998Y20061
X10313Y20454
X10155Y20966
X11297Y20376
X11848Y20966
X12242Y20297
X12714Y20494
X13462Y20927
X13935Y20297
X14761Y22108
X12596Y22305
X11297Y26124
X11257Y27580
X9446Y27580
X9486Y25927
X7557Y27541
X5234Y27620
X3935Y25927
X4446Y25494
X3462Y24549
X3462Y27226
X3187Y21320
X3974Y20966
X5431Y19706
X6100Y21006
X8423Y20927
X8895Y21675
X6809Y15887
X6730Y13683
X3974Y10730
X5194Y8840
X9722Y6675
X11336Y6675
X13029Y6675
X13935Y4943
X11061Y12187
X16533Y18840
X15194Y27462
T02
X13754Y25198
X13754Y24198
X12754Y24198
X12754Y25198
X11754Y25198
X11754Y24198
X10754Y24198
X10754Y25198
X9754Y25198
X9754Y24198
X8754Y24198
X8754Y25198
X7754Y25198
X7754Y24198
X6754Y24198
X6754Y25198
X6769Y3155
X6769Y2155
X7769Y2155
X7769Y3155
X8769Y3155
X8769Y2155
X9769Y2155
X9769Y3155
X10769Y3155
X10769Y2155
X11769Y2155
X11769Y3155
X12769Y3155
X12769Y2155
X13769Y2155
X13769Y3155
T03
X18187Y10722
X18187Y11722
X18187Y12722
X18187Y13722
X18187Y14722
X18187Y15722
X18187Y16722
X2202Y16683
X2202Y15683
X2202Y14683
X2202Y13683
X2202Y12683
X2202Y11683
X2202Y10683
T04
X2596Y1281
X17950Y1281
X17950Y26675
X2596Y26675
M30
