G75*
G70*
%OFA0B0*%
%FSLAX24Y24*%
%IPPOS*%
%LPD*%
%AMOC8*
5,1,8,0,0,1.08239X$1,22.5*
%
%ADD10C,0.0010*%
%ADD11C,0.0000*%
%ADD12C,0.0080*%
%ADD13C,0.0070*%
%ADD14C,0.0100*%
%ADD15C,0.0090*%
%ADD16C,0.0060*%
%ADD17C,0.0240*%
%ADD18C,0.0160*%
%ADD19C,0.0110*%
%ADD20C,0.0050*%
%ADD21C,0.0040*%
%ADD22R,0.0098X0.0098*%
%ADD23C,0.0020*%
D10*
X000290Y001875D02*
X000290Y019985D01*
X018006Y019985D01*
X013622Y006285D02*
X013547Y006210D01*
X013647Y006210D01*
X013622Y006135D02*
X013622Y006285D01*
X013499Y006260D02*
X013474Y006285D01*
X013424Y006285D01*
X013399Y006260D01*
X013399Y006235D01*
X013424Y006210D01*
X013474Y006210D01*
X013499Y006185D01*
X013499Y006160D01*
X013474Y006135D01*
X013424Y006135D01*
X013399Y006160D01*
X013352Y006160D02*
X013352Y006285D01*
X013252Y006285D02*
X013252Y006160D01*
X013277Y006135D01*
X013327Y006135D01*
X013352Y006160D01*
X013449Y006110D02*
X013449Y006310D01*
D11*
X015329Y001875D02*
X000290Y001875D01*
X004522Y004828D02*
X004524Y004862D01*
X004530Y004896D01*
X004540Y004929D01*
X004553Y004960D01*
X004571Y004990D01*
X004591Y005018D01*
X004615Y005043D01*
X004641Y005065D01*
X004669Y005083D01*
X004700Y005099D01*
X004732Y005111D01*
X004766Y005119D01*
X004800Y005123D01*
X004834Y005123D01*
X004868Y005119D01*
X004902Y005111D01*
X004934Y005099D01*
X004964Y005083D01*
X004993Y005065D01*
X005019Y005043D01*
X005043Y005018D01*
X005063Y004990D01*
X005081Y004960D01*
X005094Y004929D01*
X005104Y004896D01*
X005110Y004862D01*
X005112Y004828D01*
X005110Y004794D01*
X005104Y004760D01*
X005094Y004727D01*
X005081Y004696D01*
X005063Y004666D01*
X005043Y004638D01*
X005019Y004613D01*
X004993Y004591D01*
X004965Y004573D01*
X004934Y004557D01*
X004902Y004545D01*
X004868Y004537D01*
X004834Y004533D01*
X004800Y004533D01*
X004766Y004537D01*
X004732Y004545D01*
X004700Y004557D01*
X004669Y004573D01*
X004641Y004591D01*
X004615Y004613D01*
X004591Y004638D01*
X004571Y004666D01*
X004553Y004696D01*
X004540Y004727D01*
X004530Y004760D01*
X004524Y004794D01*
X004522Y004828D01*
X006156Y005339D02*
X006158Y005360D01*
X006164Y005380D01*
X006173Y005400D01*
X006185Y005417D01*
X006200Y005431D01*
X006218Y005443D01*
X006238Y005451D01*
X006258Y005456D01*
X006279Y005457D01*
X006300Y005454D01*
X006320Y005448D01*
X006339Y005437D01*
X006356Y005424D01*
X006369Y005408D01*
X006380Y005390D01*
X006388Y005370D01*
X006392Y005350D01*
X006392Y005328D01*
X006388Y005308D01*
X006380Y005288D01*
X006369Y005270D01*
X006356Y005254D01*
X006339Y005241D01*
X006320Y005230D01*
X006300Y005224D01*
X006279Y005221D01*
X006258Y005222D01*
X006238Y005227D01*
X006218Y005235D01*
X006200Y005247D01*
X006185Y005261D01*
X006173Y005278D01*
X006164Y005298D01*
X006158Y005318D01*
X006156Y005339D01*
X009936Y005339D02*
X009938Y005360D01*
X009944Y005380D01*
X009953Y005400D01*
X009965Y005417D01*
X009980Y005431D01*
X009998Y005443D01*
X010018Y005451D01*
X010038Y005456D01*
X010059Y005457D01*
X010080Y005454D01*
X010100Y005448D01*
X010119Y005437D01*
X010136Y005424D01*
X010149Y005408D01*
X010160Y005390D01*
X010168Y005370D01*
X010172Y005350D01*
X010172Y005328D01*
X010168Y005308D01*
X010160Y005288D01*
X010149Y005270D01*
X010136Y005254D01*
X010119Y005241D01*
X010100Y005230D01*
X010080Y005224D01*
X010059Y005221D01*
X010038Y005222D01*
X010018Y005227D01*
X009998Y005235D01*
X009980Y005247D01*
X009965Y005261D01*
X009953Y005278D01*
X009944Y005298D01*
X009938Y005318D01*
X009936Y005339D01*
X011215Y004828D02*
X011217Y004862D01*
X011223Y004896D01*
X011233Y004929D01*
X011246Y004960D01*
X011264Y004990D01*
X011284Y005018D01*
X011308Y005043D01*
X011334Y005065D01*
X011362Y005083D01*
X011393Y005099D01*
X011425Y005111D01*
X011459Y005119D01*
X011493Y005123D01*
X011527Y005123D01*
X011561Y005119D01*
X011595Y005111D01*
X011627Y005099D01*
X011657Y005083D01*
X011686Y005065D01*
X011712Y005043D01*
X011736Y005018D01*
X011756Y004990D01*
X011774Y004960D01*
X011787Y004929D01*
X011797Y004896D01*
X011803Y004862D01*
X011805Y004828D01*
X011803Y004794D01*
X011797Y004760D01*
X011787Y004727D01*
X011774Y004696D01*
X011756Y004666D01*
X011736Y004638D01*
X011712Y004613D01*
X011686Y004591D01*
X011658Y004573D01*
X011627Y004557D01*
X011595Y004545D01*
X011561Y004537D01*
X011527Y004533D01*
X011493Y004533D01*
X011459Y004537D01*
X011425Y004545D01*
X011393Y004557D01*
X011362Y004573D01*
X011334Y004591D01*
X011308Y004613D01*
X011284Y004638D01*
X011264Y004666D01*
X011246Y004696D01*
X011233Y004727D01*
X011223Y004760D01*
X011217Y004794D01*
X011215Y004828D01*
X015329Y001875D02*
X015329Y000300D01*
X018006Y000300D01*
X018006Y019985D01*
X015891Y018208D02*
X015893Y018239D01*
X015899Y018270D01*
X015909Y018300D01*
X015922Y018328D01*
X015939Y018355D01*
X015959Y018379D01*
X015982Y018401D01*
X016007Y018419D01*
X016035Y018434D01*
X016064Y018446D01*
X016094Y018454D01*
X016125Y018458D01*
X016157Y018458D01*
X016188Y018454D01*
X016218Y018446D01*
X016247Y018434D01*
X016275Y018419D01*
X016300Y018401D01*
X016323Y018379D01*
X016343Y018355D01*
X016360Y018328D01*
X016373Y018300D01*
X016383Y018270D01*
X016389Y018239D01*
X016391Y018208D01*
X016389Y018177D01*
X016383Y018146D01*
X016373Y018116D01*
X016360Y018088D01*
X016343Y018061D01*
X016323Y018037D01*
X016300Y018015D01*
X016275Y017997D01*
X016247Y017982D01*
X016218Y017970D01*
X016188Y017962D01*
X016157Y017958D01*
X016125Y017958D01*
X016094Y017962D01*
X016064Y017970D01*
X016035Y017982D01*
X016007Y017997D01*
X015982Y018015D01*
X015959Y018037D01*
X015939Y018061D01*
X015922Y018088D01*
X015909Y018116D01*
X015899Y018146D01*
X015893Y018177D01*
X015891Y018208D01*
X015891Y016408D02*
X015893Y016439D01*
X015899Y016470D01*
X015909Y016500D01*
X015922Y016528D01*
X015939Y016555D01*
X015959Y016579D01*
X015982Y016601D01*
X016007Y016619D01*
X016035Y016634D01*
X016064Y016646D01*
X016094Y016654D01*
X016125Y016658D01*
X016157Y016658D01*
X016188Y016654D01*
X016218Y016646D01*
X016247Y016634D01*
X016275Y016619D01*
X016300Y016601D01*
X016323Y016579D01*
X016343Y016555D01*
X016360Y016528D01*
X016373Y016500D01*
X016383Y016470D01*
X016389Y016439D01*
X016391Y016408D01*
X016389Y016377D01*
X016383Y016346D01*
X016373Y016316D01*
X016360Y016288D01*
X016343Y016261D01*
X016323Y016237D01*
X016300Y016215D01*
X016275Y016197D01*
X016247Y016182D01*
X016218Y016170D01*
X016188Y016162D01*
X016157Y016158D01*
X016125Y016158D01*
X016094Y016162D01*
X016064Y016170D01*
X016035Y016182D01*
X016007Y016197D01*
X015982Y016215D01*
X015959Y016237D01*
X015939Y016261D01*
X015922Y016288D01*
X015909Y016316D01*
X015899Y016346D01*
X015893Y016377D01*
X015891Y016408D01*
X011215Y011520D02*
X011217Y011554D01*
X011223Y011588D01*
X011233Y011621D01*
X011246Y011652D01*
X011264Y011682D01*
X011284Y011710D01*
X011308Y011735D01*
X011334Y011757D01*
X011362Y011775D01*
X011393Y011791D01*
X011425Y011803D01*
X011459Y011811D01*
X011493Y011815D01*
X011527Y011815D01*
X011561Y011811D01*
X011595Y011803D01*
X011627Y011791D01*
X011657Y011775D01*
X011686Y011757D01*
X011712Y011735D01*
X011736Y011710D01*
X011756Y011682D01*
X011774Y011652D01*
X011787Y011621D01*
X011797Y011588D01*
X011803Y011554D01*
X011805Y011520D01*
X011803Y011486D01*
X011797Y011452D01*
X011787Y011419D01*
X011774Y011388D01*
X011756Y011358D01*
X011736Y011330D01*
X011712Y011305D01*
X011686Y011283D01*
X011658Y011265D01*
X011627Y011249D01*
X011595Y011237D01*
X011561Y011229D01*
X011527Y011225D01*
X011493Y011225D01*
X011459Y011229D01*
X011425Y011237D01*
X011393Y011249D01*
X011362Y011265D01*
X011334Y011283D01*
X011308Y011305D01*
X011284Y011330D01*
X011264Y011358D01*
X011246Y011388D01*
X011233Y011419D01*
X011223Y011452D01*
X011217Y011486D01*
X011215Y011520D01*
X004522Y011520D02*
X004524Y011554D01*
X004530Y011588D01*
X004540Y011621D01*
X004553Y011652D01*
X004571Y011682D01*
X004591Y011710D01*
X004615Y011735D01*
X004641Y011757D01*
X004669Y011775D01*
X004700Y011791D01*
X004732Y011803D01*
X004766Y011811D01*
X004800Y011815D01*
X004834Y011815D01*
X004868Y011811D01*
X004902Y011803D01*
X004934Y011791D01*
X004964Y011775D01*
X004993Y011757D01*
X005019Y011735D01*
X005043Y011710D01*
X005063Y011682D01*
X005081Y011652D01*
X005094Y011621D01*
X005104Y011588D01*
X005110Y011554D01*
X005112Y011520D01*
X005110Y011486D01*
X005104Y011452D01*
X005094Y011419D01*
X005081Y011388D01*
X005063Y011358D01*
X005043Y011330D01*
X005019Y011305D01*
X004993Y011283D01*
X004965Y011265D01*
X004934Y011249D01*
X004902Y011237D01*
X004868Y011229D01*
X004834Y011225D01*
X004800Y011225D01*
X004766Y011229D01*
X004732Y011237D01*
X004700Y011249D01*
X004669Y011265D01*
X004641Y011283D01*
X004615Y011305D01*
X004591Y011330D01*
X004571Y011358D01*
X004553Y011388D01*
X004540Y011419D01*
X004530Y011452D01*
X004524Y011486D01*
X004522Y011520D01*
D12*
X004555Y012160D02*
X004652Y012257D01*
X004555Y012160D02*
X004362Y012160D01*
X004265Y012257D01*
X004265Y012644D01*
X004362Y012741D01*
X004555Y012741D01*
X004652Y012644D01*
X004873Y012547D02*
X004970Y012547D01*
X004970Y012160D01*
X005066Y012160D02*
X004873Y012160D01*
X005278Y012160D02*
X005278Y012547D01*
X005568Y012547D01*
X005665Y012451D01*
X005665Y012160D01*
X005886Y012257D02*
X005983Y012160D01*
X006273Y012160D01*
X006494Y012160D02*
X006494Y012741D01*
X006590Y012547D02*
X006784Y012547D01*
X006881Y012451D01*
X006881Y012160D01*
X007101Y012257D02*
X007198Y012160D01*
X007391Y012160D01*
X007488Y012257D01*
X007709Y012160D02*
X007902Y012160D01*
X007806Y012160D02*
X007806Y012547D01*
X007709Y012547D01*
X007806Y012741D02*
X007806Y012838D01*
X007488Y012644D02*
X007391Y012741D01*
X007198Y012741D01*
X007101Y012644D01*
X007101Y012257D01*
X006590Y012547D02*
X006494Y012451D01*
X006273Y012547D02*
X005983Y012547D01*
X005886Y012451D01*
X005886Y012257D01*
X004970Y012741D02*
X004970Y012838D01*
X008114Y012547D02*
X008114Y012160D01*
X008114Y012354D02*
X008308Y012547D01*
X008404Y012547D01*
X008621Y012451D02*
X008621Y012257D01*
X008717Y012160D01*
X009008Y012160D01*
X009228Y012257D02*
X009228Y012547D01*
X009008Y012547D02*
X008717Y012547D01*
X008621Y012451D01*
X009228Y012257D02*
X009325Y012160D01*
X009615Y012160D01*
X009615Y012547D01*
X009836Y012547D02*
X009933Y012547D01*
X009933Y012160D01*
X010029Y012160D02*
X009836Y012160D01*
X010241Y012547D02*
X010435Y012547D01*
X010338Y012644D02*
X010338Y012257D01*
X010435Y012160D01*
X010646Y012160D02*
X010936Y012160D01*
X011033Y012257D01*
X010936Y012354D01*
X010743Y012354D01*
X010646Y012451D01*
X010743Y012547D01*
X011033Y012547D01*
X011254Y012257D02*
X011351Y012257D01*
X011351Y012160D01*
X011254Y012160D01*
X011254Y012257D01*
X011558Y012257D02*
X011655Y012160D01*
X011945Y012160D01*
X012166Y012257D02*
X012166Y012451D01*
X012262Y012547D01*
X012456Y012547D01*
X012553Y012451D01*
X012553Y012257D01*
X012456Y012160D01*
X012262Y012160D01*
X012166Y012257D01*
X011945Y012547D02*
X011655Y012547D01*
X011558Y012451D01*
X011558Y012257D01*
X012773Y012160D02*
X012773Y012547D01*
X012870Y012547D01*
X012967Y012451D01*
X013064Y012547D01*
X013160Y012451D01*
X013160Y012160D01*
X012967Y012160D02*
X012967Y012451D01*
X009933Y012741D02*
X009933Y012838D01*
X009045Y008953D02*
X008735Y008953D01*
X008735Y008332D01*
X009045Y008332D01*
X009148Y008436D01*
X009148Y008849D01*
X009045Y008953D01*
X009379Y008642D02*
X009379Y008436D01*
X009483Y008332D01*
X009690Y008332D01*
X009793Y008436D01*
X009793Y008642D01*
X009690Y008746D01*
X009483Y008746D01*
X009379Y008642D01*
X010024Y008746D02*
X010024Y008436D01*
X010127Y008332D01*
X010231Y008436D01*
X010334Y008332D01*
X010438Y008436D01*
X010438Y008746D01*
X010668Y008746D02*
X010979Y008746D01*
X011082Y008642D01*
X011082Y008332D01*
X010668Y008332D02*
X010668Y008746D01*
X007859Y008642D02*
X007859Y008436D01*
X007756Y008332D01*
X007446Y008332D01*
X007446Y008125D02*
X007446Y008746D01*
X007756Y008746D01*
X007859Y008642D01*
X007215Y008642D02*
X007215Y008436D01*
X007111Y008332D01*
X006905Y008332D01*
X006801Y008436D01*
X006801Y008642D01*
X006905Y008746D01*
X007111Y008746D01*
X007215Y008642D01*
X006570Y008953D02*
X006157Y008953D01*
X006363Y008953D02*
X006363Y008332D01*
X006079Y006361D02*
X010274Y006358D01*
X013037Y005449D02*
X013037Y005111D01*
X013491Y005599D02*
X013703Y005599D01*
X014157Y005449D02*
X014157Y005111D01*
X015548Y000820D02*
X015468Y000740D01*
X015468Y000420D01*
X015548Y000340D01*
X015708Y000340D01*
X015788Y000420D01*
X015788Y000580D01*
X015628Y000580D01*
X015788Y000740D02*
X015708Y000820D01*
X015548Y000820D01*
X015983Y000660D02*
X015983Y000340D01*
X015983Y000500D02*
X016143Y000660D01*
X016223Y000660D01*
X016413Y000660D02*
X016413Y000340D01*
X016733Y000340D02*
X016733Y000580D01*
X016653Y000660D01*
X016413Y000660D01*
X003650Y003393D02*
X003570Y003312D01*
X003330Y003312D01*
X003330Y003793D01*
X003570Y003793D01*
X003650Y003713D01*
X003650Y003393D01*
X003134Y003312D02*
X003134Y003793D01*
X002814Y003793D02*
X003134Y003312D01*
X002814Y003312D02*
X002814Y003793D01*
X002619Y003713D02*
X002539Y003793D01*
X002378Y003793D01*
X002298Y003713D01*
X002298Y003393D01*
X002378Y003312D01*
X002539Y003312D01*
X002619Y003393D01*
X002619Y003553D01*
X002458Y003553D01*
X002377Y004336D02*
X002377Y004816D01*
X002377Y004576D02*
X002697Y004576D01*
X002893Y004496D02*
X003053Y004336D01*
X003213Y004496D01*
X003213Y004816D01*
X002893Y004816D02*
X002893Y004496D01*
X002697Y004336D02*
X002697Y004816D01*
X002814Y005360D02*
X002814Y005840D01*
X003134Y005360D01*
X003134Y005840D01*
X003330Y005840D02*
X003570Y005840D01*
X003650Y005760D01*
X003650Y005440D01*
X003570Y005360D01*
X003330Y005360D01*
X003330Y005840D01*
X002619Y005760D02*
X002539Y005840D01*
X002378Y005840D01*
X002298Y005760D01*
X002298Y005440D01*
X002378Y005360D01*
X002539Y005360D01*
X002619Y005440D01*
X002619Y005600D01*
X002458Y005600D01*
D13*
X002313Y002738D02*
X002313Y002656D01*
X002313Y002493D02*
X002313Y002166D01*
X002231Y002166D02*
X002395Y002166D01*
X002575Y002247D02*
X002575Y002411D01*
X002657Y002493D01*
X002820Y002493D01*
X002902Y002411D01*
X002902Y002329D01*
X002575Y002329D01*
X002575Y002247D02*
X002657Y002166D01*
X002820Y002166D01*
X002313Y002493D02*
X002231Y002493D01*
X002043Y002493D02*
X001716Y002166D01*
X001535Y002166D02*
X001372Y002166D01*
X001454Y002166D02*
X001454Y002493D01*
X001372Y002493D01*
X001454Y002656D02*
X001454Y002738D01*
X001183Y002656D02*
X001183Y002166D01*
X000856Y002656D01*
X000856Y002166D01*
X001716Y002493D02*
X002043Y002166D01*
X003606Y002166D02*
X003852Y002166D01*
X003933Y002247D01*
X003852Y002329D01*
X003688Y002329D01*
X003606Y002411D01*
X003688Y002493D01*
X003933Y002493D01*
X004122Y002411D02*
X004204Y002493D01*
X004367Y002493D01*
X004449Y002411D01*
X004449Y002166D01*
X004638Y002166D02*
X004801Y002166D01*
X004719Y002166D02*
X004719Y002493D01*
X004638Y002493D01*
X004719Y002656D02*
X004719Y002738D01*
X004981Y002411D02*
X005063Y002493D01*
X005227Y002493D01*
X005308Y002411D01*
X005308Y002329D01*
X004981Y002329D01*
X004981Y002247D02*
X004981Y002411D01*
X004981Y002247D02*
X005063Y002166D01*
X005227Y002166D01*
X005497Y002166D02*
X005661Y002166D01*
X005579Y002166D02*
X005579Y002656D01*
X005497Y002656D01*
X005841Y002411D02*
X005923Y002493D01*
X006168Y002493D01*
X006168Y002656D02*
X006168Y002166D01*
X005923Y002166D01*
X005841Y002247D01*
X005841Y002411D01*
X006872Y002656D02*
X007199Y002656D01*
X007036Y002656D02*
X007036Y002166D01*
X007388Y002166D02*
X007551Y002166D01*
X007469Y002166D02*
X007469Y002493D01*
X007388Y002493D01*
X007469Y002656D02*
X007469Y002738D01*
X007732Y002493D02*
X007977Y002493D01*
X008058Y002411D01*
X008058Y002166D01*
X008247Y002247D02*
X008329Y002166D01*
X008574Y002166D01*
X008574Y002084D02*
X008492Y002002D01*
X008411Y002002D01*
X008574Y002084D02*
X008574Y002493D01*
X008763Y002656D02*
X009008Y002656D01*
X009090Y002574D01*
X009090Y002247D01*
X009008Y002166D01*
X008763Y002166D01*
X008763Y002656D01*
X009278Y002493D02*
X009278Y002247D01*
X009360Y002166D01*
X009605Y002166D01*
X009605Y002493D01*
X009794Y002493D02*
X009876Y002493D01*
X009876Y002166D01*
X009794Y002166D02*
X009958Y002166D01*
X010138Y002166D02*
X010138Y002493D01*
X010383Y002493D01*
X010465Y002411D01*
X010465Y002166D01*
X010653Y002247D02*
X010735Y002166D01*
X010899Y002166D01*
X010980Y002247D01*
X010980Y002411D01*
X010899Y002493D01*
X010735Y002493D01*
X010653Y002411D01*
X010653Y002247D01*
X009876Y002656D02*
X009876Y002738D01*
X008247Y002493D02*
X008247Y002247D01*
X007732Y002166D02*
X007732Y002493D01*
X004122Y002656D02*
X004122Y002166D01*
X011685Y002247D02*
X011766Y002166D01*
X012012Y002166D01*
X012012Y002411D01*
X011930Y002493D01*
X011766Y002493D01*
X011766Y002329D02*
X012012Y002329D01*
X012200Y002247D02*
X012282Y002166D01*
X012527Y002166D01*
X012527Y002656D01*
X012527Y002493D02*
X012282Y002493D01*
X012200Y002411D01*
X012200Y002247D01*
X011766Y002329D02*
X011685Y002247D01*
X012716Y002247D02*
X012798Y002166D01*
X013043Y002166D01*
X013043Y002411D01*
X012961Y002493D01*
X012798Y002493D01*
X012798Y002329D02*
X013043Y002329D01*
X012798Y002329D02*
X012716Y002247D01*
X013232Y002166D02*
X013477Y002166D01*
X013559Y002247D01*
X013559Y002411D01*
X013477Y002493D01*
X013232Y002493D01*
X013232Y002002D01*
X013829Y002247D02*
X013911Y002166D01*
X013829Y002247D02*
X013829Y002574D01*
X013747Y002493D02*
X013911Y002493D01*
X014091Y002411D02*
X014173Y002493D01*
X014336Y002493D01*
X014418Y002411D01*
X014418Y002329D01*
X014091Y002329D01*
X014091Y002247D02*
X014091Y002411D01*
X014091Y002247D02*
X014173Y002166D01*
X014336Y002166D01*
X014607Y002166D02*
X014607Y002493D01*
X014770Y002493D02*
X014607Y002329D01*
X014770Y002493D02*
X014852Y002493D01*
X006839Y009358D02*
X006768Y009286D01*
X006696Y009286D01*
X006839Y009358D02*
X006839Y009716D01*
X007013Y009645D02*
X007013Y009501D01*
X007085Y009429D01*
X007300Y009429D01*
X007300Y009860D01*
X007300Y009716D02*
X007085Y009716D01*
X007013Y009645D01*
X006839Y009429D02*
X006624Y009429D01*
X006553Y009501D01*
X006553Y009716D01*
X006379Y009645D02*
X006379Y009429D01*
X006379Y009645D02*
X006307Y009716D01*
X006092Y009716D01*
X006092Y009429D01*
X005929Y009429D02*
X005785Y009429D01*
X005857Y009429D02*
X005857Y009716D01*
X005785Y009716D01*
X005857Y009860D02*
X005857Y009932D01*
X005612Y009860D02*
X005325Y009860D01*
X005468Y009860D02*
X005468Y009429D01*
X007473Y009501D02*
X007545Y009429D01*
X007760Y009429D01*
X007760Y009716D01*
X007934Y009716D02*
X008005Y009716D01*
X008005Y009429D01*
X007934Y009429D02*
X008077Y009429D01*
X008241Y009429D02*
X008241Y009716D01*
X008456Y009716D01*
X008528Y009645D01*
X008528Y009429D01*
X008701Y009501D02*
X008701Y009645D01*
X008773Y009716D01*
X008916Y009716D01*
X008988Y009645D01*
X008988Y009501D01*
X008916Y009429D01*
X008773Y009429D01*
X008701Y009501D01*
X008005Y009860D02*
X008005Y009932D01*
X007473Y009716D02*
X007473Y009501D01*
X009622Y009429D02*
X009622Y009860D01*
X009694Y009716D02*
X009837Y009716D01*
X009909Y009645D01*
X009909Y009429D01*
X010082Y009501D02*
X010082Y009645D01*
X010154Y009716D01*
X010297Y009716D01*
X010369Y009645D01*
X010369Y009573D01*
X010082Y009573D01*
X010082Y009501D02*
X010154Y009429D01*
X010297Y009429D01*
X010543Y009429D02*
X010543Y009716D01*
X010686Y009716D02*
X010758Y009716D01*
X010686Y009716D02*
X010543Y009573D01*
X010926Y009573D02*
X011213Y009573D01*
X011213Y009645D01*
X011141Y009716D01*
X010998Y009716D01*
X010926Y009645D01*
X010926Y009501D01*
X010998Y009429D01*
X011141Y009429D01*
X009694Y009716D02*
X009622Y009645D01*
D14*
X007042Y003903D02*
X006842Y003903D01*
X006742Y003803D01*
X006498Y003703D02*
X006298Y003303D01*
X006097Y003703D01*
X005853Y003603D02*
X005853Y003503D01*
X005453Y003503D01*
X005453Y003403D02*
X005453Y003603D01*
X005553Y003703D01*
X005753Y003703D01*
X005853Y003603D01*
X005553Y003303D02*
X005453Y003403D01*
X005553Y003303D02*
X005753Y003303D01*
X005209Y003303D02*
X005008Y003503D01*
X005109Y003503D02*
X004808Y003503D01*
X004808Y003303D02*
X004808Y003903D01*
X005109Y003903D01*
X005209Y003803D01*
X005209Y003603D01*
X005109Y003503D01*
X006742Y003303D02*
X007142Y003703D01*
X007142Y003803D01*
X007042Y003903D01*
X007142Y003303D02*
X006742Y003303D01*
X013529Y003170D02*
X013729Y003170D01*
X013529Y003470D02*
X013929Y003470D01*
X014173Y003470D02*
X014574Y003470D01*
X014374Y003470D02*
X014374Y002870D01*
X014818Y002870D02*
X015118Y002870D01*
X015218Y002970D01*
X015218Y003370D01*
X015118Y003470D01*
X014818Y003470D01*
X014818Y002870D01*
X015462Y002870D02*
X015663Y002870D01*
X015563Y002870D02*
X015563Y003470D01*
X015663Y003470D02*
X015462Y003470D01*
X015892Y003170D02*
X016292Y003170D01*
X013529Y002870D02*
X013529Y003470D01*
D15*
X016181Y006703D02*
X016467Y006703D01*
X016562Y006798D01*
X016562Y006893D01*
X016467Y006989D01*
X016181Y006989D01*
X016181Y007274D02*
X016467Y007274D01*
X016562Y007179D01*
X016562Y007084D01*
X016467Y006989D01*
X016181Y007274D02*
X016181Y006703D01*
X016789Y006703D02*
X017169Y006703D01*
X017397Y006703D02*
X017397Y007274D01*
X017492Y006989D02*
X017777Y006703D01*
X017397Y006893D02*
X017777Y007274D01*
X016789Y007274D02*
X016789Y006703D01*
D16*
X016811Y006666D02*
X017311Y006666D01*
X017561Y006416D01*
X017561Y005916D01*
X017311Y005666D01*
X017561Y005416D01*
X017561Y004916D01*
X017311Y004666D01*
X017561Y004416D01*
X017561Y003916D01*
X017311Y003666D01*
X017561Y003416D01*
X017561Y002916D01*
X017311Y002666D01*
X017561Y002416D01*
X017561Y001916D01*
X017311Y001666D01*
X017561Y001416D01*
X017561Y000916D01*
X017311Y000666D01*
X016811Y000666D01*
X016561Y000916D01*
X016561Y001416D01*
X016811Y001666D01*
X016561Y001916D01*
X016561Y002416D01*
X016811Y002666D01*
X017311Y002666D01*
X016811Y002666D02*
X016561Y002916D01*
X016561Y003416D01*
X016811Y003666D01*
X016561Y003916D01*
X016561Y004416D01*
X016811Y004666D01*
X016561Y004916D01*
X016561Y005416D01*
X016811Y005666D01*
X016561Y005916D01*
X016561Y006416D01*
X016811Y006666D01*
X016811Y007430D02*
X016561Y007680D01*
X016561Y008180D01*
X016811Y008430D01*
X016561Y008680D01*
X016561Y009180D01*
X016811Y009430D01*
X016561Y009680D01*
X016561Y010180D01*
X016811Y010430D01*
X016561Y010680D01*
X016561Y011180D01*
X016811Y011430D01*
X016561Y011680D01*
X016561Y012180D01*
X016811Y012430D01*
X016561Y012680D01*
X016561Y013180D01*
X016811Y013430D01*
X016561Y013680D01*
X016561Y014180D01*
X016811Y014430D01*
X017311Y014430D01*
X017561Y014180D01*
X017561Y013680D01*
X017311Y013430D01*
X017561Y013180D01*
X017561Y012680D01*
X017311Y012430D01*
X016811Y012430D01*
X017311Y012430D02*
X017561Y012180D01*
X017561Y011680D01*
X017311Y011430D01*
X017561Y011180D01*
X017561Y010680D01*
X017311Y010430D01*
X017561Y010180D01*
X017561Y009680D01*
X017311Y009430D01*
X016811Y009430D01*
X016488Y009602D02*
X016167Y009815D01*
X016488Y010029D01*
X016167Y010242D02*
X016167Y009602D01*
X015950Y009602D02*
X015950Y009922D01*
X015843Y010029D01*
X015523Y010029D01*
X015523Y009602D01*
X015305Y009602D02*
X014985Y009602D01*
X014878Y009708D01*
X014985Y009815D01*
X015305Y009815D01*
X015305Y009922D02*
X015305Y009602D01*
X015107Y009356D02*
X015000Y009356D01*
X015107Y009356D02*
X015107Y008716D01*
X015213Y008716D02*
X015000Y008716D01*
X014782Y008716D02*
X014355Y009356D01*
X014449Y009602D02*
X014662Y009602D01*
X014555Y009602D02*
X014555Y010242D01*
X014449Y010242D01*
X014231Y010135D02*
X014231Y010029D01*
X014124Y009922D01*
X013804Y009922D01*
X013804Y010242D02*
X014124Y010242D01*
X014231Y010135D01*
X014124Y009922D02*
X014231Y009815D01*
X014231Y009708D01*
X014124Y009602D01*
X013804Y009602D01*
X013804Y010242D01*
X014690Y010732D02*
X014797Y010625D01*
X015010Y010625D01*
X015117Y010732D01*
X015117Y010839D01*
X015010Y010946D01*
X014797Y010946D01*
X014690Y011052D01*
X014690Y011159D01*
X014797Y011266D01*
X015010Y011266D01*
X015117Y011159D01*
X015334Y011052D02*
X015441Y011052D01*
X015441Y010625D01*
X015334Y010625D02*
X015548Y010625D01*
X015764Y010625D02*
X015764Y011052D01*
X016084Y011052D01*
X016191Y010946D01*
X016191Y010625D01*
X016811Y010430D02*
X017311Y010430D01*
X017311Y011430D02*
X016811Y011430D01*
X016249Y011531D02*
X015928Y011851D01*
X015822Y011744D02*
X016249Y012171D01*
X015822Y012171D02*
X015822Y011531D01*
X015604Y011638D02*
X015497Y011531D01*
X015284Y011531D01*
X015177Y011638D01*
X015177Y012065D01*
X015284Y012171D01*
X015497Y012171D01*
X015604Y012065D01*
X014959Y012065D02*
X014853Y012171D01*
X014639Y012171D01*
X014532Y012065D01*
X014532Y011958D01*
X014639Y011851D01*
X014853Y011851D01*
X014959Y011744D01*
X014959Y011638D01*
X014853Y011531D01*
X014639Y011531D01*
X014532Y011638D01*
X015441Y011373D02*
X015441Y011266D01*
X015199Y010029D02*
X014985Y010029D01*
X015199Y010029D02*
X015305Y009922D01*
X014782Y009356D02*
X014355Y008716D01*
X014324Y008628D02*
X014217Y008521D01*
X014217Y008094D01*
X014324Y007987D01*
X014538Y007987D01*
X014644Y008094D01*
X014644Y008308D01*
X014431Y008308D01*
X014644Y008521D02*
X014538Y008628D01*
X014324Y008628D01*
X014862Y008308D02*
X014969Y008415D01*
X015289Y008415D01*
X015182Y008201D02*
X014969Y008201D01*
X014862Y008308D01*
X015182Y008201D02*
X015289Y008094D01*
X015182Y007987D01*
X014862Y007987D01*
X015507Y008094D02*
X015507Y008308D01*
X015613Y008415D01*
X015934Y008415D01*
X016151Y008628D02*
X016151Y007987D01*
X016151Y008201D02*
X016471Y008415D01*
X016811Y008430D02*
X017311Y008430D01*
X017561Y008180D01*
X017561Y007680D01*
X017311Y007430D01*
X016811Y007430D01*
X016471Y007987D02*
X016151Y008201D01*
X015934Y007987D02*
X015613Y007987D01*
X015507Y008094D01*
X015536Y008716D02*
X015429Y008823D01*
X015536Y008929D01*
X015857Y008929D01*
X015857Y009036D02*
X015857Y008716D01*
X015536Y008716D01*
X016181Y008823D02*
X016288Y008716D01*
X016181Y008823D02*
X016181Y009250D01*
X016074Y009143D02*
X016288Y009143D01*
X015857Y009036D02*
X015750Y009143D01*
X015536Y009143D01*
X017311Y009430D02*
X017561Y009180D01*
X017561Y008680D01*
X017311Y008430D01*
X017311Y005666D02*
X016811Y005666D01*
X016811Y004666D02*
X017311Y004666D01*
X017311Y003666D02*
X016811Y003666D01*
X016811Y001666D02*
X017311Y001666D01*
X001987Y003333D02*
X001737Y003083D01*
X001237Y003083D01*
X000987Y003333D01*
X000987Y003833D01*
X001237Y004083D01*
X000987Y004333D01*
X000987Y004833D01*
X001237Y005083D01*
X000987Y005333D01*
X000987Y005833D01*
X001237Y006083D01*
X001737Y006083D01*
X001987Y005833D01*
X001987Y005333D01*
X001737Y005083D01*
X001987Y004833D01*
X001987Y004333D01*
X001737Y004083D01*
X001987Y003833D01*
X001987Y003333D01*
X001737Y004083D02*
X001237Y004083D01*
X001237Y005083D02*
X001737Y005083D01*
X014844Y012760D02*
X014844Y013187D01*
X014631Y012973D02*
X015058Y012973D01*
X015275Y012973D02*
X015489Y013080D01*
X015596Y013080D01*
X015702Y012973D01*
X015702Y012760D01*
X015596Y012653D01*
X015382Y012653D01*
X015275Y012760D01*
X015275Y012973D02*
X015275Y013293D01*
X015702Y013293D01*
X015920Y013080D02*
X016133Y012653D01*
X016347Y013080D01*
X016811Y013430D02*
X017311Y013430D01*
X016288Y013783D02*
X016181Y013676D01*
X015861Y013676D01*
X015861Y014317D01*
X016181Y014317D01*
X016288Y014210D01*
X016288Y013783D01*
X015643Y013676D02*
X015643Y014317D01*
X015216Y014317D02*
X015643Y013676D01*
X015216Y013676D02*
X015216Y014317D01*
X014999Y014210D02*
X014892Y014317D01*
X014679Y014317D01*
X014572Y014210D01*
X014572Y013783D01*
X014679Y013676D01*
X014892Y013676D01*
X014999Y013783D01*
X014999Y013997D01*
X014785Y013997D01*
D17*
X011707Y013213D02*
X002593Y013213D01*
X002593Y013391D01*
X002573Y013391D01*
X002573Y019532D01*
X011687Y019532D01*
X011687Y019552D01*
D18*
X008263Y004375D02*
X008450Y004381D01*
X008636Y004395D01*
X008822Y004419D01*
X009006Y004452D01*
X009189Y004494D01*
X009369Y004545D01*
X009546Y004604D01*
X009721Y004672D01*
X009892Y004749D01*
X010058Y004834D01*
X010221Y004927D01*
X010379Y005028D01*
X010531Y005136D01*
X010678Y005252D01*
X010820Y005375D01*
X010955Y005504D01*
X011083Y005640D01*
X011205Y005783D01*
X011319Y005931D01*
X011427Y006084D01*
X011526Y006242D01*
X011618Y006406D01*
X011702Y006573D01*
X011777Y006745D01*
X011844Y006919D01*
X011902Y007097D01*
X011951Y007278D01*
X011992Y007461D01*
X012023Y007645D01*
X012046Y007831D01*
X012059Y008018D01*
X012063Y008205D01*
X012058Y008392D01*
X012044Y008579D01*
X012020Y008764D01*
X011988Y008949D01*
X011946Y009131D01*
X011896Y009312D01*
X011837Y009489D01*
X011769Y009664D01*
X011693Y009835D01*
X011609Y010002D01*
X011516Y010164D01*
X011416Y010322D01*
X011308Y010475D01*
X011192Y010623D01*
X011070Y010764D01*
X010941Y010900D01*
X010805Y011029D01*
X010663Y011151D01*
X010515Y011266D01*
X010362Y011373D01*
X010204Y011473D01*
X010041Y011565D01*
X009874Y011649D01*
X009703Y011725D01*
X009528Y011792D01*
X009350Y011851D01*
X009170Y011901D01*
X008987Y011942D01*
X008803Y011974D01*
X008617Y011997D01*
X008430Y012010D01*
X008243Y012015D01*
X008056Y012010D01*
X007869Y011997D01*
X007683Y011974D01*
X007499Y011942D01*
X007316Y011901D01*
X007136Y011851D01*
X006958Y011792D01*
X006783Y011725D01*
X006612Y011649D01*
X006445Y011565D01*
X006282Y011473D01*
X006124Y011373D01*
X005971Y011266D01*
X005823Y011151D01*
X005681Y011029D01*
X005545Y010900D01*
X005416Y010764D01*
X005294Y010623D01*
X005178Y010475D01*
X005070Y010322D01*
X004970Y010164D01*
X004877Y010002D01*
X004793Y009835D01*
X004717Y009664D01*
X004649Y009489D01*
X004590Y009312D01*
X004540Y009131D01*
X004498Y008949D01*
X004466Y008764D01*
X004442Y008579D01*
X004428Y008392D01*
X004423Y008205D01*
X004427Y008018D01*
X004440Y007831D01*
X004463Y007645D01*
X004494Y007461D01*
X004535Y007278D01*
X004584Y007097D01*
X004642Y006919D01*
X004709Y006745D01*
X004784Y006573D01*
X004868Y006406D01*
X004960Y006242D01*
X005059Y006084D01*
X005167Y005931D01*
X005281Y005783D01*
X005403Y005640D01*
X005531Y005504D01*
X005666Y005375D01*
X005808Y005252D01*
X005955Y005136D01*
X006107Y005028D01*
X006265Y004927D01*
X006428Y004834D01*
X006594Y004749D01*
X006765Y004672D01*
X006940Y004604D01*
X007117Y004545D01*
X007297Y004494D01*
X007480Y004452D01*
X007664Y004419D01*
X007850Y004395D01*
X008036Y004381D01*
X008223Y004375D01*
D19*
X008176Y016320D02*
X008078Y016418D01*
X008078Y016615D01*
X008176Y016713D01*
X008373Y016713D01*
X008471Y016615D01*
X008471Y016516D01*
X008078Y016516D01*
X008176Y016320D02*
X008373Y016320D01*
X008722Y016320D02*
X008722Y016713D01*
X008722Y016516D02*
X008919Y016713D01*
X009017Y016713D01*
X007827Y016713D02*
X007630Y016320D01*
X007433Y016713D01*
X007102Y016713D02*
X007102Y016320D01*
X007200Y016320D02*
X007003Y016320D01*
X006663Y016713D02*
X006466Y016516D01*
X006466Y016320D02*
X006466Y016713D01*
X006663Y016713D02*
X006762Y016713D01*
X007003Y016713D02*
X007102Y016713D01*
X007102Y016910D02*
X007102Y017008D01*
X006215Y016812D02*
X006215Y016418D01*
X006117Y016320D01*
X005822Y016320D01*
X005822Y016910D01*
X006117Y016910D01*
X006215Y016812D01*
X004926Y016910D02*
X004926Y016516D01*
X004730Y016320D01*
X004533Y016516D01*
X004533Y016910D01*
X004282Y016910D02*
X004282Y016320D01*
X003888Y016320D02*
X003888Y016910D01*
X003888Y016615D02*
X004282Y016615D01*
X013494Y017107D02*
X013888Y017107D01*
D20*
X014841Y015808D02*
X014841Y018808D01*
X018441Y018808D01*
X018441Y015808D01*
X014841Y015808D01*
X017806Y014175D02*
X018256Y014175D01*
X018256Y014025D02*
X018256Y014325D01*
X017956Y014025D02*
X017806Y014175D01*
X017881Y013864D02*
X018031Y013864D01*
X018106Y013789D01*
X018106Y013564D01*
X018256Y013564D02*
X017806Y013564D01*
X017806Y013789D01*
X017881Y013864D01*
X017806Y013404D02*
X017806Y013254D01*
X017806Y013329D02*
X018181Y013329D01*
X018256Y013254D01*
X018256Y013179D01*
X018181Y013104D01*
X009584Y004715D02*
X009586Y004728D01*
X009591Y004741D01*
X009600Y004752D01*
X009611Y004759D01*
X009624Y004764D01*
X009637Y004765D01*
X009651Y004762D01*
X009663Y004756D01*
X009673Y004747D01*
X009680Y004735D01*
X009684Y004722D01*
X009684Y004708D01*
X009680Y004695D01*
X009673Y004683D01*
X009663Y004674D01*
X009651Y004668D01*
X009637Y004665D01*
X009624Y004666D01*
X009611Y004671D01*
X009600Y004678D01*
X009591Y004689D01*
X009586Y004702D01*
X009584Y004715D01*
X015866Y001807D02*
X015866Y001657D01*
X015941Y001582D01*
X015941Y001422D02*
X015866Y001347D01*
X015866Y001122D01*
X016316Y001122D01*
X016166Y001122D02*
X016166Y001347D01*
X016091Y001422D01*
X015941Y001422D01*
X016316Y001582D02*
X016016Y001882D01*
X015941Y001882D01*
X015866Y001807D01*
X016316Y001882D02*
X016316Y001582D01*
X015866Y000961D02*
X015866Y000811D01*
X015866Y000886D02*
X016241Y000886D01*
X016316Y000811D01*
X016316Y000736D01*
X016241Y000661D01*
X000742Y003154D02*
X000667Y003078D01*
X000742Y003154D02*
X000742Y003229D01*
X000667Y003304D01*
X000291Y003304D01*
X000291Y003229D02*
X000291Y003379D01*
X000291Y003539D02*
X000291Y003764D01*
X000366Y003839D01*
X000516Y003839D01*
X000592Y003764D01*
X000592Y003539D01*
X000742Y003539D02*
X000291Y003539D01*
X000366Y003999D02*
X000291Y004074D01*
X000291Y004224D01*
X000366Y004300D01*
X000441Y004300D01*
X000516Y004224D01*
X000592Y004300D01*
X000667Y004300D01*
X000742Y004224D01*
X000742Y004074D01*
X000667Y003999D01*
X000516Y004149D02*
X000516Y004224D01*
D21*
X004272Y006491D02*
X004272Y006721D01*
X004349Y006797D01*
X004503Y006797D01*
X004579Y006721D01*
X004579Y006491D01*
X004579Y006644D02*
X004733Y006797D01*
X004733Y006951D02*
X004426Y007258D01*
X004349Y007258D01*
X004272Y007181D01*
X004272Y007028D01*
X004349Y006951D01*
X004733Y006951D02*
X004733Y007258D01*
X004733Y006491D02*
X004272Y006491D01*
X002940Y006849D02*
X002940Y007156D01*
X002940Y006849D02*
X002786Y006696D01*
X002633Y006849D01*
X002633Y007156D01*
X002479Y007156D02*
X002172Y007156D01*
X002172Y006926D01*
X002326Y007003D01*
X002403Y007003D01*
X002479Y006926D01*
X002479Y006773D01*
X002403Y006696D01*
X002249Y006696D01*
X002172Y006773D01*
X002287Y008330D02*
X002133Y008483D01*
X002133Y008790D01*
X001980Y008714D02*
X001903Y008790D01*
X001749Y008790D01*
X001673Y008714D01*
X001826Y008560D02*
X001903Y008560D01*
X001980Y008483D01*
X001980Y008407D01*
X001903Y008330D01*
X001749Y008330D01*
X001673Y008407D01*
X001903Y008560D02*
X001980Y008637D01*
X001980Y008714D01*
X002440Y008790D02*
X002440Y008483D01*
X002287Y008330D01*
X002594Y008407D02*
X002670Y008330D01*
X002824Y008330D01*
X002900Y008407D01*
X002900Y008483D01*
X002824Y008560D01*
X002747Y008560D01*
X002824Y008560D02*
X002900Y008637D01*
X002900Y008714D01*
X002824Y008790D01*
X002670Y008790D01*
X002594Y008714D01*
X002884Y010759D02*
X002884Y011220D01*
X003114Y011220D01*
X003191Y011143D01*
X003191Y010990D01*
X003114Y010913D01*
X002884Y010913D01*
X003037Y010913D02*
X003191Y010759D01*
X003344Y010836D02*
X003421Y010759D01*
X003574Y010759D01*
X003651Y010836D01*
X003651Y010913D01*
X003574Y010990D01*
X003498Y010990D01*
X003574Y010990D02*
X003651Y011066D01*
X003651Y011143D01*
X003574Y011220D01*
X003421Y011220D01*
X003344Y011143D01*
X003370Y011389D02*
X003063Y011389D01*
X003216Y011389D02*
X003216Y011849D01*
X003063Y011695D01*
X002909Y011619D02*
X002833Y011542D01*
X002602Y011542D01*
X002602Y011389D02*
X002602Y011849D01*
X002833Y011849D01*
X002909Y011772D01*
X002909Y011619D01*
X002756Y011542D02*
X002909Y011389D01*
X009807Y014761D02*
X009883Y014684D01*
X010037Y014684D01*
X010114Y014761D01*
X010114Y014914D01*
X009960Y014914D01*
X009807Y014761D02*
X009807Y015068D01*
X009883Y015145D01*
X010037Y015145D01*
X010114Y015068D01*
X010267Y015145D02*
X010574Y014684D01*
X010574Y015145D01*
X010727Y015145D02*
X010958Y015145D01*
X011034Y015068D01*
X011034Y014761D01*
X010958Y014684D01*
X010727Y014684D01*
X010727Y015145D01*
X010267Y015145D02*
X010267Y014684D01*
X010267Y014145D02*
X010267Y013684D01*
X010267Y013914D02*
X010574Y013914D01*
X010727Y013838D02*
X010881Y013684D01*
X011034Y013838D01*
X011034Y014145D01*
X010727Y014145D02*
X010727Y013838D01*
X010574Y013684D02*
X010574Y014145D01*
X010574Y015684D02*
X010420Y015838D01*
X010497Y015838D02*
X010267Y015838D01*
X010267Y015684D02*
X010267Y016145D01*
X010497Y016145D01*
X010574Y016068D01*
X010574Y015914D01*
X010497Y015838D01*
X010727Y015914D02*
X011034Y015914D01*
X011034Y015991D02*
X011034Y015684D01*
X010727Y015684D02*
X010727Y015991D01*
X010881Y016145D01*
X011034Y015991D01*
X010958Y016684D02*
X010727Y016684D01*
X010727Y017145D01*
X010574Y017145D02*
X010574Y016838D01*
X010420Y016684D01*
X010267Y016838D01*
X010267Y017145D01*
X010727Y016991D02*
X010958Y016991D01*
X011034Y016914D01*
X011034Y016761D01*
X010958Y016684D01*
X011034Y017684D02*
X011034Y017914D01*
X010958Y017991D01*
X010727Y017991D01*
X010727Y017684D01*
X010574Y017684D02*
X010267Y017684D01*
X010267Y018145D01*
X010574Y018145D01*
X010420Y017914D02*
X010267Y017914D01*
X010420Y018684D02*
X010574Y018684D01*
X010497Y018684D02*
X010497Y018991D01*
X010420Y018991D01*
X010497Y019145D02*
X010497Y019221D01*
X010267Y019145D02*
X010267Y018838D01*
X010114Y018684D01*
X009960Y018838D01*
X009960Y019145D01*
X010727Y018991D02*
X010958Y018991D01*
X011034Y018914D01*
X011034Y018684D01*
X010727Y018684D02*
X010727Y018991D01*
X012802Y018650D02*
X013262Y018650D01*
X013262Y018497D02*
X013262Y018804D01*
X012955Y018497D02*
X012802Y018650D01*
X012878Y018343D02*
X012802Y018267D01*
X012802Y018037D01*
X013262Y018037D01*
X013262Y018267D01*
X013185Y018343D01*
X012878Y018343D01*
X014661Y019705D02*
X014738Y019628D01*
X014891Y019628D01*
X014968Y019705D01*
X014968Y020088D01*
X015121Y020012D02*
X015121Y019935D01*
X015198Y019858D01*
X015352Y019858D01*
X015428Y019781D01*
X015428Y019705D01*
X015352Y019628D01*
X015198Y019628D01*
X015121Y019705D01*
X015275Y019551D02*
X015275Y020165D01*
X015352Y020088D02*
X015428Y020012D01*
X015352Y020088D02*
X015198Y020088D01*
X015121Y020012D01*
X015582Y020012D02*
X015659Y020088D01*
X015812Y020088D01*
X015889Y020012D01*
X015889Y019935D01*
X015812Y019858D01*
X015889Y019781D01*
X015889Y019705D01*
X015812Y019628D01*
X015659Y019628D01*
X015582Y019705D01*
X015735Y019858D02*
X015812Y019858D01*
X014661Y019705D02*
X014661Y020088D01*
X014515Y007785D02*
X014515Y007478D01*
X014515Y007631D02*
X014055Y007631D01*
X014209Y007478D01*
X014132Y007324D02*
X014055Y007247D01*
X014055Y007094D01*
X014132Y007017D01*
X014439Y007017D01*
X014515Y007094D01*
X014515Y007247D01*
X014439Y007324D01*
X015668Y005241D02*
X015591Y005164D01*
X015591Y005011D01*
X015668Y004934D01*
X015668Y004781D02*
X015591Y004704D01*
X015591Y004550D01*
X015668Y004474D01*
X015975Y004474D01*
X016052Y004550D01*
X016052Y004704D01*
X015975Y004781D01*
X016052Y004934D02*
X015745Y005241D01*
X015668Y005241D01*
X016052Y005241D02*
X016052Y004934D01*
D22*
X002524Y007426D03*
X002485Y009060D03*
D23*
X007483Y005920D02*
X007483Y005728D01*
X007522Y005690D01*
X007598Y005690D01*
X007637Y005728D01*
X007637Y005920D01*
X007713Y005882D02*
X007752Y005920D01*
X007829Y005920D01*
X007867Y005882D01*
X007944Y005920D02*
X007944Y005805D01*
X008020Y005843D01*
X008059Y005843D01*
X008097Y005805D01*
X008097Y005728D01*
X008059Y005690D01*
X007982Y005690D01*
X007944Y005728D01*
X007867Y005728D02*
X007867Y005767D01*
X007829Y005805D01*
X007752Y005805D01*
X007713Y005843D01*
X007713Y005882D01*
X007790Y005958D02*
X007790Y005652D01*
X007752Y005690D02*
X007829Y005690D01*
X007867Y005728D01*
X007752Y005690D02*
X007713Y005728D01*
X007944Y005920D02*
X008097Y005920D01*
M02*
