G75*
G70*
%OFA0B0*%
%FSLAX24Y24*%
%IPPOS*%
%LPD*%
%AMOC8*
5,1,8,0,0,1.08239X$1,22.5*
%
%ADD10C,0.0000*%
%ADD11OC8,0.0600*%
%ADD12R,0.0434X0.0591*%
%ADD13R,0.0591X0.0434*%
%ADD14C,0.0640*%
%ADD15R,0.0355X0.0138*%
%ADD16R,0.1300X0.2638*%
%ADD17R,0.0473X0.0434*%
%ADD18R,0.0434X0.0473*%
%ADD19R,0.0552X0.0670*%
%ADD20R,0.0355X0.0355*%
%ADD21C,0.1542*%
D10*
X001418Y000100D02*
X001458Y027856D01*
X019159Y027844D01*
X019135Y000100D01*
X001418Y000100D01*
D11*
X006773Y002155D03*
X007773Y002155D03*
X007773Y003155D03*
X006773Y003155D03*
X008773Y003155D03*
X008773Y002155D03*
X009773Y002155D03*
X009773Y003155D03*
X010773Y003155D03*
X010773Y002155D03*
X011773Y002155D03*
X011773Y003155D03*
X012773Y003155D03*
X012773Y002155D03*
X013773Y002155D03*
X013773Y003155D03*
X013757Y024198D03*
X013757Y025198D03*
X012757Y025198D03*
X012757Y024198D03*
X011757Y024198D03*
X011757Y025198D03*
X010757Y025198D03*
X010757Y024198D03*
X009757Y024198D03*
X009757Y025198D03*
X008757Y025198D03*
X008757Y024198D03*
X007757Y024198D03*
X006757Y024198D03*
X006757Y025198D03*
X007757Y025198D03*
D12*
X008056Y022529D03*
X007682Y021663D03*
X008430Y021663D03*
X009383Y021671D03*
X009757Y022537D03*
X010131Y021671D03*
X011092Y021671D03*
X011840Y021671D03*
X011466Y022537D03*
X012722Y021671D03*
X013470Y021671D03*
X013096Y022537D03*
X014422Y021679D03*
X014796Y022545D03*
X015170Y021679D03*
X016722Y021797D03*
X017096Y022663D03*
X017470Y021797D03*
X014761Y008427D03*
X014387Y007561D03*
X014013Y008427D03*
X013044Y008387D03*
X012296Y008387D03*
X012670Y007521D03*
X013033Y006065D03*
X013407Y005198D03*
X013781Y006065D03*
X014867Y006065D03*
X015241Y005198D03*
X015615Y006065D03*
X017025Y003734D03*
X017773Y003734D03*
X017399Y002868D03*
X012064Y006065D03*
X011316Y006065D03*
X011690Y005198D03*
X010458Y006072D03*
X010084Y005206D03*
X009710Y006072D03*
X008792Y006033D03*
X008044Y006033D03*
X008418Y005167D03*
X007233Y006072D03*
X006859Y005206D03*
X006485Y006072D03*
X005572Y005348D03*
X005198Y004482D03*
X004824Y005348D03*
X003749Y004639D03*
X003375Y003773D03*
X003001Y004639D03*
X005588Y007450D03*
X005962Y008317D03*
X005214Y008317D03*
X007167Y008395D03*
X007915Y008395D03*
X007541Y007529D03*
X008974Y008395D03*
X009348Y007529D03*
X009722Y008395D03*
X010698Y008387D03*
X011446Y008387D03*
X011072Y007521D03*
X006131Y021663D03*
X005383Y021663D03*
X005757Y022529D03*
X003950Y021860D03*
X003576Y022726D03*
X003202Y021860D03*
D13*
X003926Y026478D03*
X003926Y027226D03*
X004792Y026852D03*
X005855Y026856D03*
X005855Y027604D03*
X006722Y027230D03*
X007832Y027517D03*
X007832Y026769D03*
X008698Y027143D03*
X009604Y027502D03*
X009604Y026754D03*
X010470Y027128D03*
X011415Y027486D03*
X011415Y026738D03*
X012281Y027112D03*
X013352Y027478D03*
X013352Y026730D03*
X014218Y027104D03*
X015478Y027423D03*
X015478Y026675D03*
X016344Y027049D03*
D14*
X017890Y016722D02*
X018490Y016722D01*
X018490Y015722D02*
X017890Y015722D01*
X017890Y014722D02*
X018490Y014722D01*
X018490Y013722D02*
X017890Y013722D01*
X017890Y012722D02*
X018490Y012722D01*
X018490Y011722D02*
X017890Y011722D01*
X017890Y010722D02*
X018490Y010722D01*
X002506Y010683D02*
X001906Y010683D01*
X001906Y011683D02*
X002506Y011683D01*
X002506Y012683D02*
X001906Y012683D01*
X001906Y013683D02*
X002506Y013683D01*
X002506Y014683D02*
X001906Y014683D01*
X001906Y015683D02*
X002506Y015683D01*
X002506Y016683D02*
X001906Y016683D01*
D15*
X005623Y016276D03*
X005623Y016016D03*
X005623Y015756D03*
X005623Y015496D03*
X005623Y015236D03*
X005623Y014976D03*
X005620Y014716D03*
X005623Y014456D03*
X005623Y014196D03*
X005623Y013936D03*
X005623Y013676D03*
X005623Y013416D03*
X005623Y013156D03*
X005623Y012896D03*
X007923Y012896D03*
X007923Y013156D03*
X007923Y013416D03*
X007923Y013676D03*
X007923Y013936D03*
X007923Y014196D03*
X007923Y014456D03*
X007925Y014716D03*
X007923Y014976D03*
X007923Y015236D03*
X007923Y015496D03*
X007923Y015756D03*
X007923Y016016D03*
X007923Y016276D03*
X012077Y013437D03*
X012080Y013697D03*
X012080Y013957D03*
X012080Y014217D03*
X012080Y014477D03*
X012080Y014737D03*
X012080Y014997D03*
X012080Y015257D03*
X012080Y013177D03*
X012080Y012917D03*
X012080Y012657D03*
X012080Y012397D03*
X012080Y012137D03*
X012080Y011877D03*
X014380Y011877D03*
X014380Y012137D03*
X014380Y012397D03*
X014380Y012657D03*
X014380Y012917D03*
X014380Y013177D03*
X014382Y013437D03*
X014380Y013697D03*
X014380Y013957D03*
X014380Y014217D03*
X014380Y014477D03*
X014380Y014737D03*
X014380Y014997D03*
X014380Y015257D03*
D16*
X013230Y013567D03*
X006773Y014586D03*
D17*
X004135Y013820D03*
X004135Y013151D03*
D18*
X006478Y010848D03*
X007147Y010848D03*
X012934Y017187D03*
X013604Y017187D03*
X014194Y018840D03*
X014863Y018840D03*
D19*
X013702Y016163D03*
X012915Y016163D03*
X007245Y012108D03*
X006458Y012108D03*
D20*
X003544Y015198D03*
X003544Y015789D03*
X012777Y018683D03*
X013367Y018683D03*
D21*
X017954Y026675D03*
X002600Y026675D03*
X002600Y001281D03*
X017954Y001281D03*
M02*
