%
M48
M72
T01C0.0236
T02C0.0360
T03C0.0400
T04C0.1102
%
T01
X2993Y6517
X4607Y6517
X4647Y8328
X2993Y9194
X4017Y10887
X3111Y11281
X3111Y12108
X3978Y12226
X4371Y12580
X4529Y12108
X5592Y11242
X6418Y9628
X6497Y9076
X7245Y8919
X7836Y9352
X9017Y8919
X9253Y9352
X9883Y10021
X9450Y10572
X10710Y8919
X11104Y9943
X11891Y10415
X12678Y9824
X13190Y9824
X12757Y10730
X12285Y8919
X14056Y8919
X15198Y9943
X15552Y9549
X16537Y10376
X17048Y9943
X18230Y8604
X18663Y9706
X16852Y6596
X15552Y7423
X14883Y6596
X12915Y6596
X11537Y6596
X9962Y6557
X8190Y6557
X6694Y6557
X8269Y12423
X8623Y13013
X8978Y13446
X9844Y13801
X9962Y14431
X10237Y14864
X10237Y15297
X10631Y15691
X11104Y15691
X11300Y16399
X11773Y16045
X10867Y14194
X10355Y16439
X10080Y17541
X10828Y18013
X11143Y19194
X12836Y19943
X14489Y20494
X15277Y19155
X16025Y17147
X16891Y18643
X16773Y21163
X15828Y21675
X15552Y24470
X15907Y25021
X14686Y24470
X14371Y25021
X15159Y27383
X14017Y27541
X11222Y27344
X9450Y27383
X8269Y26006
X7560Y27541
X5316Y27580
X4056Y25887
X4056Y25218
X3544Y27187
X3269Y20966
X2600Y20061
X2167Y21084
X4253Y20572
X4962Y20257
X5474Y19943
X5867Y19628
X6222Y19234
X6537Y18801
X6852Y18171
X8072Y18801
X8702Y18525
X9214Y18761
X8899Y21557
X10592Y21635
X10592Y22738
X14332Y16635
X15631Y14864
X15277Y14470
X14962Y13801
X6497Y12738
X5119Y13722
X3623Y13486
T02
X6773Y3155
X7773Y3155
X7773Y2155
X6773Y2155
X8773Y2155
X8773Y3155
X9773Y3155
X9773Y2155
X10773Y2155
X10773Y3155
X11773Y3155
X11773Y2155
X12773Y2155
X12773Y3155
X13773Y3155
X13773Y2155
X13757Y24198
X13757Y25198
X12757Y25198
X12757Y24198
X11757Y24198
X11757Y25198
X10757Y25198
X10757Y24198
X9757Y24198
X9757Y25198
X8757Y25198
X8757Y24198
X7757Y24198
X6757Y24198
X6757Y25198
X7757Y25198
T03
X2206Y16683
X2206Y15683
X2206Y14683
X2206Y13683
X2206Y12683
X2206Y11683
X2206Y10683
X18190Y10722
X18190Y11722
X18190Y12722
X18190Y13722
X18190Y14722
X18190Y15722
X18190Y16722
T04
X2600Y1281
X17954Y1281
X17954Y26675
X2600Y26675
M30
