%
M48
M72
T01C0.0360
T02C0.0394
T03C0.0512
T04C0.0630
T05C0.1969
%
T01
X5443Y2151
X5443Y3151
X6443Y3151
X6443Y2151
X7443Y2151
X7443Y3151
X8443Y3151
X8443Y2151
X9443Y2151
X9443Y3151
X10443Y3151
X10443Y2151
X11443Y2151
X11443Y3151
X12443Y3151
X12443Y2151
T02
X887Y7069
X730Y13131
X1163Y15572
X1950Y17895
X4746Y17856
X4746Y20257
X4628Y23486
X4746Y15494
X4746Y13092
X4943Y10769
X5730Y8683
X4706Y7974
X6872Y9273
X10139Y8289
X11242Y7935
X12698Y8880
X13604Y6439
X12698Y15769
X12935Y17895
X12226Y20179
T03
X11584Y28939
X11584Y29939
X10584Y29939
X10584Y28939
X9584Y28939
X9584Y29939
X8584Y29939
X8584Y28939
X7584Y28939
X7584Y29939
X6584Y29939
X6584Y28939
T04
X8833Y20501
X7258Y20107
X6596Y18801
X6546Y17029
X6596Y15257
X7258Y13951
X8833Y13558
X10408Y13951
X10945Y15257
X10995Y17029
X10945Y18801
X10408Y20107
T05
X8958Y17029
M30
