G75*
G70*
%OFA0B0*%
%FSLAX24Y24*%
%IPPOS*%
%LPD*%
%AMOC8*
5,1,8,0,0,1.08239X$1,22.5*
%
%ADD10C,0.0000*%
%ADD11C,0.0060*%
%ADD12C,0.0040*%
%ADD13C,0.0050*%
%ADD14C,0.0020*%
%ADD15C,0.0070*%
%ADD16C,0.0100*%
D10*
X000100Y000887D02*
X000100Y027659D01*
X000104Y027846D01*
X000118Y028033D01*
X000140Y028219D01*
X000171Y028404D01*
X000211Y028587D01*
X000259Y028768D01*
X000317Y028947D01*
X000382Y029122D01*
X000456Y029294D01*
X000538Y029463D01*
X000627Y029628D01*
X000725Y029788D01*
X000830Y029943D01*
X000942Y030093D01*
X001062Y030237D01*
X001188Y030376D01*
X001320Y030508D01*
X001459Y030634D01*
X001603Y030754D01*
X001753Y030866D01*
X001908Y030971D01*
X002068Y031069D01*
X002233Y031158D01*
X002402Y031240D01*
X002574Y031314D01*
X002749Y031379D01*
X002928Y031437D01*
X003109Y031485D01*
X003292Y031525D01*
X003477Y031556D01*
X003663Y031578D01*
X003850Y031592D01*
X004037Y031596D01*
X013880Y031596D01*
X014067Y031592D01*
X014254Y031578D01*
X014440Y031556D01*
X014625Y031525D01*
X014808Y031485D01*
X014989Y031437D01*
X015168Y031379D01*
X015343Y031314D01*
X015515Y031240D01*
X015684Y031158D01*
X015848Y031069D01*
X016009Y030971D01*
X016164Y030866D01*
X016314Y030754D01*
X016458Y030634D01*
X016597Y030508D01*
X016729Y030376D01*
X016855Y030237D01*
X016975Y030093D01*
X017087Y029943D01*
X017192Y029788D01*
X017290Y029628D01*
X017379Y029463D01*
X017461Y029294D01*
X017535Y029122D01*
X017600Y028947D01*
X017658Y028768D01*
X017706Y028587D01*
X017746Y028404D01*
X017777Y028219D01*
X017799Y028033D01*
X017813Y027846D01*
X017817Y027659D01*
X017817Y000887D01*
X017816Y000887D02*
X017814Y000833D01*
X017809Y000780D01*
X017800Y000727D01*
X017787Y000675D01*
X017771Y000623D01*
X017751Y000573D01*
X017728Y000525D01*
X017701Y000478D01*
X017672Y000433D01*
X017639Y000390D01*
X017604Y000350D01*
X017566Y000312D01*
X017526Y000277D01*
X017483Y000244D01*
X017438Y000215D01*
X017391Y000188D01*
X017343Y000165D01*
X017293Y000145D01*
X017241Y000129D01*
X017189Y000116D01*
X017136Y000107D01*
X017083Y000102D01*
X017029Y000100D01*
X000887Y000100D01*
X000833Y000102D01*
X000780Y000107D01*
X000727Y000116D01*
X000675Y000129D01*
X000623Y000145D01*
X000573Y000165D01*
X000525Y000188D01*
X000478Y000215D01*
X000433Y000244D01*
X000390Y000277D01*
X000350Y000312D01*
X000312Y000350D01*
X000277Y000390D01*
X000244Y000433D01*
X000215Y000478D01*
X000188Y000525D01*
X000165Y000573D01*
X000145Y000623D01*
X000129Y000675D01*
X000116Y000727D01*
X000107Y000780D01*
X000102Y000833D01*
X000100Y000887D01*
X007974Y017029D02*
X007976Y017091D01*
X007982Y017154D01*
X007992Y017215D01*
X008006Y017276D01*
X008023Y017336D01*
X008044Y017395D01*
X008070Y017452D01*
X008098Y017507D01*
X008130Y017561D01*
X008166Y017612D01*
X008204Y017662D01*
X008246Y017708D01*
X008290Y017752D01*
X008338Y017793D01*
X008387Y017831D01*
X008439Y017865D01*
X008493Y017896D01*
X008549Y017924D01*
X008607Y017948D01*
X008666Y017969D01*
X008726Y017985D01*
X008787Y017998D01*
X008849Y018007D01*
X008911Y018012D01*
X008974Y018013D01*
X009036Y018010D01*
X009098Y018003D01*
X009160Y017992D01*
X009220Y017977D01*
X009280Y017959D01*
X009338Y017937D01*
X009395Y017911D01*
X009450Y017881D01*
X009503Y017848D01*
X009554Y017812D01*
X009602Y017773D01*
X009648Y017730D01*
X009691Y017685D01*
X009731Y017637D01*
X009768Y017587D01*
X009802Y017534D01*
X009833Y017480D01*
X009859Y017424D01*
X009883Y017366D01*
X009902Y017306D01*
X009918Y017246D01*
X009930Y017184D01*
X009938Y017123D01*
X009942Y017060D01*
X009942Y016998D01*
X009938Y016935D01*
X009930Y016874D01*
X009918Y016812D01*
X009902Y016752D01*
X009883Y016692D01*
X009859Y016634D01*
X009833Y016578D01*
X009802Y016524D01*
X009768Y016471D01*
X009731Y016421D01*
X009691Y016373D01*
X009648Y016328D01*
X009602Y016285D01*
X009554Y016246D01*
X009503Y016210D01*
X009450Y016177D01*
X009395Y016147D01*
X009338Y016121D01*
X009280Y016099D01*
X009220Y016081D01*
X009160Y016066D01*
X009098Y016055D01*
X009036Y016048D01*
X008974Y016045D01*
X008911Y016046D01*
X008849Y016051D01*
X008787Y016060D01*
X008726Y016073D01*
X008666Y016089D01*
X008607Y016110D01*
X008549Y016134D01*
X008493Y016162D01*
X008439Y016193D01*
X008387Y016227D01*
X008338Y016265D01*
X008290Y016306D01*
X008246Y016350D01*
X008204Y016396D01*
X008166Y016446D01*
X008130Y016497D01*
X008098Y016551D01*
X008070Y016606D01*
X008044Y016663D01*
X008023Y016722D01*
X008006Y016782D01*
X007992Y016843D01*
X007982Y016904D01*
X007976Y016967D01*
X007974Y017029D01*
D11*
X008138Y024618D02*
X008032Y024725D01*
X008032Y025152D01*
X008138Y025045D02*
X007925Y025045D01*
X007709Y024618D02*
X007495Y024618D01*
X007602Y024618D02*
X007602Y025045D01*
X007495Y025045D01*
X007278Y025045D02*
X007278Y024618D01*
X006957Y024618D01*
X006851Y024725D01*
X006851Y025045D01*
X006633Y025045D02*
X006313Y025045D01*
X006206Y024938D01*
X006206Y024725D01*
X006313Y024618D01*
X006633Y024618D01*
X005989Y025045D02*
X005882Y025045D01*
X005669Y024832D01*
X005669Y025045D02*
X005669Y024618D01*
X005453Y024618D02*
X005239Y024618D01*
X005346Y024618D02*
X005346Y025045D01*
X005239Y025045D01*
X005346Y025259D02*
X005346Y025365D01*
X005022Y025152D02*
X004915Y025259D01*
X004701Y025259D01*
X004595Y025152D01*
X004595Y024725D01*
X004701Y024618D01*
X004915Y024618D01*
X005022Y024725D01*
X004377Y024618D02*
X004377Y024938D01*
X004270Y025045D01*
X004057Y025045D01*
X003950Y024938D01*
X003950Y024618D02*
X003950Y025259D01*
X003733Y025045D02*
X003412Y025045D01*
X003305Y024938D01*
X003305Y024725D01*
X003412Y024618D01*
X003733Y024618D01*
X003088Y024618D02*
X003088Y024938D01*
X002981Y025045D01*
X002661Y025045D01*
X002661Y024618D01*
X002445Y024618D02*
X002231Y024618D01*
X002338Y024618D02*
X002338Y025045D01*
X002231Y025045D01*
X002338Y025259D02*
X002338Y025365D01*
X002014Y025152D02*
X001907Y025259D01*
X001693Y025259D01*
X001587Y025152D01*
X001587Y024725D01*
X001693Y024618D01*
X001907Y024618D01*
X002014Y024725D01*
X002295Y025917D02*
X002509Y025917D01*
X002402Y025917D02*
X002402Y026558D01*
X002295Y026558D02*
X002509Y026558D01*
X002725Y026558D02*
X003152Y025917D01*
X003152Y026558D01*
X003370Y026238D02*
X003797Y026238D01*
X004014Y026344D02*
X004228Y026558D01*
X004228Y025917D01*
X004441Y025917D02*
X004014Y025917D01*
X004659Y025917D02*
X005086Y026344D01*
X005086Y026451D01*
X004979Y026558D01*
X004765Y026558D01*
X004659Y026451D01*
X004659Y025917D02*
X005086Y025917D01*
X005303Y025704D02*
X005517Y025917D01*
X005410Y025917D01*
X005410Y026024D01*
X005517Y026024D01*
X005517Y025917D01*
X005733Y025917D02*
X005946Y025917D01*
X005840Y025917D02*
X005840Y026558D01*
X005946Y026558D02*
X005733Y026558D01*
X006163Y026558D02*
X006163Y025917D01*
X006590Y025917D02*
X006163Y026558D01*
X006590Y026558D02*
X006590Y025917D01*
X006807Y026238D02*
X007234Y026238D01*
X007452Y026344D02*
X007665Y026558D01*
X007665Y025917D01*
X007452Y025917D02*
X007879Y025917D01*
X008096Y026024D02*
X008203Y025917D01*
X008417Y025917D01*
X008523Y026024D01*
X008523Y026238D01*
X008417Y026344D01*
X008310Y026344D01*
X008096Y026238D01*
X008096Y026558D01*
X008523Y026558D01*
X009385Y026344D02*
X009599Y026344D01*
X009492Y026451D02*
X009492Y026024D01*
X009599Y025917D01*
X009815Y026024D02*
X009922Y025917D01*
X010242Y025917D01*
X010242Y026344D01*
X010460Y026344D02*
X010780Y026344D01*
X010887Y026238D01*
X010887Y026024D01*
X010780Y025917D01*
X010460Y025917D01*
X010460Y026558D01*
X011104Y026238D02*
X011211Y026344D01*
X011424Y026344D01*
X011531Y026238D01*
X011531Y026131D01*
X011104Y026131D01*
X011104Y026024D02*
X011104Y026238D01*
X011104Y026024D02*
X011211Y025917D01*
X011424Y025917D01*
X011823Y025298D02*
X012143Y025298D01*
X012250Y025191D01*
X012250Y024978D01*
X012143Y024871D01*
X011823Y024871D01*
X011823Y024658D02*
X011823Y025298D01*
X012036Y024871D02*
X012250Y024658D01*
X012467Y024764D02*
X012467Y024978D01*
X012574Y025085D01*
X012788Y025085D01*
X012894Y024978D01*
X012894Y024871D01*
X012467Y024871D01*
X012467Y024764D02*
X012574Y024658D01*
X012788Y024658D01*
X013112Y025085D02*
X013326Y024658D01*
X013539Y025085D01*
X013358Y025917D02*
X013145Y025917D01*
X013038Y026024D01*
X013038Y026238D01*
X013145Y026344D01*
X013358Y026344D01*
X013465Y026238D01*
X013465Y026024D01*
X013358Y025917D01*
X013682Y026024D02*
X013789Y025917D01*
X014109Y025917D01*
X014109Y026238D01*
X014003Y026344D01*
X013789Y026344D01*
X013789Y026131D02*
X014109Y026131D01*
X014327Y026131D02*
X014540Y026344D01*
X014647Y026344D01*
X014864Y026238D02*
X014971Y026344D01*
X015291Y026344D01*
X015291Y026558D02*
X015291Y025917D01*
X014971Y025917D01*
X014864Y026024D01*
X014864Y026238D01*
X014327Y026344D02*
X014327Y025917D01*
X014615Y025298D02*
X014401Y025085D01*
X014615Y025298D02*
X014615Y024658D01*
X014828Y024658D02*
X014401Y024658D01*
X015046Y024658D02*
X015152Y024658D01*
X015152Y024764D01*
X015046Y024764D01*
X015046Y024658D01*
X015368Y024764D02*
X015368Y025191D01*
X015475Y025298D01*
X015688Y025298D01*
X015795Y025191D01*
X015368Y024764D01*
X015475Y024658D01*
X015688Y024658D01*
X015795Y024764D01*
X015795Y025191D01*
X013789Y026131D02*
X013682Y026024D01*
X012820Y026024D02*
X012820Y026238D01*
X012714Y026344D01*
X012393Y026344D01*
X012393Y026558D02*
X012393Y025917D01*
X012714Y025917D01*
X012820Y026024D01*
X012880Y028476D02*
X012880Y029117D01*
X012880Y028797D02*
X012453Y028797D01*
X012453Y029117D02*
X012453Y028476D01*
X013097Y028690D02*
X013311Y028476D01*
X013524Y028690D01*
X013524Y029117D01*
X013097Y029117D02*
X013097Y028690D01*
X010931Y025045D02*
X011037Y024938D01*
X011037Y024618D01*
X010824Y024618D02*
X010824Y024938D01*
X010931Y025045D01*
X010824Y024938D02*
X010717Y025045D01*
X010610Y025045D01*
X010610Y024618D01*
X010393Y024725D02*
X010393Y024938D01*
X010286Y025045D01*
X010073Y025045D01*
X009966Y024938D01*
X009966Y024725D01*
X010073Y024618D01*
X010286Y024618D01*
X010393Y024725D01*
X009748Y024618D02*
X009428Y024618D01*
X009321Y024725D01*
X009321Y024938D01*
X009428Y025045D01*
X009748Y025045D01*
X009106Y024725D02*
X009106Y024618D01*
X008999Y024618D01*
X008999Y024725D01*
X009106Y024725D01*
X008781Y024725D02*
X008675Y024832D01*
X008461Y024832D01*
X008354Y024938D01*
X008461Y025045D01*
X008781Y025045D01*
X008781Y024725D02*
X008675Y024618D01*
X008354Y024618D01*
X007602Y025259D02*
X007602Y025365D01*
X009815Y026024D02*
X009815Y026344D01*
X005744Y028887D02*
X005744Y029314D01*
X005744Y028887D02*
X005530Y028673D01*
X005317Y028887D01*
X005317Y029314D01*
X005099Y029314D02*
X004672Y029314D01*
X004672Y028994D01*
X004886Y029100D01*
X004992Y029100D01*
X005099Y028994D01*
X005099Y028780D01*
X004992Y028673D01*
X004779Y028673D01*
X004672Y028780D01*
X004455Y028994D02*
X004028Y028994D01*
X004241Y029207D02*
X004241Y028780D01*
X002725Y026558D02*
X002725Y025917D01*
D12*
X002726Y027566D02*
X003033Y027566D01*
X002880Y027566D02*
X002880Y028027D01*
X002726Y027873D01*
X002573Y027950D02*
X002496Y028027D01*
X002342Y028027D01*
X002266Y027950D01*
X002266Y027643D01*
X002342Y027566D01*
X002496Y027566D01*
X002573Y027643D01*
X002662Y029141D02*
X002509Y029295D01*
X002585Y029295D02*
X002355Y029295D01*
X002355Y029141D02*
X002355Y029602D01*
X002585Y029602D01*
X002662Y029525D01*
X002662Y029371D01*
X002585Y029295D01*
X002816Y029448D02*
X002969Y029602D01*
X002969Y029141D01*
X002816Y029141D02*
X003122Y029141D01*
X006277Y027768D02*
X006354Y027768D01*
X006507Y027768D02*
X006814Y027768D01*
X006814Y027691D02*
X006814Y027845D01*
X006814Y027998D02*
X006507Y027998D01*
X006507Y028228D01*
X006584Y028305D01*
X006814Y028305D01*
X006507Y027768D02*
X006507Y027691D01*
X006354Y027538D02*
X006661Y027538D01*
X006814Y027384D01*
X006661Y027231D01*
X006354Y027231D01*
X007354Y027538D02*
X007814Y027538D01*
X007814Y027845D01*
X007814Y027998D02*
X007507Y027998D01*
X007507Y028228D01*
X007584Y028305D01*
X007814Y028305D01*
X007354Y027845D02*
X007354Y027538D01*
X007584Y027538D02*
X007584Y027691D01*
X008354Y027538D02*
X008661Y027538D01*
X008814Y027691D01*
X008661Y027845D01*
X008354Y027845D01*
X008354Y027998D02*
X008814Y027998D01*
X008814Y028228D01*
X008738Y028305D01*
X008584Y028305D01*
X008507Y028228D01*
X008507Y027998D01*
X009354Y028152D02*
X009507Y028305D01*
X009814Y028305D01*
X009584Y028305D02*
X009584Y027998D01*
X009507Y027998D02*
X009354Y028152D01*
X009507Y027998D02*
X009814Y027998D01*
X009814Y027845D02*
X009661Y027691D01*
X009661Y027768D02*
X009661Y027538D01*
X009814Y027538D02*
X009354Y027538D01*
X009354Y027768D01*
X009431Y027845D01*
X009584Y027845D01*
X009661Y027768D01*
X010354Y027845D02*
X010814Y027845D01*
X010354Y027538D01*
X010814Y027538D01*
X010738Y027384D02*
X010814Y027308D01*
X010814Y027154D01*
X010738Y027077D01*
X010431Y027077D01*
X010354Y027154D01*
X010354Y027308D01*
X010431Y027384D01*
X010584Y027384D02*
X010584Y027231D01*
X010584Y027384D02*
X010738Y027384D01*
X010814Y027998D02*
X010354Y027998D01*
X010354Y028228D01*
X010431Y028305D01*
X010738Y028305D01*
X010814Y028228D01*
X010814Y027998D01*
X011354Y027998D02*
X011661Y027998D01*
X011814Y028152D01*
X011661Y028305D01*
X011354Y028305D01*
X011354Y027845D02*
X011814Y027845D01*
X011584Y027845D02*
X011584Y027538D01*
X011814Y027538D02*
X011354Y027538D01*
X013388Y021893D02*
X013541Y021893D01*
X013618Y021817D01*
X013618Y021510D01*
X013541Y021433D01*
X013388Y021433D01*
X013311Y021510D01*
X013311Y021817D01*
X013388Y021893D01*
X013464Y021586D02*
X013618Y021433D01*
X013771Y021433D02*
X013771Y021510D01*
X014078Y021817D01*
X014078Y021893D01*
X013771Y021893D01*
X013848Y019582D02*
X013771Y019506D01*
X013771Y019429D01*
X013848Y019352D01*
X014002Y019352D01*
X014078Y019275D01*
X014078Y019199D01*
X014002Y019122D01*
X013848Y019122D01*
X013771Y019199D01*
X013771Y019275D01*
X013848Y019352D01*
X014002Y019352D02*
X014078Y019429D01*
X014078Y019506D01*
X014002Y019582D01*
X013848Y019582D01*
X013618Y019506D02*
X013618Y019199D01*
X013541Y019122D01*
X013388Y019122D01*
X013311Y019199D01*
X013311Y019506D01*
X013388Y019582D01*
X013541Y019582D01*
X013618Y019506D01*
X013464Y019275D02*
X013618Y019122D01*
X013541Y017370D02*
X013388Y017370D01*
X013311Y017293D01*
X013311Y016986D01*
X013388Y016909D01*
X013541Y016909D01*
X013618Y016986D01*
X013618Y017293D01*
X013541Y017370D01*
X013771Y017293D02*
X013771Y017216D01*
X013848Y017140D01*
X014078Y017140D01*
X014078Y017293D02*
X014002Y017370D01*
X013848Y017370D01*
X013771Y017293D01*
X013771Y016986D02*
X013848Y016909D01*
X014002Y016909D01*
X014078Y016986D01*
X014078Y017293D01*
X013618Y016909D02*
X013464Y017063D01*
X013001Y016691D02*
X013001Y016385D01*
X013001Y016538D02*
X012540Y016538D01*
X012694Y016385D01*
X012540Y016231D02*
X013001Y016231D01*
X012540Y015924D01*
X013001Y015924D01*
X013388Y015354D02*
X013541Y015354D01*
X013618Y015277D01*
X013618Y014970D01*
X013541Y014894D01*
X013388Y014894D01*
X013311Y014970D01*
X013311Y015277D01*
X013388Y015354D01*
X013464Y015047D02*
X013618Y014894D01*
X013771Y014894D02*
X014078Y014894D01*
X013925Y014894D02*
X013925Y015354D01*
X013771Y015201D01*
X014232Y015277D02*
X014232Y014970D01*
X014539Y015277D01*
X014539Y014970D01*
X014462Y014894D01*
X014308Y014894D01*
X014232Y014970D01*
X014232Y015277D02*
X014308Y015354D01*
X014462Y015354D01*
X014539Y015277D01*
X011824Y007582D02*
X011517Y007582D01*
X011824Y007275D01*
X011900Y007351D01*
X011900Y007505D01*
X011824Y007582D01*
X011517Y007582D02*
X011440Y007505D01*
X011440Y007351D01*
X011517Y007275D01*
X011824Y007275D01*
X011900Y007121D02*
X011900Y006814D01*
X011900Y006661D02*
X011747Y006507D01*
X011747Y006584D02*
X011747Y006354D01*
X011900Y006354D02*
X011440Y006354D01*
X011440Y006584D01*
X011517Y006661D01*
X011670Y006661D01*
X011747Y006584D01*
X011594Y006814D02*
X011440Y006968D01*
X011900Y006968D01*
X010794Y006891D02*
X010794Y007044D01*
X010717Y007121D01*
X010411Y007121D01*
X010334Y007044D01*
X010334Y006891D01*
X010411Y006814D01*
X010487Y006814D01*
X010564Y006891D01*
X010564Y007121D01*
X010794Y006891D02*
X010717Y006814D01*
X010794Y006661D02*
X010641Y006507D01*
X010641Y006584D02*
X010641Y006354D01*
X010794Y006354D02*
X010334Y006354D01*
X010334Y006584D01*
X010411Y006661D01*
X010564Y006661D01*
X010641Y006584D01*
X009688Y006661D02*
X009534Y006507D01*
X009534Y006584D02*
X009534Y006354D01*
X009688Y006354D02*
X009227Y006354D01*
X009227Y006584D01*
X009304Y006661D01*
X009458Y006661D01*
X009534Y006584D01*
X009534Y006814D02*
X009458Y006891D01*
X009458Y007044D01*
X009534Y007121D01*
X009611Y007121D01*
X009688Y007044D01*
X009688Y006891D01*
X009611Y006814D01*
X009534Y006814D01*
X009458Y006891D02*
X009381Y006814D01*
X009304Y006814D01*
X009227Y006891D01*
X009227Y007044D01*
X009304Y007121D01*
X009381Y007121D01*
X009458Y007044D01*
X008582Y006814D02*
X008505Y006814D01*
X008198Y007121D01*
X008121Y007121D01*
X008121Y006814D01*
X008198Y006661D02*
X008351Y006661D01*
X008428Y006584D01*
X008428Y006354D01*
X008428Y006507D02*
X008582Y006661D01*
X008582Y006354D02*
X008121Y006354D01*
X008121Y006584D01*
X008198Y006661D01*
X007574Y006661D02*
X007420Y006507D01*
X007420Y006584D02*
X007420Y006354D01*
X007574Y006354D02*
X007113Y006354D01*
X007113Y006584D01*
X007190Y006661D01*
X007344Y006661D01*
X007420Y006584D01*
X007344Y006814D02*
X007344Y007044D01*
X007420Y007121D01*
X007497Y007121D01*
X007574Y007044D01*
X007574Y006891D01*
X007497Y006814D01*
X007344Y006814D01*
X007190Y006968D01*
X007113Y007121D01*
X006467Y007044D02*
X006467Y006891D01*
X006391Y006814D01*
X006237Y006814D02*
X006160Y006968D01*
X006160Y007044D01*
X006237Y007121D01*
X006391Y007121D01*
X006467Y007044D01*
X006237Y006814D02*
X006007Y006814D01*
X006007Y007121D01*
X006084Y006661D02*
X006237Y006661D01*
X006314Y006584D01*
X006314Y006354D01*
X006314Y006507D02*
X006467Y006661D01*
X006467Y006354D02*
X006007Y006354D01*
X006007Y006584D01*
X006084Y006661D01*
X005361Y006661D02*
X005208Y006507D01*
X005208Y006584D02*
X005208Y006354D01*
X005361Y006354D02*
X004901Y006354D01*
X004901Y006584D01*
X004977Y006661D01*
X005131Y006661D01*
X005208Y006584D01*
X005131Y006814D02*
X005131Y007121D01*
X005361Y007044D02*
X004901Y007044D01*
X005131Y006814D01*
X004302Y006856D02*
X004225Y006779D01*
X004302Y006856D02*
X004302Y007009D01*
X004225Y007086D01*
X004149Y007086D01*
X004072Y007009D01*
X004072Y006932D01*
X004072Y007009D02*
X003995Y007086D01*
X003918Y007086D01*
X003842Y007009D01*
X003842Y006856D01*
X003918Y006779D01*
X003918Y006625D02*
X004072Y006625D01*
X004149Y006549D01*
X004149Y006318D01*
X004302Y006318D02*
X003842Y006318D01*
X003842Y006549D01*
X003918Y006625D01*
X004149Y006472D02*
X004302Y006625D01*
X003196Y006625D02*
X003042Y006472D01*
X003042Y006549D02*
X003042Y006318D01*
X003196Y006318D02*
X002735Y006318D01*
X002735Y006549D01*
X002812Y006625D01*
X002966Y006625D01*
X003042Y006549D01*
X003196Y006779D02*
X002889Y007086D01*
X002812Y007086D01*
X002735Y007009D01*
X002735Y006856D01*
X002812Y006779D01*
X003196Y006779D02*
X003196Y007086D01*
X002196Y007086D02*
X002196Y006779D01*
X002196Y006932D02*
X001735Y006932D01*
X001889Y006779D01*
X001966Y006625D02*
X002042Y006549D01*
X002042Y006318D01*
X002196Y006318D02*
X001735Y006318D01*
X001735Y006549D01*
X001812Y006625D01*
X001966Y006625D01*
X002042Y006472D02*
X002196Y006625D01*
X002196Y007239D02*
X002196Y007546D01*
X002196Y007393D02*
X001735Y007393D01*
X001889Y007239D01*
X003053Y011874D02*
X002976Y011951D01*
X002976Y012258D01*
X003053Y012334D01*
X003206Y012334D01*
X003283Y012258D01*
X003283Y011951D01*
X003206Y011874D01*
X003053Y011874D01*
X003130Y012027D02*
X003283Y011874D01*
X003437Y011874D02*
X003744Y011874D01*
X003590Y011874D02*
X003590Y012334D01*
X003437Y012181D01*
X003338Y014386D02*
X003645Y014693D01*
X003645Y014769D01*
X003568Y014846D01*
X003415Y014846D01*
X003338Y014769D01*
X003185Y014769D02*
X003185Y014462D01*
X003108Y014386D01*
X002955Y014386D01*
X002878Y014462D01*
X002878Y014769D01*
X002955Y014846D01*
X003108Y014846D01*
X003185Y014769D01*
X003031Y014539D02*
X003185Y014386D01*
X003338Y014386D02*
X003645Y014386D01*
X003667Y016799D02*
X003513Y016799D01*
X003437Y016876D01*
X003283Y016876D02*
X003283Y017183D01*
X003206Y017260D01*
X003053Y017260D01*
X002976Y017183D01*
X002976Y016876D01*
X003053Y016799D01*
X003206Y016799D01*
X003283Y016876D01*
X003283Y016799D02*
X003130Y016953D01*
X003437Y017183D02*
X003513Y017260D01*
X003667Y017260D01*
X003744Y017183D01*
X003744Y017106D01*
X003667Y017029D01*
X003744Y016953D01*
X003744Y016876D01*
X003667Y016799D01*
X003667Y017029D02*
X003590Y017029D01*
X003667Y019114D02*
X003667Y019574D01*
X003437Y019344D01*
X003744Y019344D01*
X003283Y019191D02*
X003206Y019114D01*
X003053Y019114D01*
X002976Y019191D01*
X002976Y019498D01*
X003053Y019574D01*
X003206Y019574D01*
X003283Y019498D01*
X003283Y019191D01*
X003283Y019114D02*
X003130Y019268D01*
X003206Y021527D02*
X003053Y021527D01*
X002976Y021604D01*
X002976Y021911D01*
X003053Y021988D01*
X003206Y021988D01*
X003283Y021911D01*
X003283Y021604D01*
X003206Y021527D01*
X003283Y021527D02*
X003130Y021681D01*
X003437Y021758D02*
X003590Y021834D01*
X003667Y021834D01*
X003744Y021758D01*
X003744Y021604D01*
X003667Y021527D01*
X003513Y021527D01*
X003437Y021604D01*
X003437Y021758D02*
X003437Y021988D01*
X003744Y021988D01*
X008843Y021754D02*
X008843Y021447D01*
X008920Y021370D01*
X009073Y021370D01*
X009150Y021447D01*
X009150Y021754D01*
X009073Y021830D01*
X008920Y021830D01*
X008843Y021754D01*
X008996Y021523D02*
X009150Y021370D01*
X009303Y021447D02*
X009380Y021370D01*
X009534Y021370D01*
X009610Y021447D01*
X009610Y021523D01*
X009534Y021600D01*
X009303Y021600D01*
X009303Y021447D01*
X009303Y021600D02*
X009457Y021754D01*
X009610Y021830D01*
D13*
X012083Y019654D02*
X011952Y019813D01*
X011813Y019965D01*
X011667Y020110D01*
X011514Y020248D01*
X011355Y020378D01*
X011189Y020501D01*
X011017Y020615D01*
X010841Y020721D01*
X010659Y020817D01*
X010472Y020905D01*
X010282Y020984D01*
X010088Y021053D01*
X009891Y021112D01*
X009691Y021162D01*
X009489Y021202D01*
X009285Y021233D01*
X009080Y021253D01*
X008874Y021263D01*
X008668Y021263D01*
X008462Y021253D01*
X008257Y021233D01*
X008053Y021202D01*
X007851Y021162D01*
X007651Y021112D01*
X007454Y021053D01*
X007260Y020984D01*
X007070Y020905D01*
X006883Y020817D01*
X006701Y020721D01*
X006525Y020615D01*
X006353Y020501D01*
X006187Y020378D01*
X006028Y020248D01*
X005875Y020110D01*
X005729Y019965D01*
X005590Y019813D01*
X005459Y019654D01*
X005458Y014529D02*
X005578Y014370D01*
X005704Y014218D01*
X005838Y014071D01*
X005980Y013932D01*
X006127Y013799D01*
X006281Y013674D01*
X006441Y013557D01*
X006607Y013447D01*
X006777Y013346D01*
X006952Y013253D01*
X007132Y013168D01*
X007316Y013093D01*
X007503Y013027D01*
X007693Y012969D01*
X007885Y012922D01*
X008080Y012883D01*
X008276Y012854D01*
X008474Y012835D01*
X008672Y012825D01*
X008870Y012825D01*
X009068Y012835D01*
X009266Y012854D01*
X009462Y012883D01*
X009657Y012922D01*
X009849Y012969D01*
X010039Y013027D01*
X010226Y013093D01*
X010410Y013168D01*
X010590Y013253D01*
X010765Y013346D01*
X010935Y013447D01*
X011101Y013557D01*
X011261Y013674D01*
X011415Y013799D01*
X011562Y013932D01*
X011704Y014071D01*
X011838Y014218D01*
X011964Y014370D01*
X012084Y014529D01*
X013443Y004501D02*
X013443Y004401D01*
X009193Y004401D01*
X009193Y004501D01*
X008693Y004501D01*
X008693Y004401D01*
X004443Y004401D01*
X004443Y004501D01*
X003943Y004501D01*
X003943Y004401D01*
X003443Y004401D01*
X003443Y000901D01*
X005143Y000901D01*
X005143Y000951D01*
X005743Y000951D01*
X005743Y000901D01*
X006293Y000901D01*
X006443Y001101D01*
X006643Y001101D01*
X007243Y001101D01*
X007443Y001101D01*
X007593Y000901D01*
X008143Y000901D01*
X008143Y001301D01*
X007243Y001301D01*
X007243Y001401D01*
X006643Y001401D01*
X003943Y001401D01*
X003943Y003901D01*
X013943Y003901D01*
X013943Y001401D01*
X012243Y001401D01*
X011643Y001401D01*
X009743Y001401D01*
X009743Y001301D01*
X009743Y000901D01*
X008143Y000901D01*
X008143Y001301D02*
X008143Y001401D01*
X007243Y001401D01*
X007243Y001301D02*
X007243Y001101D01*
X006643Y001101D02*
X006643Y001301D01*
X006643Y001401D01*
X006643Y001301D02*
X003843Y001301D01*
X004468Y001926D02*
X004768Y001926D01*
X004618Y001926D02*
X004618Y002377D01*
X004468Y002226D01*
X004468Y002926D02*
X004768Y003226D01*
X004768Y003302D01*
X004693Y003377D01*
X004543Y003377D01*
X004468Y003302D01*
X004468Y002926D02*
X004768Y002926D01*
X008143Y001701D02*
X008143Y001401D01*
X008143Y001701D02*
X009743Y001701D01*
X009743Y001401D01*
X009328Y001527D02*
X009178Y001452D01*
X009028Y001301D01*
X009253Y001301D01*
X009328Y001226D01*
X009328Y001151D01*
X009253Y001076D01*
X009103Y001076D01*
X009028Y001151D01*
X009028Y001301D01*
X008868Y001076D02*
X008568Y001076D01*
X008718Y001076D02*
X008718Y001527D01*
X008568Y001376D01*
X009743Y000901D02*
X011293Y000901D01*
X011443Y001101D01*
X011643Y001101D01*
X012243Y001101D01*
X012243Y001301D01*
X012243Y001401D01*
X012243Y001101D02*
X012443Y001101D01*
X012593Y000901D01*
X014443Y000901D01*
X014443Y004401D01*
X013943Y004401D01*
X013943Y004501D01*
X013443Y004501D01*
X011643Y001401D02*
X011643Y001301D01*
X011643Y001101D01*
D14*
X011643Y001301D02*
X009743Y001301D01*
X012243Y001301D02*
X014043Y001301D01*
X014043Y004001D01*
X003843Y004001D01*
X003843Y001301D01*
D15*
X003793Y004686D02*
X003583Y004686D01*
X003478Y004791D01*
X003583Y005001D02*
X003793Y005001D01*
X003898Y004896D01*
X003898Y004791D01*
X003793Y004686D01*
X003583Y005001D02*
X003478Y005107D01*
X003478Y005212D01*
X003583Y005317D01*
X003793Y005317D01*
X003898Y005212D01*
X004122Y005317D02*
X004122Y004896D01*
X004332Y004686D01*
X004542Y004896D01*
X004542Y005317D01*
X004767Y005107D02*
X004977Y005317D01*
X004977Y004686D01*
X004767Y004686D02*
X005187Y004686D01*
D16*
X005458Y014529D02*
X005458Y014592D01*
X005458Y019654D01*
X005459Y019654D02*
X005586Y019810D01*
X005720Y019960D01*
X005861Y020103D01*
X006009Y020239D01*
X006164Y020367D01*
X006324Y020489D01*
X006490Y020602D01*
X006661Y020707D01*
X006837Y020804D01*
X007018Y020893D01*
X007202Y020972D01*
X007390Y021043D01*
X007582Y021105D01*
X007776Y021157D01*
X007972Y021200D01*
X008170Y021234D01*
X008370Y021258D01*
X008570Y021272D01*
X008771Y021277D01*
X008972Y021272D01*
X009172Y021258D01*
X009372Y021234D01*
X009570Y021200D01*
X009766Y021157D01*
X009960Y021105D01*
X010152Y021043D01*
X010340Y020972D01*
X010524Y020893D01*
X010705Y020804D01*
X010881Y020707D01*
X011052Y020602D01*
X011218Y020489D01*
X011378Y020367D01*
X011533Y020239D01*
X011681Y020103D01*
X011822Y019960D01*
X011956Y019810D01*
X012083Y019654D01*
X012083Y014529D01*
X011969Y014371D01*
X011848Y014219D01*
X011719Y014074D01*
X011583Y013934D01*
X011440Y013802D01*
X011292Y013676D01*
X011137Y013558D01*
X010977Y013447D01*
X010812Y013344D01*
X010642Y013250D01*
X010468Y013163D01*
X010289Y013086D01*
X010107Y013016D01*
X009922Y012956D01*
X009735Y012905D01*
X009545Y012863D01*
X009353Y012830D01*
X009160Y012807D01*
X008966Y012793D01*
X008771Y012788D01*
X008576Y012793D01*
X008382Y012807D01*
X008189Y012830D01*
X007997Y012863D01*
X007807Y012905D01*
X007620Y012956D01*
X007435Y013016D01*
X007253Y013086D01*
X007074Y013163D01*
X006900Y013250D01*
X006730Y013344D01*
X006565Y013447D01*
X006405Y013558D01*
X006250Y013676D01*
X006102Y013802D01*
X005959Y013934D01*
X005823Y014074D01*
X005694Y014219D01*
X005573Y014371D01*
X005459Y014529D01*
M02*
