G75*
G70*
%OFA0B0*%
%FSLAX24Y24*%
%IPPOS*%
%LPD*%
%AMOC8*
5,1,8,0,0,1.08239X$1,22.5*
%
%ADD10C,0.0000*%
%ADD11R,0.0630X0.0512*%
%ADD12OC8,0.0560*%
%ADD13R,0.0394X0.0551*%
%ADD14C,0.0768*%
%ADD15C,0.1000*%
%ADD16R,0.0512X0.0630*%
%ADD17R,0.0512X0.0591*%
%ADD18C,0.0240*%
%ADD19C,0.0160*%
%ADD20C,0.0591*%
%ADD21C,0.0100*%
%ADD22C,0.0320*%
D10*
X000100Y000887D02*
X000100Y027659D01*
X000104Y027846D01*
X000118Y028033D01*
X000140Y028219D01*
X000171Y028404D01*
X000211Y028587D01*
X000259Y028768D01*
X000317Y028947D01*
X000382Y029122D01*
X000456Y029294D01*
X000538Y029463D01*
X000627Y029628D01*
X000725Y029788D01*
X000830Y029943D01*
X000942Y030093D01*
X001062Y030237D01*
X001188Y030376D01*
X001320Y030508D01*
X001459Y030634D01*
X001603Y030754D01*
X001753Y030866D01*
X001908Y030971D01*
X002068Y031069D01*
X002233Y031158D01*
X002402Y031240D01*
X002574Y031314D01*
X002749Y031379D01*
X002928Y031437D01*
X003109Y031485D01*
X003292Y031525D01*
X003477Y031556D01*
X003663Y031578D01*
X003850Y031592D01*
X004037Y031596D01*
X013880Y031596D01*
X014067Y031592D01*
X014254Y031578D01*
X014440Y031556D01*
X014625Y031525D01*
X014808Y031485D01*
X014989Y031437D01*
X015168Y031379D01*
X015343Y031314D01*
X015515Y031240D01*
X015684Y031158D01*
X015848Y031069D01*
X016009Y030971D01*
X016164Y030866D01*
X016314Y030754D01*
X016458Y030634D01*
X016597Y030508D01*
X016729Y030376D01*
X016855Y030237D01*
X016975Y030093D01*
X017087Y029943D01*
X017192Y029788D01*
X017290Y029628D01*
X017379Y029463D01*
X017461Y029294D01*
X017535Y029122D01*
X017600Y028947D01*
X017658Y028768D01*
X017706Y028587D01*
X017746Y028404D01*
X017777Y028219D01*
X017799Y028033D01*
X017813Y027846D01*
X017817Y027659D01*
X017817Y000887D01*
X017816Y000887D02*
X017814Y000833D01*
X017809Y000780D01*
X017800Y000727D01*
X017787Y000675D01*
X017771Y000623D01*
X017751Y000573D01*
X017728Y000525D01*
X017701Y000478D01*
X017672Y000433D01*
X017639Y000390D01*
X017604Y000350D01*
X017566Y000312D01*
X017526Y000277D01*
X017483Y000244D01*
X017438Y000215D01*
X017391Y000188D01*
X017343Y000165D01*
X017293Y000145D01*
X017241Y000129D01*
X017189Y000116D01*
X017136Y000107D01*
X017083Y000102D01*
X017029Y000100D01*
X000887Y000100D01*
X000833Y000102D01*
X000780Y000107D01*
X000727Y000116D01*
X000675Y000129D01*
X000623Y000145D01*
X000573Y000165D01*
X000525Y000188D01*
X000478Y000215D01*
X000433Y000244D01*
X000390Y000277D01*
X000350Y000312D01*
X000312Y000350D01*
X000277Y000390D01*
X000244Y000433D01*
X000215Y000478D01*
X000188Y000525D01*
X000165Y000573D01*
X000145Y000623D01*
X000129Y000675D01*
X000116Y000727D01*
X000107Y000780D01*
X000102Y000833D01*
X000100Y000887D01*
X007974Y017029D02*
X007976Y017091D01*
X007982Y017154D01*
X007992Y017215D01*
X008006Y017276D01*
X008023Y017336D01*
X008044Y017395D01*
X008070Y017452D01*
X008098Y017507D01*
X008130Y017561D01*
X008166Y017612D01*
X008204Y017662D01*
X008246Y017708D01*
X008290Y017752D01*
X008338Y017793D01*
X008387Y017831D01*
X008439Y017865D01*
X008493Y017896D01*
X008549Y017924D01*
X008607Y017948D01*
X008666Y017969D01*
X008726Y017985D01*
X008787Y017998D01*
X008849Y018007D01*
X008911Y018012D01*
X008974Y018013D01*
X009036Y018010D01*
X009098Y018003D01*
X009160Y017992D01*
X009220Y017977D01*
X009280Y017959D01*
X009338Y017937D01*
X009395Y017911D01*
X009450Y017881D01*
X009503Y017848D01*
X009554Y017812D01*
X009602Y017773D01*
X009648Y017730D01*
X009691Y017685D01*
X009731Y017637D01*
X009768Y017587D01*
X009802Y017534D01*
X009833Y017480D01*
X009859Y017424D01*
X009883Y017366D01*
X009902Y017306D01*
X009918Y017246D01*
X009930Y017184D01*
X009938Y017123D01*
X009942Y017060D01*
X009942Y016998D01*
X009938Y016935D01*
X009930Y016874D01*
X009918Y016812D01*
X009902Y016752D01*
X009883Y016692D01*
X009859Y016634D01*
X009833Y016578D01*
X009802Y016524D01*
X009768Y016471D01*
X009731Y016421D01*
X009691Y016373D01*
X009648Y016328D01*
X009602Y016285D01*
X009554Y016246D01*
X009503Y016210D01*
X009450Y016177D01*
X009395Y016147D01*
X009338Y016121D01*
X009280Y016099D01*
X009220Y016081D01*
X009160Y016066D01*
X009098Y016055D01*
X009036Y016048D01*
X008974Y016045D01*
X008911Y016046D01*
X008849Y016051D01*
X008787Y016060D01*
X008726Y016073D01*
X008666Y016089D01*
X008607Y016110D01*
X008549Y016134D01*
X008493Y016162D01*
X008439Y016193D01*
X008387Y016227D01*
X008338Y016265D01*
X008290Y016306D01*
X008246Y016350D01*
X008204Y016396D01*
X008166Y016446D01*
X008130Y016497D01*
X008098Y016551D01*
X008070Y016606D01*
X008044Y016663D01*
X008023Y016722D01*
X008006Y016782D01*
X007992Y016843D01*
X007982Y016904D01*
X007976Y016967D01*
X007974Y017029D01*
D11*
X007994Y007108D03*
X007994Y006360D03*
X009002Y006360D03*
X009002Y007108D03*
X010108Y007108D03*
X010108Y006360D03*
X011214Y006360D03*
X011214Y007108D03*
X012320Y007108D03*
X012320Y006360D03*
X006887Y006360D03*
X006887Y007108D03*
X005781Y007108D03*
X005781Y006360D03*
X004722Y006324D03*
X004722Y007072D03*
X003616Y007072D03*
X003616Y006324D03*
X002616Y006324D03*
X002616Y007072D03*
D12*
X005443Y003151D03*
X005443Y002151D03*
X006443Y002151D03*
X006443Y003151D03*
X007443Y003151D03*
X007443Y002151D03*
X008443Y002151D03*
X008443Y003151D03*
X009443Y003151D03*
X009443Y002151D03*
X010443Y002151D03*
X010443Y003151D03*
X011443Y003151D03*
X011443Y002151D03*
X012443Y002151D03*
X012443Y003151D03*
D13*
X013667Y013691D03*
X014041Y014557D03*
X014415Y013691D03*
X014415Y015706D03*
X014041Y016572D03*
X013667Y015706D03*
X013667Y017919D03*
X014041Y018785D03*
X014415Y017919D03*
X014415Y020230D03*
X014041Y021096D03*
X013667Y020230D03*
X009368Y023033D03*
X008994Y022167D03*
X008620Y023033D03*
X004080Y020324D03*
X003706Y021191D03*
X003332Y020324D03*
X003706Y018777D03*
X003332Y017911D03*
X004080Y017911D03*
X003706Y016462D03*
X003332Y015596D03*
X004080Y015596D03*
X003608Y014049D03*
X003982Y013183D03*
X003234Y013183D03*
X003706Y011537D03*
X003332Y010671D03*
X004080Y010671D03*
D14*
X006584Y028939D03*
X006584Y029939D03*
X007584Y029939D03*
X007584Y028939D03*
X008584Y028939D03*
X008584Y029939D03*
X009584Y029939D03*
X009584Y028939D03*
X010584Y028939D03*
X010584Y029939D03*
X011584Y029939D03*
X011584Y028939D03*
D15*
X008833Y020501D03*
X007258Y020107D03*
X006596Y018801D03*
X006546Y017029D03*
X006596Y015257D03*
X007258Y013951D03*
X008833Y013558D03*
X010408Y013951D03*
X010945Y015257D03*
X010995Y017029D03*
X010945Y018801D03*
X010408Y020107D03*
D16*
X003230Y030021D03*
X002482Y030021D03*
D17*
X002482Y028446D03*
X003151Y028446D03*
D18*
X004628Y023486D02*
X008167Y023486D01*
X008209Y023484D01*
X008250Y023478D01*
X008291Y023469D01*
X008331Y023455D01*
X008369Y023439D01*
X008405Y023418D01*
X008440Y023395D01*
X008472Y023368D01*
X008502Y023338D01*
X008529Y023306D01*
X008552Y023271D01*
X008573Y023235D01*
X008589Y023197D01*
X008603Y023157D01*
X008612Y023116D01*
X008618Y023075D01*
X008620Y023033D01*
X008620Y023541D01*
X008619Y023541D02*
X008621Y023586D01*
X008626Y023631D01*
X008635Y023675D01*
X008647Y023719D01*
X008663Y023761D01*
X008682Y023802D01*
X008704Y023841D01*
X008729Y023879D01*
X008757Y023914D01*
X008787Y023948D01*
X008821Y023978D01*
X008856Y024006D01*
X008894Y024031D01*
X008933Y024053D01*
X008974Y024072D01*
X009016Y024088D01*
X009060Y024100D01*
X009104Y024109D01*
X009149Y024114D01*
X009194Y024116D01*
X010730Y024116D01*
X008975Y022148D02*
X008833Y022148D01*
X008833Y020501D01*
X010945Y018801D02*
X014025Y018801D01*
X014031Y018800D01*
X014036Y018796D01*
X014040Y018791D01*
X014041Y018785D01*
X014415Y017919D02*
X014446Y017919D01*
X013584Y017029D02*
X014013Y016600D01*
X013584Y017029D02*
X010995Y017029D01*
X010945Y015257D02*
X010947Y015207D01*
X010952Y015157D01*
X010961Y015108D01*
X010973Y015060D01*
X010989Y015012D01*
X011008Y014966D01*
X011031Y014921D01*
X011056Y014878D01*
X011085Y014837D01*
X011116Y014798D01*
X011150Y014761D01*
X011187Y014727D01*
X011226Y014696D01*
X011267Y014667D01*
X011310Y014642D01*
X011355Y014619D01*
X011401Y014600D01*
X011449Y014584D01*
X011497Y014572D01*
X011546Y014563D01*
X011596Y014558D01*
X011646Y014556D01*
X011646Y014557D02*
X014041Y014557D01*
X014415Y013691D02*
X014417Y013679D01*
X014421Y013668D01*
X014429Y013658D01*
X014439Y013650D01*
X014450Y013646D01*
X014462Y013644D01*
X014462Y013643D02*
X014588Y013643D01*
X014415Y015706D02*
X015257Y015706D01*
X014041Y021096D02*
X011397Y021096D01*
X011335Y021094D01*
X011273Y021088D01*
X011212Y021078D01*
X011151Y021065D01*
X011091Y021048D01*
X011033Y021027D01*
X010976Y021002D01*
X010921Y020974D01*
X010867Y020942D01*
X010816Y020907D01*
X010767Y020869D01*
X010720Y020828D01*
X010676Y020784D01*
X010635Y020737D01*
X010597Y020688D01*
X010562Y020637D01*
X010530Y020583D01*
X010502Y020528D01*
X010477Y020471D01*
X010456Y020413D01*
X010439Y020353D01*
X010426Y020292D01*
X010416Y020231D01*
X010410Y020169D01*
X010408Y020107D01*
X006596Y018801D02*
X003730Y018801D01*
X003723Y018800D01*
X003716Y018796D01*
X003711Y018791D01*
X003707Y018784D01*
X003706Y018777D01*
X004080Y017911D02*
X004691Y017911D01*
X004703Y017910D01*
X004715Y017906D01*
X004725Y017899D01*
X004734Y017890D01*
X004741Y017880D01*
X004745Y017868D01*
X004746Y017856D01*
X003706Y016462D02*
X005979Y016462D01*
X006026Y016464D01*
X006072Y016470D01*
X006118Y016479D01*
X006163Y016493D01*
X006207Y016510D01*
X006249Y016530D01*
X006289Y016554D01*
X006327Y016582D01*
X006363Y016612D01*
X006396Y016645D01*
X006426Y016681D01*
X006454Y016719D01*
X006478Y016759D01*
X006498Y016801D01*
X006515Y016845D01*
X006529Y016890D01*
X006538Y016936D01*
X006544Y016982D01*
X006546Y017029D01*
X006596Y015257D02*
X005387Y014049D01*
X003608Y014049D01*
X003981Y013183D02*
X003983Y013165D01*
X003988Y013148D01*
X003996Y013132D01*
X004008Y013119D01*
X004021Y013107D01*
X004037Y013099D01*
X004054Y013094D01*
X004072Y013092D01*
X004746Y013092D01*
X004844Y011537D02*
X004959Y011540D01*
X005073Y011548D01*
X005188Y011562D01*
X005301Y011581D01*
X005413Y011605D01*
X005524Y011635D01*
X005634Y011670D01*
X005741Y011710D01*
X005847Y011755D01*
X005950Y011805D01*
X006051Y011860D01*
X006149Y011920D01*
X006244Y011985D01*
X006336Y012053D01*
X006425Y012127D01*
X006510Y012204D01*
X006591Y012285D01*
X006668Y012370D01*
X006742Y012459D01*
X006810Y012551D01*
X006875Y012646D01*
X006935Y012744D01*
X006990Y012845D01*
X007040Y012948D01*
X007085Y013054D01*
X007125Y013161D01*
X007160Y013271D01*
X007190Y013382D01*
X007214Y013494D01*
X007233Y013607D01*
X007247Y013722D01*
X007255Y013836D01*
X007258Y013951D01*
X004844Y011537D02*
X003706Y011537D01*
X004745Y015494D02*
X004743Y015512D01*
X004739Y015529D01*
X004731Y015545D01*
X004721Y015560D01*
X004709Y015572D01*
X004694Y015582D01*
X004678Y015590D01*
X004661Y015594D01*
X004643Y015596D01*
X004080Y015596D01*
X004746Y020257D02*
X004744Y020272D01*
X004739Y020286D01*
X004731Y020299D01*
X004721Y020309D01*
X004708Y020317D01*
X004694Y020322D01*
X004679Y020324D01*
X004080Y020324D01*
X003706Y021191D02*
X006175Y021191D01*
X006238Y021189D01*
X006301Y021184D01*
X006363Y021175D01*
X006425Y021162D01*
X006486Y021145D01*
X006546Y021126D01*
X006604Y021102D01*
X006661Y021076D01*
X006717Y021046D01*
X006771Y021013D01*
X006822Y020977D01*
X006872Y020937D01*
X006919Y020895D01*
X006963Y020851D01*
X007005Y020804D01*
X007045Y020754D01*
X007081Y020703D01*
X007114Y020649D01*
X007144Y020593D01*
X007170Y020536D01*
X007194Y020478D01*
X007213Y020418D01*
X007230Y020357D01*
X007243Y020295D01*
X007252Y020233D01*
X007257Y020170D01*
X007259Y020107D01*
X003616Y006324D02*
X003616Y004978D01*
X002616Y004978D02*
X002616Y006324D01*
X002616Y004978D02*
X002619Y004843D01*
X002629Y004709D01*
X002645Y004576D01*
X002667Y004443D01*
X002696Y004312D01*
X002731Y004182D01*
X002771Y004053D01*
X002819Y003927D01*
X002871Y003804D01*
X002930Y003683D01*
X002995Y003565D01*
X003065Y003450D01*
X003140Y003338D01*
X003221Y003230D01*
X003306Y003127D01*
X003397Y003027D01*
X003492Y002932D01*
X003592Y002841D01*
X003695Y002756D01*
X003803Y002675D01*
X003915Y002600D01*
X004029Y002530D01*
X004148Y002465D01*
X004269Y002406D01*
X004392Y002354D01*
X004518Y002306D01*
X004647Y002266D01*
X004777Y002231D01*
X004908Y002202D01*
X005041Y002180D01*
X005174Y002164D01*
X005308Y002154D01*
X005443Y002151D01*
X005443Y003151D02*
X005353Y003153D01*
X005264Y003160D01*
X005175Y003171D01*
X005087Y003186D01*
X004999Y003206D01*
X004913Y003230D01*
X004828Y003258D01*
X004744Y003290D01*
X004662Y003326D01*
X004582Y003367D01*
X004504Y003411D01*
X004428Y003459D01*
X004355Y003511D01*
X004284Y003566D01*
X004216Y003624D01*
X004151Y003686D01*
X004089Y003751D01*
X004031Y003819D01*
X003976Y003890D01*
X003924Y003963D01*
X003876Y004039D01*
X003832Y004117D01*
X003791Y004197D01*
X003755Y004279D01*
X003723Y004363D01*
X003695Y004448D01*
X003671Y004534D01*
X003651Y004622D01*
X003636Y004710D01*
X003625Y004799D01*
X003618Y004888D01*
X003616Y004978D01*
D19*
X004722Y004809D02*
X004722Y006324D01*
X004722Y007072D02*
X004706Y007974D01*
X005730Y008683D02*
X005730Y007159D01*
X005732Y007146D01*
X005737Y007134D01*
X005745Y007123D01*
X005756Y007115D01*
X005768Y007110D01*
X005781Y007108D01*
X005781Y006360D02*
X005781Y005561D01*
X004722Y004809D02*
X004724Y004739D01*
X004730Y004670D01*
X004740Y004601D01*
X004753Y004532D01*
X004771Y004465D01*
X004792Y004398D01*
X004817Y004333D01*
X004845Y004269D01*
X004877Y004207D01*
X004913Y004147D01*
X004951Y004089D01*
X004993Y004033D01*
X005038Y003980D01*
X005086Y003929D01*
X005137Y003881D01*
X005190Y003836D01*
X005246Y003794D01*
X005304Y003756D01*
X005364Y003720D01*
X005426Y003688D01*
X005490Y003660D01*
X005555Y003635D01*
X005622Y003614D01*
X005689Y003596D01*
X005758Y003583D01*
X005827Y003573D01*
X005896Y003567D01*
X005966Y003565D01*
X006439Y003155D02*
X006439Y004903D01*
X006439Y004904D02*
X006390Y004906D01*
X006341Y004911D01*
X006293Y004920D01*
X006245Y004933D01*
X006199Y004949D01*
X006154Y004969D01*
X006110Y004992D01*
X006069Y005018D01*
X006029Y005047D01*
X005992Y005079D01*
X005957Y005114D01*
X005925Y005151D01*
X005896Y005191D01*
X005870Y005233D01*
X005847Y005276D01*
X005827Y005321D01*
X005811Y005367D01*
X005798Y005415D01*
X005789Y005463D01*
X005784Y005512D01*
X005782Y005561D01*
X006887Y006360D02*
X006887Y003431D01*
X006889Y003417D01*
X006893Y003404D01*
X006901Y003392D01*
X006911Y003382D01*
X006923Y003374D01*
X006936Y003370D01*
X006950Y003368D01*
X007423Y003171D02*
X007423Y004943D01*
X007423Y004942D02*
X007468Y004944D01*
X007512Y004949D01*
X007556Y004958D01*
X007599Y004970D01*
X007642Y004985D01*
X007682Y005004D01*
X007721Y005026D01*
X007759Y005051D01*
X007794Y005079D01*
X007827Y005109D01*
X007857Y005142D01*
X007885Y005177D01*
X007910Y005215D01*
X007932Y005254D01*
X007951Y005294D01*
X007966Y005337D01*
X007978Y005380D01*
X007987Y005424D01*
X007992Y005468D01*
X007994Y005513D01*
X007994Y006360D01*
X007994Y007107D02*
X008022Y007109D01*
X008050Y007114D01*
X008077Y007124D01*
X008103Y007136D01*
X008126Y007152D01*
X008147Y007171D01*
X008166Y007192D01*
X008182Y007216D01*
X008194Y007241D01*
X008204Y007268D01*
X008209Y007296D01*
X008211Y007324D01*
X008210Y007324D02*
X008131Y014116D01*
X007817Y014588D01*
X007803Y014585D01*
X007789Y014585D01*
X007776Y014589D01*
X007763Y014595D01*
X007753Y014604D01*
X007744Y014615D01*
X007738Y014627D01*
X007738Y014628D02*
X007738Y018525D01*
X008171Y018958D01*
X008171Y021557D01*
X008975Y022148D02*
X008976Y022155D01*
X008981Y022161D01*
X008987Y022166D01*
X008994Y022167D01*
X009387Y023013D02*
X009368Y023033D01*
X009387Y023013D02*
X009628Y023013D01*
X009628Y018486D01*
X010218Y017974D01*
X010218Y016045D01*
X009746Y014864D01*
X009746Y012423D01*
X009744Y012384D01*
X009738Y012346D01*
X009729Y012309D01*
X009716Y012272D01*
X009699Y012237D01*
X009680Y012204D01*
X009657Y012173D01*
X009631Y012144D01*
X009602Y012118D01*
X009571Y012095D01*
X009538Y012076D01*
X009503Y012059D01*
X009466Y012046D01*
X009429Y012037D01*
X009391Y012031D01*
X009352Y012029D01*
X009315Y012027D01*
X009279Y012021D01*
X009244Y012012D01*
X009210Y011999D01*
X009177Y011982D01*
X009146Y011962D01*
X009118Y011939D01*
X009092Y011913D01*
X009069Y011885D01*
X009049Y011854D01*
X009032Y011821D01*
X009019Y011787D01*
X009010Y011752D01*
X009004Y011716D01*
X009002Y011679D01*
X009002Y007108D01*
X009002Y006360D02*
X009002Y005340D01*
X009549Y005061D02*
X009547Y005008D01*
X009541Y004955D01*
X009532Y004902D01*
X009519Y004850D01*
X009502Y004800D01*
X009481Y004750D01*
X009458Y004703D01*
X009430Y004657D01*
X009400Y004613D01*
X009366Y004571D01*
X009330Y004532D01*
X009291Y004496D01*
X009249Y004462D01*
X009205Y004432D01*
X009159Y004404D01*
X009112Y004381D01*
X009062Y004360D01*
X009012Y004343D01*
X008960Y004330D01*
X008907Y004321D01*
X008854Y004315D01*
X008801Y004313D01*
X008761Y004313D01*
X008728Y004311D01*
X008695Y004306D01*
X008662Y004297D01*
X008631Y004285D01*
X008602Y004270D01*
X008573Y004252D01*
X008548Y004231D01*
X008524Y004207D01*
X008503Y004182D01*
X008485Y004154D01*
X008470Y004124D01*
X008458Y004093D01*
X008449Y004060D01*
X008444Y004027D01*
X008442Y003994D01*
X008443Y003994D02*
X008443Y003151D01*
X007974Y003525D02*
X007974Y004352D01*
X007978Y004385D01*
X007985Y004417D01*
X007997Y004448D01*
X008011Y004478D01*
X008029Y004506D01*
X008050Y004532D01*
X008074Y004555D01*
X008100Y004575D01*
X008129Y004593D01*
X008159Y004607D01*
X008190Y004617D01*
X008222Y004624D01*
X008255Y004628D01*
X008289Y004627D01*
X008340Y004629D01*
X008390Y004634D01*
X008441Y004643D01*
X008490Y004656D01*
X008538Y004672D01*
X008585Y004691D01*
X008631Y004714D01*
X008674Y004740D01*
X008716Y004769D01*
X008756Y004801D01*
X008793Y004836D01*
X008828Y004873D01*
X008860Y004913D01*
X008889Y004955D01*
X008915Y004998D01*
X008938Y005044D01*
X008957Y005091D01*
X008973Y005139D01*
X008986Y005188D01*
X008995Y005239D01*
X009000Y005289D01*
X009002Y005340D01*
X009549Y005376D02*
X009549Y005061D01*
X010139Y004628D02*
X010137Y004579D01*
X010131Y004529D01*
X010122Y004481D01*
X010108Y004433D01*
X010091Y004387D01*
X010070Y004342D01*
X010046Y004299D01*
X010019Y004258D01*
X009988Y004219D01*
X009954Y004183D01*
X009918Y004149D01*
X009879Y004118D01*
X009838Y004091D01*
X009795Y004067D01*
X009750Y004046D01*
X009704Y004029D01*
X009656Y004015D01*
X009608Y004006D01*
X009558Y004000D01*
X009509Y003998D01*
X009509Y003997D02*
X009463Y003995D01*
X009418Y003989D01*
X009374Y003980D01*
X009330Y003967D01*
X009288Y003951D01*
X009247Y003931D01*
X009208Y003907D01*
X009171Y003881D01*
X009136Y003851D01*
X009104Y003819D01*
X009074Y003784D01*
X009048Y003747D01*
X009024Y003708D01*
X009004Y003667D01*
X008988Y003625D01*
X008975Y003581D01*
X008966Y003537D01*
X008960Y003492D01*
X008958Y003446D01*
X009443Y003151D02*
X011911Y005415D01*
X011949Y005417D01*
X011986Y005422D01*
X012023Y005431D01*
X012059Y005443D01*
X012093Y005458D01*
X012126Y005476D01*
X012157Y005498D01*
X012187Y005522D01*
X012213Y005548D01*
X012237Y005578D01*
X012259Y005609D01*
X012277Y005642D01*
X012292Y005676D01*
X012304Y005712D01*
X012313Y005749D01*
X012318Y005786D01*
X012320Y005824D01*
X012320Y006360D01*
X012320Y007108D02*
X012357Y007110D01*
X012394Y007115D01*
X012430Y007124D01*
X012465Y007137D01*
X012498Y007153D01*
X012530Y007172D01*
X012560Y007194D01*
X012587Y007219D01*
X012612Y007246D01*
X012634Y007276D01*
X012653Y007308D01*
X012669Y007341D01*
X012682Y007376D01*
X012691Y007412D01*
X012696Y007449D01*
X012698Y007486D01*
X012698Y008880D01*
X013667Y006502D02*
X013665Y006488D01*
X013661Y006475D01*
X013653Y006463D01*
X013643Y006453D01*
X013631Y006445D01*
X013618Y006441D01*
X013604Y006439D01*
X013667Y006502D02*
X013667Y013691D01*
X013667Y015706D02*
X013665Y015720D01*
X013661Y015733D01*
X013653Y015745D01*
X013643Y015755D01*
X013631Y015763D01*
X013618Y015767D01*
X013604Y015769D01*
X012698Y015769D01*
X012934Y017895D02*
X012935Y017902D01*
X012939Y017909D01*
X012944Y017914D01*
X012951Y017918D01*
X012958Y017919D01*
X013667Y017919D01*
X014013Y016600D02*
X014022Y016599D01*
X014029Y016595D01*
X014036Y016588D01*
X014040Y016581D01*
X014041Y016572D01*
X013667Y020230D02*
X012277Y020230D01*
X012264Y020228D01*
X012252Y020223D01*
X012241Y020215D01*
X012233Y020205D01*
X012228Y020192D01*
X012226Y020179D01*
X008171Y021557D02*
X008169Y021623D01*
X008164Y021689D01*
X008154Y021755D01*
X008141Y021820D01*
X008125Y021884D01*
X008105Y021947D01*
X008081Y022009D01*
X008054Y022069D01*
X008024Y022128D01*
X007990Y022185D01*
X007953Y022240D01*
X007913Y022293D01*
X007871Y022344D01*
X007825Y022392D01*
X007777Y022438D01*
X007726Y022480D01*
X007673Y022520D01*
X007618Y022557D01*
X007561Y022591D01*
X007502Y022621D01*
X007442Y022648D01*
X007380Y022672D01*
X007317Y022692D01*
X007253Y022708D01*
X007188Y022721D01*
X007122Y022731D01*
X007056Y022736D01*
X006990Y022738D01*
X003604Y022738D01*
X003538Y022736D01*
X003471Y022730D01*
X003406Y022721D01*
X003341Y022707D01*
X003276Y022690D01*
X003213Y022669D01*
X003152Y022645D01*
X003091Y022617D01*
X003033Y022585D01*
X002976Y022550D01*
X002922Y022512D01*
X002870Y022471D01*
X002820Y022427D01*
X002773Y022380D01*
X002729Y022330D01*
X002688Y022278D01*
X002650Y022224D01*
X002615Y022167D01*
X002583Y022109D01*
X002555Y022048D01*
X002531Y021987D01*
X002510Y021924D01*
X002493Y021859D01*
X002479Y021794D01*
X002470Y021729D01*
X002464Y021662D01*
X002462Y021596D01*
X002462Y021194D01*
X002464Y021137D01*
X002469Y021080D01*
X002479Y021024D01*
X002492Y020969D01*
X002508Y020914D01*
X002528Y020861D01*
X002552Y020809D01*
X002579Y020759D01*
X002609Y020711D01*
X002642Y020664D01*
X002678Y020620D01*
X002717Y020579D01*
X002758Y020540D01*
X002802Y020504D01*
X002849Y020471D01*
X002897Y020441D01*
X002947Y020414D01*
X002999Y020390D01*
X003052Y020370D01*
X003107Y020354D01*
X003162Y020341D01*
X003218Y020331D01*
X003275Y020326D01*
X003332Y020324D01*
X003333Y017911D02*
X003332Y017905D01*
X003328Y017900D01*
X003323Y017896D01*
X003317Y017895D01*
X001950Y017895D01*
X001163Y015572D02*
X003309Y015572D01*
X003316Y015573D01*
X003323Y015577D01*
X003328Y015582D01*
X003332Y015589D01*
X003333Y015596D01*
X003234Y013183D02*
X003232Y013170D01*
X003227Y013158D01*
X003219Y013147D01*
X003209Y013139D01*
X003196Y013134D01*
X003183Y013132D01*
X003183Y013131D02*
X000730Y013131D01*
X003332Y010671D02*
X003616Y007072D01*
X002616Y007072D02*
X002612Y007069D01*
X000887Y007069D01*
X004080Y010671D02*
X004844Y010671D01*
X004861Y010672D01*
X004878Y010677D01*
X004893Y010684D01*
X004907Y010694D01*
X004919Y010706D01*
X004929Y010720D01*
X004936Y010735D01*
X004941Y010752D01*
X004942Y010769D01*
X006872Y009273D02*
X006878Y009272D01*
X006883Y009268D01*
X006887Y009263D01*
X006888Y009257D01*
X006887Y009257D02*
X006887Y007108D01*
X007423Y003171D02*
X007425Y003163D01*
X007429Y003157D01*
X007435Y003153D01*
X007443Y003151D01*
X006443Y003151D02*
X006441Y003152D01*
X006440Y003153D01*
X006439Y003155D01*
X009549Y005376D02*
X009551Y005409D01*
X009556Y005441D01*
X009564Y005473D01*
X009576Y005504D01*
X009591Y005534D01*
X009609Y005561D01*
X009630Y005587D01*
X009653Y005610D01*
X009679Y005631D01*
X009707Y005649D01*
X009736Y005664D01*
X009767Y005676D01*
X009799Y005684D01*
X009831Y005689D01*
X009864Y005691D01*
X009893Y005693D01*
X009922Y005698D01*
X009951Y005707D01*
X009977Y005719D01*
X010003Y005734D01*
X010026Y005752D01*
X010047Y005773D01*
X010065Y005796D01*
X010080Y005822D01*
X010092Y005848D01*
X010101Y005877D01*
X010106Y005906D01*
X010108Y005935D01*
X010108Y006360D01*
X010108Y007108D02*
X010118Y007110D01*
X010126Y007114D01*
X010133Y007121D01*
X010137Y007129D01*
X010139Y007139D01*
X010139Y008289D01*
X011242Y007935D02*
X011242Y007135D01*
X011241Y007126D01*
X011237Y007119D01*
X011230Y007112D01*
X011223Y007108D01*
X011214Y007107D01*
X011214Y006359D02*
X011234Y006312D01*
X011250Y006263D01*
X011262Y006214D01*
X011271Y006163D01*
X011275Y006112D01*
X011276Y006061D01*
X011272Y006010D01*
X011265Y005959D01*
X011254Y005909D01*
X011239Y005860D01*
X011220Y005812D01*
X011198Y005766D01*
X011172Y005722D01*
X011143Y005680D01*
X011110Y005640D01*
X011075Y005603D01*
X011037Y005569D01*
X010996Y005538D01*
X010954Y005510D01*
X010909Y005485D01*
X010862Y005464D01*
X010814Y005446D01*
X010764Y005433D01*
X010714Y005423D01*
X010663Y005417D01*
X010612Y005415D01*
X010571Y005413D01*
X010530Y005408D01*
X010490Y005399D01*
X010451Y005387D01*
X010413Y005371D01*
X010376Y005352D01*
X010341Y005330D01*
X010309Y005305D01*
X010278Y005277D01*
X010250Y005246D01*
X010225Y005214D01*
X010203Y005179D01*
X010184Y005142D01*
X010168Y005104D01*
X010156Y005065D01*
X010147Y005025D01*
X010142Y004984D01*
X010140Y004943D01*
X010139Y004943D02*
X010139Y004628D01*
D20*
X011242Y007935D03*
X010139Y008289D03*
X012698Y008880D03*
X013604Y006439D03*
X012698Y015769D03*
X012935Y017895D03*
X012226Y020179D03*
X006872Y009273D03*
X005730Y008683D03*
X004706Y007974D03*
X004943Y010769D03*
X004746Y013092D03*
X004746Y015494D03*
X004746Y017856D03*
X004746Y020257D03*
X004628Y023486D03*
X001950Y017895D03*
X001163Y015572D03*
X000730Y013131D03*
X000887Y007069D03*
D21*
X005966Y003565D02*
X005966Y002628D01*
X005967Y002628D02*
X005969Y002587D01*
X005974Y002545D01*
X005983Y002505D01*
X005996Y002465D01*
X006012Y002427D01*
X006031Y002390D01*
X006053Y002355D01*
X006078Y002322D01*
X006106Y002291D01*
X006137Y002263D01*
X006170Y002238D01*
X006205Y002216D01*
X006242Y002197D01*
X006280Y002181D01*
X006320Y002168D01*
X006360Y002159D01*
X006402Y002154D01*
X006443Y002152D01*
X006950Y002643D02*
X006950Y003368D01*
X006951Y002643D02*
X006953Y002600D01*
X006958Y002558D01*
X006968Y002516D01*
X006981Y002475D01*
X006997Y002435D01*
X007017Y002397D01*
X007040Y002361D01*
X007066Y002327D01*
X007095Y002295D01*
X007127Y002266D01*
X007161Y002240D01*
X007197Y002217D01*
X007235Y002197D01*
X007275Y002181D01*
X007316Y002168D01*
X007358Y002158D01*
X007400Y002153D01*
X007443Y002151D01*
X007974Y002580D02*
X007974Y003525D01*
X007974Y002580D02*
X007978Y002539D01*
X007986Y002498D01*
X007997Y002458D01*
X008012Y002420D01*
X008030Y002382D01*
X008052Y002347D01*
X008077Y002314D01*
X008105Y002283D01*
X008135Y002255D01*
X008168Y002230D01*
X008204Y002208D01*
X008241Y002190D01*
X008279Y002175D01*
X008319Y002163D01*
X008360Y002155D01*
X008401Y002152D01*
X008443Y002151D01*
X008958Y002635D02*
X008958Y003446D01*
X008959Y002635D02*
X008961Y002593D01*
X008966Y002551D01*
X008975Y002510D01*
X008988Y002469D01*
X009004Y002430D01*
X009024Y002393D01*
X009047Y002357D01*
X009072Y002324D01*
X009101Y002293D01*
X009132Y002264D01*
X009165Y002239D01*
X009201Y002216D01*
X009238Y002196D01*
X009277Y002180D01*
X009318Y002167D01*
X009359Y002158D01*
X009401Y002153D01*
X009443Y002151D01*
D22*
X012443Y003151D02*
X013387Y003151D01*
X013454Y003153D01*
X013521Y003159D01*
X013588Y003168D01*
X013654Y003181D01*
X013719Y003198D01*
X013784Y003218D01*
X013847Y003242D01*
X013908Y003270D01*
X013968Y003301D01*
X014026Y003335D01*
X014082Y003373D01*
X014136Y003413D01*
X014187Y003456D01*
X014236Y003503D01*
X014283Y003552D01*
X014326Y003603D01*
X014366Y003657D01*
X014404Y003713D01*
X014438Y003771D01*
X014469Y003831D01*
X014497Y003892D01*
X014521Y003955D01*
X014541Y004020D01*
X014558Y004085D01*
X014571Y004151D01*
X014580Y004218D01*
X014586Y004285D01*
X014588Y004352D01*
X014588Y013517D01*
X014586Y013537D01*
X014582Y013556D01*
X014574Y013574D01*
X014564Y013591D01*
X014551Y013606D01*
X014536Y013619D01*
X014519Y013629D01*
X014501Y013637D01*
X014482Y013641D01*
X014462Y013643D01*
X014415Y013690D02*
X014470Y013692D01*
X014525Y013697D01*
X014579Y013706D01*
X014633Y013719D01*
X014686Y013735D01*
X014738Y013754D01*
X014788Y013777D01*
X014837Y013803D01*
X014883Y013832D01*
X014928Y013864D01*
X014971Y013899D01*
X015011Y013937D01*
X015049Y013977D01*
X015084Y014020D01*
X015116Y014065D01*
X015145Y014112D01*
X015171Y014160D01*
X015194Y014210D01*
X015213Y014262D01*
X015229Y014315D01*
X015242Y014369D01*
X015251Y014423D01*
X015256Y014478D01*
X015258Y014533D01*
X015257Y014533D02*
X015257Y015706D01*
X015242Y015708D01*
X015227Y015712D01*
X015213Y015719D01*
X015201Y015729D01*
X015191Y015741D01*
X015184Y015755D01*
X015180Y015770D01*
X015178Y015785D01*
X015179Y015785D02*
X015179Y018131D01*
X014628Y018131D01*
X014628Y018132D02*
X014600Y018130D01*
X014573Y018125D01*
X014546Y018116D01*
X014522Y018103D01*
X014498Y018088D01*
X014477Y018070D01*
X014459Y018049D01*
X014444Y018026D01*
X014431Y018001D01*
X014422Y017974D01*
X014417Y017947D01*
X014415Y017919D01*
X015179Y018131D02*
X015179Y020257D01*
X014443Y020257D01*
X014443Y020258D02*
X014434Y020257D01*
X014427Y020253D01*
X014420Y020246D01*
X014416Y020239D01*
X014415Y020230D01*
X015179Y020257D02*
X015179Y022856D01*
X015177Y022924D01*
X015172Y022992D01*
X015162Y023060D01*
X015150Y023127D01*
X015133Y023193D01*
X015113Y023258D01*
X015090Y023322D01*
X015063Y023385D01*
X015032Y023446D01*
X014999Y023506D01*
X014962Y023563D01*
X014922Y023619D01*
X014879Y023672D01*
X014834Y023723D01*
X014786Y023771D01*
X014735Y023816D01*
X014682Y023859D01*
X014626Y023899D01*
X014569Y023936D01*
X014509Y023969D01*
X014448Y024000D01*
X014385Y024027D01*
X014321Y024050D01*
X014256Y024070D01*
X014190Y024087D01*
X014123Y024099D01*
X014055Y024109D01*
X013987Y024114D01*
X013919Y024116D01*
X010730Y024116D01*
X010730Y026950D01*
X003525Y026950D01*
X003463Y026952D01*
X003402Y026957D01*
X003340Y026967D01*
X003280Y026980D01*
X003220Y026996D01*
X003162Y027017D01*
X003105Y027040D01*
X003049Y027067D01*
X002995Y027098D01*
X002943Y027131D01*
X002893Y027168D01*
X002846Y027208D01*
X002801Y027250D01*
X002759Y027295D01*
X002719Y027342D01*
X002682Y027392D01*
X002649Y027444D01*
X002618Y027498D01*
X002591Y027554D01*
X002568Y027611D01*
X002547Y027669D01*
X002531Y027729D01*
X002518Y027789D01*
X002508Y027851D01*
X002503Y027912D01*
X002501Y027974D01*
X002502Y027974D02*
X002502Y030002D01*
X002500Y030010D01*
X002496Y030016D01*
X002490Y030020D01*
X002482Y030022D01*
X002482Y030021D02*
X002482Y028446D01*
X003151Y028446D02*
X003151Y029943D01*
X003153Y029958D01*
X003157Y029973D01*
X003164Y029987D01*
X003174Y029999D01*
X003186Y030009D01*
X003200Y030016D01*
X003215Y030020D01*
X003230Y030022D01*
X003151Y028446D02*
X003153Y028406D01*
X003158Y028366D01*
X003168Y028328D01*
X003180Y028290D01*
X003196Y028253D01*
X003216Y028218D01*
X003238Y028185D01*
X003264Y028154D01*
X003292Y028126D01*
X003323Y028100D01*
X003356Y028078D01*
X003391Y028058D01*
X003428Y028042D01*
X003466Y028030D01*
X003504Y028020D01*
X003544Y028015D01*
X003584Y028013D01*
X006950Y028013D01*
X006997Y028015D01*
X007044Y028020D01*
X007091Y028029D01*
X007137Y028041D01*
X007182Y028057D01*
X007225Y028076D01*
X007267Y028098D01*
X007307Y028123D01*
X007345Y028151D01*
X007381Y028182D01*
X007415Y028216D01*
X007446Y028252D01*
X007474Y028290D01*
X007499Y028330D01*
X007521Y028372D01*
X007540Y028415D01*
X007556Y028460D01*
X007568Y028506D01*
X007577Y028553D01*
X007582Y028600D01*
X007584Y028647D01*
X007584Y028939D01*
X007584Y029939D02*
X008584Y029939D01*
X009584Y029939D01*
X010584Y029939D01*
X010584Y028939D01*
X010607Y028937D01*
X010629Y028932D01*
X010650Y028923D01*
X010670Y028911D01*
X010687Y028896D01*
X010702Y028879D01*
X010714Y028859D01*
X010723Y028838D01*
X010728Y028816D01*
X010730Y028793D01*
X010730Y026950D01*
X012383Y031005D02*
X012632Y030925D01*
X012876Y030833D01*
X013116Y030730D01*
X013351Y030615D01*
X013580Y030489D01*
X013803Y030353D01*
X014019Y030206D01*
X014228Y030049D01*
X014429Y029882D01*
X014622Y029706D01*
X014806Y029520D01*
X014982Y029327D01*
X015148Y029125D01*
X015304Y028916D01*
X015450Y028699D01*
X015586Y028476D01*
X015711Y028246D01*
X015825Y028011D01*
X015928Y027771D01*
X016019Y027526D01*
X016098Y027277D01*
X016166Y027024D01*
X016221Y026769D01*
X016264Y026511D01*
X016295Y026252D01*
X016314Y025991D01*
X016320Y025730D01*
X016320Y011439D01*
X016321Y011439D02*
X016322Y011429D01*
X016326Y011420D01*
X016332Y011411D01*
X016341Y011405D01*
X016350Y011401D01*
X016360Y011400D01*
X016360Y011399D02*
X016360Y006069D01*
X016356Y005883D01*
X016342Y005697D01*
X016320Y005512D01*
X016289Y005328D01*
X016250Y005146D01*
X016201Y004965D01*
X016145Y004788D01*
X016079Y004613D01*
X016006Y004442D01*
X015925Y004274D01*
X015835Y004111D01*
X015738Y003951D01*
X015634Y003797D01*
X015522Y003648D01*
X015403Y003504D01*
X015278Y003366D01*
X015146Y003234D01*
X015008Y003109D01*
X014864Y002990D01*
X014715Y002878D01*
X014561Y002774D01*
X014402Y002677D01*
X014238Y002587D01*
X014070Y002506D01*
X013899Y002433D01*
X013724Y002367D01*
X013547Y002311D01*
X013366Y002262D01*
X013184Y002223D01*
X013000Y002192D01*
X012815Y002170D01*
X012629Y002156D01*
X012443Y002152D01*
X007584Y029939D02*
X006584Y029939D01*
X006596Y031005D02*
X006530Y031003D01*
X006464Y030998D01*
X006398Y030988D01*
X006333Y030975D01*
X006269Y030959D01*
X006206Y030939D01*
X006144Y030915D01*
X006084Y030888D01*
X006025Y030858D01*
X005968Y030824D01*
X005913Y030787D01*
X005860Y030747D01*
X005809Y030705D01*
X005761Y030659D01*
X005715Y030611D01*
X005673Y030560D01*
X005633Y030507D01*
X005596Y030452D01*
X005562Y030395D01*
X005532Y030336D01*
X005505Y030276D01*
X005481Y030214D01*
X005461Y030151D01*
X005445Y030087D01*
X005432Y030022D01*
X005422Y029956D01*
X005417Y029890D01*
X005415Y029824D01*
X005417Y029766D01*
X005422Y029707D01*
X005432Y029649D01*
X005445Y029592D01*
X005461Y029536D01*
X005481Y029481D01*
X005505Y029428D01*
X005532Y029376D01*
X005562Y029326D01*
X005595Y029277D01*
X005631Y029231D01*
X005670Y029188D01*
X005712Y029147D01*
X005756Y029109D01*
X005803Y029073D01*
X005852Y029041D01*
X005903Y029012D01*
X005955Y028986D01*
X006009Y028964D01*
X006065Y028945D01*
X006121Y028929D01*
X006178Y028917D01*
X006236Y028909D01*
X006295Y028905D01*
X006353Y028904D01*
X006412Y028907D01*
X006470Y028914D01*
X006527Y028924D01*
X006584Y028938D01*
X006596Y031006D02*
X012383Y031006D01*
M02*
