G75*
G70*
%OFA0B0*%
%FSLAX24Y24*%
%IPPOS*%
%LPD*%
%AMOC8*
5,1,8,0,0,1.08239X$1,22.5*
%
%ADD10C,0.0000*%
%ADD11C,0.0679*%
%ADD12OC8,0.0560*%
%ADD13R,0.0591X0.0512*%
%ADD14C,0.0600*%
%ADD15C,0.0100*%
%ADD16C,0.0360*%
%ADD17C,0.0356*%
%ADD18C,0.0120*%
%ADD19C,0.0079*%
%ADD20C,0.0160*%
%ADD21R,0.0356X0.0356*%
%ADD22C,0.0240*%
%ADD23C,0.1660*%
%ADD24C,0.0400*%
D10*
X000192Y000100D02*
X000192Y027659D01*
X017908Y027659D01*
X017908Y000100D01*
X000192Y000100D01*
D11*
X005294Y012004D03*
X006202Y012258D03*
X006889Y012954D03*
X007135Y013876D03*
X006881Y014798D03*
X006204Y015465D03*
X005286Y015720D03*
X004346Y015474D03*
X003679Y014790D03*
X003418Y013868D03*
X003668Y012946D03*
X010918Y013868D03*
X011168Y012946D03*
X011179Y014790D03*
X011846Y015474D03*
X012786Y015720D03*
X013704Y015465D03*
X014381Y014798D03*
X014635Y013876D03*
X014389Y012954D03*
X013702Y012258D03*
X012794Y012004D03*
D12*
X012534Y003151D03*
X012534Y002151D03*
X011534Y002151D03*
X011534Y003151D03*
X010534Y003151D03*
X010534Y002151D03*
X009534Y002151D03*
X009534Y003151D03*
X008534Y003151D03*
X008534Y002151D03*
X007534Y002151D03*
X007534Y003151D03*
X006534Y003151D03*
X006534Y002151D03*
X005534Y002151D03*
X005534Y003151D03*
X005534Y024222D03*
X005534Y025222D03*
X006534Y025222D03*
X006534Y024222D03*
X007534Y024222D03*
X007534Y025222D03*
X008534Y025222D03*
X008534Y024222D03*
X009534Y024222D03*
X009534Y025222D03*
X010534Y025222D03*
X010534Y024222D03*
X011534Y024222D03*
X011534Y025222D03*
X012534Y025222D03*
X012534Y024222D03*
D13*
X002849Y010269D03*
X002849Y009600D03*
X003164Y005710D03*
X003164Y005041D03*
X011196Y009041D03*
X011196Y009710D03*
D14*
X015825Y008399D02*
X016425Y008399D01*
X016425Y007399D02*
X015825Y007399D01*
X015825Y006399D02*
X016425Y006399D01*
X002818Y003471D02*
X002818Y002871D01*
X001818Y002871D02*
X001818Y003471D01*
X001689Y006399D02*
X001089Y006399D01*
X001089Y007399D02*
X001689Y007399D01*
X001689Y008399D02*
X001089Y008399D01*
D15*
X001215Y010848D02*
X001215Y011675D01*
X001205Y011676D01*
X001196Y011680D01*
X001187Y011686D01*
X001181Y011695D01*
X001177Y011704D01*
X001176Y011714D01*
X001176Y017187D01*
X001143Y017189D01*
X001111Y017194D01*
X001079Y017202D01*
X001048Y017214D01*
X001019Y017229D01*
X000991Y017247D01*
X000965Y017268D01*
X000942Y017291D01*
X000921Y017317D01*
X000903Y017345D01*
X000888Y017374D01*
X000876Y017405D01*
X000868Y017437D01*
X000863Y017469D01*
X000861Y017502D01*
X000861Y018171D01*
X001373Y017817D02*
X001767Y017423D01*
X001767Y011124D01*
X001216Y010848D02*
X001218Y010807D01*
X001223Y010766D01*
X001232Y010726D01*
X001244Y010687D01*
X001260Y010649D01*
X001279Y010612D01*
X001301Y010577D01*
X001326Y010545D01*
X001354Y010514D01*
X001385Y010486D01*
X001417Y010461D01*
X001452Y010439D01*
X001489Y010420D01*
X001527Y010404D01*
X001566Y010392D01*
X001606Y010383D01*
X001647Y010378D01*
X001688Y010376D01*
X003735Y009549D02*
X004129Y009155D01*
X004129Y004116D01*
X004522Y002462D02*
X005310Y001478D01*
X008066Y001478D01*
X008066Y002462D01*
X008459Y002856D01*
X008459Y003250D01*
X008534Y003151D01*
X008066Y002856D02*
X007672Y002462D01*
X007672Y002069D01*
X007534Y002151D01*
X008066Y002856D02*
X008066Y006399D01*
X008853Y007698D01*
X010034Y006793D02*
X010034Y002069D01*
X009719Y001320D01*
X008538Y001320D01*
X008538Y002108D01*
X008534Y002151D01*
X006534Y002151D02*
X006491Y002069D01*
X006058Y002462D01*
X006058Y006754D01*
X006491Y007698D01*
X005782Y007383D02*
X005782Y008013D01*
X005783Y007383D02*
X005781Y007368D01*
X005777Y007353D01*
X005770Y007339D01*
X005760Y007327D01*
X005748Y007317D01*
X005734Y007310D01*
X005719Y007306D01*
X005704Y007304D01*
X005680Y007302D01*
X005656Y007297D01*
X005634Y007289D01*
X005613Y007277D01*
X005593Y007263D01*
X005576Y007246D01*
X005562Y007226D01*
X005550Y007205D01*
X005542Y007183D01*
X005537Y007159D01*
X005535Y007135D01*
X005534Y007135D02*
X005534Y003151D01*
X004916Y002462D02*
X005310Y002069D01*
X005534Y002151D01*
X004916Y002462D02*
X004916Y010730D01*
X003735Y011911D01*
X004129Y009943D02*
X004522Y009549D01*
X004522Y002462D01*
X006491Y003250D02*
X006534Y003151D01*
X006491Y003250D02*
X006491Y006399D01*
X007318Y007777D01*
X009641Y010730D02*
X009641Y018604D01*
X005704Y022541D01*
X005704Y024116D01*
X005534Y024222D01*
X004916Y024604D02*
X004918Y024652D01*
X004924Y024701D01*
X004933Y024748D01*
X004946Y024795D01*
X004963Y024840D01*
X004983Y024885D01*
X005007Y024927D01*
X005034Y024967D01*
X005064Y025005D01*
X005097Y025041D01*
X005133Y025074D01*
X005171Y025104D01*
X005211Y025131D01*
X005253Y025155D01*
X005298Y025175D01*
X005343Y025192D01*
X005390Y025205D01*
X005437Y025214D01*
X005486Y025220D01*
X005534Y025222D01*
X004916Y024604D02*
X004916Y021754D01*
X004914Y021700D01*
X004909Y021647D01*
X004900Y021594D01*
X004887Y021542D01*
X004871Y021490D01*
X004851Y021440D01*
X004828Y021392D01*
X004801Y021345D01*
X004772Y021300D01*
X004739Y021257D01*
X004704Y021217D01*
X004666Y021179D01*
X004626Y021144D01*
X004583Y021111D01*
X004538Y021082D01*
X004491Y021055D01*
X004443Y021032D01*
X004393Y021012D01*
X004341Y020996D01*
X004289Y020983D01*
X004236Y020974D01*
X004183Y020969D01*
X004129Y020967D01*
X004129Y020966D02*
X003656Y020966D01*
X003519Y020963D01*
X003382Y020953D01*
X003246Y020936D01*
X003111Y020912D01*
X002977Y020882D01*
X002845Y020846D01*
X002714Y020803D01*
X002586Y020753D01*
X002461Y020698D01*
X002338Y020636D01*
X002219Y020568D01*
X002103Y020495D01*
X001991Y020416D01*
X001883Y020332D01*
X001779Y020242D01*
X001680Y020147D01*
X001585Y020048D01*
X001495Y019944D01*
X001411Y019836D01*
X001332Y019724D01*
X001259Y019608D01*
X001191Y019489D01*
X001129Y019366D01*
X001074Y019241D01*
X001024Y019113D01*
X000981Y018982D01*
X000945Y018850D01*
X000915Y018716D01*
X000891Y018581D01*
X000874Y018445D01*
X000864Y018308D01*
X000861Y018171D01*
X006058Y022974D02*
X007475Y022974D01*
X007515Y024076D01*
X007534Y024222D01*
X007534Y025222D02*
X007672Y025297D01*
X007672Y026478D01*
X013971Y026478D01*
X014365Y026084D01*
X014365Y024116D01*
X014759Y023722D01*
X014759Y018604D01*
X015940Y017423D01*
X015310Y016281D02*
X015310Y012895D01*
X014365Y011950D01*
X014328Y011948D01*
X014291Y011942D01*
X014256Y011933D01*
X014221Y011919D01*
X014188Y011903D01*
X014157Y011882D01*
X014128Y011859D01*
X014102Y011833D01*
X014079Y011804D01*
X014058Y011773D01*
X014042Y011740D01*
X014028Y011705D01*
X014019Y011670D01*
X014013Y011633D01*
X014011Y011596D01*
X014011Y009194D01*
X014009Y009168D01*
X014004Y009143D01*
X013996Y009119D01*
X013985Y009096D01*
X013970Y009074D01*
X013953Y009055D01*
X013934Y009038D01*
X013913Y009023D01*
X013889Y009012D01*
X013865Y009004D01*
X013840Y008999D01*
X013814Y008997D01*
X013814Y008998D02*
X013696Y008998D01*
X013676Y008996D01*
X013656Y008991D01*
X013637Y008982D01*
X013620Y008970D01*
X013606Y008956D01*
X013594Y008939D01*
X013585Y008920D01*
X013580Y008900D01*
X013578Y008880D01*
X013578Y007974D01*
X016255Y010297D02*
X016393Y010193D01*
X016727Y009943D01*
X015310Y016281D02*
X015308Y016345D01*
X015302Y016409D01*
X015293Y016473D01*
X015279Y016535D01*
X015262Y016597D01*
X015241Y016658D01*
X015216Y016717D01*
X015188Y016775D01*
X015157Y016831D01*
X015122Y016885D01*
X015084Y016937D01*
X015043Y016986D01*
X014999Y017033D01*
X014952Y017077D01*
X014903Y017118D01*
X014851Y017156D01*
X014797Y017191D01*
X014741Y017222D01*
X014683Y017250D01*
X014624Y017275D01*
X014563Y017296D01*
X014501Y017313D01*
X014439Y017327D01*
X014375Y017336D01*
X014311Y017342D01*
X014247Y017344D01*
X013774Y017462D01*
X013721Y017461D01*
X013668Y017464D01*
X013614Y017471D01*
X013562Y017481D01*
X013510Y017495D01*
X013460Y017513D01*
X013411Y017535D01*
X013364Y017559D01*
X013318Y017588D01*
X013275Y017619D01*
X013234Y017653D01*
X013196Y017690D01*
X013160Y017730D01*
X013127Y017773D01*
X013097Y017817D01*
X013071Y017863D01*
X013048Y017912D01*
X013028Y017962D01*
X013012Y018013D01*
X013000Y018065D01*
X012992Y018117D01*
X012987Y018171D01*
X012987Y020533D01*
X013656Y020415D02*
X013578Y020179D01*
X014365Y020179D02*
X014365Y020966D01*
X010428Y020966D02*
X010428Y011911D01*
X010349Y007777D02*
X010034Y006793D01*
X009247Y017029D02*
X009247Y018210D01*
X009641Y019391D02*
X010034Y019785D01*
X010034Y024903D01*
X009641Y025297D01*
X009534Y025222D01*
X009534Y024222D02*
X009641Y024116D01*
X009641Y020179D01*
X008534Y025222D02*
X008459Y025297D01*
X006058Y026557D02*
X006058Y022974D01*
D16*
X004129Y020179D03*
X001373Y017817D03*
X003735Y011911D03*
X004129Y009943D03*
X003735Y009549D03*
X002160Y011517D03*
X001767Y011124D03*
X006491Y007698D03*
X007318Y007777D03*
X008853Y007698D03*
X010349Y007777D03*
X009641Y010730D03*
X010428Y011911D03*
X009247Y017029D03*
X009247Y018210D03*
X009641Y019391D03*
X009641Y020179D03*
X010428Y020966D03*
X013578Y020179D03*
X014365Y020179D03*
X014365Y020966D03*
X016255Y022974D03*
X015940Y017423D03*
X016727Y011124D03*
X016727Y009943D03*
X004129Y004116D03*
D17*
X005782Y008013D03*
X005743Y010691D03*
X006845Y011832D03*
X007672Y014509D03*
X008341Y015218D03*
X007121Y016045D03*
X005900Y016754D03*
X004404Y016714D03*
X002869Y015848D03*
X002515Y014785D03*
X004365Y011911D03*
X003538Y008053D03*
X001688Y010376D03*
X007633Y019391D03*
X004444Y019549D03*
X011137Y016517D03*
X012396Y016990D03*
X013893Y016911D03*
X014641Y015887D03*
X015704Y016714D03*
X015664Y014628D03*
X015782Y013092D03*
X014522Y011320D03*
X013578Y007974D03*
X011885Y008131D03*
X012987Y020533D03*
D18*
X013578Y020178D02*
X013593Y020180D01*
X013608Y020184D01*
X013622Y020191D01*
X013634Y020201D01*
X013644Y020213D01*
X013651Y020227D01*
X013655Y020242D01*
X013657Y020257D01*
X013656Y020257D02*
X013656Y025376D01*
X013654Y025425D01*
X013648Y025475D01*
X013639Y025523D01*
X013625Y025571D01*
X013608Y025617D01*
X013587Y025662D01*
X013563Y025705D01*
X013536Y025746D01*
X013505Y025785D01*
X013471Y025821D01*
X013435Y025855D01*
X013396Y025886D01*
X013355Y025913D01*
X013312Y025937D01*
X013267Y025958D01*
X013221Y025975D01*
X013173Y025989D01*
X013125Y025998D01*
X013075Y026004D01*
X013026Y026006D01*
X009168Y026006D01*
X009117Y026004D01*
X009067Y025999D01*
X009017Y025990D01*
X008968Y025977D01*
X008920Y025961D01*
X008873Y025942D01*
X008828Y025919D01*
X008785Y025893D01*
X008743Y025865D01*
X008704Y025833D01*
X008667Y025798D01*
X008632Y025761D01*
X008600Y025722D01*
X008572Y025680D01*
X008546Y025637D01*
X008523Y025592D01*
X008504Y025545D01*
X008488Y025497D01*
X008475Y025448D01*
X008466Y025398D01*
X008461Y025348D01*
X008459Y025297D01*
X007121Y020179D02*
X005074Y020179D01*
X005025Y020177D01*
X004975Y020171D01*
X004927Y020162D01*
X004879Y020148D01*
X004833Y020131D01*
X004788Y020110D01*
X004745Y020086D01*
X004704Y020059D01*
X004665Y020028D01*
X004629Y019994D01*
X004595Y019958D01*
X004564Y019919D01*
X004537Y019878D01*
X004513Y019835D01*
X004492Y019790D01*
X004475Y019744D01*
X004461Y019696D01*
X004452Y019648D01*
X004446Y019598D01*
X004444Y019549D01*
X004129Y020179D02*
X004035Y020177D01*
X003942Y020170D01*
X003849Y020159D01*
X003756Y020143D01*
X003665Y020123D01*
X003574Y020099D01*
X003485Y020071D01*
X003397Y020038D01*
X003311Y020001D01*
X003227Y019960D01*
X003144Y019915D01*
X003064Y019866D01*
X002987Y019814D01*
X002912Y019758D01*
X002840Y019698D01*
X002770Y019635D01*
X002704Y019569D01*
X002641Y019499D01*
X002581Y019427D01*
X002525Y019352D01*
X002473Y019275D01*
X002424Y019195D01*
X002379Y019112D01*
X002338Y019028D01*
X002301Y018942D01*
X002268Y018854D01*
X002240Y018765D01*
X002216Y018674D01*
X002196Y018583D01*
X002180Y018490D01*
X002169Y018397D01*
X002162Y018304D01*
X002160Y018210D01*
X002160Y011517D01*
X008460Y018840D02*
X008458Y018912D01*
X008452Y018985D01*
X008442Y019057D01*
X008429Y019128D01*
X008411Y019198D01*
X008390Y019268D01*
X008365Y019336D01*
X008336Y019402D01*
X008304Y019467D01*
X008268Y019530D01*
X008229Y019591D01*
X008187Y019650D01*
X008142Y019707D01*
X008093Y019761D01*
X008042Y019812D01*
X007988Y019861D01*
X007931Y019906D01*
X007872Y019948D01*
X007811Y019987D01*
X007748Y020023D01*
X007683Y020055D01*
X007617Y020084D01*
X007549Y020109D01*
X007479Y020130D01*
X007409Y020148D01*
X007338Y020161D01*
X007266Y020171D01*
X007193Y020177D01*
X007121Y020179D01*
X007633Y019391D02*
X007633Y016635D01*
X007635Y016585D01*
X007640Y016535D01*
X007650Y016486D01*
X007663Y016438D01*
X007679Y016391D01*
X007699Y016345D01*
X007723Y016301D01*
X007749Y016258D01*
X007779Y016218D01*
X007812Y016180D01*
X007847Y016145D01*
X007885Y016112D01*
X007925Y016082D01*
X007967Y016056D01*
X008012Y016032D01*
X008058Y016012D01*
X008105Y015996D01*
X008153Y015983D01*
X008202Y015973D01*
X008252Y015968D01*
X008302Y015966D01*
X008343Y015964D01*
X008384Y015959D01*
X008424Y015950D01*
X008463Y015938D01*
X008501Y015922D01*
X008538Y015903D01*
X008573Y015881D01*
X008605Y015856D01*
X008636Y015828D01*
X008664Y015797D01*
X008689Y015765D01*
X008711Y015730D01*
X008730Y015693D01*
X008746Y015655D01*
X008758Y015616D01*
X008767Y015576D01*
X008772Y015535D01*
X008774Y015494D01*
X008774Y014943D01*
X008772Y014915D01*
X008767Y014887D01*
X008759Y014859D01*
X008747Y014833D01*
X008732Y014809D01*
X008715Y014787D01*
X008694Y014766D01*
X008672Y014749D01*
X008648Y014734D01*
X008622Y014722D01*
X008594Y014714D01*
X008566Y014709D01*
X008538Y014707D01*
X008499Y014705D01*
X008461Y014699D01*
X008424Y014690D01*
X008387Y014677D01*
X008352Y014660D01*
X008319Y014641D01*
X008288Y014618D01*
X008259Y014592D01*
X008233Y014563D01*
X008210Y014532D01*
X008191Y014499D01*
X008174Y014464D01*
X008161Y014427D01*
X008152Y014390D01*
X008146Y014352D01*
X008144Y014313D01*
X008144Y007738D01*
X008142Y007710D01*
X008137Y007682D01*
X008129Y007654D01*
X008117Y007628D01*
X008102Y007604D01*
X008085Y007582D01*
X008064Y007561D01*
X008042Y007544D01*
X008018Y007529D01*
X007992Y007517D01*
X007964Y007509D01*
X007936Y007504D01*
X007908Y007502D01*
X007871Y007500D01*
X007835Y007495D01*
X007799Y007486D01*
X007765Y007474D01*
X007732Y007458D01*
X007700Y007439D01*
X007671Y007417D01*
X007644Y007392D01*
X007619Y007365D01*
X007597Y007336D01*
X007578Y007304D01*
X007562Y007271D01*
X007550Y007237D01*
X007541Y007201D01*
X007536Y007165D01*
X007534Y007128D01*
X007534Y003151D01*
X009050Y004785D02*
X009083Y004787D01*
X009115Y004792D01*
X009147Y004800D01*
X009178Y004812D01*
X009208Y004827D01*
X009235Y004845D01*
X009261Y004866D01*
X009284Y004889D01*
X009305Y004915D01*
X009323Y004942D01*
X009338Y004972D01*
X009350Y005003D01*
X009358Y005035D01*
X009363Y005067D01*
X009365Y005100D01*
X009365Y010179D01*
X009364Y010179D02*
X009362Y010201D01*
X009358Y010223D01*
X009350Y010244D01*
X009339Y010264D01*
X009326Y010282D01*
X009310Y010298D01*
X009292Y010311D01*
X009272Y010322D01*
X009251Y010330D01*
X009229Y010334D01*
X009207Y010336D01*
X009181Y010338D01*
X009156Y010343D01*
X009132Y010351D01*
X009109Y010362D01*
X009087Y010377D01*
X009068Y010394D01*
X009051Y010413D01*
X009036Y010435D01*
X009025Y010458D01*
X009017Y010482D01*
X009012Y010507D01*
X009010Y010533D01*
X009011Y010533D02*
X009011Y010927D01*
X009033Y010929D01*
X009055Y010933D01*
X009076Y010941D01*
X009096Y010952D01*
X009114Y010965D01*
X009130Y010981D01*
X009143Y010999D01*
X009154Y011019D01*
X009162Y011040D01*
X009166Y011062D01*
X009168Y011084D01*
X009168Y016360D01*
X009169Y016360D02*
X009167Y016391D01*
X009162Y016421D01*
X009154Y016451D01*
X009142Y016480D01*
X009127Y016507D01*
X009109Y016532D01*
X009088Y016555D01*
X009065Y016576D01*
X009040Y016594D01*
X009013Y016609D01*
X008984Y016621D01*
X008954Y016629D01*
X008924Y016634D01*
X008893Y016636D01*
X008893Y016635D02*
X008814Y016635D01*
X008814Y016636D02*
X008777Y016638D01*
X008740Y016644D01*
X008705Y016653D01*
X008670Y016667D01*
X008637Y016683D01*
X008606Y016704D01*
X008577Y016727D01*
X008551Y016753D01*
X008528Y016782D01*
X008507Y016813D01*
X008491Y016846D01*
X008477Y016881D01*
X008468Y016916D01*
X008462Y016953D01*
X008460Y016990D01*
X008459Y016990D02*
X008459Y018840D01*
X013893Y016911D02*
X013946Y016909D01*
X013999Y016903D01*
X014052Y016894D01*
X014104Y016881D01*
X014154Y016864D01*
X014204Y016843D01*
X014251Y016820D01*
X014297Y016792D01*
X014341Y016762D01*
X014383Y016728D01*
X014422Y016692D01*
X014458Y016653D01*
X014492Y016611D01*
X014522Y016567D01*
X014550Y016521D01*
X014573Y016474D01*
X014594Y016424D01*
X014611Y016374D01*
X014624Y016322D01*
X014633Y016269D01*
X014639Y016216D01*
X014641Y016163D01*
X014641Y015887D01*
X015704Y016714D02*
X015704Y014667D01*
X015703Y014667D02*
X015702Y014657D01*
X015698Y014648D01*
X015692Y014639D01*
X015684Y014633D01*
X015674Y014629D01*
X015664Y014628D01*
X015664Y013210D01*
X015666Y013190D01*
X015671Y013170D01*
X015680Y013151D01*
X015692Y013134D01*
X015706Y013120D01*
X015723Y013108D01*
X015742Y013099D01*
X015762Y013094D01*
X015782Y013092D01*
X015782Y012541D01*
X015780Y012499D01*
X015775Y012457D01*
X015766Y012415D01*
X015754Y012375D01*
X015739Y012335D01*
X015720Y012297D01*
X015699Y012261D01*
X015674Y012227D01*
X015647Y012194D01*
X015617Y012164D01*
X015584Y012137D01*
X015550Y012112D01*
X015514Y012091D01*
X015476Y012072D01*
X015436Y012057D01*
X015396Y012045D01*
X015354Y012036D01*
X015312Y012031D01*
X015270Y012029D01*
X015231Y012029D01*
X015180Y012027D01*
X015130Y012022D01*
X015080Y012013D01*
X015031Y012000D01*
X014983Y011984D01*
X014936Y011965D01*
X014891Y011942D01*
X014848Y011916D01*
X014806Y011888D01*
X014767Y011856D01*
X014730Y011821D01*
X014695Y011784D01*
X014663Y011745D01*
X014635Y011703D01*
X014609Y011660D01*
X014586Y011615D01*
X014567Y011568D01*
X014551Y011520D01*
X014538Y011471D01*
X014529Y011421D01*
X014524Y011371D01*
X014522Y011320D01*
X014522Y010139D01*
X014524Y010090D01*
X014530Y010040D01*
X014539Y009992D01*
X014553Y009944D01*
X014570Y009898D01*
X014591Y009853D01*
X014615Y009810D01*
X014642Y009769D01*
X014673Y009730D01*
X014707Y009694D01*
X014743Y009660D01*
X014782Y009629D01*
X014823Y009602D01*
X014866Y009578D01*
X014911Y009557D01*
X014957Y009540D01*
X015005Y009526D01*
X015053Y009517D01*
X015103Y009511D01*
X015152Y009509D01*
X015554Y009509D01*
D19*
X016255Y010297D02*
X016294Y010336D01*
X013893Y016911D02*
X013891Y016926D01*
X013887Y016941D01*
X013880Y016955D01*
X013870Y016967D01*
X013858Y016977D01*
X013844Y016984D01*
X013829Y016988D01*
X013814Y016990D01*
X012396Y016990D01*
X011924Y016517D01*
X011137Y016517D01*
X008341Y015218D02*
X007948Y015218D01*
X007672Y014509D02*
X007672Y012659D01*
X007670Y012603D01*
X007664Y012546D01*
X007655Y012491D01*
X007641Y012436D01*
X007624Y012382D01*
X007604Y012330D01*
X007579Y012279D01*
X007552Y012229D01*
X007521Y012182D01*
X007487Y012137D01*
X007449Y012095D01*
X007409Y012055D01*
X007367Y012017D01*
X007322Y011983D01*
X007275Y011952D01*
X007225Y011925D01*
X007174Y011900D01*
X007122Y011880D01*
X007068Y011863D01*
X007013Y011849D01*
X006958Y011840D01*
X006901Y011834D01*
X006845Y011832D01*
X006845Y011793D01*
X006843Y011729D01*
X006838Y011665D01*
X006828Y011602D01*
X006815Y011539D01*
X006799Y011477D01*
X006779Y011416D01*
X006755Y011357D01*
X006728Y011298D01*
X006697Y011242D01*
X006664Y011187D01*
X006627Y011135D01*
X006587Y011085D01*
X006545Y011037D01*
X006499Y010991D01*
X006451Y010949D01*
X006401Y010909D01*
X006349Y010872D01*
X006294Y010839D01*
X006238Y010808D01*
X006179Y010781D01*
X006120Y010757D01*
X006059Y010737D01*
X005997Y010721D01*
X005934Y010708D01*
X005871Y010698D01*
X005807Y010693D01*
X005743Y010691D01*
X005741Y010728D01*
X005735Y010765D01*
X005726Y010800D01*
X005712Y010835D01*
X005696Y010868D01*
X005675Y010899D01*
X005652Y010928D01*
X005626Y010954D01*
X005597Y010977D01*
X005566Y010998D01*
X005533Y011014D01*
X005498Y011028D01*
X005463Y011037D01*
X005426Y011043D01*
X005389Y011045D01*
X005349Y011045D01*
X004365Y011911D01*
X002869Y015139D02*
X002869Y015848D01*
X002869Y015139D02*
X002867Y015102D01*
X002861Y015065D01*
X002852Y015030D01*
X002838Y014995D01*
X002822Y014962D01*
X002801Y014931D01*
X002778Y014902D01*
X002752Y014876D01*
X002723Y014853D01*
X002692Y014832D01*
X002659Y014816D01*
X002624Y014802D01*
X002589Y014793D01*
X002552Y014787D01*
X002515Y014785D01*
X002869Y015848D02*
X002871Y015905D01*
X002876Y015961D01*
X002886Y016017D01*
X002899Y016072D01*
X002915Y016126D01*
X002935Y016179D01*
X002958Y016231D01*
X002985Y016281D01*
X003015Y016329D01*
X003048Y016375D01*
X003084Y016419D01*
X003123Y016460D01*
X003164Y016499D01*
X003208Y016535D01*
X003254Y016568D01*
X003302Y016598D01*
X003352Y016625D01*
X003404Y016648D01*
X003457Y016668D01*
X003511Y016684D01*
X003566Y016697D01*
X003622Y016707D01*
X003678Y016712D01*
X003735Y016714D01*
X004404Y016714D01*
X005900Y016754D01*
X006412Y016754D01*
X006463Y016752D01*
X006513Y016747D01*
X006563Y016738D01*
X006612Y016725D01*
X006660Y016709D01*
X006707Y016690D01*
X006752Y016667D01*
X006795Y016641D01*
X006837Y016613D01*
X006876Y016581D01*
X006913Y016546D01*
X006948Y016509D01*
X006980Y016470D01*
X007008Y016428D01*
X007034Y016385D01*
X007057Y016340D01*
X007076Y016293D01*
X007092Y016245D01*
X007105Y016196D01*
X007114Y016146D01*
X007119Y016096D01*
X007121Y016045D01*
X007123Y015989D01*
X007129Y015932D01*
X007138Y015877D01*
X007152Y015822D01*
X007169Y015768D01*
X007189Y015716D01*
X007214Y015665D01*
X007241Y015615D01*
X007272Y015568D01*
X007306Y015523D01*
X007344Y015481D01*
X007384Y015441D01*
X007426Y015403D01*
X007471Y015369D01*
X007518Y015338D01*
X007568Y015311D01*
X007619Y015286D01*
X007671Y015266D01*
X007725Y015249D01*
X007780Y015235D01*
X007835Y015226D01*
X007892Y015220D01*
X007948Y015218D01*
X002572Y023067D02*
X002776Y023270D01*
X002534Y023567D01*
X002636Y023815D02*
X003018Y023854D01*
X003018Y024142D01*
X002636Y024180D01*
X002534Y024428D02*
X002776Y024725D01*
X002572Y024928D01*
X002276Y024686D01*
X002028Y024789D02*
X001989Y025170D01*
X001701Y025170D01*
X001663Y024789D01*
X001415Y024686D02*
X001118Y024928D01*
X000915Y024725D01*
X001157Y024428D01*
X001054Y024180D02*
X000673Y024142D01*
X000673Y023854D01*
X001054Y023815D01*
X001157Y023567D02*
X000915Y023270D01*
X001118Y023067D01*
X001415Y023309D01*
X001535Y023247D02*
X001704Y023657D01*
X001987Y023657D02*
X002156Y023247D01*
X002276Y023309D02*
X002572Y023067D01*
X001156Y023568D02*
X001129Y023614D01*
X001106Y023663D01*
X001085Y023712D01*
X001068Y023763D01*
X001054Y023815D01*
X001415Y023309D02*
X001453Y023287D01*
X001493Y023266D01*
X001534Y023248D01*
X001415Y024687D02*
X001461Y024714D01*
X001510Y024737D01*
X001559Y024758D01*
X001610Y024775D01*
X001662Y024789D01*
X001156Y024428D02*
X001129Y024382D01*
X001106Y024333D01*
X001085Y024284D01*
X001068Y024233D01*
X001054Y024181D01*
X001476Y023998D02*
X001478Y023962D01*
X001483Y023926D01*
X001492Y023891D01*
X001504Y023857D01*
X001520Y023824D01*
X001538Y023793D01*
X001560Y023764D01*
X001584Y023737D01*
X001611Y023713D01*
X001640Y023691D01*
X001671Y023673D01*
X001704Y023657D01*
X002534Y023568D02*
X002561Y023614D01*
X002584Y023663D01*
X002605Y023712D01*
X002622Y023763D01*
X002636Y023815D01*
X002275Y023309D02*
X002237Y023287D01*
X002197Y023266D01*
X002156Y023248D01*
X002275Y024687D02*
X002229Y024714D01*
X002180Y024737D01*
X002131Y024758D01*
X002080Y024775D01*
X002028Y024789D01*
X002534Y024428D02*
X002561Y024382D01*
X002584Y024333D01*
X002605Y024284D01*
X002622Y024233D01*
X002636Y024181D01*
X001986Y023657D02*
X002020Y023673D01*
X002053Y023693D01*
X002083Y023716D01*
X002111Y023742D01*
X002136Y023771D01*
X002157Y023802D01*
X002176Y023835D01*
X002191Y023870D01*
X002202Y023906D01*
X002210Y023943D01*
X002214Y023981D01*
X002213Y024019D01*
X002209Y024056D01*
X002201Y024094D01*
X002190Y024130D01*
X002174Y024164D01*
X002156Y024197D01*
X002133Y024228D01*
X002108Y024256D01*
X002080Y024282D01*
X002050Y024305D01*
X002017Y024324D01*
X001983Y024340D01*
X001947Y024353D01*
X001910Y024361D01*
X001873Y024366D01*
X001835Y024367D01*
X001797Y024364D01*
X001760Y024357D01*
X001723Y024346D01*
X001688Y024332D01*
X001655Y024314D01*
X001623Y024293D01*
X001594Y024268D01*
X001568Y024241D01*
X001544Y024212D01*
X001524Y024180D01*
X001507Y024146D01*
X001493Y024110D01*
X001484Y024073D01*
X001478Y024036D01*
X001476Y023998D01*
X009050Y004785D02*
X009050Y002635D01*
X009052Y002593D01*
X009057Y002551D01*
X009066Y002510D01*
X009079Y002469D01*
X009095Y002430D01*
X009115Y002393D01*
X009138Y002357D01*
X009163Y002324D01*
X009192Y002293D01*
X009223Y002264D01*
X009256Y002239D01*
X009292Y002216D01*
X009329Y002196D01*
X009368Y002180D01*
X009409Y002167D01*
X009450Y002158D01*
X009492Y002153D01*
X009534Y002151D01*
D20*
X012987Y007029D02*
X013656Y007029D01*
X013709Y007031D01*
X013762Y007037D01*
X013815Y007046D01*
X013867Y007059D01*
X013917Y007076D01*
X013967Y007097D01*
X014014Y007120D01*
X014060Y007148D01*
X014104Y007178D01*
X014146Y007212D01*
X014185Y007248D01*
X014221Y007287D01*
X014255Y007329D01*
X014285Y007373D01*
X014313Y007419D01*
X014336Y007466D01*
X014357Y007516D01*
X014374Y007566D01*
X014387Y007618D01*
X014396Y007671D01*
X014402Y007724D01*
X014404Y007777D01*
X014406Y007826D01*
X014412Y007874D01*
X014421Y007922D01*
X014434Y007969D01*
X014451Y008015D01*
X014472Y008059D01*
X014496Y008102D01*
X014523Y008143D01*
X014553Y008181D01*
X014586Y008217D01*
X014622Y008250D01*
X014660Y008280D01*
X014701Y008307D01*
X014744Y008331D01*
X014788Y008352D01*
X014834Y008369D01*
X014881Y008382D01*
X014929Y008391D01*
X014977Y008397D01*
X015026Y008399D01*
X016125Y008399D01*
X016294Y010292D02*
X016294Y017029D01*
X016294Y017030D02*
X016304Y017031D01*
X016314Y017035D01*
X016322Y017041D01*
X016328Y017050D01*
X016332Y017059D01*
X016333Y017069D01*
X016333Y017738D01*
X016318Y017740D01*
X016303Y017744D01*
X016289Y017751D01*
X016277Y017761D01*
X016267Y017773D01*
X016260Y017787D01*
X016256Y017802D01*
X016254Y017817D01*
X016255Y017817D02*
X016255Y022974D01*
X016727Y022974D02*
X016725Y023024D01*
X016720Y023074D01*
X016710Y023123D01*
X016697Y023171D01*
X016681Y023218D01*
X016661Y023264D01*
X016637Y023309D01*
X016611Y023351D01*
X016581Y023391D01*
X016548Y023429D01*
X016513Y023464D01*
X016475Y023497D01*
X016435Y023527D01*
X016393Y023553D01*
X016348Y023577D01*
X016302Y023597D01*
X016255Y023613D01*
X016207Y023626D01*
X016158Y023636D01*
X016108Y023641D01*
X016058Y023643D01*
X016727Y022974D02*
X016727Y011124D01*
X016294Y010292D02*
X016296Y010275D01*
X016300Y010258D01*
X016307Y010243D01*
X016317Y010228D01*
X016329Y010216D01*
X016344Y010206D01*
X016359Y010199D01*
X016376Y010195D01*
X016393Y010193D01*
X012987Y007029D02*
X012923Y007031D01*
X012859Y007036D01*
X012796Y007046D01*
X012733Y007059D01*
X012671Y007075D01*
X012610Y007095D01*
X012551Y007119D01*
X012492Y007146D01*
X012436Y007177D01*
X012381Y007210D01*
X012329Y007247D01*
X012279Y007287D01*
X012231Y007329D01*
X012185Y007375D01*
X012143Y007423D01*
X012103Y007473D01*
X012066Y007525D01*
X012033Y007580D01*
X012002Y007636D01*
X011975Y007695D01*
X011951Y007754D01*
X011931Y007815D01*
X011915Y007877D01*
X011902Y007940D01*
X011892Y008003D01*
X011887Y008067D01*
X011885Y008131D01*
X003164Y005041D02*
X002818Y005041D01*
X002818Y003171D01*
X013105Y021557D02*
X013125Y021559D01*
X013145Y021564D01*
X013164Y021573D01*
X013181Y021585D01*
X013195Y021599D01*
X013207Y021616D01*
X013216Y021635D01*
X013221Y021655D01*
X013223Y021675D01*
X013223Y024824D01*
X013224Y024824D02*
X013222Y024863D01*
X013216Y024902D01*
X013207Y024940D01*
X013194Y024976D01*
X013177Y025012D01*
X013157Y025045D01*
X013134Y025076D01*
X013107Y025105D01*
X013078Y025132D01*
X013047Y025155D01*
X013014Y025175D01*
X012978Y025192D01*
X012942Y025205D01*
X012904Y025214D01*
X012865Y025220D01*
X012826Y025222D01*
X012534Y025222D01*
D21*
X013105Y021557D03*
X016058Y023643D03*
X006058Y026557D03*
D22*
X011168Y012947D02*
X011177Y012946D01*
X011184Y012942D01*
X011191Y012935D01*
X011195Y012928D01*
X011196Y012919D01*
X011196Y009710D01*
X003538Y008525D02*
X003538Y008053D01*
X003538Y006084D01*
X003536Y006047D01*
X003531Y006011D01*
X003522Y005975D01*
X003510Y005941D01*
X003494Y005908D01*
X003475Y005876D01*
X003453Y005847D01*
X003428Y005820D01*
X003401Y005795D01*
X003372Y005773D01*
X003340Y005754D01*
X003307Y005738D01*
X003273Y005726D01*
X003237Y005717D01*
X003201Y005712D01*
X003164Y005710D01*
X003538Y008525D02*
X003536Y008558D01*
X003531Y008590D01*
X003523Y008622D01*
X003511Y008653D01*
X003496Y008683D01*
X003478Y008710D01*
X003457Y008736D01*
X003434Y008759D01*
X003408Y008780D01*
X003381Y008798D01*
X003351Y008813D01*
X003320Y008825D01*
X003288Y008833D01*
X003256Y008838D01*
X003223Y008840D01*
X003186Y008842D01*
X003150Y008847D01*
X003114Y008856D01*
X003080Y008868D01*
X003047Y008884D01*
X003015Y008903D01*
X002986Y008925D01*
X002959Y008950D01*
X002934Y008977D01*
X002912Y009006D01*
X002893Y009038D01*
X002877Y009071D01*
X002865Y009105D01*
X002856Y009141D01*
X002851Y009177D01*
X002849Y009214D01*
X002849Y009600D01*
X002849Y010269D02*
X002849Y012128D01*
X002851Y012184D01*
X002857Y012240D01*
X002866Y012295D01*
X002879Y012349D01*
X002896Y012402D01*
X002917Y012454D01*
X002941Y012505D01*
X002968Y012554D01*
X002999Y012600D01*
X003033Y012645D01*
X003069Y012687D01*
X003109Y012727D01*
X003151Y012763D01*
X003196Y012797D01*
X003242Y012828D01*
X003291Y012855D01*
X003342Y012879D01*
X003394Y012900D01*
X003447Y012917D01*
X003501Y012930D01*
X003556Y012939D01*
X003612Y012945D01*
X003668Y012947D01*
D23*
X001373Y001281D03*
X016727Y001281D03*
X016727Y026478D03*
X001373Y026478D03*
D24*
X011196Y009041D02*
X011196Y007561D01*
X011198Y007486D01*
X011204Y007411D01*
X011214Y007336D01*
X011227Y007262D01*
X011245Y007189D01*
X011266Y007117D01*
X011291Y007046D01*
X011320Y006977D01*
X011353Y006909D01*
X011389Y006843D01*
X011428Y006778D01*
X011470Y006716D01*
X011516Y006657D01*
X011565Y006599D01*
X011617Y006545D01*
X011671Y006493D01*
X011729Y006444D01*
X011788Y006398D01*
X011850Y006356D01*
X011914Y006317D01*
X011981Y006281D01*
X012049Y006248D01*
X012118Y006219D01*
X012189Y006194D01*
X012261Y006173D01*
X012334Y006155D01*
X012408Y006142D01*
X012483Y006132D01*
X012558Y006126D01*
X012633Y006124D01*
X014247Y006124D01*
X014293Y006126D01*
X014338Y006132D01*
X014382Y006141D01*
X014426Y006154D01*
X014468Y006170D01*
X014509Y006190D01*
X014548Y006214D01*
X014585Y006240D01*
X014620Y006270D01*
X014652Y006302D01*
X014682Y006337D01*
X014708Y006374D01*
X014732Y006413D01*
X014752Y006454D01*
X014768Y006496D01*
X014781Y006540D01*
X014790Y006584D01*
X014796Y006629D01*
X014798Y006675D01*
X014800Y006727D01*
X014805Y006778D01*
X014815Y006829D01*
X014827Y006879D01*
X014844Y006928D01*
X014863Y006976D01*
X014887Y007022D01*
X014913Y007066D01*
X014942Y007109D01*
X014975Y007149D01*
X015010Y007187D01*
X015048Y007222D01*
X015088Y007255D01*
X015131Y007284D01*
X015175Y007310D01*
X015221Y007334D01*
X015269Y007353D01*
X015318Y007370D01*
X015368Y007382D01*
X015419Y007392D01*
X015470Y007397D01*
X015522Y007399D01*
X016125Y007399D01*
X016125Y008399D02*
X016125Y008939D01*
X016123Y008984D01*
X016118Y009028D01*
X016109Y009072D01*
X016097Y009115D01*
X016082Y009158D01*
X016063Y009198D01*
X016041Y009237D01*
X016016Y009275D01*
X015988Y009310D01*
X015958Y009343D01*
X015925Y009373D01*
X015890Y009401D01*
X015852Y009426D01*
X015813Y009448D01*
X015773Y009467D01*
X015730Y009482D01*
X015687Y009494D01*
X015643Y009503D01*
X015599Y009508D01*
X015554Y009510D01*
X002711Y007620D02*
X002711Y007383D01*
X002711Y007620D02*
X002709Y007674D01*
X002704Y007727D01*
X002695Y007780D01*
X002682Y007832D01*
X002666Y007884D01*
X002646Y007934D01*
X002623Y007982D01*
X002596Y008029D01*
X002567Y008074D01*
X002534Y008117D01*
X002499Y008157D01*
X002461Y008195D01*
X002421Y008230D01*
X002378Y008263D01*
X002333Y008292D01*
X002286Y008319D01*
X002238Y008342D01*
X002188Y008362D01*
X002136Y008378D01*
X002084Y008391D01*
X002031Y008400D01*
X001978Y008405D01*
X001924Y008407D01*
X001396Y008407D01*
X001392Y008406D01*
X001389Y008403D01*
X001388Y008399D01*
X002711Y007383D02*
X002709Y007321D01*
X002703Y007260D01*
X002694Y007199D01*
X002680Y007138D01*
X002663Y007079D01*
X002642Y007021D01*
X002617Y006964D01*
X002589Y006909D01*
X002558Y006856D01*
X002523Y006805D01*
X002485Y006756D01*
X002444Y006709D01*
X002401Y006666D01*
X002354Y006625D01*
X002305Y006587D01*
X002254Y006552D01*
X002201Y006521D01*
X002146Y006493D01*
X002089Y006468D01*
X002031Y006447D01*
X001972Y006430D01*
X001911Y006416D01*
X001850Y006407D01*
X001789Y006401D01*
X001727Y006399D01*
X001389Y006399D01*
M02*
