G75*
G70*
%OFA0B0*%
%FSLAX24Y24*%
%IPPOS*%
%LPD*%
%AMOC8*
5,1,8,0,0,1.08239X$1,22.5*
%
%ADD10C,0.0000*%
%ADD11C,0.0040*%
D10*
X000192Y000100D02*
X000192Y027659D01*
X017908Y027659D01*
X017908Y000100D01*
X000192Y000100D01*
D11*
X002397Y003850D02*
X002320Y003927D01*
X002320Y004081D01*
X002397Y004157D01*
X002704Y004157D01*
X002780Y004081D01*
X002780Y003927D01*
X002704Y003850D01*
X002397Y003850D01*
X002473Y004004D02*
X002320Y004157D01*
X002320Y004311D02*
X002320Y004618D01*
X002320Y004771D02*
X002320Y005078D01*
X002261Y005114D02*
X002568Y005114D01*
X002415Y005114D02*
X002415Y005575D01*
X002568Y005421D01*
X002722Y005114D02*
X003029Y005114D01*
X003182Y005114D02*
X003336Y005268D01*
X003259Y005268D02*
X003489Y005268D01*
X003489Y005114D02*
X003489Y005575D01*
X003259Y005575D01*
X003182Y005498D01*
X003182Y005345D01*
X003259Y005268D01*
X003029Y005421D02*
X002875Y005575D01*
X002875Y005114D01*
X002780Y004925D02*
X002320Y004925D01*
X002320Y004464D02*
X002780Y004464D01*
X002627Y004311D01*
X002627Y004771D02*
X002780Y004925D01*
X005561Y007960D02*
X006021Y007960D01*
X006021Y008190D01*
X005944Y008267D01*
X005791Y008267D01*
X005714Y008190D01*
X005714Y007960D01*
X005714Y008114D02*
X005561Y008267D01*
X005561Y008421D02*
X005867Y008727D01*
X005944Y008727D01*
X006021Y008651D01*
X006021Y008497D01*
X005944Y008421D01*
X005561Y008421D02*
X005561Y008727D01*
X005499Y010701D02*
X005652Y010701D01*
X005729Y010777D01*
X005729Y011084D01*
X005652Y011161D01*
X005499Y011161D01*
X005422Y011084D01*
X005422Y010777D01*
X005499Y010701D01*
X005422Y010701D02*
X005575Y010854D01*
X005268Y010701D02*
X004961Y011008D01*
X004961Y011084D01*
X005038Y011161D01*
X005192Y011161D01*
X005268Y011084D01*
X005268Y010701D02*
X004961Y010701D01*
X006430Y011092D02*
X006507Y011016D01*
X006660Y011016D01*
X006737Y011092D01*
X006890Y011092D02*
X006967Y011016D01*
X007121Y011016D01*
X007197Y011092D01*
X007197Y011399D01*
X007121Y011476D01*
X006967Y011476D01*
X006890Y011399D01*
X006890Y011092D01*
X006890Y011016D02*
X007044Y011169D01*
X006737Y011399D02*
X006660Y011476D01*
X006507Y011476D01*
X006430Y011399D01*
X006430Y011323D01*
X006507Y011246D01*
X006430Y011169D01*
X006430Y011092D01*
X006507Y011246D02*
X006583Y011246D01*
X007700Y012433D02*
X007700Y012893D01*
X007930Y012663D01*
X007623Y012663D01*
X008083Y012510D02*
X008160Y012433D01*
X008314Y012433D01*
X008390Y012510D01*
X008390Y012817D01*
X008314Y012893D01*
X008160Y012893D01*
X008083Y012817D01*
X008083Y012510D01*
X008083Y012433D02*
X008237Y012586D01*
X009226Y011985D02*
X009226Y011832D01*
X009303Y011755D01*
X009456Y011755D02*
X009533Y011909D01*
X009533Y011985D01*
X009456Y012062D01*
X009303Y012062D01*
X009226Y011985D01*
X009456Y011755D02*
X009686Y011755D01*
X009686Y012062D01*
X009610Y011602D02*
X009456Y011602D01*
X009379Y011525D01*
X009379Y011295D01*
X009226Y011295D02*
X009686Y011295D01*
X009686Y011525D01*
X009610Y011602D01*
X009379Y011448D02*
X009226Y011602D01*
X008741Y010166D02*
X008281Y010166D01*
X008511Y010243D02*
X008511Y009936D01*
X008741Y010166D01*
X008665Y009783D02*
X008511Y009783D01*
X008434Y009706D01*
X008434Y009476D01*
X008281Y009476D02*
X008741Y009476D01*
X008741Y009706D01*
X008665Y009783D01*
X008434Y009629D02*
X008281Y009783D01*
X007442Y008899D02*
X007442Y008745D01*
X007365Y008669D01*
X007365Y008515D02*
X007212Y008515D01*
X007135Y008438D01*
X007135Y008208D01*
X006982Y008208D02*
X007442Y008208D01*
X007442Y008438D01*
X007365Y008515D01*
X007135Y008362D02*
X006982Y008515D01*
X007059Y008669D02*
X006982Y008745D01*
X006982Y008899D01*
X007059Y008976D01*
X007135Y008976D01*
X007212Y008899D01*
X007212Y008822D01*
X007212Y008899D02*
X007289Y008976D01*
X007365Y008976D01*
X007442Y008899D01*
X010238Y011413D02*
X010698Y011413D01*
X010698Y011643D01*
X010621Y011720D01*
X010468Y011720D01*
X010391Y011643D01*
X010391Y011413D01*
X010391Y011566D02*
X010238Y011720D01*
X010238Y011873D02*
X010238Y012180D01*
X010238Y012027D02*
X010698Y012027D01*
X010545Y011873D01*
X010621Y012334D02*
X010698Y012410D01*
X010698Y012564D01*
X010621Y012641D01*
X010545Y012641D01*
X010468Y012564D01*
X010391Y012641D01*
X010314Y012641D01*
X010238Y012564D01*
X010238Y012410D01*
X010314Y012334D01*
X010468Y012487D02*
X010468Y012564D01*
X010432Y014394D02*
X010278Y014394D01*
X010201Y014470D01*
X010201Y014777D01*
X010278Y014854D01*
X010432Y014854D01*
X010508Y014777D01*
X010508Y014470D01*
X010432Y014394D01*
X010355Y014547D02*
X010201Y014394D01*
X010048Y014394D02*
X009741Y014394D01*
X009894Y014394D02*
X009894Y014854D01*
X010048Y014701D01*
X009588Y014777D02*
X009511Y014854D01*
X009357Y014854D01*
X009281Y014777D01*
X009281Y014701D01*
X009357Y014624D01*
X009281Y014547D01*
X009281Y014470D01*
X009357Y014394D01*
X009511Y014394D01*
X009588Y014470D01*
X009434Y014624D02*
X009357Y014624D01*
X009186Y014730D02*
X009186Y014423D01*
X009109Y014346D01*
X008955Y014346D01*
X008879Y014423D01*
X008879Y014730D01*
X008955Y014807D01*
X009109Y014807D01*
X009186Y014730D01*
X009032Y014500D02*
X008879Y014346D01*
X008725Y014423D02*
X008648Y014346D01*
X008495Y014346D01*
X008418Y014423D01*
X008418Y014577D01*
X008495Y014653D01*
X008572Y014653D01*
X008725Y014577D01*
X008725Y014807D01*
X008418Y014807D01*
X007974Y015236D02*
X008051Y015313D01*
X008051Y015620D01*
X007974Y015697D01*
X007821Y015697D01*
X007744Y015620D01*
X007744Y015313D01*
X007821Y015236D01*
X007974Y015236D01*
X007898Y015390D02*
X007744Y015236D01*
X007591Y015313D02*
X007514Y015236D01*
X007361Y015236D01*
X007284Y015313D01*
X007284Y015390D01*
X007361Y015466D01*
X007591Y015466D01*
X007591Y015313D01*
X007591Y015466D02*
X007437Y015620D01*
X007284Y015697D01*
X006819Y015825D02*
X006742Y015748D01*
X006589Y015748D01*
X006512Y015825D01*
X006512Y016132D01*
X006589Y016208D01*
X006742Y016208D01*
X006819Y016132D01*
X006819Y015825D01*
X006665Y015901D02*
X006512Y015748D01*
X006359Y015748D02*
X006359Y015825D01*
X006052Y016132D01*
X006052Y016208D01*
X006359Y016208D01*
X005429Y016100D02*
X005352Y016024D01*
X005199Y016024D01*
X005122Y016100D01*
X005122Y016407D01*
X005199Y016484D01*
X005352Y016484D01*
X005429Y016407D01*
X005429Y016100D01*
X005276Y016177D02*
X005122Y016024D01*
X004969Y016100D02*
X004969Y016177D01*
X004892Y016254D01*
X004739Y016254D01*
X004662Y016177D01*
X004662Y016100D01*
X004739Y016024D01*
X004892Y016024D01*
X004969Y016100D01*
X004892Y016254D02*
X004969Y016330D01*
X004969Y016407D01*
X004892Y016484D01*
X004739Y016484D01*
X004662Y016407D01*
X004662Y016330D01*
X004739Y016254D01*
X003764Y016368D02*
X003764Y016061D01*
X003687Y015984D01*
X003534Y015984D01*
X003457Y016061D01*
X003457Y016368D01*
X003534Y016445D01*
X003687Y016445D01*
X003764Y016368D01*
X003610Y016138D02*
X003457Y015984D01*
X003303Y016061D02*
X003227Y015984D01*
X003073Y015984D01*
X002996Y016061D01*
X002996Y016368D01*
X003073Y016445D01*
X003227Y016445D01*
X003303Y016368D01*
X003303Y016291D01*
X003227Y016214D01*
X002996Y016214D01*
X002502Y015531D02*
X002348Y015531D01*
X002272Y015454D01*
X002272Y015148D01*
X002348Y015071D01*
X002502Y015071D01*
X002579Y015148D01*
X002579Y015454D01*
X002502Y015531D01*
X002425Y015224D02*
X002272Y015071D01*
X002118Y015071D02*
X001811Y015071D01*
X001965Y015071D02*
X001965Y015531D01*
X002118Y015378D01*
X001658Y015454D02*
X001658Y015148D01*
X001351Y015454D01*
X001351Y015148D01*
X001428Y015071D01*
X001581Y015071D01*
X001658Y015148D01*
X001658Y015454D02*
X001581Y015531D01*
X001428Y015531D01*
X001351Y015454D01*
X001375Y017178D02*
X001375Y017408D01*
X001451Y017485D01*
X001605Y017485D01*
X001682Y017408D01*
X001682Y017178D01*
X001221Y017178D01*
X001375Y017332D02*
X001221Y017485D01*
X001221Y017639D02*
X001221Y017946D01*
X001221Y017792D02*
X001682Y017792D01*
X001528Y017639D01*
X001605Y018099D02*
X001298Y018099D01*
X001605Y018406D01*
X001298Y018406D01*
X001221Y018329D01*
X001221Y018176D01*
X001298Y018099D01*
X001605Y018099D02*
X001682Y018176D01*
X001682Y018329D01*
X001605Y018406D01*
X002784Y018662D02*
X003245Y018662D01*
X003245Y018892D01*
X003168Y018969D01*
X003014Y018969D01*
X002938Y018892D01*
X002938Y018662D01*
X002938Y018816D02*
X002784Y018969D01*
X002861Y019123D02*
X002784Y019199D01*
X002784Y019353D01*
X002861Y019430D01*
X003168Y019430D01*
X003245Y019353D01*
X003245Y019199D01*
X003168Y019123D01*
X003091Y019123D01*
X003014Y019199D01*
X003014Y019430D01*
X004438Y019479D02*
X004438Y019325D01*
X004514Y019249D01*
X004591Y019249D01*
X004668Y019325D01*
X004668Y019479D01*
X004591Y019556D01*
X004514Y019556D01*
X004438Y019479D01*
X004668Y019479D02*
X004745Y019556D01*
X004821Y019556D01*
X004898Y019479D01*
X004898Y019325D01*
X004821Y019249D01*
X004745Y019249D01*
X004668Y019325D01*
X004668Y019095D02*
X004591Y019018D01*
X004591Y018788D01*
X004438Y018788D02*
X004898Y018788D01*
X004898Y019018D01*
X004821Y019095D01*
X004668Y019095D01*
X004591Y018942D02*
X004438Y019095D01*
X005816Y018863D02*
X005892Y018863D01*
X006199Y019170D01*
X006276Y019170D01*
X006276Y018863D01*
X006199Y018709D02*
X006046Y018709D01*
X005969Y018633D01*
X005969Y018402D01*
X005816Y018402D02*
X006276Y018402D01*
X006276Y018633D01*
X006199Y018709D01*
X005969Y018556D02*
X005816Y018709D01*
X007233Y018471D02*
X007233Y018317D01*
X007310Y018241D01*
X007463Y018241D01*
X007463Y018471D01*
X007386Y018548D01*
X007310Y018548D01*
X007233Y018471D01*
X007233Y018087D02*
X007386Y017934D01*
X007386Y018011D02*
X007386Y017780D01*
X007233Y017780D02*
X007693Y017780D01*
X007693Y018011D01*
X007617Y018087D01*
X007463Y018087D01*
X007386Y018011D01*
X007463Y018241D02*
X007617Y018394D01*
X007693Y018548D01*
X009481Y018438D02*
X009788Y018745D01*
X009865Y018745D01*
X009941Y018668D01*
X009941Y018515D01*
X009865Y018438D01*
X009865Y018284D02*
X009711Y018284D01*
X009634Y018208D01*
X009634Y017977D01*
X009481Y017977D02*
X009941Y017977D01*
X009941Y018208D01*
X009865Y018284D01*
X009634Y018131D02*
X009481Y018284D01*
X009481Y018438D02*
X009481Y018745D01*
X009481Y018898D02*
X009788Y019205D01*
X009865Y019205D01*
X009941Y019128D01*
X009941Y018975D01*
X009865Y018898D01*
X009481Y018898D02*
X009481Y019205D01*
X010898Y019217D02*
X011359Y019217D01*
X011205Y019064D01*
X011205Y018910D02*
X011282Y018910D01*
X011359Y018833D01*
X011359Y018680D01*
X011282Y018603D01*
X011282Y018450D02*
X011129Y018450D01*
X011052Y018373D01*
X011052Y018143D01*
X011052Y018296D02*
X010898Y018450D01*
X010898Y018603D02*
X011205Y018910D01*
X010898Y018910D02*
X010898Y018603D01*
X010898Y019064D02*
X010898Y019370D01*
X011282Y018450D02*
X011359Y018373D01*
X011359Y018143D01*
X010898Y018143D01*
X011268Y016539D02*
X011268Y016079D01*
X011421Y016079D02*
X011115Y016079D01*
X010953Y016029D02*
X010953Y015722D01*
X010876Y015646D01*
X010722Y015646D01*
X010646Y015722D01*
X010646Y016029D01*
X010722Y016106D01*
X010876Y016106D01*
X010953Y016029D01*
X010799Y015799D02*
X010646Y015646D01*
X010492Y015646D02*
X010185Y015953D01*
X010185Y016029D01*
X010262Y016106D01*
X010415Y016106D01*
X010492Y016029D01*
X010492Y015646D02*
X010185Y015646D01*
X010032Y015646D02*
X009725Y015953D01*
X009725Y016029D01*
X009802Y016106D01*
X009955Y016106D01*
X010032Y016029D01*
X010032Y015646D02*
X009725Y015646D01*
X011268Y016539D02*
X011421Y016386D01*
X011575Y016386D02*
X011575Y016462D01*
X011652Y016539D01*
X011805Y016539D01*
X011882Y016462D01*
X012035Y016462D02*
X012035Y016155D01*
X012112Y016079D01*
X012266Y016079D01*
X012342Y016155D01*
X012342Y016462D01*
X012266Y016539D01*
X012112Y016539D01*
X012035Y016462D01*
X012189Y016232D02*
X012035Y016079D01*
X011882Y016079D02*
X011575Y016386D01*
X011575Y016079D02*
X011882Y016079D01*
X012485Y016242D02*
X012561Y016165D01*
X012715Y016165D01*
X012792Y016242D01*
X012485Y016549D01*
X012485Y016242D01*
X012792Y016242D02*
X012792Y016549D01*
X012715Y016626D01*
X012561Y016626D01*
X012485Y016549D01*
X012945Y016549D02*
X013022Y016626D01*
X013175Y016626D01*
X013252Y016549D01*
X013405Y016549D02*
X013405Y016242D01*
X013482Y016165D01*
X013636Y016165D01*
X013712Y016242D01*
X013712Y016549D01*
X013636Y016626D01*
X013482Y016626D01*
X013405Y016549D01*
X013559Y016319D02*
X013405Y016165D01*
X013252Y016165D02*
X012945Y016472D01*
X012945Y016549D01*
X012945Y016165D02*
X013252Y016165D01*
X014386Y016199D02*
X014616Y016199D01*
X014693Y016275D01*
X014693Y016352D01*
X014616Y016429D01*
X014463Y016429D01*
X014386Y016352D01*
X014386Y016045D01*
X014463Y015968D01*
X014616Y015968D01*
X014693Y016045D01*
X014714Y016091D02*
X014637Y016014D01*
X014637Y015860D01*
X014714Y015784D01*
X014790Y015784D01*
X014867Y015860D01*
X014867Y016014D01*
X014790Y016091D01*
X014714Y016091D01*
X014637Y016014D02*
X014560Y016091D01*
X014483Y016091D01*
X014407Y016014D01*
X014407Y015860D01*
X014483Y015784D01*
X014560Y015784D01*
X014637Y015860D01*
X014847Y015968D02*
X015154Y015968D01*
X015307Y015968D02*
X015460Y016122D01*
X015307Y016045D02*
X015384Y015968D01*
X015537Y015968D01*
X015614Y016045D01*
X015614Y016352D01*
X015537Y016429D01*
X015384Y016429D01*
X015307Y016352D01*
X015307Y016045D01*
X015154Y016275D02*
X015000Y016429D01*
X015000Y015968D01*
X014867Y015477D02*
X014714Y015323D01*
X014790Y015170D02*
X014483Y015170D01*
X014407Y015093D01*
X014407Y014940D01*
X014483Y014863D01*
X014790Y014863D01*
X014867Y014940D01*
X014867Y015093D01*
X014790Y015170D01*
X014560Y015016D02*
X014407Y015170D01*
X014407Y015323D02*
X014407Y015630D01*
X014407Y015477D02*
X014867Y015477D01*
X015145Y014583D02*
X014838Y014276D01*
X014761Y014276D01*
X014761Y014122D02*
X014761Y013815D01*
X014761Y013662D02*
X014914Y013508D01*
X014761Y013432D02*
X014838Y013355D01*
X015145Y013355D01*
X015221Y013432D01*
X015221Y013585D01*
X015145Y013662D01*
X014838Y013662D01*
X014761Y013585D01*
X014761Y013432D01*
X014926Y013130D02*
X015080Y013053D01*
X015233Y012899D01*
X015003Y012899D01*
X014926Y012823D01*
X014926Y012746D01*
X015003Y012669D01*
X015156Y012669D01*
X015233Y012746D01*
X015233Y012899D01*
X015387Y012669D02*
X015694Y012669D01*
X015847Y012669D02*
X016001Y012823D01*
X016077Y012669D02*
X016154Y012746D01*
X016154Y013053D01*
X016077Y013130D01*
X015924Y013130D01*
X015847Y013053D01*
X015847Y012746D01*
X015924Y012669D01*
X016077Y012669D01*
X015694Y012976D02*
X015540Y013130D01*
X015540Y012669D01*
X015068Y013815D02*
X015221Y013969D01*
X014761Y013969D01*
X015221Y014276D02*
X015221Y014583D01*
X015145Y014583D01*
X016016Y016040D02*
X016477Y016040D01*
X016477Y016271D01*
X016400Y016347D01*
X016247Y016347D01*
X016170Y016271D01*
X016170Y016040D01*
X016170Y016194D02*
X016016Y016347D01*
X016016Y016501D02*
X016016Y016808D01*
X016016Y016654D02*
X016477Y016654D01*
X016323Y016501D01*
X016323Y016961D02*
X016400Y016961D01*
X016477Y017038D01*
X016477Y017191D01*
X016400Y017268D01*
X016323Y017268D01*
X016247Y017191D01*
X016247Y017038D01*
X016323Y016961D01*
X016247Y017038D02*
X016170Y016961D01*
X016093Y016961D01*
X016016Y017038D01*
X016016Y017191D01*
X016093Y017268D01*
X016170Y017268D01*
X016247Y017191D01*
X014705Y017883D02*
X014705Y018113D01*
X014628Y018190D01*
X014475Y018190D01*
X014398Y018113D01*
X014398Y017883D01*
X014245Y017883D02*
X014705Y017883D01*
X014398Y018036D02*
X014245Y018190D01*
X014245Y018343D02*
X014245Y018650D01*
X014245Y018497D02*
X014705Y018497D01*
X014552Y018343D01*
X014552Y018804D02*
X014475Y018880D01*
X014475Y019111D01*
X014322Y019111D02*
X014628Y019111D01*
X014705Y019034D01*
X014705Y018880D01*
X014628Y018804D01*
X014552Y018804D01*
X014322Y018804D02*
X014245Y018880D01*
X014245Y019034D01*
X014322Y019111D01*
X012737Y018999D02*
X012737Y018845D01*
X012660Y018769D01*
X012660Y018615D02*
X012506Y018615D01*
X012430Y018538D01*
X012430Y018308D01*
X012430Y018462D02*
X012276Y018615D01*
X012276Y018769D02*
X012583Y019075D01*
X012660Y019075D01*
X012737Y018999D01*
X012660Y019229D02*
X012737Y019306D01*
X012737Y019459D01*
X012660Y019536D01*
X012353Y019229D01*
X012276Y019306D01*
X012276Y019459D01*
X012353Y019536D01*
X012660Y019536D01*
X012660Y019229D02*
X012353Y019229D01*
X012276Y019075D02*
X012276Y018769D01*
X012660Y018615D02*
X012737Y018538D01*
X012737Y018308D01*
X012276Y018308D01*
X013635Y011271D02*
X013942Y011271D01*
X013942Y011041D01*
X013788Y011118D01*
X013712Y011118D01*
X013635Y011041D01*
X013635Y010888D01*
X013712Y010811D01*
X013865Y010811D01*
X013942Y010888D01*
X014095Y010811D02*
X014402Y010811D01*
X014249Y010811D02*
X014249Y011271D01*
X014402Y011118D01*
X014556Y011195D02*
X014556Y010888D01*
X014632Y010811D01*
X014786Y010811D01*
X014863Y010888D01*
X014863Y011195D01*
X014786Y011271D01*
X014632Y011271D01*
X014556Y011195D01*
X014709Y010964D02*
X014556Y010811D01*
X015370Y010086D02*
X015524Y010009D01*
X015677Y009856D01*
X015447Y009856D01*
X015370Y009779D01*
X015370Y009702D01*
X015447Y009626D01*
X015600Y009626D01*
X015677Y009702D01*
X015677Y009856D01*
X015830Y009626D02*
X016137Y009626D01*
X015984Y009626D02*
X015984Y010086D01*
X016137Y009932D01*
X016291Y009856D02*
X016291Y010009D01*
X016368Y010086D01*
X016598Y010086D01*
X016598Y009626D01*
X016598Y009779D02*
X016368Y009779D01*
X016291Y009856D01*
X016444Y009779D02*
X016291Y009626D01*
X015076Y008944D02*
X015076Y008637D01*
X014846Y008637D01*
X014923Y008790D01*
X014923Y008867D01*
X014846Y008944D01*
X014692Y008944D01*
X014616Y008867D01*
X014616Y008714D01*
X014692Y008637D01*
X014616Y008483D02*
X014616Y008176D01*
X014616Y008023D02*
X014769Y007870D01*
X014769Y007946D02*
X014769Y007716D01*
X014616Y007716D02*
X015076Y007716D01*
X015076Y007946D01*
X014999Y008023D01*
X014846Y008023D01*
X014769Y007946D01*
X014923Y008176D02*
X015076Y008330D01*
X014616Y008330D01*
X013737Y008426D02*
X013507Y008196D01*
X013507Y008503D01*
X013277Y008426D02*
X013737Y008426D01*
X013737Y007889D02*
X013277Y007889D01*
X013277Y007736D02*
X013277Y008042D01*
X013277Y007582D02*
X013431Y007429D01*
X013431Y007505D02*
X013431Y007275D01*
X013277Y007275D02*
X013737Y007275D01*
X013737Y007505D01*
X013661Y007582D01*
X013507Y007582D01*
X013431Y007505D01*
X013584Y007736D02*
X013737Y007889D01*
X013357Y010339D02*
X013434Y010415D01*
X013434Y010722D01*
X013357Y010799D01*
X013203Y010799D01*
X013127Y010722D01*
X013127Y010415D01*
X013203Y010339D01*
X013357Y010339D01*
X013280Y010492D02*
X013127Y010339D01*
X012973Y010339D02*
X012666Y010339D01*
X012820Y010339D02*
X012820Y010799D01*
X012973Y010645D01*
X012513Y010569D02*
X012206Y010569D01*
X012283Y010339D02*
X012283Y010799D01*
X012513Y010569D01*
X017450Y011905D02*
X017911Y011905D01*
X017911Y012135D01*
X017834Y012212D01*
X017681Y012212D01*
X017604Y012135D01*
X017604Y011905D01*
X017604Y012059D02*
X017450Y012212D01*
X017450Y012365D02*
X017450Y012672D01*
X017450Y012519D02*
X017911Y012519D01*
X017757Y012365D01*
X017911Y012826D02*
X017911Y013133D01*
X017834Y013133D01*
X017527Y012826D01*
X017450Y012826D01*
X003064Y013274D02*
X003064Y013427D01*
X002987Y013504D01*
X002680Y013504D01*
X002603Y013427D01*
X002603Y013274D01*
X002680Y013197D01*
X002987Y013197D01*
X003064Y013274D01*
X002757Y013350D02*
X002603Y013504D01*
X002603Y013657D02*
X002603Y013964D01*
X002603Y013811D02*
X003064Y013811D01*
X002910Y013657D01*
X002399Y012424D02*
X001939Y012424D01*
X001939Y012271D02*
X001939Y012578D01*
X002245Y012271D02*
X002399Y012424D01*
X002322Y012117D02*
X002169Y012117D01*
X002092Y012041D01*
X002092Y011811D01*
X002092Y011964D02*
X001939Y012117D01*
X001939Y011811D02*
X002399Y011811D01*
X002399Y012041D01*
X002322Y012117D01*
M02*
