G75*
G70*
%OFA0B0*%
%FSLAX24Y24*%
%IPPOS*%
%LPD*%
%AMOC8*
5,1,8,0,0,1.08239X$1,22.5*
%
%ADD10C,0.0000*%
%ADD11C,0.0079*%
%ADD12C,0.0060*%
%ADD13C,0.0050*%
%ADD14C,0.0100*%
%ADD15C,0.0020*%
%ADD16C,0.0070*%
%ADD17C,0.0040*%
D10*
X000192Y000100D02*
X000192Y027659D01*
X017908Y027659D01*
X017908Y000100D01*
X000192Y000100D01*
D11*
X001118Y023067D02*
X000915Y023270D01*
X001157Y023567D01*
X001113Y023646D01*
X001079Y023729D01*
X001054Y023815D01*
X000673Y023854D01*
X000673Y024142D01*
X001054Y024180D01*
X001079Y024266D01*
X001113Y024349D01*
X001157Y024428D01*
X000915Y024725D01*
X001118Y024928D01*
X001415Y024686D01*
X001494Y024730D01*
X001576Y024764D01*
X001663Y024789D01*
X001701Y025170D01*
X001989Y025170D01*
X002028Y024789D01*
X002114Y024764D01*
X002197Y024730D01*
X002276Y024686D01*
X002572Y024928D01*
X002776Y024725D01*
X002534Y024428D01*
X002577Y024349D01*
X002611Y024266D01*
X002636Y024180D01*
X003018Y024142D01*
X003018Y023854D01*
X002636Y023815D01*
X002611Y023729D01*
X002577Y023646D01*
X002534Y023567D01*
X002776Y023270D01*
X002572Y023067D01*
X002276Y023309D01*
X002217Y023276D01*
X002156Y023247D01*
X001987Y023657D01*
X002050Y023691D01*
X002106Y023737D01*
X002152Y023793D01*
X002186Y023856D01*
X002207Y023926D01*
X002214Y023998D01*
X002207Y024070D01*
X002186Y024139D01*
X002152Y024203D01*
X002106Y024259D01*
X002050Y024305D01*
X001987Y024339D01*
X001917Y024360D01*
X001845Y024367D01*
X001773Y024360D01*
X001704Y024339D01*
X001640Y024305D01*
X001584Y024259D01*
X001538Y024203D01*
X001504Y024139D01*
X001483Y024070D01*
X001476Y023998D01*
X001483Y023926D01*
X001504Y023856D01*
X001538Y023793D01*
X001584Y023737D01*
X001640Y023691D01*
X001704Y023657D01*
X001535Y023247D01*
X001473Y023276D01*
X001415Y023309D01*
X001118Y023067D01*
X001067Y023118D02*
X001180Y023118D01*
X001275Y023195D02*
X000990Y023195D01*
X000916Y023272D02*
X001370Y023272D01*
X001481Y023272D02*
X001545Y023272D01*
X001577Y023349D02*
X000979Y023349D01*
X001042Y023427D02*
X001609Y023427D01*
X001641Y023504D02*
X001105Y023504D01*
X001149Y023581D02*
X001673Y023581D01*
X001701Y023658D02*
X001108Y023658D01*
X001077Y023736D02*
X001586Y023736D01*
X001528Y023813D02*
X001055Y023813D01*
X001060Y024199D02*
X001536Y024199D01*
X001499Y024122D02*
X000673Y024122D01*
X000673Y024045D02*
X001481Y024045D01*
X001479Y023967D02*
X000673Y023967D01*
X000673Y023890D02*
X001494Y023890D01*
X001606Y024276D02*
X001083Y024276D01*
X001116Y024353D02*
X001753Y024353D01*
X001938Y024353D02*
X002575Y024353D01*
X002607Y024276D02*
X002085Y024276D01*
X002154Y024199D02*
X002631Y024199D01*
X002536Y024431D02*
X001154Y024431D01*
X001091Y024508D02*
X002599Y024508D01*
X002662Y024585D02*
X001028Y024585D01*
X000965Y024662D02*
X002725Y024662D01*
X002761Y024740D02*
X002341Y024740D01*
X002436Y024817D02*
X002684Y024817D01*
X002607Y024894D02*
X002531Y024894D01*
X002172Y024740D02*
X001518Y024740D01*
X001665Y024817D02*
X002025Y024817D01*
X002017Y024894D02*
X001673Y024894D01*
X001681Y024971D02*
X002009Y024971D01*
X002002Y025049D02*
X001689Y025049D01*
X001697Y025126D02*
X001994Y025126D01*
X001349Y024740D02*
X000929Y024740D01*
X001007Y024817D02*
X001255Y024817D01*
X001160Y024894D02*
X001084Y024894D01*
X001990Y023658D02*
X002582Y023658D01*
X002613Y023736D02*
X002105Y023736D01*
X002163Y023813D02*
X002636Y023813D01*
X002541Y023581D02*
X002018Y023581D01*
X002050Y023504D02*
X002586Y023504D01*
X002649Y023427D02*
X002082Y023427D01*
X002114Y023349D02*
X002712Y023349D01*
X002775Y023272D02*
X002321Y023272D01*
X002209Y023272D02*
X002146Y023272D01*
X002416Y023195D02*
X002700Y023195D01*
X002623Y023118D02*
X002510Y023118D01*
X002196Y023890D02*
X003018Y023890D01*
X003018Y023967D02*
X002211Y023967D01*
X002210Y024045D02*
X003018Y024045D01*
X003018Y024122D02*
X002191Y024122D01*
D12*
X003017Y022130D02*
X003251Y022130D01*
X003134Y022130D02*
X003134Y021429D01*
X003017Y021429D02*
X003251Y021429D01*
X003484Y021429D02*
X003484Y022130D01*
X003951Y021429D01*
X003951Y022130D01*
X004183Y021780D02*
X004650Y021780D01*
X004883Y022013D02*
X005000Y022130D01*
X005233Y022130D01*
X005350Y022013D01*
X005350Y021896D01*
X004883Y021429D01*
X005350Y021429D01*
X005386Y020634D02*
X005386Y019933D01*
X005153Y019933D02*
X004803Y019933D01*
X004686Y020050D01*
X004686Y020283D01*
X004803Y020400D01*
X005153Y020400D01*
X005386Y020283D02*
X005503Y020400D01*
X005736Y020400D01*
X005853Y020283D01*
X005853Y019933D01*
X006086Y020050D02*
X006203Y019933D01*
X006436Y019933D01*
X006553Y020050D01*
X006786Y019933D02*
X007019Y019933D01*
X006902Y019933D02*
X006902Y020400D01*
X006786Y020400D01*
X006553Y020517D02*
X006436Y020634D01*
X006203Y020634D01*
X006086Y020517D01*
X006086Y020050D01*
X006902Y020634D02*
X006902Y020751D01*
X007252Y020400D02*
X007252Y019933D01*
X007252Y020167D02*
X007486Y020400D01*
X007603Y020400D01*
X007835Y020283D02*
X007835Y020050D01*
X007952Y019933D01*
X008302Y019933D01*
X008535Y020050D02*
X008652Y019933D01*
X009002Y019933D01*
X009002Y020400D01*
X009235Y020400D02*
X009352Y020400D01*
X009352Y019933D01*
X009468Y019933D02*
X009235Y019933D01*
X009818Y020050D02*
X009935Y019933D01*
X009818Y020050D02*
X009818Y020517D01*
X009701Y020400D02*
X009935Y020400D01*
X010168Y020283D02*
X010285Y020400D01*
X010635Y020400D01*
X010518Y020167D02*
X010285Y020167D01*
X010168Y020283D01*
X010168Y019933D02*
X010518Y019933D01*
X010635Y020050D01*
X010518Y020167D01*
X010868Y020050D02*
X010868Y019933D01*
X010985Y019933D01*
X010985Y020050D01*
X010868Y020050D01*
X011218Y020050D02*
X011334Y019933D01*
X011685Y019933D01*
X011918Y020050D02*
X011918Y020283D01*
X012034Y020400D01*
X012268Y020400D01*
X012385Y020283D01*
X012385Y020050D01*
X012268Y019933D01*
X012034Y019933D01*
X011918Y020050D01*
X011685Y020400D02*
X011334Y020400D01*
X011218Y020283D01*
X011218Y020050D01*
X011181Y021429D02*
X011181Y021896D01*
X011181Y021663D02*
X011415Y021896D01*
X011532Y021896D01*
X011764Y021780D02*
X011764Y021546D01*
X011881Y021429D01*
X012232Y021429D01*
X012232Y022130D01*
X012232Y021896D02*
X011881Y021896D01*
X011764Y021780D01*
X010949Y021780D02*
X010949Y021429D01*
X010598Y021429D01*
X010482Y021546D01*
X010598Y021663D01*
X010949Y021663D01*
X010949Y021780D02*
X010832Y021896D01*
X010598Y021896D01*
X010249Y021780D02*
X010249Y021546D01*
X010132Y021429D01*
X009898Y021429D01*
X009782Y021546D01*
X009782Y021780D01*
X009898Y021896D01*
X010132Y021896D01*
X010249Y021780D01*
X009549Y021896D02*
X009432Y021780D01*
X009082Y021780D01*
X009082Y022130D02*
X009082Y021429D01*
X009432Y021429D01*
X009549Y021546D01*
X009549Y021663D01*
X009432Y021780D01*
X009549Y021896D02*
X009549Y022013D01*
X009432Y022130D01*
X009082Y022130D01*
X008149Y021780D02*
X008149Y021546D01*
X008033Y021429D01*
X007682Y021429D01*
X007682Y021196D02*
X007682Y021896D01*
X008033Y021896D01*
X008149Y021780D01*
X007450Y021780D02*
X007450Y021546D01*
X007333Y021429D01*
X007099Y021429D01*
X006983Y021546D01*
X006983Y021780D01*
X007099Y021896D01*
X007333Y021896D01*
X007450Y021780D01*
X006750Y022130D02*
X006283Y022130D01*
X006516Y022130D02*
X006516Y021429D01*
X007835Y020283D02*
X007952Y020400D01*
X008302Y020400D01*
X008535Y020400D02*
X008535Y020050D01*
X009352Y020634D02*
X009352Y020751D01*
X012617Y020400D02*
X012617Y019933D01*
X012851Y019933D02*
X012851Y020283D01*
X012968Y020400D01*
X013084Y020283D01*
X013084Y019933D01*
X012851Y020283D02*
X012734Y020400D01*
X012617Y020400D01*
X013398Y021429D02*
X013164Y021896D01*
X013631Y021896D02*
X013398Y021429D01*
X013864Y021546D02*
X013981Y021429D01*
X014214Y021429D01*
X014331Y021546D01*
X014331Y021663D01*
X014214Y021780D01*
X014097Y021780D01*
X014214Y021780D02*
X014331Y021896D01*
X014331Y022013D01*
X014214Y022130D01*
X013981Y022130D01*
X013864Y022013D01*
X014710Y024579D02*
X014710Y025219D01*
X015030Y025219D01*
X015137Y025113D01*
X015137Y024899D01*
X015030Y024792D01*
X014710Y024792D01*
X014923Y024792D02*
X015137Y024579D01*
X015354Y024579D02*
X015568Y024579D01*
X015461Y024579D02*
X015461Y025006D01*
X015354Y025006D01*
X015461Y025219D02*
X015461Y025326D01*
X015784Y024899D02*
X015784Y024686D01*
X015891Y024579D01*
X016211Y024579D01*
X016211Y024472D02*
X016211Y025006D01*
X015891Y025006D01*
X015784Y024899D01*
X015998Y024365D02*
X016104Y024365D01*
X016211Y024472D01*
X016429Y024579D02*
X016429Y025219D01*
X016535Y025006D02*
X016429Y024899D01*
X016535Y025006D02*
X016749Y025006D01*
X016856Y024899D01*
X016856Y024579D01*
X017180Y024686D02*
X017180Y025113D01*
X017073Y025006D02*
X017287Y025006D01*
X017180Y024686D02*
X017287Y024579D01*
X016375Y008899D02*
X015875Y008899D01*
X015625Y008649D01*
X015625Y008149D01*
X015875Y007899D01*
X015625Y007649D01*
X015625Y007149D01*
X015875Y006899D01*
X015625Y006649D01*
X015625Y006149D01*
X015875Y005899D01*
X016375Y005899D01*
X016625Y006149D01*
X016625Y006649D01*
X016375Y006899D01*
X015875Y006899D01*
X016375Y006899D02*
X016625Y007149D01*
X016625Y007649D01*
X016375Y007899D01*
X015875Y007899D01*
X016375Y007899D02*
X016625Y008149D01*
X016625Y008649D01*
X016375Y008899D01*
X016252Y003290D02*
X016145Y003183D01*
X016145Y002650D01*
X016038Y002970D02*
X016252Y002970D01*
X016468Y003077D02*
X016682Y003077D01*
X016575Y003183D02*
X016575Y002756D01*
X016682Y002650D01*
X015821Y002863D02*
X015394Y002863D01*
X015394Y002756D02*
X015394Y002970D01*
X015501Y003077D01*
X015714Y003077D01*
X015821Y002970D01*
X015821Y002863D01*
X015714Y002650D02*
X015501Y002650D01*
X015394Y002756D01*
X015176Y002650D02*
X014749Y002650D01*
X014749Y003290D01*
X004454Y019933D02*
X004454Y020283D01*
X004337Y020400D01*
X003986Y020400D01*
X003986Y019933D01*
X003753Y019933D02*
X003520Y019933D01*
X003637Y019933D02*
X003637Y020400D01*
X003520Y020400D01*
X003287Y020517D02*
X003170Y020634D01*
X002937Y020634D01*
X002820Y020517D01*
X002820Y020050D01*
X002937Y019933D01*
X003170Y019933D01*
X003287Y020050D01*
X003637Y020634D02*
X003637Y020751D01*
X001639Y008899D02*
X001139Y008899D01*
X000889Y008649D01*
X000889Y008149D01*
X001139Y007899D01*
X000889Y007649D01*
X000889Y007149D01*
X001139Y006899D01*
X000889Y006649D01*
X000889Y006149D01*
X001139Y005899D01*
X001639Y005899D01*
X001889Y006149D01*
X001889Y006649D01*
X001639Y006899D01*
X001139Y006899D01*
X001639Y006899D02*
X001889Y007149D01*
X001889Y007649D01*
X001639Y007899D01*
X001139Y007899D01*
X001639Y007899D02*
X001889Y008149D01*
X001889Y008649D01*
X001639Y008899D01*
D13*
X002133Y008644D02*
X002584Y008644D01*
X002584Y008494D02*
X002584Y008794D01*
X002283Y008494D02*
X002133Y008644D01*
X002208Y008334D02*
X002358Y008334D01*
X002433Y008259D01*
X002433Y008033D01*
X002584Y008033D02*
X002133Y008033D01*
X002133Y008259D01*
X002208Y008334D01*
X002133Y007873D02*
X002133Y007723D01*
X002133Y007798D02*
X002509Y007798D01*
X002584Y007723D01*
X002584Y007648D01*
X002509Y007573D01*
X004034Y004501D02*
X004034Y004401D01*
X003534Y004401D01*
X003534Y000901D01*
X005234Y000901D01*
X005234Y000951D01*
X005834Y000951D01*
X005834Y000901D01*
X006384Y000901D01*
X006534Y001101D01*
X006734Y001101D01*
X007334Y001101D01*
X007534Y001101D01*
X007684Y000901D01*
X008234Y000901D01*
X008234Y001301D01*
X007334Y001301D01*
X007334Y001401D01*
X006734Y001401D01*
X004034Y001401D01*
X004034Y003901D01*
X014034Y003901D01*
X014034Y001401D01*
X012334Y001401D01*
X011734Y001401D01*
X009834Y001401D01*
X009834Y001301D01*
X009834Y000901D01*
X008234Y000901D01*
X008234Y001301D02*
X008234Y001401D01*
X007334Y001401D01*
X007334Y001301D02*
X007334Y001101D01*
X006734Y001101D02*
X006734Y001301D01*
X006734Y001401D01*
X006734Y001301D02*
X003934Y001301D01*
X004559Y001926D02*
X004860Y001926D01*
X004709Y001926D02*
X004709Y002377D01*
X004559Y002226D01*
X004559Y002926D02*
X004860Y003226D01*
X004860Y003302D01*
X004784Y003377D01*
X004634Y003377D01*
X004559Y003302D01*
X004559Y002926D02*
X004860Y002926D01*
X004534Y004401D02*
X008784Y004401D01*
X008784Y004501D01*
X009284Y004501D01*
X009284Y004401D01*
X013534Y004401D01*
X013534Y004501D01*
X014034Y004501D01*
X014034Y004401D01*
X014534Y004401D01*
X014534Y000901D01*
X012684Y000901D01*
X012534Y001101D01*
X012334Y001101D01*
X011734Y001101D01*
X011534Y001101D01*
X011384Y000901D01*
X009834Y000901D01*
X009420Y001151D02*
X009345Y001076D01*
X009195Y001076D01*
X009120Y001151D01*
X009120Y001301D01*
X009345Y001301D01*
X009420Y001226D01*
X009420Y001151D01*
X009120Y001301D02*
X009270Y001452D01*
X009420Y001527D01*
X009834Y001401D02*
X009834Y001701D01*
X008234Y001701D01*
X008234Y001401D01*
X008659Y001376D02*
X008809Y001527D01*
X008809Y001076D01*
X008659Y001076D02*
X008960Y001076D01*
X011734Y001101D02*
X011734Y001301D01*
X011734Y001401D01*
X012334Y001401D02*
X012334Y001301D01*
X012334Y001101D01*
X016869Y007723D02*
X016869Y007873D01*
X016869Y007798D02*
X017245Y007798D01*
X017320Y007723D01*
X017320Y007648D01*
X017245Y007573D01*
X017320Y008033D02*
X016869Y008033D01*
X016869Y008259D01*
X016944Y008334D01*
X017095Y008334D01*
X017170Y008259D01*
X017170Y008033D01*
X017320Y008494D02*
X017020Y008794D01*
X016944Y008794D01*
X016869Y008719D01*
X016869Y008569D01*
X016944Y008494D01*
X017320Y008494D02*
X017320Y008794D01*
X013493Y011575D02*
X015079Y013161D01*
X015121Y013205D01*
X015159Y013251D01*
X015195Y013300D01*
X015228Y013351D01*
X015257Y013403D01*
X015284Y013458D01*
X015307Y013513D01*
X015327Y013570D01*
X015343Y013629D01*
X015356Y013688D01*
X015365Y013747D01*
X015370Y013808D01*
X015372Y013868D01*
X015370Y013928D01*
X015365Y013989D01*
X015356Y014048D01*
X015343Y014107D01*
X015327Y014166D01*
X015307Y014223D01*
X015284Y014278D01*
X015257Y014333D01*
X015228Y014385D01*
X015195Y014436D01*
X015159Y014485D01*
X015121Y014531D01*
X015079Y014575D01*
X013493Y016161D01*
X013786Y015368D02*
X012786Y014368D01*
X012786Y014367D02*
X012851Y014365D01*
X012916Y014359D01*
X012980Y014350D01*
X013043Y014336D01*
X013106Y014319D01*
X013167Y014298D01*
X013227Y014273D01*
X013286Y014245D01*
X013343Y014213D01*
X013397Y014178D01*
X013450Y014140D01*
X013500Y014098D01*
X013547Y014054D01*
X013592Y014007D01*
X013634Y013958D01*
X013673Y013906D01*
X013709Y013851D01*
X013741Y013795D01*
X013770Y013737D01*
X013795Y013677D01*
X013817Y013616D01*
X013835Y013554D01*
X013849Y013490D01*
X013860Y013426D01*
X013866Y013362D01*
X013869Y013297D01*
X013868Y013232D01*
X013863Y013167D01*
X013854Y013103D01*
X013841Y013039D01*
X013824Y012976D01*
X013804Y012915D01*
X013780Y012854D01*
X013753Y012795D01*
X013721Y012738D01*
X013687Y012683D01*
X013649Y012630D01*
X013609Y012580D01*
X013565Y012532D01*
X013519Y012486D01*
X013469Y012444D01*
X013418Y012404D01*
X013364Y012368D01*
X013308Y012335D01*
X013250Y012306D01*
X013191Y012280D01*
X013130Y012257D01*
X013068Y012238D01*
X013005Y012223D01*
X012941Y012212D01*
X012876Y012205D01*
X012811Y012201D01*
X012746Y012202D01*
X012682Y012206D01*
X012617Y012214D01*
X012553Y012226D01*
X012490Y012242D01*
X012428Y012262D01*
X012368Y012285D01*
X012309Y012312D01*
X012251Y012342D01*
X012196Y012376D01*
X012142Y012413D01*
X012091Y012453D01*
X012043Y012496D01*
X011997Y012542D01*
X011954Y012591D01*
X011914Y012642D01*
X011877Y012695D01*
X011843Y012751D01*
X011813Y012808D01*
X011786Y012867D01*
X010493Y013161D02*
X010451Y013205D01*
X010413Y013251D01*
X010377Y013300D01*
X010344Y013351D01*
X010315Y013403D01*
X010288Y013458D01*
X010265Y013513D01*
X010245Y013570D01*
X010229Y013629D01*
X010216Y013688D01*
X010207Y013747D01*
X010202Y013808D01*
X010200Y013868D01*
X010202Y013928D01*
X010207Y013989D01*
X010216Y014048D01*
X010229Y014107D01*
X010245Y014166D01*
X010265Y014223D01*
X010288Y014278D01*
X010315Y014333D01*
X010344Y014385D01*
X010377Y014436D01*
X010413Y014485D01*
X010451Y014531D01*
X010493Y014575D01*
X012079Y016161D01*
X011786Y015368D02*
X013786Y015368D01*
X013493Y016160D02*
X013449Y016202D01*
X013403Y016240D01*
X013354Y016276D01*
X013303Y016309D01*
X013251Y016338D01*
X013196Y016365D01*
X013141Y016388D01*
X013084Y016408D01*
X013025Y016424D01*
X012966Y016437D01*
X012907Y016446D01*
X012846Y016451D01*
X012786Y016453D01*
X012726Y016451D01*
X012665Y016446D01*
X012606Y016437D01*
X012547Y016424D01*
X012488Y016408D01*
X012431Y016388D01*
X012376Y016365D01*
X012321Y016338D01*
X012269Y016309D01*
X012218Y016276D01*
X012169Y016240D01*
X012123Y016202D01*
X012079Y016160D01*
X010493Y013161D02*
X012079Y011575D01*
X012123Y011533D01*
X012169Y011495D01*
X012218Y011459D01*
X012269Y011426D01*
X012321Y011397D01*
X012376Y011370D01*
X012431Y011347D01*
X012488Y011327D01*
X012547Y011311D01*
X012606Y011298D01*
X012665Y011289D01*
X012726Y011284D01*
X012786Y011282D01*
X012846Y011284D01*
X012907Y011289D01*
X012966Y011298D01*
X013025Y011311D01*
X013084Y011327D01*
X013141Y011347D01*
X013196Y011370D01*
X013251Y011397D01*
X013303Y011426D01*
X013354Y011459D01*
X013403Y011495D01*
X013449Y011533D01*
X013493Y011575D01*
X007579Y013161D02*
X005993Y011575D01*
X005949Y011533D01*
X005903Y011495D01*
X005854Y011459D01*
X005803Y011426D01*
X005751Y011397D01*
X005696Y011370D01*
X005641Y011347D01*
X005584Y011327D01*
X005525Y011311D01*
X005466Y011298D01*
X005407Y011289D01*
X005346Y011284D01*
X005286Y011282D01*
X005226Y011284D01*
X005165Y011289D01*
X005106Y011298D01*
X005047Y011311D01*
X004988Y011327D01*
X004931Y011347D01*
X004876Y011370D01*
X004821Y011397D01*
X004769Y011426D01*
X004718Y011459D01*
X004669Y011495D01*
X004623Y011533D01*
X004579Y011575D01*
X002993Y013161D01*
X002951Y013205D01*
X002913Y013251D01*
X002877Y013300D01*
X002844Y013351D01*
X002815Y013403D01*
X002788Y013458D01*
X002765Y013513D01*
X002745Y013570D01*
X002729Y013629D01*
X002716Y013688D01*
X002707Y013747D01*
X002702Y013808D01*
X002700Y013868D01*
X002702Y013928D01*
X002707Y013989D01*
X002716Y014048D01*
X002729Y014107D01*
X002745Y014166D01*
X002765Y014223D01*
X002788Y014278D01*
X002815Y014333D01*
X002844Y014385D01*
X002877Y014436D01*
X002913Y014485D01*
X002951Y014531D01*
X002993Y014575D01*
X004579Y016161D01*
X004286Y015368D02*
X006286Y015368D01*
X005286Y014368D01*
X005286Y014367D02*
X005351Y014365D01*
X005416Y014359D01*
X005480Y014350D01*
X005543Y014336D01*
X005606Y014319D01*
X005667Y014298D01*
X005727Y014273D01*
X005786Y014245D01*
X005843Y014213D01*
X005897Y014178D01*
X005950Y014140D01*
X006000Y014098D01*
X006047Y014054D01*
X006092Y014007D01*
X006134Y013958D01*
X006173Y013906D01*
X006209Y013851D01*
X006241Y013795D01*
X006270Y013737D01*
X006295Y013677D01*
X006317Y013616D01*
X006335Y013554D01*
X006349Y013490D01*
X006360Y013426D01*
X006366Y013362D01*
X006369Y013297D01*
X006368Y013232D01*
X006363Y013167D01*
X006354Y013103D01*
X006341Y013039D01*
X006324Y012976D01*
X006304Y012915D01*
X006280Y012854D01*
X006253Y012795D01*
X006221Y012738D01*
X006187Y012683D01*
X006149Y012630D01*
X006109Y012580D01*
X006065Y012532D01*
X006019Y012486D01*
X005969Y012444D01*
X005918Y012404D01*
X005864Y012368D01*
X005808Y012335D01*
X005750Y012306D01*
X005691Y012280D01*
X005630Y012257D01*
X005568Y012238D01*
X005505Y012223D01*
X005441Y012212D01*
X005376Y012205D01*
X005311Y012201D01*
X005246Y012202D01*
X005182Y012206D01*
X005117Y012214D01*
X005053Y012226D01*
X004990Y012242D01*
X004928Y012262D01*
X004868Y012285D01*
X004809Y012312D01*
X004751Y012342D01*
X004696Y012376D01*
X004642Y012413D01*
X004591Y012453D01*
X004543Y012496D01*
X004497Y012542D01*
X004454Y012591D01*
X004414Y012642D01*
X004377Y012695D01*
X004343Y012751D01*
X004313Y012808D01*
X004286Y012867D01*
X004579Y016160D02*
X004623Y016202D01*
X004669Y016240D01*
X004718Y016276D01*
X004769Y016309D01*
X004821Y016338D01*
X004876Y016365D01*
X004931Y016388D01*
X004988Y016408D01*
X005047Y016424D01*
X005106Y016437D01*
X005165Y016446D01*
X005226Y016451D01*
X005286Y016453D01*
X005346Y016451D01*
X005407Y016446D01*
X005466Y016437D01*
X005525Y016424D01*
X005584Y016408D01*
X005641Y016388D01*
X005696Y016365D01*
X005751Y016338D01*
X005803Y016309D01*
X005854Y016276D01*
X005903Y016240D01*
X005949Y016202D01*
X005993Y016160D01*
X005993Y016161D02*
X007579Y014575D01*
X007621Y014531D01*
X007659Y014485D01*
X007695Y014436D01*
X007728Y014385D01*
X007757Y014333D01*
X007784Y014278D01*
X007807Y014223D01*
X007827Y014166D01*
X007843Y014107D01*
X007856Y014048D01*
X007865Y013989D01*
X007870Y013928D01*
X007872Y013868D01*
X007870Y013808D01*
X007865Y013747D01*
X007856Y013688D01*
X007843Y013629D01*
X007827Y013570D01*
X007807Y013513D01*
X007784Y013458D01*
X007757Y013403D01*
X007728Y013351D01*
X007695Y013300D01*
X007659Y013251D01*
X007621Y013205D01*
X007579Y013161D01*
X004534Y004501D02*
X004034Y004501D01*
X004534Y004501D02*
X004534Y004401D01*
X003218Y004321D02*
X003068Y004321D01*
X002318Y004321D02*
X002068Y004321D01*
X001568Y004321D02*
X001318Y004321D01*
X001318Y002021D02*
X002318Y002021D01*
X002718Y002021D02*
X002818Y002021D01*
X002818Y002171D01*
X003534Y022972D02*
X005234Y022972D01*
X005234Y023022D01*
X005834Y023022D01*
X005834Y022972D01*
X006384Y022972D01*
X006534Y023172D01*
X006734Y023172D01*
X007334Y023172D01*
X007534Y023172D01*
X007684Y022972D01*
X008234Y022972D01*
X008234Y023372D01*
X007334Y023372D01*
X007334Y023472D01*
X006734Y023472D01*
X004034Y023472D01*
X004034Y025972D01*
X014034Y025972D01*
X014034Y023472D01*
X012334Y023472D01*
X011734Y023472D01*
X009834Y023472D01*
X009834Y023372D01*
X009834Y022972D01*
X008234Y022972D01*
X008234Y023372D02*
X008234Y023472D01*
X007334Y023472D01*
X007334Y023372D02*
X007334Y023172D01*
X006734Y023172D02*
X006734Y023372D01*
X006734Y023472D01*
X006734Y023372D02*
X003934Y023372D01*
X003534Y022972D02*
X003534Y026472D01*
X004034Y026472D01*
X004034Y026572D01*
X004534Y026572D01*
X004534Y026472D01*
X008784Y026472D01*
X008784Y026572D01*
X009284Y026572D01*
X009284Y026472D01*
X013534Y026472D01*
X013534Y026572D01*
X014034Y026572D01*
X014034Y026472D01*
X014534Y026472D01*
X014534Y022972D01*
X012684Y022972D01*
X012534Y023172D01*
X012334Y023172D01*
X011734Y023172D01*
X011534Y023172D01*
X011384Y022972D01*
X009834Y022972D01*
X009420Y023222D02*
X009420Y023297D01*
X009345Y023372D01*
X009120Y023372D01*
X009120Y023222D01*
X009195Y023147D01*
X009345Y023147D01*
X009420Y023222D01*
X009270Y023522D02*
X009120Y023372D01*
X009270Y023522D02*
X009420Y023597D01*
X009834Y023472D02*
X009834Y023772D01*
X008234Y023772D01*
X008234Y023472D01*
X008659Y023447D02*
X008809Y023597D01*
X008809Y023147D01*
X008659Y023147D02*
X008960Y023147D01*
X011734Y023172D02*
X011734Y023372D01*
X011734Y023472D01*
X012334Y023472D02*
X012334Y023372D01*
X012334Y023172D01*
X004860Y023997D02*
X004559Y023997D01*
X004709Y023997D02*
X004709Y024447D01*
X004559Y024297D01*
X004559Y024997D02*
X004860Y025297D01*
X004860Y025372D01*
X004784Y025447D01*
X004634Y025447D01*
X004559Y025372D01*
X004559Y024997D02*
X004860Y024997D01*
D14*
X001721Y013868D02*
X001725Y014043D01*
X001738Y014217D01*
X001760Y014391D01*
X001790Y014563D01*
X001828Y014734D01*
X001875Y014903D01*
X001929Y015069D01*
X001992Y015232D01*
X002063Y015392D01*
X002142Y015549D01*
X002228Y015701D01*
X002322Y015849D01*
X002423Y015992D01*
X002530Y016130D01*
X002645Y016262D01*
X002765Y016389D01*
X002892Y016509D01*
X003024Y016624D01*
X003162Y016731D01*
X003305Y016832D01*
X003453Y016926D01*
X003605Y017012D01*
X003762Y017091D01*
X003922Y017162D01*
X004085Y017225D01*
X004251Y017279D01*
X004420Y017326D01*
X004591Y017364D01*
X004763Y017394D01*
X004937Y017416D01*
X005111Y017429D01*
X005286Y017433D01*
X005461Y017429D01*
X005635Y017416D01*
X005809Y017394D01*
X005981Y017364D01*
X006152Y017326D01*
X006321Y017279D01*
X006487Y017225D01*
X006650Y017162D01*
X006810Y017091D01*
X006967Y017012D01*
X007119Y016926D01*
X007267Y016832D01*
X007410Y016731D01*
X007548Y016624D01*
X007680Y016509D01*
X007807Y016389D01*
X007927Y016262D01*
X008042Y016130D01*
X008149Y015992D01*
X008250Y015849D01*
X008344Y015701D01*
X008430Y015549D01*
X008509Y015392D01*
X008580Y015232D01*
X008643Y015069D01*
X008697Y014903D01*
X008744Y014734D01*
X008782Y014563D01*
X008812Y014391D01*
X008834Y014217D01*
X008847Y014043D01*
X008851Y013868D01*
X008847Y013693D01*
X008834Y013519D01*
X008812Y013345D01*
X008782Y013173D01*
X008744Y013002D01*
X008697Y012833D01*
X008643Y012667D01*
X008580Y012504D01*
X008509Y012344D01*
X008430Y012187D01*
X008344Y012035D01*
X008250Y011887D01*
X008149Y011744D01*
X008042Y011606D01*
X007927Y011474D01*
X007807Y011347D01*
X007680Y011227D01*
X007548Y011112D01*
X007410Y011005D01*
X007267Y010904D01*
X007119Y010810D01*
X006967Y010724D01*
X006810Y010645D01*
X006650Y010574D01*
X006487Y010511D01*
X006321Y010457D01*
X006152Y010410D01*
X005981Y010372D01*
X005809Y010342D01*
X005635Y010320D01*
X005461Y010307D01*
X005286Y010303D01*
X005111Y010307D01*
X004937Y010320D01*
X004763Y010342D01*
X004591Y010372D01*
X004420Y010410D01*
X004251Y010457D01*
X004085Y010511D01*
X003922Y010574D01*
X003762Y010645D01*
X003605Y010724D01*
X003453Y010810D01*
X003305Y010904D01*
X003162Y011005D01*
X003024Y011112D01*
X002892Y011227D01*
X002765Y011347D01*
X002645Y011474D01*
X002530Y011606D01*
X002423Y011744D01*
X002322Y011887D01*
X002228Y012035D01*
X002142Y012187D01*
X002063Y012344D01*
X001992Y012504D01*
X001929Y012667D01*
X001875Y012833D01*
X001828Y013002D01*
X001790Y013173D01*
X001760Y013345D01*
X001738Y013519D01*
X001725Y013693D01*
X001721Y013868D01*
X002736Y011367D02*
X002763Y011334D01*
X002787Y011299D01*
X002807Y011262D01*
X002824Y011224D01*
X002838Y011184D01*
X002847Y011142D01*
X002853Y011101D01*
X002855Y011058D01*
X002853Y011016D01*
X002847Y010974D01*
X002837Y010933D01*
X002824Y010893D01*
X002807Y010854D01*
X002786Y010817D01*
X002786Y010818D02*
X002136Y009768D01*
X002114Y009737D01*
X002095Y009703D01*
X002079Y009668D01*
X002066Y009632D01*
X002057Y009594D01*
X002052Y009556D01*
X002050Y009518D01*
X002052Y009480D01*
X002057Y009442D01*
X002066Y009404D01*
X002079Y009368D01*
X002095Y009333D01*
X002114Y009299D01*
X002136Y009268D01*
X002153Y009244D01*
X002167Y009218D01*
X002177Y009190D01*
X002184Y009162D01*
X002188Y009133D01*
X002188Y009103D01*
X002184Y009074D01*
X002177Y009046D01*
X002167Y009018D01*
X002153Y008992D01*
X002136Y008968D01*
X002186Y008768D02*
X002209Y008760D01*
X002234Y008754D01*
X002259Y008752D01*
X002283Y008753D01*
X002308Y008758D01*
X002332Y008765D01*
X002354Y008776D01*
X002375Y008790D01*
X002394Y008806D01*
X002411Y008825D01*
X002425Y008846D01*
X002436Y008868D01*
X002186Y008767D02*
X002167Y008778D01*
X002150Y008791D01*
X002135Y008807D01*
X002124Y008825D01*
X002115Y008845D01*
X002110Y008866D01*
X002108Y008887D01*
X002110Y008909D01*
X002115Y008930D01*
X002124Y008950D01*
X002136Y008968D01*
X002436Y008868D02*
X002450Y008898D01*
X002468Y008926D01*
X002488Y008953D01*
X002510Y008978D01*
X002535Y009000D01*
X002562Y009019D01*
X002591Y009036D01*
X002622Y009049D01*
X002654Y009059D01*
X002686Y009067D01*
X002719Y009070D01*
X002753Y009071D01*
X002786Y009068D01*
X002786Y009067D02*
X002822Y009063D01*
X002859Y009063D01*
X002895Y009067D01*
X002931Y009073D01*
X002967Y009084D01*
X003001Y009097D01*
X003033Y009113D01*
X003064Y009133D01*
X003094Y009155D01*
X003121Y009179D01*
X003145Y009207D01*
X003167Y009236D01*
X003186Y009267D01*
X003186Y009268D02*
X003736Y010268D01*
X003736Y010267D02*
X003757Y010300D01*
X003780Y010332D01*
X003806Y010361D01*
X003834Y010387D01*
X003865Y010411D01*
X003898Y010431D01*
X003933Y010449D01*
X003969Y010463D01*
X004006Y010475D01*
X004044Y010482D01*
X004083Y010486D01*
X004122Y010487D01*
X004160Y010484D01*
X004199Y010477D01*
X004236Y010467D01*
X003318Y004321D02*
X002318Y004321D01*
X002568Y004321D02*
X002568Y004071D01*
X003068Y004071D01*
X003068Y004321D01*
X003318Y004321D01*
X003318Y003171D01*
X003318Y002021D01*
X002818Y002021D01*
X002818Y002421D01*
X002718Y002621D01*
X001918Y002621D01*
X001818Y002421D01*
X001818Y002021D01*
X001918Y002021D02*
X001918Y002421D01*
X001818Y002421D01*
X001918Y002421D02*
X002718Y002421D01*
X002718Y002021D01*
X002818Y002021D02*
X002318Y002021D01*
X002718Y002421D02*
X002818Y002421D01*
X002068Y004071D02*
X001568Y004071D01*
X001568Y004321D01*
X001318Y004321D01*
X001318Y003171D01*
X001318Y002021D01*
X002068Y004071D02*
X002068Y004321D01*
X002568Y004321D01*
X002068Y004321D02*
X001568Y004321D01*
X009636Y008968D02*
X009653Y008992D01*
X009667Y009018D01*
X009677Y009046D01*
X009684Y009074D01*
X009688Y009103D01*
X009688Y009133D01*
X009684Y009162D01*
X009677Y009190D01*
X009667Y009218D01*
X009653Y009244D01*
X009636Y009268D01*
X009936Y008868D02*
X009925Y008846D01*
X009911Y008825D01*
X009894Y008806D01*
X009875Y008790D01*
X009854Y008776D01*
X009832Y008765D01*
X009808Y008758D01*
X009783Y008753D01*
X009759Y008752D01*
X009734Y008754D01*
X009709Y008760D01*
X009686Y008768D01*
X009686Y008767D02*
X009667Y008778D01*
X009650Y008791D01*
X009635Y008807D01*
X009624Y008825D01*
X009615Y008845D01*
X009610Y008866D01*
X009608Y008887D01*
X009610Y008909D01*
X009615Y008930D01*
X009624Y008950D01*
X009636Y008968D01*
X009636Y009268D02*
X009614Y009299D01*
X009595Y009333D01*
X009579Y009368D01*
X009566Y009404D01*
X009557Y009442D01*
X009552Y009480D01*
X009550Y009518D01*
X009552Y009556D01*
X009557Y009594D01*
X009566Y009632D01*
X009579Y009668D01*
X009595Y009703D01*
X009614Y009737D01*
X009636Y009768D01*
X010286Y010818D01*
X010286Y010817D02*
X010307Y010854D01*
X010324Y010893D01*
X010337Y010933D01*
X010347Y010974D01*
X010353Y011016D01*
X010355Y011058D01*
X010353Y011101D01*
X010347Y011142D01*
X010338Y011184D01*
X010324Y011224D01*
X010307Y011262D01*
X010287Y011299D01*
X010263Y011334D01*
X010236Y011367D01*
X011236Y010268D02*
X010686Y009268D01*
X010686Y009267D02*
X010667Y009236D01*
X010645Y009207D01*
X010621Y009179D01*
X010594Y009155D01*
X010564Y009133D01*
X010533Y009113D01*
X010501Y009097D01*
X010467Y009084D01*
X010431Y009073D01*
X010395Y009067D01*
X010359Y009063D01*
X010322Y009063D01*
X010286Y009067D01*
X010286Y009068D02*
X010253Y009071D01*
X010219Y009070D01*
X010186Y009067D01*
X010154Y009059D01*
X010122Y009049D01*
X010091Y009036D01*
X010062Y009019D01*
X010035Y009000D01*
X010010Y008978D01*
X009988Y008953D01*
X009968Y008926D01*
X009950Y008898D01*
X009936Y008868D01*
X011236Y010267D02*
X011257Y010300D01*
X011280Y010332D01*
X011306Y010361D01*
X011334Y010387D01*
X011365Y010411D01*
X011398Y010431D01*
X011433Y010449D01*
X011469Y010463D01*
X011506Y010475D01*
X011544Y010482D01*
X011583Y010486D01*
X011622Y010487D01*
X011660Y010484D01*
X011699Y010477D01*
X011736Y010467D01*
X009221Y013868D02*
X009225Y014043D01*
X009238Y014217D01*
X009260Y014391D01*
X009290Y014563D01*
X009328Y014734D01*
X009375Y014903D01*
X009429Y015069D01*
X009492Y015232D01*
X009563Y015392D01*
X009642Y015549D01*
X009728Y015701D01*
X009822Y015849D01*
X009923Y015992D01*
X010030Y016130D01*
X010145Y016262D01*
X010265Y016389D01*
X010392Y016509D01*
X010524Y016624D01*
X010662Y016731D01*
X010805Y016832D01*
X010953Y016926D01*
X011105Y017012D01*
X011262Y017091D01*
X011422Y017162D01*
X011585Y017225D01*
X011751Y017279D01*
X011920Y017326D01*
X012091Y017364D01*
X012263Y017394D01*
X012437Y017416D01*
X012611Y017429D01*
X012786Y017433D01*
X012961Y017429D01*
X013135Y017416D01*
X013309Y017394D01*
X013481Y017364D01*
X013652Y017326D01*
X013821Y017279D01*
X013987Y017225D01*
X014150Y017162D01*
X014310Y017091D01*
X014467Y017012D01*
X014619Y016926D01*
X014767Y016832D01*
X014910Y016731D01*
X015048Y016624D01*
X015180Y016509D01*
X015307Y016389D01*
X015427Y016262D01*
X015542Y016130D01*
X015649Y015992D01*
X015750Y015849D01*
X015844Y015701D01*
X015930Y015549D01*
X016009Y015392D01*
X016080Y015232D01*
X016143Y015069D01*
X016197Y014903D01*
X016244Y014734D01*
X016282Y014563D01*
X016312Y014391D01*
X016334Y014217D01*
X016347Y014043D01*
X016351Y013868D01*
X016347Y013693D01*
X016334Y013519D01*
X016312Y013345D01*
X016282Y013173D01*
X016244Y013002D01*
X016197Y012833D01*
X016143Y012667D01*
X016080Y012504D01*
X016009Y012344D01*
X015930Y012187D01*
X015844Y012035D01*
X015750Y011887D01*
X015649Y011744D01*
X015542Y011606D01*
X015427Y011474D01*
X015307Y011347D01*
X015180Y011227D01*
X015048Y011112D01*
X014910Y011005D01*
X014767Y010904D01*
X014619Y010810D01*
X014467Y010724D01*
X014310Y010645D01*
X014150Y010574D01*
X013987Y010511D01*
X013821Y010457D01*
X013652Y010410D01*
X013481Y010372D01*
X013309Y010342D01*
X013135Y010320D01*
X012961Y010307D01*
X012786Y010303D01*
X012611Y010307D01*
X012437Y010320D01*
X012263Y010342D01*
X012091Y010372D01*
X011920Y010410D01*
X011751Y010457D01*
X011585Y010511D01*
X011422Y010574D01*
X011262Y010645D01*
X011105Y010724D01*
X010953Y010810D01*
X010805Y010904D01*
X010662Y011005D01*
X010524Y011112D01*
X010392Y011227D01*
X010265Y011347D01*
X010145Y011474D01*
X010030Y011606D01*
X009923Y011744D01*
X009822Y011887D01*
X009728Y012035D01*
X009642Y012187D01*
X009563Y012344D01*
X009492Y012504D01*
X009429Y012667D01*
X009375Y012833D01*
X009328Y013002D01*
X009290Y013173D01*
X009260Y013345D01*
X009238Y013519D01*
X009225Y013693D01*
X009221Y013868D01*
D15*
X009834Y023372D02*
X011734Y023372D01*
X012334Y023372D02*
X014134Y023372D01*
X014134Y026072D01*
X003934Y026072D01*
X003934Y023372D01*
X003934Y004001D02*
X003934Y001301D01*
X003934Y004001D02*
X014134Y004001D01*
X014134Y001301D01*
X012334Y001301D01*
X011734Y001301D02*
X009834Y001301D01*
D16*
X005923Y005317D02*
X005503Y005317D01*
X005713Y005317D02*
X005713Y004686D01*
X005069Y005001D02*
X004858Y005001D01*
X004858Y004686D02*
X004858Y005317D01*
X005279Y005317D01*
X004634Y005317D02*
X004214Y005317D01*
X004214Y004686D01*
X004634Y004686D01*
X004424Y005001D02*
X004214Y005001D01*
X003990Y004686D02*
X003569Y004686D01*
X003569Y005317D01*
X003568Y003407D02*
X003425Y003407D01*
X003353Y003335D01*
X003568Y003407D02*
X003640Y003335D01*
X003640Y003263D01*
X003353Y002976D01*
X003640Y002976D01*
X000890Y002946D02*
X000603Y002946D01*
X000746Y002946D02*
X000746Y003377D01*
X000603Y003233D01*
X003569Y026757D02*
X003569Y027388D01*
X003885Y027388D01*
X003990Y027282D01*
X003990Y027072D01*
X003885Y026967D01*
X003569Y026967D01*
X003779Y026967D02*
X003990Y026757D01*
X004214Y026757D02*
X004424Y026757D01*
X004319Y026757D02*
X004319Y027388D01*
X004214Y027388D02*
X004424Y027388D01*
X004644Y027282D02*
X004644Y026862D01*
X004749Y026757D01*
X004959Y026757D01*
X005064Y026862D01*
X005064Y027072D01*
X004854Y027072D01*
X005064Y027282D02*
X004959Y027388D01*
X004749Y027388D01*
X004644Y027282D01*
X005288Y027388D02*
X005288Y026757D01*
X005288Y027072D02*
X005708Y027072D01*
X005708Y026757D02*
X005708Y027388D01*
X005933Y027388D02*
X006353Y027388D01*
X006143Y027388D02*
X006143Y026757D01*
D17*
X003499Y010101D02*
X003499Y009794D01*
X003269Y010024D01*
X003729Y010024D01*
X003729Y009641D02*
X003729Y009334D01*
X003422Y009641D01*
X003346Y009641D01*
X003269Y009564D01*
X003269Y009411D01*
X003346Y009334D01*
X003346Y009180D02*
X003499Y009180D01*
X003576Y009104D01*
X003576Y008873D01*
X003729Y008873D02*
X003269Y008873D01*
X003269Y009104D01*
X003346Y009180D01*
X003576Y009027D02*
X003729Y009180D01*
X002744Y006323D02*
X002744Y006016D01*
X002437Y006323D01*
X002361Y006323D01*
X002284Y006247D01*
X002284Y006093D01*
X002361Y006016D01*
X002284Y005709D02*
X002744Y005709D01*
X002744Y005556D02*
X002744Y005863D01*
X002437Y005556D02*
X002284Y005709D01*
X002361Y005403D02*
X002514Y005403D01*
X002591Y005326D01*
X002591Y005096D01*
X002591Y005249D02*
X002744Y005403D01*
X002744Y005096D02*
X002284Y005096D01*
X002284Y005326D01*
X002361Y005403D01*
X002711Y001862D02*
X002831Y001862D01*
X002771Y001862D02*
X002771Y001562D01*
X002711Y001501D01*
X002651Y001501D01*
X002590Y001562D01*
X002959Y001501D02*
X003199Y001501D01*
X003079Y001501D02*
X003079Y001862D01*
X002959Y001742D01*
X011615Y008314D02*
X011615Y008545D01*
X011692Y008621D01*
X011845Y008621D01*
X011922Y008545D01*
X011922Y008314D01*
X012076Y008314D02*
X011615Y008314D01*
X011922Y008468D02*
X012076Y008621D01*
X012076Y008775D02*
X012076Y009082D01*
X011999Y009235D02*
X012076Y009312D01*
X012076Y009465D01*
X011999Y009542D01*
X011845Y009542D01*
X011769Y009465D01*
X011769Y009389D01*
X011845Y009235D01*
X011615Y009235D01*
X011615Y009542D01*
X011692Y009082D02*
X011615Y009005D01*
X011615Y008852D01*
X011692Y008775D01*
X011692Y009082D02*
X011769Y009082D01*
X012076Y008775D01*
M02*
