G75*
G70*
%OFA0B0*%
%FSLAX24Y24*%
%IPPOS*%
%LPD*%
%AMOC8*
5,1,8,0,0,1.08239X$1,22.5*
%
%ADD10C,0.0000*%
%ADD11C,0.0719*%
%ADD12OC8,0.0600*%
%ADD13R,0.0631X0.0552*%
%ADD14C,0.0640*%
%ADD15C,0.1700*%
D10*
X000192Y000100D02*
X000192Y027659D01*
X017908Y027659D01*
X017908Y000100D01*
X000192Y000100D01*
D11*
X005294Y012004D03*
X006202Y012258D03*
X006889Y012954D03*
X007135Y013876D03*
X006881Y014798D03*
X006204Y015465D03*
X005286Y015720D03*
X004346Y015474D03*
X003679Y014790D03*
X003418Y013868D03*
X003668Y012946D03*
X010918Y013868D03*
X011168Y012946D03*
X011179Y014790D03*
X011846Y015474D03*
X012786Y015720D03*
X013704Y015465D03*
X014381Y014798D03*
X014635Y013876D03*
X014389Y012954D03*
X013702Y012258D03*
X012794Y012004D03*
D12*
X012534Y003151D03*
X012534Y002151D03*
X011534Y002151D03*
X011534Y003151D03*
X010534Y003151D03*
X010534Y002151D03*
X009534Y002151D03*
X009534Y003151D03*
X008534Y003151D03*
X008534Y002151D03*
X007534Y002151D03*
X007534Y003151D03*
X006534Y003151D03*
X006534Y002151D03*
X005534Y002151D03*
X005534Y003151D03*
X005534Y024222D03*
X005534Y025222D03*
X006534Y025222D03*
X006534Y024222D03*
X007534Y024222D03*
X007534Y025222D03*
X008534Y025222D03*
X008534Y024222D03*
X009534Y024222D03*
X009534Y025222D03*
X010534Y025222D03*
X010534Y024222D03*
X011534Y024222D03*
X011534Y025222D03*
X012534Y025222D03*
X012534Y024222D03*
D13*
X002849Y010269D03*
X002849Y009600D03*
X003164Y005710D03*
X003164Y005041D03*
X011196Y009041D03*
X011196Y009710D03*
D14*
X015825Y008399D02*
X016425Y008399D01*
X016425Y007399D02*
X015825Y007399D01*
X015825Y006399D02*
X016425Y006399D01*
X002818Y003471D02*
X002818Y002871D01*
X001818Y002871D02*
X001818Y003471D01*
X001689Y006399D02*
X001089Y006399D01*
X001089Y007399D02*
X001689Y007399D01*
X001689Y008399D02*
X001089Y008399D01*
D15*
X001373Y001281D03*
X016727Y001281D03*
X016727Y026478D03*
X001373Y026478D03*
M02*
