%
M48
M72
T01C0.0236
T02C0.0240
T03C0.0360
T04C0.0400
T05C0.0453
T06C0.1260
%
T01
X3538Y8053
X1688Y10376
X4365Y11911
X5743Y10691
X6845Y11832
X7672Y14509
X8341Y15218
X7121Y16045
X5900Y16754
X4404Y16714
X2869Y15848
X2515Y14785
X4444Y19549
X7633Y19391
X11137Y16517
X12396Y16990
X13893Y16911
X14641Y15887
X15704Y16714
X15664Y14628
X15782Y13092
X14522Y11320
X13578Y7974
X11885Y8131
X5782Y8013
X12987Y20533
X13105Y21557
X16058Y23643
X6058Y26557
T02
X4129Y20179
X1373Y17817
X3735Y11911
X4129Y9943
X3735Y9549
X2160Y11517
X1767Y11124
X6491Y7698
X7318Y7777
X8853Y7698
X10349Y7777
X9641Y10730
X10428Y11911
X9247Y17029
X9247Y18210
X9641Y19391
X9641Y20179
X10428Y20966
X13578Y20179
X14365Y20179
X14365Y20966
X16255Y22974
X15940Y17423
X16727Y11124
X16727Y9943
X4129Y4116
T03
X5534Y3151
X5534Y2151
X6534Y2151
X6534Y3151
X7534Y3151
X7534Y2151
X8534Y2151
X8534Y3151
X9534Y3151
X9534Y2151
X10534Y2151
X10534Y3151
X11534Y3151
X11534Y2151
X12534Y2151
X12534Y3151
X12534Y24222
X12534Y25222
X11534Y25222
X11534Y24222
X10534Y24222
X10534Y25222
X9534Y25222
X9534Y24222
X8534Y24222
X8534Y25222
X7534Y25222
X7534Y24222
X6534Y24222
X6534Y25222
X5534Y25222
X5534Y24222
T04
X1389Y8399
X1389Y7399
X1389Y6399
X1818Y3171
X2818Y3171
X16125Y6399
X16125Y7399
X16125Y8399
T05
X13702Y12258
X14389Y12954
X14635Y13876
X14381Y14798
X13704Y15465
X12786Y15720
X11846Y15474
X11179Y14790
X10918Y13868
X11168Y12946
X12794Y12004
X7135Y13876
X6889Y12954
X6202Y12258
X5294Y12004
X3668Y12946
X3418Y13868
X3679Y14790
X4346Y15474
X5286Y15720
X6204Y15465
X6881Y14798
T06
X1373Y1281
X16727Y1281
X16727Y26478
X1373Y26478
M30
