G75*
G70*
%OFA0B0*%
%FSLAX24Y24*%
%IPPOS*%
%LPD*%
%AMOC8*
5,1,8,0,0,1.08239X$1,22.5*
%
%ADD10C,0.0000*%
%ADD11C,0.0040*%
D10*
X000912Y000100D02*
X000912Y027659D01*
X018628Y027659D01*
X018628Y000100D01*
X000912Y000100D01*
D11*
X003117Y003850D02*
X003040Y003927D01*
X003040Y004081D01*
X003117Y004157D01*
X003424Y004157D01*
X003500Y004081D01*
X003500Y003927D01*
X003424Y003850D01*
X003117Y003850D01*
X003193Y004004D02*
X003040Y004157D01*
X003040Y004311D02*
X003040Y004618D01*
X003040Y004771D02*
X003040Y005078D01*
X002981Y005114D02*
X003288Y005114D01*
X003135Y005114D02*
X003135Y005575D01*
X003288Y005421D01*
X003442Y005114D02*
X003749Y005114D01*
X003902Y005114D02*
X004056Y005268D01*
X003979Y005268D02*
X004209Y005268D01*
X004209Y005114D02*
X004209Y005575D01*
X003979Y005575D01*
X003902Y005498D01*
X003902Y005345D01*
X003979Y005268D01*
X003749Y005421D02*
X003595Y005575D01*
X003595Y005114D01*
X003500Y004925D02*
X003347Y004771D01*
X003500Y004925D02*
X003040Y004925D01*
X003040Y004464D02*
X003500Y004464D01*
X003347Y004311D01*
X006280Y007960D02*
X006741Y007960D01*
X006741Y008190D01*
X006664Y008267D01*
X006511Y008267D01*
X006434Y008190D01*
X006434Y007960D01*
X006434Y008114D02*
X006280Y008267D01*
X006280Y008421D02*
X006587Y008727D01*
X006664Y008727D01*
X006741Y008651D01*
X006741Y008497D01*
X006664Y008421D01*
X006280Y008421D02*
X006280Y008727D01*
X007702Y008745D02*
X007778Y008669D01*
X007702Y008745D02*
X007702Y008899D01*
X007778Y008976D01*
X007855Y008976D01*
X007932Y008899D01*
X007932Y008822D01*
X007932Y008899D02*
X008009Y008976D01*
X008085Y008976D01*
X008162Y008899D01*
X008162Y008745D01*
X008085Y008669D01*
X008085Y008515D02*
X007932Y008515D01*
X007855Y008438D01*
X007855Y008208D01*
X007702Y008208D02*
X008162Y008208D01*
X008162Y008438D01*
X008085Y008515D01*
X007855Y008362D02*
X007702Y008515D01*
X009001Y009476D02*
X009461Y009476D01*
X009461Y009706D01*
X009385Y009783D01*
X009231Y009783D01*
X009154Y009706D01*
X009154Y009476D01*
X009154Y009629D02*
X009001Y009783D01*
X009231Y009936D02*
X009231Y010243D01*
X009001Y010166D02*
X009461Y010166D01*
X009231Y009936D01*
X009946Y011295D02*
X010406Y011295D01*
X010406Y011525D01*
X010329Y011602D01*
X010176Y011602D01*
X010099Y011525D01*
X010099Y011295D01*
X010099Y011448D02*
X009946Y011602D01*
X010023Y011755D02*
X009946Y011832D01*
X009946Y011985D01*
X010023Y012062D01*
X010176Y012062D01*
X010253Y011985D01*
X010253Y011909D01*
X010176Y011755D01*
X010406Y011755D01*
X010406Y012062D01*
X010958Y012027D02*
X011418Y012027D01*
X011265Y011873D01*
X011341Y011720D02*
X011188Y011720D01*
X011111Y011643D01*
X011111Y011413D01*
X010958Y011413D02*
X011418Y011413D01*
X011418Y011643D01*
X011341Y011720D01*
X011111Y011566D02*
X010958Y011720D01*
X010958Y011873D02*
X010958Y012180D01*
X011034Y012334D02*
X010958Y012410D01*
X010958Y012564D01*
X011034Y012641D01*
X011111Y012641D01*
X011188Y012564D01*
X011188Y012487D01*
X011188Y012564D02*
X011265Y012641D01*
X011341Y012641D01*
X011418Y012564D01*
X011418Y012410D01*
X011341Y012334D01*
X011152Y014394D02*
X010998Y014394D01*
X010921Y014470D01*
X010921Y014777D01*
X010998Y014854D01*
X011152Y014854D01*
X011228Y014777D01*
X011228Y014470D01*
X011152Y014394D01*
X011075Y014547D02*
X010921Y014394D01*
X010768Y014394D02*
X010461Y014394D01*
X010614Y014394D02*
X010614Y014854D01*
X010768Y014701D01*
X010307Y014777D02*
X010231Y014854D01*
X010077Y014854D01*
X010001Y014777D01*
X010001Y014701D01*
X010077Y014624D01*
X010001Y014547D01*
X010001Y014470D01*
X010077Y014394D01*
X010231Y014394D01*
X010307Y014470D01*
X010154Y014624D02*
X010077Y014624D01*
X009905Y014730D02*
X009905Y014423D01*
X009829Y014346D01*
X009675Y014346D01*
X009599Y014423D01*
X009599Y014730D01*
X009675Y014807D01*
X009829Y014807D01*
X009905Y014730D01*
X009752Y014500D02*
X009599Y014346D01*
X009445Y014423D02*
X009368Y014346D01*
X009215Y014346D01*
X009138Y014423D01*
X009138Y014577D01*
X009215Y014653D01*
X009292Y014653D01*
X009445Y014577D01*
X009445Y014807D01*
X009138Y014807D01*
X008694Y015236D02*
X008771Y015313D01*
X008771Y015620D01*
X008694Y015697D01*
X008541Y015697D01*
X008464Y015620D01*
X008464Y015313D01*
X008541Y015236D01*
X008694Y015236D01*
X008618Y015390D02*
X008464Y015236D01*
X008311Y015313D02*
X008234Y015236D01*
X008081Y015236D01*
X008004Y015313D01*
X008004Y015390D01*
X008081Y015466D01*
X008311Y015466D01*
X008311Y015313D01*
X008311Y015466D02*
X008157Y015620D01*
X008004Y015697D01*
X007539Y015825D02*
X007539Y016132D01*
X007462Y016208D01*
X007309Y016208D01*
X007232Y016132D01*
X007232Y015825D01*
X007309Y015748D01*
X007462Y015748D01*
X007539Y015825D01*
X007385Y015901D02*
X007232Y015748D01*
X007078Y015748D02*
X007078Y015825D01*
X006771Y016132D01*
X006771Y016208D01*
X007078Y016208D01*
X006149Y016100D02*
X006072Y016024D01*
X005919Y016024D01*
X005842Y016100D01*
X005842Y016407D01*
X005919Y016484D01*
X006072Y016484D01*
X006149Y016407D01*
X006149Y016100D01*
X005996Y016177D02*
X005842Y016024D01*
X005689Y016100D02*
X005689Y016177D01*
X005612Y016254D01*
X005458Y016254D01*
X005382Y016177D01*
X005382Y016100D01*
X005458Y016024D01*
X005612Y016024D01*
X005689Y016100D01*
X005612Y016254D02*
X005689Y016330D01*
X005689Y016407D01*
X005612Y016484D01*
X005458Y016484D01*
X005382Y016407D01*
X005382Y016330D01*
X005458Y016254D01*
X004484Y016368D02*
X004484Y016061D01*
X004407Y015984D01*
X004254Y015984D01*
X004177Y016061D01*
X004177Y016368D01*
X004254Y016445D01*
X004407Y016445D01*
X004484Y016368D01*
X004330Y016138D02*
X004177Y015984D01*
X004023Y016061D02*
X003947Y015984D01*
X003793Y015984D01*
X003716Y016061D01*
X003716Y016368D01*
X003793Y016445D01*
X003947Y016445D01*
X004023Y016368D01*
X004023Y016291D01*
X003947Y016214D01*
X003716Y016214D01*
X003222Y015531D02*
X003068Y015531D01*
X002991Y015454D01*
X002991Y015148D01*
X003068Y015071D01*
X003222Y015071D01*
X003298Y015148D01*
X003298Y015454D01*
X003222Y015531D01*
X003145Y015224D02*
X002991Y015071D01*
X002838Y015071D02*
X002531Y015071D01*
X002685Y015071D02*
X002685Y015531D01*
X002838Y015378D01*
X002378Y015454D02*
X002378Y015148D01*
X002071Y015454D01*
X002071Y015148D01*
X002147Y015071D01*
X002301Y015071D01*
X002378Y015148D01*
X002378Y015454D02*
X002301Y015531D01*
X002147Y015531D01*
X002071Y015454D01*
X002095Y017178D02*
X002095Y017408D01*
X002171Y017485D01*
X002325Y017485D01*
X002401Y017408D01*
X002401Y017178D01*
X001941Y017178D01*
X002095Y017332D02*
X001941Y017485D01*
X001941Y017639D02*
X001941Y017946D01*
X001941Y017792D02*
X002401Y017792D01*
X002248Y017639D01*
X002325Y018099D02*
X002018Y018099D01*
X002325Y018406D01*
X002018Y018406D01*
X001941Y018329D01*
X001941Y018176D01*
X002018Y018099D01*
X002325Y018099D02*
X002401Y018176D01*
X002401Y018329D01*
X002325Y018406D01*
X003504Y018662D02*
X003964Y018662D01*
X003964Y018892D01*
X003888Y018969D01*
X003734Y018969D01*
X003658Y018892D01*
X003658Y018662D01*
X003658Y018816D02*
X003504Y018969D01*
X003581Y019123D02*
X003504Y019199D01*
X003504Y019353D01*
X003581Y019430D01*
X003888Y019430D01*
X003964Y019353D01*
X003964Y019199D01*
X003888Y019123D01*
X003811Y019123D01*
X003734Y019199D01*
X003734Y019430D01*
X005158Y019479D02*
X005158Y019325D01*
X005234Y019249D01*
X005311Y019249D01*
X005388Y019325D01*
X005388Y019479D01*
X005311Y019556D01*
X005234Y019556D01*
X005158Y019479D01*
X005388Y019479D02*
X005465Y019556D01*
X005541Y019556D01*
X005618Y019479D01*
X005618Y019325D01*
X005541Y019249D01*
X005465Y019249D01*
X005388Y019325D01*
X005388Y019095D02*
X005311Y019018D01*
X005311Y018788D01*
X005158Y018788D02*
X005618Y018788D01*
X005618Y019018D01*
X005541Y019095D01*
X005388Y019095D01*
X005311Y018942D02*
X005158Y019095D01*
X006536Y018863D02*
X006612Y018863D01*
X006919Y019170D01*
X006996Y019170D01*
X006996Y018863D01*
X006919Y018709D02*
X006996Y018633D01*
X006996Y018402D01*
X006536Y018402D01*
X006689Y018402D02*
X006689Y018633D01*
X006766Y018709D01*
X006919Y018709D01*
X006689Y018556D02*
X006536Y018709D01*
X007953Y018471D02*
X007953Y018317D01*
X008030Y018241D01*
X008183Y018241D01*
X008183Y018471D01*
X008106Y018548D01*
X008030Y018548D01*
X007953Y018471D01*
X008183Y018241D02*
X008337Y018394D01*
X008413Y018548D01*
X008337Y018087D02*
X008183Y018087D01*
X008106Y018011D01*
X008106Y017780D01*
X007953Y017780D02*
X008413Y017780D01*
X008413Y018011D01*
X008337Y018087D01*
X008106Y017934D02*
X007953Y018087D01*
X010201Y017977D02*
X010661Y017977D01*
X010661Y018208D01*
X010585Y018284D01*
X010431Y018284D01*
X010354Y018208D01*
X010354Y017977D01*
X010354Y018131D02*
X010201Y018284D01*
X010201Y018438D02*
X010508Y018745D01*
X010585Y018745D01*
X010661Y018668D01*
X010661Y018515D01*
X010585Y018438D01*
X010201Y018438D02*
X010201Y018745D01*
X010201Y018898D02*
X010508Y019205D01*
X010585Y019205D01*
X010661Y019128D01*
X010661Y018975D01*
X010585Y018898D01*
X010201Y018898D02*
X010201Y019205D01*
X011618Y019217D02*
X012079Y019217D01*
X011925Y019064D01*
X011925Y018910D02*
X012002Y018910D01*
X012079Y018833D01*
X012079Y018680D01*
X012002Y018603D01*
X012002Y018450D02*
X011848Y018450D01*
X011772Y018373D01*
X011772Y018143D01*
X011772Y018296D02*
X011618Y018450D01*
X011618Y018603D02*
X011925Y018910D01*
X011618Y018910D02*
X011618Y018603D01*
X011618Y019064D02*
X011618Y019370D01*
X012002Y018450D02*
X012079Y018373D01*
X012079Y018143D01*
X011618Y018143D01*
X011988Y016539D02*
X011988Y016079D01*
X012141Y016079D02*
X011834Y016079D01*
X011672Y016029D02*
X011672Y015722D01*
X011596Y015646D01*
X011442Y015646D01*
X011366Y015722D01*
X011366Y016029D01*
X011442Y016106D01*
X011596Y016106D01*
X011672Y016029D01*
X011519Y015799D02*
X011366Y015646D01*
X011212Y015646D02*
X010905Y015953D01*
X010905Y016029D01*
X010982Y016106D01*
X011135Y016106D01*
X011212Y016029D01*
X011212Y015646D02*
X010905Y015646D01*
X010752Y015646D02*
X010445Y015953D01*
X010445Y016029D01*
X010521Y016106D01*
X010675Y016106D01*
X010752Y016029D01*
X010752Y015646D02*
X010445Y015646D01*
X011988Y016539D02*
X012141Y016386D01*
X012295Y016386D02*
X012295Y016462D01*
X012372Y016539D01*
X012525Y016539D01*
X012602Y016462D01*
X012755Y016462D02*
X012755Y016155D01*
X012832Y016079D01*
X012985Y016079D01*
X013062Y016155D01*
X013062Y016462D01*
X012985Y016539D01*
X012832Y016539D01*
X012755Y016462D01*
X012909Y016232D02*
X012755Y016079D01*
X012602Y016079D02*
X012295Y016386D01*
X012295Y016079D02*
X012602Y016079D01*
X013205Y016242D02*
X013281Y016165D01*
X013435Y016165D01*
X013511Y016242D01*
X013205Y016549D01*
X013205Y016242D01*
X013205Y016549D02*
X013281Y016626D01*
X013435Y016626D01*
X013511Y016549D01*
X013511Y016242D01*
X013665Y016165D02*
X013972Y016165D01*
X013665Y016472D01*
X013665Y016549D01*
X013742Y016626D01*
X013895Y016626D01*
X013972Y016549D01*
X014125Y016549D02*
X014125Y016242D01*
X014202Y016165D01*
X014356Y016165D01*
X014432Y016242D01*
X014432Y016549D01*
X014356Y016626D01*
X014202Y016626D01*
X014125Y016549D01*
X014279Y016319D02*
X014125Y016165D01*
X015106Y016199D02*
X015336Y016199D01*
X015413Y016275D01*
X015413Y016352D01*
X015336Y016429D01*
X015183Y016429D01*
X015106Y016352D01*
X015106Y016045D01*
X015183Y015968D01*
X015336Y015968D01*
X015413Y016045D01*
X015433Y016091D02*
X015357Y016014D01*
X015357Y015860D01*
X015433Y015784D01*
X015510Y015784D01*
X015587Y015860D01*
X015587Y016014D01*
X015510Y016091D01*
X015433Y016091D01*
X015357Y016014D02*
X015280Y016091D01*
X015203Y016091D01*
X015127Y016014D01*
X015127Y015860D01*
X015203Y015784D01*
X015280Y015784D01*
X015357Y015860D01*
X015567Y015968D02*
X015873Y015968D01*
X015720Y015968D02*
X015720Y016429D01*
X015873Y016275D01*
X016027Y016352D02*
X016027Y016045D01*
X016104Y015968D01*
X016257Y015968D01*
X016334Y016045D01*
X016334Y016352D01*
X016257Y016429D01*
X016104Y016429D01*
X016027Y016352D01*
X016180Y016122D02*
X016027Y015968D01*
X015587Y015477D02*
X015127Y015477D01*
X015127Y015630D02*
X015127Y015323D01*
X015127Y015170D02*
X015280Y015016D01*
X015127Y014940D02*
X015203Y014863D01*
X015510Y014863D01*
X015587Y014940D01*
X015587Y015093D01*
X015510Y015170D01*
X015203Y015170D01*
X015127Y015093D01*
X015127Y014940D01*
X015433Y015323D02*
X015587Y015477D01*
X015865Y014583D02*
X015558Y014276D01*
X015481Y014276D01*
X015481Y014122D02*
X015481Y013815D01*
X015481Y013662D02*
X015634Y013508D01*
X015481Y013432D02*
X015558Y013355D01*
X015865Y013355D01*
X015941Y013432D01*
X015941Y013585D01*
X015865Y013662D01*
X015558Y013662D01*
X015481Y013585D01*
X015481Y013432D01*
X015646Y013130D02*
X015800Y013053D01*
X015953Y012899D01*
X015723Y012899D01*
X015646Y012823D01*
X015646Y012746D01*
X015723Y012669D01*
X015876Y012669D01*
X015953Y012746D01*
X015953Y012899D01*
X016107Y012669D02*
X016414Y012669D01*
X016567Y012669D02*
X016720Y012823D01*
X016567Y012746D02*
X016644Y012669D01*
X016797Y012669D01*
X016874Y012746D01*
X016874Y013053D01*
X016797Y013130D01*
X016644Y013130D01*
X016567Y013053D01*
X016567Y012746D01*
X016414Y012976D02*
X016260Y013130D01*
X016260Y012669D01*
X015788Y013815D02*
X015941Y013969D01*
X015481Y013969D01*
X015941Y014276D02*
X015941Y014583D01*
X015865Y014583D01*
X016736Y016040D02*
X017197Y016040D01*
X017197Y016271D01*
X017120Y016347D01*
X016967Y016347D01*
X016890Y016271D01*
X016890Y016040D01*
X016890Y016194D02*
X016736Y016347D01*
X016736Y016501D02*
X016736Y016808D01*
X016736Y016654D02*
X017197Y016654D01*
X017043Y016501D01*
X017043Y016961D02*
X016967Y017038D01*
X016967Y017191D01*
X016890Y017268D01*
X016813Y017268D01*
X016736Y017191D01*
X016736Y017038D01*
X016813Y016961D01*
X016890Y016961D01*
X016967Y017038D01*
X017043Y016961D02*
X017120Y016961D01*
X017197Y017038D01*
X017197Y017191D01*
X017120Y017268D01*
X017043Y017268D01*
X016967Y017191D01*
X015425Y017883D02*
X015425Y018113D01*
X015348Y018190D01*
X015195Y018190D01*
X015118Y018113D01*
X015118Y017883D01*
X014965Y017883D02*
X015425Y017883D01*
X015118Y018036D02*
X014965Y018190D01*
X014965Y018343D02*
X014965Y018650D01*
X014965Y018497D02*
X015425Y018497D01*
X015272Y018343D01*
X015272Y018804D02*
X015195Y018880D01*
X015195Y019111D01*
X015348Y019111D02*
X015041Y019111D01*
X014965Y019034D01*
X014965Y018880D01*
X015041Y018804D01*
X015272Y018804D02*
X015348Y018804D01*
X015425Y018880D01*
X015425Y019034D01*
X015348Y019111D01*
X013457Y018999D02*
X013457Y018845D01*
X013380Y018769D01*
X013380Y018615D02*
X013226Y018615D01*
X013150Y018538D01*
X013150Y018308D01*
X013150Y018462D02*
X012996Y018615D01*
X012996Y018769D02*
X013303Y019075D01*
X013380Y019075D01*
X013457Y018999D01*
X013380Y019229D02*
X013457Y019306D01*
X013457Y019459D01*
X013380Y019536D01*
X013073Y019229D01*
X012996Y019306D01*
X012996Y019459D01*
X013073Y019536D01*
X013380Y019536D01*
X013380Y019229D02*
X013073Y019229D01*
X012996Y019075D02*
X012996Y018769D01*
X013380Y018615D02*
X013457Y018538D01*
X013457Y018308D01*
X012996Y018308D01*
X009033Y012893D02*
X009110Y012817D01*
X009110Y012510D01*
X009033Y012433D01*
X008880Y012433D01*
X008803Y012510D01*
X008803Y012817D01*
X008880Y012893D01*
X009033Y012893D01*
X008957Y012586D02*
X008803Y012433D01*
X008650Y012663D02*
X008343Y012663D01*
X008420Y012433D02*
X008420Y012893D01*
X008650Y012663D01*
X007841Y011476D02*
X007687Y011476D01*
X007610Y011399D01*
X007610Y011092D01*
X007687Y011016D01*
X007841Y011016D01*
X007917Y011092D01*
X007917Y011399D01*
X007841Y011476D01*
X007764Y011169D02*
X007610Y011016D01*
X007457Y011092D02*
X007380Y011016D01*
X007227Y011016D01*
X007150Y011092D01*
X007150Y011169D01*
X007227Y011246D01*
X007303Y011246D01*
X007227Y011246D02*
X007150Y011323D01*
X007150Y011399D01*
X007227Y011476D01*
X007380Y011476D01*
X007457Y011399D01*
X006449Y011084D02*
X006449Y010777D01*
X006372Y010701D01*
X006219Y010701D01*
X006142Y010777D01*
X006142Y011084D01*
X006219Y011161D01*
X006372Y011161D01*
X006449Y011084D01*
X006295Y010854D02*
X006142Y010701D01*
X005988Y010701D02*
X005681Y011008D01*
X005681Y011084D01*
X005758Y011161D01*
X005912Y011161D01*
X005988Y011084D01*
X005988Y010701D02*
X005681Y010701D01*
X003707Y013197D02*
X003784Y013274D01*
X003784Y013427D01*
X003707Y013504D01*
X003400Y013504D01*
X003323Y013427D01*
X003323Y013274D01*
X003400Y013197D01*
X003707Y013197D01*
X003477Y013350D02*
X003323Y013504D01*
X003323Y013657D02*
X003323Y013964D01*
X003323Y013811D02*
X003784Y013811D01*
X003630Y013657D01*
X003119Y012424D02*
X002658Y012424D01*
X002658Y012271D02*
X002658Y012578D01*
X002965Y012271D02*
X003119Y012424D01*
X003042Y012117D02*
X002889Y012117D01*
X002812Y012041D01*
X002812Y011811D01*
X002812Y011964D02*
X002658Y012117D01*
X002658Y011811D02*
X003119Y011811D01*
X003119Y012041D01*
X003042Y012117D01*
X012926Y010569D02*
X013233Y010569D01*
X013002Y010799D01*
X013002Y010339D01*
X013386Y010339D02*
X013693Y010339D01*
X013540Y010339D02*
X013540Y010799D01*
X013693Y010645D01*
X013847Y010722D02*
X013847Y010415D01*
X013923Y010339D01*
X014077Y010339D01*
X014153Y010415D01*
X014153Y010722D01*
X014077Y010799D01*
X013923Y010799D01*
X013847Y010722D01*
X014000Y010492D02*
X013847Y010339D01*
X014355Y010888D02*
X014432Y010811D01*
X014585Y010811D01*
X014662Y010888D01*
X014662Y011041D02*
X014508Y011118D01*
X014432Y011118D01*
X014355Y011041D01*
X014355Y010888D01*
X014662Y011041D02*
X014662Y011271D01*
X014355Y011271D01*
X014815Y010811D02*
X015122Y010811D01*
X014969Y010811D02*
X014969Y011271D01*
X015122Y011118D01*
X015276Y011195D02*
X015276Y010888D01*
X015352Y010811D01*
X015506Y010811D01*
X015583Y010888D01*
X015583Y011195D01*
X015506Y011271D01*
X015352Y011271D01*
X015276Y011195D01*
X015429Y010964D02*
X015276Y010811D01*
X016090Y010086D02*
X016243Y010009D01*
X016397Y009856D01*
X016167Y009856D01*
X016090Y009779D01*
X016090Y009702D01*
X016167Y009626D01*
X016320Y009626D01*
X016397Y009702D01*
X016397Y009856D01*
X016550Y009626D02*
X016857Y009626D01*
X016704Y009626D02*
X016704Y010086D01*
X016857Y009932D01*
X017011Y009856D02*
X017011Y010009D01*
X017088Y010086D01*
X017318Y010086D01*
X017318Y009626D01*
X017318Y009779D02*
X017088Y009779D01*
X017011Y009856D01*
X017164Y009779D02*
X017011Y009626D01*
X015796Y008944D02*
X015796Y008637D01*
X015566Y008637D01*
X015643Y008790D01*
X015643Y008867D01*
X015566Y008944D01*
X015412Y008944D01*
X015336Y008867D01*
X015336Y008714D01*
X015412Y008637D01*
X015336Y008483D02*
X015336Y008176D01*
X015336Y008023D02*
X015489Y007870D01*
X015489Y007946D02*
X015489Y007716D01*
X015336Y007716D02*
X015796Y007716D01*
X015796Y007946D01*
X015719Y008023D01*
X015566Y008023D01*
X015489Y007946D01*
X015643Y008176D02*
X015796Y008330D01*
X015336Y008330D01*
X014457Y008426D02*
X014227Y008196D01*
X014227Y008503D01*
X013997Y008426D02*
X014457Y008426D01*
X014457Y007889D02*
X013997Y007889D01*
X013997Y007736D02*
X013997Y008042D01*
X013997Y007582D02*
X014150Y007429D01*
X014150Y007505D02*
X014150Y007275D01*
X013997Y007275D02*
X014457Y007275D01*
X014457Y007505D01*
X014381Y007582D01*
X014227Y007582D01*
X014150Y007505D01*
X014304Y007736D02*
X014457Y007889D01*
X018170Y011905D02*
X018631Y011905D01*
X018631Y012135D01*
X018554Y012212D01*
X018400Y012212D01*
X018324Y012135D01*
X018324Y011905D01*
X018324Y012059D02*
X018170Y012212D01*
X018170Y012365D02*
X018170Y012672D01*
X018170Y012519D02*
X018631Y012519D01*
X018477Y012365D01*
X018631Y012826D02*
X018631Y013133D01*
X018554Y013133D01*
X018247Y012826D01*
X018170Y012826D01*
M02*
