G75*
G70*
%OFA0B0*%
%FSLAX24Y24*%
%IPPOS*%
%LPD*%
%AMOC8*
5,1,8,0,0,1.08239X$1,22.5*
%
%ADD10C,0.0000*%
%ADD11C,0.0719*%
%ADD12OC8,0.0600*%
%ADD13R,0.0591X0.0434*%
%ADD14R,0.0434X0.0591*%
%ADD15R,0.0670X0.0552*%
%ADD16R,0.0552X0.0670*%
%ADD17C,0.1044*%
%ADD18C,0.0640*%
%ADD19C,0.1700*%
D10*
X000912Y000100D02*
X000912Y027659D01*
X018628Y027659D01*
X018628Y000100D01*
X000912Y000100D01*
D11*
X006014Y012004D03*
X006922Y012258D03*
X007609Y012954D03*
X007855Y013876D03*
X007601Y014798D03*
X006923Y015465D03*
X006006Y015720D03*
X005066Y015474D03*
X004399Y014790D03*
X004138Y013868D03*
X004388Y012946D03*
X011638Y013868D03*
X011888Y012946D03*
X011899Y014790D03*
X012566Y015474D03*
X013506Y015720D03*
X014423Y015465D03*
X015101Y014798D03*
X015355Y013876D03*
X015109Y012954D03*
X014422Y012258D03*
X013514Y012004D03*
D12*
X013254Y003151D03*
X013254Y002151D03*
X012254Y002151D03*
X012254Y003151D03*
X011254Y003151D03*
X011254Y002151D03*
X010254Y002151D03*
X010254Y003151D03*
X009254Y003151D03*
X009254Y002151D03*
X008254Y002151D03*
X008254Y003151D03*
X007254Y003151D03*
X007254Y002151D03*
X006254Y002151D03*
X006254Y003151D03*
X006254Y024222D03*
X006254Y025222D03*
X007254Y025222D03*
X007254Y024222D03*
X008254Y024222D03*
X008254Y025222D03*
X009254Y025222D03*
X009254Y024222D03*
X010254Y024222D03*
X010254Y025222D03*
X011254Y025222D03*
X011254Y024222D03*
X012254Y024222D03*
X012254Y025222D03*
X013254Y025222D03*
X013254Y024222D03*
D13*
X016790Y015848D03*
X016790Y015100D03*
X017144Y014340D03*
X017144Y013592D03*
X016278Y013966D03*
X015923Y015474D03*
X002986Y013927D03*
X002120Y014301D03*
X002120Y013553D03*
X001837Y004954D03*
X001837Y004206D03*
X002703Y004580D03*
D14*
X005345Y009498D03*
X005719Y010364D03*
X006093Y009498D03*
X006813Y009813D03*
X007187Y010679D03*
X007561Y009813D03*
X008006Y011230D03*
X008380Y012096D03*
X008754Y011230D03*
X008801Y013143D03*
X009175Y014009D03*
X009549Y013143D03*
X010124Y013191D03*
X010498Y014057D03*
X010872Y013191D03*
X011061Y016443D03*
X010687Y017309D03*
X011435Y017309D03*
X012077Y017742D03*
X012451Y016876D03*
X012825Y017742D03*
X013447Y017828D03*
X013821Y016962D03*
X014195Y017828D03*
X015349Y017631D03*
X015723Y016765D03*
X016097Y017631D03*
X016144Y012332D03*
X016518Y011466D03*
X015770Y011466D03*
X014853Y010474D03*
X015227Y009608D03*
X014479Y009608D03*
X013797Y009135D03*
X013049Y009135D03*
X013423Y010002D03*
X008994Y016899D03*
X008620Y016033D03*
X008246Y016899D03*
X007762Y017411D03*
X007388Y016545D03*
X007014Y017411D03*
X006372Y017687D03*
X005998Y016820D03*
X005624Y017687D03*
X004707Y017647D03*
X004333Y016781D03*
X003959Y017647D03*
X003061Y016734D03*
X002687Y015868D03*
X002313Y016734D03*
D15*
X002821Y017765D03*
X002821Y018513D03*
X004384Y018789D03*
X004384Y019537D03*
X006038Y019663D03*
X006038Y018915D03*
X007416Y019277D03*
X007416Y018529D03*
X008833Y018655D03*
X008833Y017907D03*
X011081Y018565D03*
X011081Y019313D03*
X012498Y019478D03*
X012498Y018730D03*
X013876Y018895D03*
X013876Y019643D03*
X015845Y019218D03*
X015845Y018470D03*
X017616Y017376D03*
X017616Y016628D03*
X017750Y012659D03*
X017750Y011911D03*
X014916Y008470D03*
X014916Y007722D03*
X013577Y008029D03*
X013577Y007281D03*
X010538Y011419D03*
X010538Y012167D03*
X009526Y012049D03*
X009526Y011301D03*
X008581Y010230D03*
X008581Y009482D03*
X007282Y008962D03*
X007282Y008214D03*
X005860Y007966D03*
X005860Y008714D03*
X002238Y011817D03*
X002238Y012565D03*
D16*
X003455Y004694D03*
X004203Y004694D03*
X015983Y010506D03*
X016731Y010506D03*
D17*
X016351Y008931D02*
X017355Y008931D01*
X017355Y007372D02*
X016351Y007372D01*
X016351Y005813D02*
X017355Y005813D01*
X002591Y005836D02*
X001587Y005836D01*
X001587Y007395D02*
X002591Y007395D01*
X002591Y008954D02*
X001587Y008954D01*
D18*
X002538Y003471D02*
X002538Y002871D01*
X003538Y002871D02*
X003538Y003471D01*
D19*
X002093Y001281D03*
X017447Y001281D03*
X017447Y026478D03*
X002093Y026478D03*
M02*
