%
M48
M72
T01C0.0236
T02C0.0240
T03C0.0360
T04C0.0400
T05C0.0453
T06C0.0669
T07C0.1260
%
T01
X4337Y7502
X3904Y8131
X2408Y10376
X5085Y11911
X6463Y10691
X7565Y11832
X8392Y14509
X9061Y15218
X7841Y16045
X6620Y16754
X5124Y16714
X3589Y15848
X3234Y14785
X5164Y19549
X8353Y19391
X11857Y16517
X13116Y16990
X14612Y16911
X15360Y15887
X16384Y14628
X16502Y13092
X15242Y11320
X14061Y10021
X14297Y7974
X12762Y7895
X16423Y16714
X13707Y20533
X13825Y21557
X16778Y23643
X6778Y26557
X6502Y8013
T02
X7211Y7698
X8038Y7777
X9573Y7698
X11069Y7777
X10360Y10730
X11148Y11911
X9967Y17029
X9967Y18210
X10360Y19391
X10360Y20179
X11148Y20966
X14297Y20179
X15085Y20179
X15085Y20966
X16975Y22974
X16660Y17423
X17447Y11124
X17447Y9943
X4849Y9943
X4455Y9549
X4455Y11911
X2880Y11517
X2486Y11124
X2093Y17817
X4849Y20179
X4849Y4116
T03
X6254Y3151
X6254Y2151
X7254Y2151
X7254Y3151
X8254Y3151
X8254Y2151
X9254Y2151
X9254Y3151
X10254Y3151
X10254Y2151
X11254Y2151
X11254Y3151
X12254Y3151
X12254Y2151
X13254Y2151
X13254Y3151
X13254Y24222
X13254Y25222
X12254Y25222
X12254Y24222
X11254Y24222
X11254Y25222
X10254Y25222
X10254Y24222
X9254Y24222
X9254Y25222
X8254Y25222
X8254Y24222
X7254Y24222
X7254Y25222
X6254Y25222
X6254Y24222
T04
X3538Y3171
X2538Y3171
T05
X6014Y12004
X6922Y12258
X7609Y12954
X7855Y13876
X7601Y14798
X6923Y15465
X6006Y15720
X5066Y15474
X4399Y14790
X4138Y13868
X4388Y12946
X11638Y13868
X11888Y12946
X11899Y14790
X12566Y15474
X13506Y15720
X14423Y15465
X15101Y14798
X15355Y13876
X15109Y12954
X14422Y12258
X13514Y12004
T06
X16853Y8931
X16853Y7372
X16853Y5813
X2089Y5836
X2089Y7395
X2089Y8954
T07
X2093Y1281
X17447Y1281
X17447Y26478
X2093Y26478
M30
