G75*
G70*
%OFA0B0*%
%FSLAX24Y24*%
%IPPOS*%
%LPD*%
%AMOC8*
5,1,8,0,0,1.08239X$1,22.5*
%
%ADD10C,0.0000*%
%ADD11C,0.0679*%
%ADD12OC8,0.0560*%
%ADD13R,0.0591X0.0512*%
%ADD14C,0.1004*%
%ADD15C,0.0600*%
%ADD16C,0.0100*%
%ADD17C,0.0360*%
%ADD18C,0.0356*%
%ADD19C,0.0120*%
%ADD20C,0.0079*%
%ADD21C,0.0160*%
%ADD22R,0.0356X0.0356*%
%ADD23C,0.1660*%
D10*
X000912Y000100D02*
X000912Y027659D01*
X018628Y027659D01*
X018628Y000100D01*
X000912Y000100D01*
D11*
X006014Y012004D03*
X006922Y012258D03*
X007609Y012954D03*
X007855Y013876D03*
X007601Y014798D03*
X006923Y015465D03*
X006006Y015720D03*
X005066Y015474D03*
X004399Y014790D03*
X004138Y013868D03*
X004388Y012946D03*
X011638Y013868D03*
X011888Y012946D03*
X011899Y014790D03*
X012566Y015474D03*
X013506Y015720D03*
X014423Y015465D03*
X015101Y014798D03*
X015355Y013876D03*
X015109Y012954D03*
X014422Y012258D03*
X013514Y012004D03*
D12*
X013254Y003151D03*
X013254Y002151D03*
X012254Y002151D03*
X012254Y003151D03*
X011254Y003151D03*
X011254Y002151D03*
X010254Y002151D03*
X010254Y003151D03*
X009254Y003151D03*
X009254Y002151D03*
X008254Y002151D03*
X008254Y003151D03*
X007254Y003151D03*
X007254Y002151D03*
X006254Y002151D03*
X006254Y003151D03*
X006254Y024222D03*
X006254Y025222D03*
X007254Y025222D03*
X007254Y024222D03*
X008254Y024222D03*
X008254Y025222D03*
X009254Y025222D03*
X009254Y024222D03*
X010254Y024222D03*
X010254Y025222D03*
X011254Y025222D03*
X011254Y024222D03*
X012254Y024222D03*
X012254Y025222D03*
X013254Y025222D03*
X013254Y024222D03*
D13*
X003569Y010899D03*
X003569Y010230D03*
X003884Y005710D03*
X003884Y005041D03*
X011916Y009041D03*
X011916Y009710D03*
D14*
X016351Y008931D02*
X017355Y008931D01*
X017355Y007372D02*
X016351Y007372D01*
X016351Y005813D02*
X017355Y005813D01*
X002591Y005836D02*
X001587Y005836D01*
X001587Y007395D02*
X002591Y007395D01*
X002591Y008954D02*
X001587Y008954D01*
D15*
X002538Y003471D02*
X002538Y002871D01*
X003538Y002871D02*
X003538Y003471D01*
D16*
X004849Y004116D02*
X004849Y009155D01*
X004455Y009549D01*
X004849Y009943D02*
X005242Y009549D01*
X005242Y002462D01*
X006030Y001478D01*
X008786Y001478D01*
X008786Y002462D01*
X009179Y002856D01*
X009179Y003250D01*
X009254Y003151D01*
X008786Y002856D02*
X008392Y002462D01*
X008392Y002069D01*
X008254Y002151D01*
X008786Y002856D02*
X008786Y006399D01*
X009573Y007698D01*
X010754Y006793D02*
X010754Y002069D01*
X010439Y001320D01*
X009258Y001320D01*
X009258Y002108D01*
X009254Y002151D01*
X007254Y002151D02*
X007211Y002069D01*
X006778Y002462D01*
X006778Y006754D01*
X007211Y007698D01*
X006502Y007383D02*
X006502Y008013D01*
X006502Y007383D02*
X006500Y007368D01*
X006496Y007353D01*
X006489Y007339D01*
X006479Y007327D01*
X006467Y007317D01*
X006453Y007310D01*
X006438Y007306D01*
X006423Y007304D01*
X006399Y007302D01*
X006375Y007297D01*
X006353Y007289D01*
X006332Y007277D01*
X006312Y007263D01*
X006295Y007246D01*
X006281Y007226D01*
X006269Y007205D01*
X006261Y007183D01*
X006256Y007159D01*
X006254Y007135D01*
X006254Y003151D01*
X005636Y002462D02*
X006030Y002069D01*
X006254Y002151D01*
X005636Y002462D02*
X005636Y010730D01*
X004455Y011911D01*
X004455Y012698D02*
X004388Y012946D01*
X004455Y012698D02*
X003549Y011911D01*
X003569Y010899D01*
X002486Y011124D02*
X002486Y017423D01*
X002093Y017817D01*
X001581Y017502D02*
X001583Y017469D01*
X001588Y017437D01*
X001596Y017405D01*
X001608Y017374D01*
X001623Y017344D01*
X001641Y017317D01*
X001662Y017291D01*
X001685Y017268D01*
X001711Y017247D01*
X001739Y017229D01*
X001768Y017214D01*
X001799Y017202D01*
X001831Y017194D01*
X001863Y017189D01*
X001896Y017187D01*
X001896Y011714D01*
X001897Y011704D01*
X001901Y011694D01*
X001907Y011686D01*
X001916Y011680D01*
X001925Y011676D01*
X001935Y011675D01*
X001935Y010848D01*
X001936Y010848D02*
X001938Y010807D01*
X001943Y010766D01*
X001952Y010726D01*
X001964Y010687D01*
X001980Y010649D01*
X001999Y010612D01*
X002021Y010577D01*
X002046Y010545D01*
X002074Y010514D01*
X002105Y010486D01*
X002137Y010461D01*
X002172Y010439D01*
X002209Y010420D01*
X002247Y010404D01*
X002286Y010392D01*
X002326Y010383D01*
X002367Y010378D01*
X002408Y010376D01*
X008038Y007777D02*
X007211Y006399D01*
X007211Y003250D01*
X007254Y003151D01*
X010754Y006793D02*
X011069Y007777D01*
X011916Y009710D02*
X011935Y012029D01*
X011935Y012698D01*
X011888Y012946D01*
X011148Y011911D02*
X011148Y020966D01*
X010360Y020179D02*
X010360Y024116D01*
X010254Y024222D01*
X010754Y024903D02*
X010360Y025297D01*
X010254Y025222D01*
X010754Y024903D02*
X010754Y019785D01*
X010360Y019391D01*
X010360Y018604D02*
X006423Y022541D01*
X006423Y024116D01*
X006254Y024222D01*
X005636Y024604D02*
X005638Y024652D01*
X005644Y024701D01*
X005653Y024748D01*
X005666Y024795D01*
X005683Y024840D01*
X005703Y024885D01*
X005727Y024927D01*
X005754Y024967D01*
X005784Y025005D01*
X005817Y025041D01*
X005853Y025074D01*
X005891Y025104D01*
X005931Y025131D01*
X005973Y025155D01*
X006018Y025175D01*
X006063Y025192D01*
X006110Y025205D01*
X006157Y025214D01*
X006206Y025220D01*
X006254Y025222D01*
X005636Y024604D02*
X005636Y021754D01*
X005634Y021700D01*
X005629Y021647D01*
X005620Y021594D01*
X005607Y021542D01*
X005591Y021490D01*
X005571Y021440D01*
X005548Y021392D01*
X005521Y021345D01*
X005492Y021300D01*
X005459Y021257D01*
X005424Y021217D01*
X005386Y021179D01*
X005346Y021144D01*
X005303Y021111D01*
X005258Y021082D01*
X005211Y021055D01*
X005163Y021032D01*
X005113Y021012D01*
X005061Y020996D01*
X005009Y020983D01*
X004956Y020974D01*
X004903Y020969D01*
X004849Y020967D01*
X004849Y020966D02*
X004376Y020966D01*
X004239Y020963D01*
X004102Y020953D01*
X003966Y020936D01*
X003831Y020912D01*
X003697Y020882D01*
X003565Y020846D01*
X003434Y020803D01*
X003306Y020753D01*
X003181Y020698D01*
X003058Y020636D01*
X002939Y020568D01*
X002823Y020495D01*
X002711Y020416D01*
X002603Y020332D01*
X002499Y020242D01*
X002400Y020147D01*
X002305Y020048D01*
X002215Y019944D01*
X002131Y019836D01*
X002052Y019724D01*
X001979Y019608D01*
X001911Y019489D01*
X001849Y019366D01*
X001794Y019241D01*
X001744Y019113D01*
X001701Y018982D01*
X001665Y018850D01*
X001635Y018716D01*
X001611Y018581D01*
X001594Y018445D01*
X001584Y018308D01*
X001581Y018171D01*
X001581Y017502D01*
X006778Y022974D02*
X008195Y022974D01*
X008234Y024076D01*
X008254Y024222D01*
X008254Y025222D02*
X008392Y025297D01*
X008392Y026478D01*
X014691Y026478D01*
X015085Y026084D01*
X015085Y024116D01*
X015479Y023722D01*
X015479Y018604D01*
X016660Y017423D01*
X016030Y016281D02*
X016030Y012895D01*
X015085Y011950D01*
X015048Y011948D01*
X015011Y011942D01*
X014976Y011933D01*
X014941Y011919D01*
X014908Y011903D01*
X014877Y011882D01*
X014848Y011859D01*
X014822Y011833D01*
X014799Y011804D01*
X014778Y011773D01*
X014762Y011740D01*
X014748Y011705D01*
X014739Y011670D01*
X014733Y011633D01*
X014731Y011596D01*
X014731Y009194D01*
X014729Y009168D01*
X014724Y009143D01*
X014716Y009119D01*
X014705Y009095D01*
X014690Y009074D01*
X014673Y009055D01*
X014654Y009038D01*
X014632Y009023D01*
X014609Y009012D01*
X014585Y009004D01*
X014560Y008999D01*
X014534Y008997D01*
X014534Y008998D02*
X014416Y008998D01*
X014396Y008996D01*
X014376Y008991D01*
X014357Y008982D01*
X014340Y008970D01*
X014326Y008956D01*
X014314Y008939D01*
X014305Y008920D01*
X014300Y008900D01*
X014298Y008880D01*
X014297Y008880D02*
X014297Y007974D01*
X016660Y007187D02*
X016853Y007372D01*
X017447Y009943D02*
X017113Y010193D01*
X016975Y010297D01*
X016030Y016281D02*
X016028Y016345D01*
X016022Y016409D01*
X016013Y016473D01*
X015999Y016535D01*
X015982Y016597D01*
X015961Y016658D01*
X015936Y016717D01*
X015908Y016775D01*
X015877Y016831D01*
X015842Y016885D01*
X015804Y016937D01*
X015763Y016986D01*
X015719Y017033D01*
X015672Y017077D01*
X015623Y017118D01*
X015571Y017156D01*
X015517Y017191D01*
X015461Y017222D01*
X015403Y017250D01*
X015344Y017275D01*
X015283Y017296D01*
X015221Y017313D01*
X015159Y017327D01*
X015095Y017336D01*
X015031Y017342D01*
X014967Y017344D01*
X014494Y017462D01*
X014441Y017461D01*
X014388Y017464D01*
X014334Y017471D01*
X014282Y017481D01*
X014230Y017495D01*
X014180Y017513D01*
X014131Y017535D01*
X014084Y017559D01*
X014038Y017588D01*
X013995Y017619D01*
X013954Y017653D01*
X013916Y017690D01*
X013880Y017730D01*
X013847Y017773D01*
X013817Y017817D01*
X013791Y017863D01*
X013768Y017912D01*
X013748Y017962D01*
X013732Y018013D01*
X013720Y018065D01*
X013712Y018117D01*
X013707Y018171D01*
X013707Y020533D01*
X014376Y020415D02*
X014297Y020179D01*
X015085Y020179D02*
X015085Y020966D01*
X010360Y018604D02*
X010360Y010730D01*
X009967Y017029D02*
X009967Y018210D01*
X006778Y022974D02*
X006778Y026557D01*
X009179Y025297D02*
X009254Y025222D01*
D17*
X011148Y020966D03*
X010360Y020179D03*
X010360Y019391D03*
X009967Y018210D03*
X009967Y017029D03*
X011148Y011911D03*
X010360Y010730D03*
X011069Y007777D03*
X009573Y007698D03*
X008038Y007777D03*
X007211Y007698D03*
X004849Y009943D03*
X004455Y009549D03*
X004455Y011911D03*
X002880Y011517D03*
X002486Y011124D03*
X002093Y017817D03*
X004849Y020179D03*
X014297Y020179D03*
X015085Y020179D03*
X015085Y020966D03*
X016975Y022974D03*
X016660Y017423D03*
X017447Y011124D03*
X017447Y009943D03*
X004849Y004116D03*
D18*
X004337Y007502D03*
X003904Y008131D03*
X002408Y010376D03*
X005085Y011911D03*
X006463Y010691D03*
X007565Y011832D03*
X008392Y014509D03*
X009061Y015218D03*
X007841Y016045D03*
X006620Y016754D03*
X005124Y016714D03*
X003589Y015848D03*
X003234Y014785D03*
X005164Y019549D03*
X008353Y019391D03*
X011857Y016517D03*
X013116Y016990D03*
X014612Y016911D03*
X015360Y015887D03*
X016384Y014628D03*
X016502Y013092D03*
X015242Y011320D03*
X014061Y010021D03*
X014297Y007974D03*
X012762Y007895D03*
X016423Y016714D03*
X013707Y020533D03*
X006502Y008013D03*
D19*
X008254Y007128D02*
X008254Y003151D01*
X009770Y004785D02*
X009803Y004787D01*
X009835Y004792D01*
X009867Y004800D01*
X009898Y004812D01*
X009927Y004827D01*
X009955Y004845D01*
X009981Y004866D01*
X010004Y004889D01*
X010025Y004915D01*
X010043Y004942D01*
X010058Y004972D01*
X010070Y005003D01*
X010078Y005035D01*
X010083Y005067D01*
X010085Y005100D01*
X010085Y010179D01*
X010084Y010179D02*
X010082Y010201D01*
X010078Y010223D01*
X010070Y010244D01*
X010059Y010264D01*
X010046Y010282D01*
X010030Y010298D01*
X010012Y010311D01*
X009992Y010322D01*
X009971Y010330D01*
X009949Y010334D01*
X009927Y010336D01*
X009901Y010338D01*
X009876Y010343D01*
X009852Y010351D01*
X009828Y010362D01*
X009807Y010377D01*
X009788Y010394D01*
X009771Y010413D01*
X009756Y010435D01*
X009745Y010458D01*
X009737Y010482D01*
X009732Y010507D01*
X009730Y010533D01*
X009731Y010533D02*
X009731Y010927D01*
X009753Y010929D01*
X009775Y010933D01*
X009796Y010941D01*
X009816Y010952D01*
X009834Y010965D01*
X009850Y010981D01*
X009863Y010999D01*
X009874Y011019D01*
X009882Y011040D01*
X009886Y011062D01*
X009888Y011084D01*
X009888Y016360D01*
X009886Y016391D01*
X009881Y016421D01*
X009873Y016451D01*
X009861Y016480D01*
X009846Y016507D01*
X009828Y016532D01*
X009807Y016555D01*
X009784Y016576D01*
X009759Y016594D01*
X009732Y016609D01*
X009703Y016621D01*
X009673Y016629D01*
X009643Y016634D01*
X009612Y016636D01*
X009612Y016635D02*
X009534Y016635D01*
X009534Y016636D02*
X009497Y016638D01*
X009460Y016644D01*
X009425Y016653D01*
X009390Y016667D01*
X009357Y016683D01*
X009326Y016704D01*
X009297Y016727D01*
X009271Y016753D01*
X009248Y016782D01*
X009227Y016813D01*
X009211Y016846D01*
X009197Y016881D01*
X009188Y016916D01*
X009182Y016953D01*
X009180Y016990D01*
X009179Y016990D02*
X009179Y018840D01*
X008353Y019391D02*
X008353Y016635D01*
X008355Y016585D01*
X008360Y016535D01*
X008370Y016486D01*
X008383Y016438D01*
X008399Y016391D01*
X008419Y016345D01*
X008443Y016301D01*
X008469Y016258D01*
X008499Y016218D01*
X008532Y016180D01*
X008567Y016145D01*
X008605Y016112D01*
X008645Y016082D01*
X008687Y016056D01*
X008732Y016032D01*
X008778Y016012D01*
X008825Y015996D01*
X008873Y015983D01*
X008922Y015973D01*
X008972Y015968D01*
X009022Y015966D01*
X009063Y015964D01*
X009104Y015959D01*
X009144Y015950D01*
X009183Y015938D01*
X009221Y015922D01*
X009258Y015903D01*
X009293Y015881D01*
X009325Y015856D01*
X009356Y015828D01*
X009384Y015797D01*
X009409Y015765D01*
X009431Y015730D01*
X009450Y015693D01*
X009466Y015655D01*
X009478Y015616D01*
X009487Y015576D01*
X009492Y015535D01*
X009494Y015494D01*
X009494Y014943D01*
X009492Y014915D01*
X009487Y014887D01*
X009479Y014859D01*
X009467Y014833D01*
X009452Y014809D01*
X009435Y014787D01*
X009414Y014766D01*
X009392Y014749D01*
X009368Y014734D01*
X009342Y014722D01*
X009314Y014714D01*
X009286Y014709D01*
X009258Y014707D01*
X009219Y014705D01*
X009181Y014699D01*
X009144Y014690D01*
X009107Y014677D01*
X009072Y014660D01*
X009039Y014641D01*
X009008Y014618D01*
X008979Y014592D01*
X008953Y014563D01*
X008930Y014532D01*
X008911Y014499D01*
X008894Y014464D01*
X008881Y014427D01*
X008872Y014390D01*
X008866Y014352D01*
X008864Y014313D01*
X008864Y007738D01*
X008862Y007710D01*
X008857Y007682D01*
X008849Y007654D01*
X008837Y007628D01*
X008822Y007604D01*
X008805Y007582D01*
X008784Y007561D01*
X008762Y007544D01*
X008738Y007529D01*
X008712Y007517D01*
X008684Y007509D01*
X008656Y007504D01*
X008628Y007502D01*
X008591Y007500D01*
X008555Y007495D01*
X008519Y007486D01*
X008485Y007474D01*
X008452Y007458D01*
X008420Y007439D01*
X008391Y007417D01*
X008364Y007392D01*
X008339Y007365D01*
X008317Y007336D01*
X008298Y007304D01*
X008282Y007271D01*
X008270Y007237D01*
X008261Y007201D01*
X008256Y007165D01*
X008254Y007128D01*
X012762Y007895D02*
X012815Y008012D01*
X012864Y008130D01*
X012907Y008251D01*
X012944Y008374D01*
X012976Y008499D01*
X013002Y008624D01*
X013023Y008751D01*
X013037Y008879D01*
X013046Y009007D01*
X013049Y009135D01*
X012762Y007895D02*
X012764Y007839D01*
X012770Y007782D01*
X012779Y007727D01*
X012793Y007672D01*
X012810Y007618D01*
X012830Y007566D01*
X012855Y007515D01*
X012882Y007465D01*
X012913Y007418D01*
X012947Y007373D01*
X012985Y007331D01*
X013025Y007291D01*
X013067Y007253D01*
X013112Y007219D01*
X013159Y007188D01*
X013209Y007161D01*
X013260Y007136D01*
X013312Y007116D01*
X013366Y007099D01*
X013421Y007085D01*
X013476Y007076D01*
X013533Y007070D01*
X013589Y007068D01*
X013589Y007069D02*
X014573Y007069D01*
X014573Y007068D02*
X014619Y007070D01*
X014665Y007075D01*
X014711Y007084D01*
X014756Y007097D01*
X014799Y007113D01*
X014841Y007132D01*
X014882Y007155D01*
X014920Y007181D01*
X014957Y007210D01*
X014991Y007241D01*
X015022Y007275D01*
X015051Y007312D01*
X015077Y007350D01*
X015100Y007391D01*
X015119Y007433D01*
X015135Y007476D01*
X015148Y007521D01*
X015157Y007567D01*
X015162Y007613D01*
X015164Y007659D01*
X016853Y008931D02*
X016851Y008976D01*
X016846Y009022D01*
X016837Y009066D01*
X016825Y009110D01*
X016809Y009153D01*
X016790Y009194D01*
X016768Y009234D01*
X016742Y009271D01*
X016714Y009307D01*
X016683Y009340D01*
X016650Y009371D01*
X016614Y009399D01*
X016577Y009425D01*
X016537Y009447D01*
X016496Y009466D01*
X016453Y009482D01*
X016409Y009494D01*
X016365Y009503D01*
X016319Y009508D01*
X016274Y009510D01*
X016274Y009509D02*
X015872Y009509D01*
X015823Y009511D01*
X015773Y009517D01*
X015725Y009526D01*
X015677Y009540D01*
X015631Y009557D01*
X015586Y009578D01*
X015543Y009602D01*
X015502Y009629D01*
X015463Y009660D01*
X015427Y009694D01*
X015393Y009730D01*
X015362Y009769D01*
X015335Y009810D01*
X015311Y009853D01*
X015290Y009898D01*
X015273Y009944D01*
X015259Y009992D01*
X015250Y010040D01*
X015244Y010090D01*
X015242Y010139D01*
X015242Y011320D01*
X015244Y011371D01*
X015249Y011421D01*
X015258Y011471D01*
X015271Y011520D01*
X015287Y011568D01*
X015306Y011615D01*
X015329Y011660D01*
X015355Y011703D01*
X015383Y011745D01*
X015415Y011784D01*
X015450Y011821D01*
X015487Y011856D01*
X015526Y011888D01*
X015568Y011916D01*
X015611Y011942D01*
X015656Y011965D01*
X015703Y011984D01*
X015751Y012000D01*
X015800Y012013D01*
X015850Y012022D01*
X015900Y012027D01*
X015951Y012029D01*
X015990Y012029D01*
X016032Y012031D01*
X016074Y012036D01*
X016116Y012045D01*
X016156Y012057D01*
X016196Y012072D01*
X016234Y012091D01*
X016270Y012112D01*
X016304Y012137D01*
X016337Y012164D01*
X016367Y012194D01*
X016394Y012227D01*
X016419Y012261D01*
X016440Y012297D01*
X016459Y012335D01*
X016474Y012375D01*
X016486Y012415D01*
X016495Y012457D01*
X016500Y012499D01*
X016502Y012541D01*
X016502Y013092D01*
X016482Y013094D01*
X016462Y013099D01*
X016443Y013108D01*
X016426Y013120D01*
X016412Y013134D01*
X016400Y013151D01*
X016391Y013170D01*
X016386Y013190D01*
X016384Y013210D01*
X016384Y014628D01*
X016394Y014629D01*
X016403Y014633D01*
X016412Y014639D01*
X016418Y014647D01*
X016422Y014657D01*
X016423Y014667D01*
X016423Y016714D01*
X015360Y016163D02*
X015360Y015887D01*
X015360Y016163D02*
X015358Y016216D01*
X015352Y016269D01*
X015343Y016322D01*
X015330Y016374D01*
X015313Y016424D01*
X015292Y016474D01*
X015269Y016521D01*
X015241Y016567D01*
X015211Y016611D01*
X015177Y016653D01*
X015141Y016692D01*
X015102Y016728D01*
X015060Y016762D01*
X015016Y016792D01*
X014970Y016820D01*
X014923Y016843D01*
X014873Y016864D01*
X014823Y016881D01*
X014771Y016894D01*
X014718Y016903D01*
X014665Y016909D01*
X014612Y016911D01*
X014376Y020257D02*
X014376Y025376D01*
X014374Y025425D01*
X014368Y025475D01*
X014359Y025523D01*
X014345Y025571D01*
X014328Y025617D01*
X014307Y025662D01*
X014283Y025705D01*
X014256Y025746D01*
X014225Y025785D01*
X014191Y025821D01*
X014155Y025855D01*
X014116Y025886D01*
X014075Y025913D01*
X014032Y025937D01*
X013987Y025958D01*
X013941Y025975D01*
X013893Y025989D01*
X013845Y025998D01*
X013795Y026004D01*
X013746Y026006D01*
X009888Y026006D01*
X009837Y026004D01*
X009787Y025999D01*
X009737Y025990D01*
X009688Y025977D01*
X009640Y025961D01*
X009593Y025942D01*
X009548Y025919D01*
X009505Y025893D01*
X009463Y025865D01*
X009424Y025833D01*
X009387Y025798D01*
X009352Y025761D01*
X009320Y025722D01*
X009292Y025680D01*
X009266Y025637D01*
X009243Y025592D01*
X009224Y025545D01*
X009208Y025497D01*
X009195Y025448D01*
X009186Y025398D01*
X009181Y025348D01*
X009179Y025297D01*
X007841Y020179D02*
X005794Y020179D01*
X005745Y020177D01*
X005695Y020171D01*
X005647Y020162D01*
X005599Y020148D01*
X005553Y020131D01*
X005508Y020110D01*
X005465Y020086D01*
X005424Y020059D01*
X005385Y020028D01*
X005349Y019994D01*
X005315Y019958D01*
X005284Y019919D01*
X005257Y019878D01*
X005233Y019835D01*
X005212Y019790D01*
X005195Y019744D01*
X005181Y019696D01*
X005172Y019648D01*
X005166Y019598D01*
X005164Y019549D01*
X004849Y020179D02*
X004755Y020177D01*
X004662Y020170D01*
X004569Y020159D01*
X004476Y020143D01*
X004385Y020123D01*
X004294Y020099D01*
X004205Y020071D01*
X004117Y020038D01*
X004031Y020001D01*
X003947Y019960D01*
X003864Y019915D01*
X003784Y019866D01*
X003707Y019814D01*
X003632Y019758D01*
X003560Y019698D01*
X003490Y019635D01*
X003424Y019569D01*
X003361Y019499D01*
X003301Y019427D01*
X003245Y019352D01*
X003193Y019275D01*
X003144Y019195D01*
X003099Y019112D01*
X003058Y019028D01*
X003021Y018942D01*
X002988Y018854D01*
X002960Y018765D01*
X002936Y018674D01*
X002916Y018583D01*
X002900Y018490D01*
X002889Y018397D01*
X002882Y018304D01*
X002880Y018210D01*
X002880Y011517D01*
X003569Y010230D02*
X003530Y008742D01*
X003786Y008013D02*
X003786Y007305D01*
X003785Y007253D01*
X003781Y007202D01*
X003773Y007151D01*
X003761Y007101D01*
X003745Y007052D01*
X003726Y007004D01*
X003703Y006958D01*
X003677Y006913D01*
X003648Y006871D01*
X003615Y006831D01*
X003580Y006794D01*
X003542Y006759D01*
X003501Y006727D01*
X003458Y006698D01*
X003414Y006673D01*
X003367Y006651D01*
X003319Y006633D01*
X003269Y006618D01*
X003219Y006607D01*
X003168Y006600D01*
X003117Y006596D01*
X003116Y006596D02*
X002565Y005927D01*
X002089Y007395D02*
X002091Y007413D01*
X002095Y007431D01*
X002103Y007448D01*
X002114Y007463D01*
X002127Y007476D01*
X002142Y007487D01*
X002159Y007495D01*
X002177Y007499D01*
X002195Y007501D01*
X002195Y007502D02*
X002290Y007502D01*
X002360Y007504D01*
X002429Y007510D01*
X002498Y007520D01*
X002566Y007533D01*
X002633Y007550D01*
X002700Y007572D01*
X002765Y007596D01*
X002828Y007625D01*
X002890Y007657D01*
X002950Y007692D01*
X003008Y007731D01*
X003063Y007773D01*
X003116Y007817D01*
X003167Y007865D01*
X003215Y007916D01*
X003259Y007969D01*
X003301Y008024D01*
X003340Y008082D01*
X003375Y008142D01*
X003407Y008204D01*
X003436Y008267D01*
X003460Y008332D01*
X003482Y008399D01*
X003499Y008466D01*
X003512Y008534D01*
X003522Y008603D01*
X003528Y008672D01*
X003530Y008742D01*
X009180Y018840D02*
X009178Y018912D01*
X009172Y018985D01*
X009162Y019057D01*
X009149Y019128D01*
X009131Y019198D01*
X009110Y019268D01*
X009085Y019336D01*
X009056Y019402D01*
X009024Y019467D01*
X008988Y019530D01*
X008949Y019591D01*
X008907Y019650D01*
X008862Y019707D01*
X008813Y019761D01*
X008762Y019812D01*
X008708Y019861D01*
X008651Y019906D01*
X008592Y019948D01*
X008531Y019987D01*
X008468Y020023D01*
X008403Y020055D01*
X008337Y020084D01*
X008269Y020109D01*
X008199Y020130D01*
X008129Y020148D01*
X008058Y020161D01*
X007986Y020171D01*
X007913Y020177D01*
X007841Y020179D01*
X014297Y020178D02*
X014312Y020180D01*
X014327Y020184D01*
X014341Y020191D01*
X014353Y020201D01*
X014363Y020213D01*
X014370Y020227D01*
X014374Y020242D01*
X014376Y020257D01*
X014061Y010021D02*
X013935Y010021D01*
X013877Y010019D01*
X013819Y010013D01*
X013762Y010004D01*
X013706Y009991D01*
X013650Y009974D01*
X013596Y009954D01*
X013543Y009930D01*
X013492Y009902D01*
X013443Y009872D01*
X013396Y009838D01*
X013351Y009801D01*
X013309Y009761D01*
X013269Y009719D01*
X013232Y009674D01*
X013198Y009627D01*
X013168Y009578D01*
X013140Y009527D01*
X013116Y009474D01*
X013096Y009420D01*
X013079Y009364D01*
X013066Y009308D01*
X013057Y009251D01*
X013051Y009193D01*
X013049Y009135D01*
X016435Y008931D02*
X016853Y008931D01*
X016853Y008930D02*
X016783Y008948D01*
X016712Y008963D01*
X016641Y008973D01*
X016569Y008979D01*
X016497Y008982D01*
X016425Y008981D01*
X016354Y008975D01*
X016282Y008966D01*
X016211Y008953D01*
X016141Y008936D01*
X016072Y008915D01*
X016005Y008891D01*
X015938Y008863D01*
X015874Y008831D01*
X015811Y008796D01*
X015750Y008758D01*
X015691Y008716D01*
X015635Y008671D01*
X015581Y008623D01*
X015530Y008572D01*
X015482Y008519D01*
X015436Y008463D01*
X015394Y008405D01*
X015355Y008344D01*
X015320Y008282D01*
X015287Y008217D01*
X015259Y008151D01*
X015234Y008083D01*
X015213Y008015D01*
X015195Y007945D01*
X015182Y007874D01*
X015172Y007803D01*
X015166Y007731D01*
X015164Y007659D01*
D20*
X016975Y010297D02*
X017014Y010336D01*
X014613Y016911D02*
X014611Y016926D01*
X014607Y016941D01*
X014600Y016955D01*
X014590Y016967D01*
X014578Y016977D01*
X014564Y016984D01*
X014549Y016988D01*
X014534Y016990D01*
X013116Y016990D01*
X012644Y016517D01*
X011857Y016517D01*
X009061Y015218D02*
X008668Y015218D01*
X008392Y014509D02*
X008392Y012659D01*
X008390Y012603D01*
X008384Y012546D01*
X008375Y012491D01*
X008361Y012436D01*
X008344Y012382D01*
X008324Y012330D01*
X008299Y012279D01*
X008272Y012229D01*
X008241Y012182D01*
X008207Y012137D01*
X008169Y012095D01*
X008129Y012055D01*
X008087Y012017D01*
X008042Y011983D01*
X007995Y011952D01*
X007945Y011925D01*
X007894Y011900D01*
X007842Y011880D01*
X007788Y011863D01*
X007733Y011849D01*
X007678Y011840D01*
X007621Y011834D01*
X007565Y011832D01*
X007565Y011793D01*
X007563Y011729D01*
X007558Y011665D01*
X007548Y011602D01*
X007535Y011539D01*
X007519Y011477D01*
X007499Y011416D01*
X007475Y011357D01*
X007448Y011298D01*
X007417Y011242D01*
X007384Y011187D01*
X007347Y011135D01*
X007307Y011085D01*
X007265Y011037D01*
X007219Y010991D01*
X007171Y010949D01*
X007121Y010909D01*
X007069Y010872D01*
X007014Y010839D01*
X006958Y010808D01*
X006899Y010781D01*
X006840Y010757D01*
X006779Y010737D01*
X006717Y010721D01*
X006654Y010708D01*
X006591Y010698D01*
X006527Y010693D01*
X006463Y010691D01*
X006461Y010728D01*
X006455Y010765D01*
X006446Y010800D01*
X006432Y010835D01*
X006416Y010868D01*
X006395Y010899D01*
X006372Y010928D01*
X006346Y010954D01*
X006317Y010977D01*
X006286Y010998D01*
X006253Y011014D01*
X006218Y011028D01*
X006183Y011037D01*
X006146Y011043D01*
X006109Y011045D01*
X006069Y011045D01*
X005085Y011911D01*
X003589Y015139D02*
X003589Y015848D01*
X003588Y015139D02*
X003586Y015102D01*
X003580Y015065D01*
X003571Y015030D01*
X003557Y014995D01*
X003541Y014962D01*
X003520Y014931D01*
X003497Y014902D01*
X003471Y014876D01*
X003442Y014853D01*
X003411Y014832D01*
X003378Y014816D01*
X003343Y014802D01*
X003308Y014793D01*
X003271Y014787D01*
X003234Y014785D01*
X003589Y015848D02*
X003591Y015905D01*
X003596Y015961D01*
X003606Y016017D01*
X003619Y016072D01*
X003635Y016126D01*
X003655Y016179D01*
X003678Y016231D01*
X003705Y016281D01*
X003735Y016329D01*
X003768Y016375D01*
X003804Y016419D01*
X003843Y016460D01*
X003884Y016499D01*
X003928Y016535D01*
X003974Y016568D01*
X004022Y016598D01*
X004072Y016625D01*
X004124Y016648D01*
X004177Y016668D01*
X004231Y016684D01*
X004286Y016697D01*
X004342Y016707D01*
X004398Y016712D01*
X004455Y016714D01*
X005124Y016714D01*
X006620Y016754D01*
X007132Y016754D01*
X007183Y016752D01*
X007233Y016747D01*
X007283Y016738D01*
X007332Y016725D01*
X007380Y016709D01*
X007427Y016690D01*
X007472Y016667D01*
X007515Y016641D01*
X007557Y016613D01*
X007596Y016581D01*
X007633Y016546D01*
X007668Y016509D01*
X007700Y016470D01*
X007728Y016428D01*
X007754Y016385D01*
X007777Y016340D01*
X007796Y016293D01*
X007812Y016245D01*
X007825Y016196D01*
X007834Y016146D01*
X007839Y016096D01*
X007841Y016045D01*
X007843Y015989D01*
X007849Y015932D01*
X007858Y015877D01*
X007872Y015822D01*
X007889Y015768D01*
X007909Y015716D01*
X007934Y015665D01*
X007961Y015615D01*
X007992Y015568D01*
X008026Y015523D01*
X008064Y015481D01*
X008104Y015441D01*
X008146Y015403D01*
X008191Y015369D01*
X008238Y015338D01*
X008288Y015311D01*
X008339Y015286D01*
X008391Y015266D01*
X008445Y015249D01*
X008500Y015235D01*
X008555Y015226D01*
X008612Y015220D01*
X008668Y015218D01*
X003292Y023067D02*
X002995Y023309D01*
X002876Y023247D02*
X002706Y023657D01*
X001876Y023568D02*
X001849Y023614D01*
X001826Y023663D01*
X001805Y023712D01*
X001788Y023763D01*
X001774Y023815D01*
X001393Y023854D01*
X001393Y024142D01*
X001774Y024180D01*
X001877Y024428D02*
X001634Y024725D01*
X001838Y024928D01*
X002135Y024686D01*
X002383Y024789D02*
X002421Y025170D01*
X002709Y025170D01*
X002748Y024789D01*
X002995Y024686D02*
X003292Y024928D01*
X003496Y024725D01*
X003254Y024428D01*
X003356Y024180D02*
X003737Y024142D01*
X003737Y023854D01*
X003356Y023815D01*
X003254Y023567D02*
X003496Y023270D01*
X003292Y023067D01*
X002995Y024687D02*
X002949Y024714D01*
X002900Y024737D01*
X002851Y024758D01*
X002800Y024775D01*
X002748Y024789D01*
X002995Y023309D02*
X002957Y023287D01*
X002917Y023266D01*
X002876Y023248D01*
X002424Y023657D02*
X002254Y023247D01*
X002135Y023309D02*
X001838Y023067D01*
X001634Y023270D01*
X001877Y023567D01*
X002135Y023309D02*
X002173Y023287D01*
X002213Y023266D01*
X002254Y023248D01*
X003254Y023568D02*
X003281Y023614D01*
X003304Y023663D01*
X003325Y023712D01*
X003342Y023763D01*
X003356Y023815D01*
X002706Y023657D02*
X002740Y023673D01*
X002773Y023693D01*
X002803Y023716D01*
X002831Y023742D01*
X002856Y023771D01*
X002877Y023802D01*
X002896Y023835D01*
X002911Y023870D01*
X002922Y023906D01*
X002930Y023943D01*
X002934Y023981D01*
X002933Y024019D01*
X002929Y024056D01*
X002921Y024094D01*
X002910Y024130D01*
X002894Y024164D01*
X002876Y024197D01*
X002853Y024228D01*
X002828Y024256D01*
X002800Y024282D01*
X002770Y024305D01*
X002737Y024324D01*
X002703Y024340D01*
X002667Y024353D01*
X002630Y024361D01*
X002593Y024366D01*
X002555Y024367D01*
X002517Y024364D01*
X002480Y024357D01*
X002443Y024346D01*
X002408Y024332D01*
X002375Y024314D01*
X002343Y024293D01*
X002314Y024268D01*
X002288Y024241D01*
X002264Y024212D01*
X002244Y024180D01*
X002227Y024146D01*
X002213Y024110D01*
X002204Y024073D01*
X002198Y024036D01*
X002196Y023998D01*
X002135Y024687D02*
X002181Y024714D01*
X002230Y024737D01*
X002279Y024758D01*
X002330Y024775D01*
X002382Y024789D01*
X003254Y024428D02*
X003281Y024382D01*
X003304Y024333D01*
X003325Y024284D01*
X003342Y024233D01*
X003356Y024181D01*
X001876Y024428D02*
X001849Y024382D01*
X001826Y024333D01*
X001805Y024284D01*
X001788Y024233D01*
X001774Y024181D01*
X002196Y023998D02*
X002198Y023962D01*
X002203Y023926D01*
X002212Y023891D01*
X002224Y023857D01*
X002240Y023824D01*
X002258Y023793D01*
X002280Y023764D01*
X002304Y023737D01*
X002331Y023713D01*
X002360Y023691D01*
X002391Y023673D01*
X002424Y023657D01*
X009770Y004785D02*
X009770Y002635D01*
X009772Y002593D01*
X009777Y002551D01*
X009786Y002510D01*
X009799Y002469D01*
X009815Y002430D01*
X009835Y002393D01*
X009858Y002357D01*
X009883Y002324D01*
X009912Y002293D01*
X009943Y002264D01*
X009976Y002239D01*
X010012Y002216D01*
X010049Y002196D01*
X010088Y002180D01*
X010129Y002167D01*
X010170Y002158D01*
X010212Y002153D01*
X010254Y002151D01*
D21*
X012841Y005887D02*
X015557Y005887D01*
X015557Y006754D01*
X015558Y006754D02*
X015559Y006771D01*
X015564Y006788D01*
X015571Y006803D01*
X015581Y006817D01*
X015593Y006829D01*
X015607Y006839D01*
X015622Y006846D01*
X015639Y006851D01*
X015656Y006852D01*
X016175Y007372D01*
X016853Y007372D01*
X017014Y010292D02*
X017014Y017029D01*
X017014Y017030D02*
X017024Y017031D01*
X017033Y017035D01*
X017042Y017041D01*
X017048Y017049D01*
X017052Y017059D01*
X017053Y017069D01*
X017053Y017738D01*
X017038Y017740D01*
X017023Y017744D01*
X017009Y017751D01*
X016997Y017761D01*
X016987Y017773D01*
X016980Y017787D01*
X016976Y017802D01*
X016974Y017817D01*
X016975Y017817D02*
X016975Y022974D01*
X017447Y022974D02*
X017445Y023024D01*
X017440Y023074D01*
X017430Y023123D01*
X017417Y023171D01*
X017401Y023218D01*
X017381Y023264D01*
X017357Y023309D01*
X017331Y023351D01*
X017301Y023391D01*
X017268Y023429D01*
X017233Y023464D01*
X017195Y023497D01*
X017155Y023527D01*
X017113Y023553D01*
X017068Y023577D01*
X017022Y023597D01*
X016975Y023613D01*
X016927Y023626D01*
X016878Y023636D01*
X016828Y023641D01*
X016778Y023643D01*
X017447Y022974D02*
X017447Y011124D01*
X017014Y010292D02*
X017016Y010275D01*
X017020Y010258D01*
X017027Y010243D01*
X017037Y010228D01*
X017049Y010216D01*
X017063Y010206D01*
X017079Y010199D01*
X017096Y010195D01*
X017113Y010193D01*
X012841Y005887D02*
X012792Y005889D01*
X012742Y005895D01*
X012694Y005904D01*
X012646Y005918D01*
X012600Y005935D01*
X012555Y005956D01*
X012512Y005980D01*
X012471Y006007D01*
X012432Y006038D01*
X012396Y006072D01*
X012362Y006108D01*
X012331Y006147D01*
X012304Y006188D01*
X012280Y006231D01*
X012259Y006276D01*
X012242Y006322D01*
X012228Y006370D01*
X012219Y006418D01*
X012213Y006468D01*
X012211Y006517D01*
X012211Y008667D01*
X011916Y009041D01*
X003983Y006517D02*
X003884Y006419D01*
X003884Y005710D01*
X003884Y005041D02*
X003538Y005041D01*
X003538Y003171D01*
X003982Y006518D02*
X004029Y006567D01*
X004072Y006618D01*
X004113Y006672D01*
X004151Y006728D01*
X004185Y006786D01*
X004217Y006846D01*
X004245Y006907D01*
X004269Y006970D01*
X004291Y007034D01*
X004308Y007099D01*
X004322Y007165D01*
X004332Y007232D01*
X004339Y007299D01*
X004342Y007367D01*
X004341Y007434D01*
X004337Y007502D01*
X013825Y021557D02*
X013845Y021559D01*
X013865Y021564D01*
X013884Y021573D01*
X013901Y021585D01*
X013915Y021599D01*
X013927Y021616D01*
X013936Y021635D01*
X013941Y021655D01*
X013943Y021675D01*
X013943Y024824D01*
X013944Y024824D02*
X013942Y024863D01*
X013936Y024902D01*
X013927Y024940D01*
X013914Y024976D01*
X013897Y025012D01*
X013877Y025045D01*
X013854Y025076D01*
X013827Y025105D01*
X013798Y025132D01*
X013767Y025155D01*
X013734Y025175D01*
X013698Y025192D01*
X013662Y025205D01*
X013624Y025214D01*
X013585Y025220D01*
X013546Y025222D01*
X013254Y025222D01*
D22*
X013825Y021557D03*
X016778Y023643D03*
X006778Y026557D03*
D23*
X002093Y026478D03*
X017447Y026478D03*
X017447Y001281D03*
X002093Y001281D03*
M02*
