G75*
G70*
%OFA0B0*%
%FSLAX24Y24*%
%IPPOS*%
%LPD*%
%AMOC8*
5,1,8,0,0,1.08239X$1,22.5*
%
%ADD10C,0.0000*%
%ADD11C,0.0719*%
%ADD12OC8,0.0600*%
%ADD13R,0.0631X0.0552*%
%ADD14C,0.1044*%
%ADD15C,0.0640*%
%ADD16C,0.1700*%
D10*
X000912Y000100D02*
X000912Y027659D01*
X018628Y027659D01*
X018628Y000100D01*
X000912Y000100D01*
D11*
X006014Y012004D03*
X006922Y012258D03*
X007609Y012954D03*
X007855Y013876D03*
X007601Y014798D03*
X006923Y015465D03*
X006006Y015720D03*
X005066Y015474D03*
X004399Y014790D03*
X004138Y013868D03*
X004388Y012946D03*
X011638Y013868D03*
X011888Y012946D03*
X011899Y014790D03*
X012566Y015474D03*
X013506Y015720D03*
X014423Y015465D03*
X015101Y014798D03*
X015355Y013876D03*
X015109Y012954D03*
X014422Y012258D03*
X013514Y012004D03*
D12*
X013254Y003151D03*
X013254Y002151D03*
X012254Y002151D03*
X012254Y003151D03*
X011254Y003151D03*
X011254Y002151D03*
X010254Y002151D03*
X010254Y003151D03*
X009254Y003151D03*
X009254Y002151D03*
X008254Y002151D03*
X008254Y003151D03*
X007254Y003151D03*
X007254Y002151D03*
X006254Y002151D03*
X006254Y003151D03*
X006254Y024222D03*
X006254Y025222D03*
X007254Y025222D03*
X007254Y024222D03*
X008254Y024222D03*
X008254Y025222D03*
X009254Y025222D03*
X009254Y024222D03*
X010254Y024222D03*
X010254Y025222D03*
X011254Y025222D03*
X011254Y024222D03*
X012254Y024222D03*
X012254Y025222D03*
X013254Y025222D03*
X013254Y024222D03*
D13*
X003569Y010899D03*
X003569Y010230D03*
X003884Y005710D03*
X003884Y005041D03*
X011916Y009041D03*
X011916Y009710D03*
D14*
X016351Y008931D02*
X017355Y008931D01*
X017355Y007372D02*
X016351Y007372D01*
X016351Y005813D02*
X017355Y005813D01*
X002591Y005836D02*
X001587Y005836D01*
X001587Y007395D02*
X002591Y007395D01*
X002591Y008954D02*
X001587Y008954D01*
D15*
X002538Y003471D02*
X002538Y002871D01*
X003538Y002871D02*
X003538Y003471D01*
D16*
X002093Y001281D03*
X017447Y001281D03*
X017447Y026478D03*
X002093Y026478D03*
M02*
