G75*
G70*
%OFA0B0*%
%FSLAX24Y24*%
%IPPOS*%
%LPD*%
%AMOC8*
5,1,8,0,0,1.08239X$1,22.5*
%
%ADD10C,0.0000*%
%ADD11C,0.0079*%
%ADD12C,0.0060*%
%ADD13C,0.0050*%
%ADD14C,0.0100*%
%ADD15C,0.0020*%
%ADD16C,0.0070*%
%ADD17C,0.0040*%
%ADD18C,0.0080*%
D10*
X000912Y000100D02*
X000912Y027659D01*
X018628Y027659D01*
X018628Y000100D01*
X000912Y000100D01*
D11*
X001838Y023067D02*
X001634Y023270D01*
X001877Y023567D01*
X001833Y023646D01*
X001799Y023729D01*
X001774Y023815D01*
X001393Y023854D01*
X001393Y024142D01*
X001774Y024180D01*
X001799Y024266D01*
X001833Y024349D01*
X001877Y024428D01*
X001634Y024725D01*
X001838Y024928D01*
X002135Y024686D01*
X002213Y024730D01*
X002296Y024764D01*
X002383Y024789D01*
X002421Y025170D01*
X002709Y025170D01*
X002748Y024789D01*
X002834Y024764D01*
X002917Y024730D01*
X002995Y024686D01*
X003292Y024928D01*
X003496Y024725D01*
X003254Y024428D01*
X003297Y024349D01*
X003331Y024266D01*
X003356Y024180D01*
X003737Y024142D01*
X003737Y023854D01*
X003356Y023815D01*
X003331Y023729D01*
X003297Y023646D01*
X003254Y023567D01*
X003496Y023270D01*
X003292Y023067D01*
X002995Y023309D01*
X002937Y023276D01*
X002876Y023247D01*
X002706Y023657D01*
X002770Y023691D01*
X002826Y023737D01*
X002872Y023793D01*
X002906Y023856D01*
X002927Y023926D01*
X002934Y023998D01*
X002927Y024070D01*
X002906Y024139D01*
X002872Y024203D01*
X002826Y024259D01*
X002770Y024305D01*
X002706Y024339D01*
X002637Y024360D01*
X002565Y024367D01*
X002493Y024360D01*
X002424Y024339D01*
X002360Y024305D01*
X002304Y024259D01*
X002258Y024203D01*
X002224Y024139D01*
X002203Y024070D01*
X002196Y023998D01*
X002203Y023926D01*
X002224Y023856D01*
X002258Y023793D01*
X002304Y023737D01*
X002360Y023691D01*
X002424Y023657D01*
X002254Y023247D01*
X002193Y023276D01*
X002135Y023309D01*
X001838Y023067D01*
X001787Y023118D02*
X001900Y023118D01*
X001995Y023195D02*
X001710Y023195D01*
X001636Y023272D02*
X002090Y023272D01*
X002201Y023272D02*
X002265Y023272D01*
X002297Y023349D02*
X001699Y023349D01*
X001762Y023427D02*
X002329Y023427D01*
X002361Y023504D02*
X001825Y023504D01*
X001869Y023581D02*
X002393Y023581D01*
X002421Y023658D02*
X001828Y023658D01*
X001797Y023736D02*
X002306Y023736D01*
X002247Y023813D02*
X001775Y023813D01*
X001779Y024199D02*
X002256Y024199D01*
X002219Y024122D02*
X001393Y024122D01*
X001393Y024045D02*
X002201Y024045D01*
X002199Y023967D02*
X001393Y023967D01*
X001393Y023890D02*
X002214Y023890D01*
X002326Y024276D02*
X001803Y024276D01*
X001836Y024353D02*
X002473Y024353D01*
X002657Y024353D02*
X003295Y024353D01*
X003327Y024276D02*
X002805Y024276D01*
X002874Y024199D02*
X003351Y024199D01*
X003256Y024431D02*
X001874Y024431D01*
X001811Y024508D02*
X003319Y024508D01*
X003382Y024585D02*
X001748Y024585D01*
X001685Y024662D02*
X003445Y024662D01*
X003481Y024740D02*
X003061Y024740D01*
X003156Y024817D02*
X003404Y024817D01*
X003327Y024894D02*
X003250Y024894D01*
X002892Y024740D02*
X002238Y024740D01*
X002385Y024817D02*
X002745Y024817D01*
X002737Y024894D02*
X002393Y024894D01*
X002401Y024971D02*
X002729Y024971D01*
X002721Y025049D02*
X002409Y025049D01*
X002417Y025126D02*
X002714Y025126D01*
X002069Y024740D02*
X001649Y024740D01*
X001727Y024817D02*
X001975Y024817D01*
X001880Y024894D02*
X001804Y024894D01*
X002883Y023813D02*
X003356Y023813D01*
X003333Y023736D02*
X002825Y023736D01*
X002710Y023658D02*
X003302Y023658D01*
X003261Y023581D02*
X002738Y023581D01*
X002770Y023504D02*
X003306Y023504D01*
X003369Y023427D02*
X002802Y023427D01*
X002834Y023349D02*
X003432Y023349D01*
X003495Y023272D02*
X003041Y023272D01*
X002929Y023272D02*
X002866Y023272D01*
X003135Y023195D02*
X003420Y023195D01*
X003343Y023118D02*
X003230Y023118D01*
X002916Y023890D02*
X003737Y023890D01*
X003737Y023967D02*
X002931Y023967D01*
X002930Y024045D02*
X003737Y024045D01*
X003737Y024122D02*
X002911Y024122D01*
D12*
X003737Y022130D02*
X003970Y022130D01*
X003854Y022130D02*
X003854Y021429D01*
X003970Y021429D02*
X003737Y021429D01*
X004203Y021429D02*
X004203Y022130D01*
X004671Y021429D01*
X004671Y022130D01*
X004903Y021780D02*
X005370Y021780D01*
X005603Y022013D02*
X005720Y022130D01*
X005953Y022130D01*
X006070Y022013D01*
X006070Y021896D01*
X005603Y021429D01*
X006070Y021429D01*
X007003Y022130D02*
X007470Y022130D01*
X007236Y022130D02*
X007236Y021429D01*
X007702Y021546D02*
X007819Y021429D01*
X008053Y021429D01*
X008170Y021546D01*
X008170Y021780D01*
X008053Y021896D01*
X007819Y021896D01*
X007702Y021780D01*
X007702Y021546D01*
X008402Y021429D02*
X008753Y021429D01*
X008869Y021546D01*
X008869Y021780D01*
X008753Y021896D01*
X008402Y021896D01*
X008402Y021196D01*
X008256Y020358D02*
X008023Y020358D01*
X007906Y020241D01*
X007906Y019774D01*
X008023Y019658D01*
X008256Y019658D01*
X008373Y019774D01*
X008256Y019891D02*
X008256Y020125D01*
X008023Y020125D01*
X008023Y019891D01*
X008256Y019891D01*
X008373Y020008D01*
X008373Y020241D01*
X008256Y020358D01*
X008606Y020125D02*
X008723Y020125D01*
X008839Y020008D01*
X008956Y020125D01*
X009073Y020008D01*
X009073Y019658D01*
X009306Y019658D02*
X009539Y019658D01*
X009423Y019658D02*
X009423Y020125D01*
X009306Y020125D01*
X009423Y020358D02*
X009423Y020475D01*
X009889Y020125D02*
X009772Y020008D01*
X009772Y019774D01*
X009889Y019658D01*
X010239Y019658D01*
X010472Y019658D02*
X010472Y020358D01*
X010589Y020125D02*
X010822Y020125D01*
X010939Y020008D01*
X010939Y019658D01*
X011172Y019774D02*
X011289Y019891D01*
X011639Y019891D01*
X011639Y020008D02*
X011522Y020125D01*
X011289Y020125D01*
X011172Y019774D02*
X011289Y019658D01*
X011639Y019658D01*
X011639Y020008D01*
X011872Y020008D02*
X011872Y019774D01*
X011988Y019658D01*
X012222Y019658D01*
X012339Y019891D02*
X011872Y019891D01*
X011872Y020008D02*
X011988Y020125D01*
X012222Y020125D01*
X012339Y020008D01*
X012339Y019891D01*
X012571Y019658D02*
X012805Y019658D01*
X012688Y019658D02*
X012688Y020358D01*
X012571Y020358D01*
X013038Y020008D02*
X013038Y019774D01*
X013155Y019658D01*
X013505Y019658D01*
X013505Y019541D02*
X013505Y020125D01*
X013155Y020125D01*
X013038Y020008D01*
X013505Y019541D02*
X013388Y019424D01*
X013272Y019424D01*
X013738Y019658D02*
X013738Y020125D01*
X013971Y020125D02*
X013738Y019891D01*
X013971Y020125D02*
X014088Y020125D01*
X014321Y020008D02*
X014321Y019774D01*
X014438Y019658D01*
X014671Y019658D01*
X014788Y019891D02*
X014321Y019891D01*
X014321Y020008D02*
X014438Y020125D01*
X014671Y020125D01*
X014788Y020008D01*
X014788Y019891D01*
X015021Y020008D02*
X015021Y019774D01*
X015138Y019658D01*
X015488Y019658D01*
X015488Y019541D02*
X015488Y020125D01*
X015138Y020125D01*
X015021Y020008D01*
X015254Y019424D02*
X015371Y019424D01*
X015488Y019541D01*
X015721Y019774D02*
X015837Y019658D01*
X016188Y019658D01*
X016188Y019541D02*
X016188Y020125D01*
X015837Y020125D01*
X015721Y020008D01*
X015721Y019774D01*
X015954Y019424D02*
X016071Y019424D01*
X016188Y019541D01*
X016420Y019658D02*
X016537Y019658D01*
X016537Y019774D01*
X016420Y019774D01*
X016420Y019658D01*
X016770Y019774D02*
X016887Y019658D01*
X017237Y019658D01*
X017470Y019774D02*
X017587Y019658D01*
X017820Y019658D01*
X017937Y019774D01*
X017937Y020008D01*
X017820Y020125D01*
X017587Y020125D01*
X017470Y020008D01*
X017470Y019774D01*
X017237Y020125D02*
X016887Y020125D01*
X016770Y020008D01*
X016770Y019774D01*
X016101Y021429D02*
X015633Y021429D01*
X016101Y021896D01*
X016101Y022013D01*
X015984Y022130D01*
X015750Y022130D01*
X015633Y022013D01*
X015400Y021546D02*
X015400Y021429D01*
X015284Y021429D01*
X015284Y021546D01*
X015400Y021546D01*
X015051Y021546D02*
X015051Y022013D01*
X014584Y021546D01*
X014701Y021429D01*
X014934Y021429D01*
X015051Y021546D01*
X015051Y022013D02*
X014934Y022130D01*
X014701Y022130D01*
X014584Y022013D01*
X014584Y021546D01*
X014351Y021896D02*
X014118Y021429D01*
X013884Y021896D01*
X012951Y021896D02*
X012601Y021896D01*
X012484Y021780D01*
X012484Y021546D01*
X012601Y021429D01*
X012951Y021429D01*
X012951Y022130D01*
X012252Y021896D02*
X012135Y021896D01*
X011901Y021663D01*
X011668Y021663D02*
X011318Y021663D01*
X011201Y021546D01*
X011318Y021429D01*
X011668Y021429D01*
X011668Y021780D01*
X011552Y021896D01*
X011318Y021896D01*
X010969Y021780D02*
X010969Y021546D01*
X010852Y021429D01*
X010618Y021429D01*
X010502Y021546D01*
X010502Y021780D01*
X010618Y021896D01*
X010852Y021896D01*
X010969Y021780D01*
X010269Y021896D02*
X010152Y021780D01*
X009802Y021780D01*
X009802Y022130D02*
X009802Y021429D01*
X010152Y021429D01*
X010269Y021546D01*
X010269Y021663D01*
X010152Y021780D01*
X010269Y021896D02*
X010269Y022013D01*
X010152Y022130D01*
X009802Y022130D01*
X009889Y020125D02*
X010239Y020125D01*
X010472Y020008D02*
X010589Y020125D01*
X011901Y021429D02*
X011901Y021896D01*
X008839Y020008D02*
X008839Y019658D01*
X008606Y019658D02*
X008606Y020125D01*
X007673Y020125D02*
X007673Y019541D01*
X007557Y019424D01*
X007440Y019424D01*
X007323Y019658D02*
X007673Y019658D01*
X007323Y019658D02*
X007206Y019774D01*
X007206Y020008D01*
X007323Y020125D01*
X007673Y020125D01*
X006974Y020125D02*
X006974Y019541D01*
X006857Y019424D01*
X006740Y019424D01*
X006623Y019658D02*
X006974Y019658D01*
X006623Y019658D02*
X006507Y019774D01*
X006507Y020008D01*
X006623Y020125D01*
X006974Y020125D01*
X006274Y020008D02*
X006274Y019891D01*
X005807Y019891D01*
X005807Y019774D02*
X005807Y020008D01*
X005924Y020125D01*
X006157Y020125D01*
X006274Y020008D01*
X006157Y019658D02*
X005924Y019658D01*
X005807Y019774D01*
X005574Y020125D02*
X005457Y020125D01*
X005224Y019891D01*
X005224Y019658D02*
X005224Y020125D01*
X004991Y020125D02*
X004991Y019541D01*
X004874Y019424D01*
X004757Y019424D01*
X004641Y019658D02*
X004991Y019658D01*
X004641Y019658D02*
X004524Y019774D01*
X004524Y020008D01*
X004641Y020125D01*
X004991Y020125D01*
X004291Y020008D02*
X004291Y019658D01*
X004058Y019658D02*
X004058Y020008D01*
X004174Y020125D01*
X004291Y020008D01*
X004058Y020008D02*
X003941Y020125D01*
X003824Y020125D01*
X003824Y019658D01*
X002891Y019658D02*
X002774Y019658D01*
X002774Y019774D01*
X002891Y019774D01*
X002891Y019658D01*
X002542Y019658D02*
X002191Y019658D01*
X002075Y019774D01*
X002075Y020125D01*
X001842Y020125D02*
X001725Y020008D01*
X001375Y020008D01*
X001725Y020008D02*
X001842Y019891D01*
X001842Y019774D01*
X001725Y019658D01*
X001375Y019658D01*
X001375Y020358D01*
X001725Y020358D01*
X001842Y020241D01*
X001842Y020125D01*
X002308Y019424D02*
X002425Y019424D01*
X002542Y019541D01*
X002542Y020125D01*
X002774Y020125D02*
X002774Y020008D01*
X002891Y020008D01*
X002891Y020125D01*
X002774Y020125D01*
X015430Y024579D02*
X015430Y025219D01*
X015750Y025219D01*
X015857Y025113D01*
X015857Y024899D01*
X015750Y024792D01*
X015430Y024792D01*
X015643Y024792D02*
X015857Y024579D01*
X016074Y024579D02*
X016288Y024579D01*
X016181Y024579D02*
X016181Y025006D01*
X016074Y025006D01*
X016181Y025219D02*
X016181Y025326D01*
X016504Y024899D02*
X016504Y024686D01*
X016611Y024579D01*
X016931Y024579D01*
X016931Y024472D02*
X016931Y025006D01*
X016611Y025006D01*
X016504Y024899D01*
X016718Y024365D02*
X016824Y024365D01*
X016931Y024472D01*
X017149Y024579D02*
X017149Y025219D01*
X017255Y025006D02*
X017149Y024899D01*
X017255Y025006D02*
X017469Y025006D01*
X017576Y024899D01*
X017576Y024579D01*
X017900Y024686D02*
X018007Y024579D01*
X017900Y024686D02*
X017900Y025113D01*
X017793Y025006D02*
X018007Y025006D01*
X018170Y020125D02*
X018287Y020125D01*
X018403Y020008D01*
X018520Y020125D01*
X018637Y020008D01*
X018637Y019658D01*
X018403Y019658D02*
X018403Y020008D01*
X018170Y020125D02*
X018170Y019658D01*
X016972Y003290D02*
X016865Y003183D01*
X016865Y002650D01*
X016758Y002970D02*
X016972Y002970D01*
X017188Y003077D02*
X017402Y003077D01*
X017295Y003183D02*
X017295Y002756D01*
X017402Y002650D01*
X016541Y002863D02*
X016114Y002863D01*
X016114Y002756D02*
X016114Y002970D01*
X016221Y003077D01*
X016434Y003077D01*
X016541Y002970D01*
X016541Y002863D01*
X016434Y002650D02*
X016221Y002650D01*
X016114Y002756D01*
X015896Y002650D02*
X015469Y002650D01*
X015469Y003290D01*
X007012Y000406D02*
X006799Y000406D01*
X006906Y000406D02*
X006906Y001046D01*
X006799Y001046D01*
X006581Y000726D02*
X006581Y000406D01*
X006261Y000406D01*
X006154Y000512D01*
X006261Y000619D01*
X006581Y000619D01*
X006581Y000726D02*
X006475Y000833D01*
X006261Y000833D01*
X005937Y000726D02*
X005937Y000406D01*
X005723Y000406D02*
X005723Y000726D01*
X005830Y000833D01*
X005937Y000726D01*
X005723Y000726D02*
X005616Y000833D01*
X005510Y000833D01*
X005510Y000406D01*
X005294Y000406D02*
X005080Y000406D01*
X005187Y000406D02*
X005187Y000833D01*
X005080Y000833D01*
X004863Y000833D02*
X004542Y000833D01*
X004435Y000726D01*
X004435Y000512D01*
X004542Y000406D01*
X004863Y000406D01*
X005187Y001046D02*
X005187Y001153D01*
X004218Y000726D02*
X004218Y000619D01*
X003791Y000619D01*
X003791Y000512D02*
X003791Y000726D01*
X003898Y000833D01*
X004111Y000833D01*
X004218Y000726D01*
X004111Y000406D02*
X003898Y000406D01*
X003791Y000512D01*
X003573Y000512D02*
X003573Y000939D01*
X003467Y001046D01*
X003146Y001046D01*
X003146Y000406D01*
X003467Y000406D01*
X003573Y000512D01*
D13*
X004254Y000901D02*
X005954Y000901D01*
X005954Y000951D01*
X006554Y000951D01*
X006554Y000901D01*
X007104Y000901D01*
X007254Y001101D01*
X007454Y001101D01*
X008054Y001101D01*
X008254Y001101D01*
X008404Y000901D01*
X008954Y000901D01*
X008954Y001301D01*
X008054Y001301D01*
X008054Y001401D01*
X007454Y001401D01*
X004754Y001401D01*
X004754Y003901D01*
X014754Y003901D01*
X014754Y001401D01*
X013054Y001401D01*
X012454Y001401D01*
X010554Y001401D01*
X010554Y001301D01*
X010554Y000901D01*
X008954Y000901D01*
X008954Y001301D02*
X008954Y001401D01*
X008054Y001401D01*
X008054Y001301D02*
X008054Y001101D01*
X007454Y001101D02*
X007454Y001301D01*
X007454Y001401D01*
X007454Y001301D02*
X004654Y001301D01*
X004254Y000901D02*
X004254Y004401D01*
X004754Y004401D01*
X004754Y004501D01*
X005254Y004501D01*
X005254Y004401D01*
X009504Y004401D01*
X009504Y004501D01*
X010004Y004501D01*
X010004Y004401D01*
X014254Y004401D01*
X014254Y004501D01*
X014754Y004501D01*
X014754Y004401D01*
X015254Y004401D01*
X015254Y000901D01*
X013404Y000901D01*
X013254Y001101D01*
X013054Y001101D01*
X012454Y001101D01*
X012254Y001101D01*
X012104Y000901D01*
X010554Y000901D01*
X010140Y001151D02*
X010065Y001076D01*
X009915Y001076D01*
X009840Y001151D01*
X009840Y001301D01*
X010065Y001301D01*
X010140Y001226D01*
X010140Y001151D01*
X009840Y001301D02*
X009990Y001452D01*
X010140Y001527D01*
X010554Y001401D02*
X010554Y001701D01*
X008954Y001701D01*
X008954Y001401D01*
X009379Y001376D02*
X009529Y001527D01*
X009529Y001076D01*
X009379Y001076D02*
X009679Y001076D01*
X012454Y001101D02*
X012454Y001301D01*
X012454Y001401D01*
X013054Y001401D02*
X013054Y001301D01*
X013054Y001101D01*
X012799Y011575D02*
X011213Y013161D01*
X011171Y013205D01*
X011133Y013251D01*
X011097Y013300D01*
X011064Y013351D01*
X011035Y013403D01*
X011008Y013458D01*
X010985Y013513D01*
X010965Y013570D01*
X010949Y013629D01*
X010936Y013688D01*
X010927Y013747D01*
X010922Y013808D01*
X010920Y013868D01*
X010922Y013928D01*
X010927Y013989D01*
X010936Y014048D01*
X010949Y014107D01*
X010965Y014166D01*
X010985Y014223D01*
X011008Y014278D01*
X011035Y014333D01*
X011064Y014385D01*
X011097Y014436D01*
X011133Y014485D01*
X011171Y014531D01*
X011213Y014575D01*
X012799Y016161D01*
X012506Y015368D02*
X014506Y015368D01*
X013506Y014368D01*
X013506Y014367D02*
X013571Y014365D01*
X013636Y014359D01*
X013700Y014350D01*
X013763Y014336D01*
X013826Y014319D01*
X013887Y014298D01*
X013947Y014273D01*
X014006Y014245D01*
X014063Y014213D01*
X014117Y014178D01*
X014170Y014140D01*
X014220Y014098D01*
X014267Y014054D01*
X014312Y014007D01*
X014354Y013958D01*
X014393Y013906D01*
X014429Y013851D01*
X014461Y013795D01*
X014490Y013737D01*
X014515Y013677D01*
X014537Y013616D01*
X014555Y013554D01*
X014569Y013490D01*
X014580Y013426D01*
X014586Y013362D01*
X014589Y013297D01*
X014588Y013232D01*
X014583Y013167D01*
X014574Y013103D01*
X014561Y013039D01*
X014544Y012976D01*
X014524Y012915D01*
X014500Y012854D01*
X014473Y012795D01*
X014441Y012738D01*
X014407Y012683D01*
X014369Y012630D01*
X014329Y012580D01*
X014285Y012532D01*
X014239Y012486D01*
X014189Y012444D01*
X014138Y012404D01*
X014084Y012368D01*
X014028Y012335D01*
X013970Y012306D01*
X013911Y012280D01*
X013850Y012257D01*
X013788Y012238D01*
X013725Y012223D01*
X013661Y012212D01*
X013596Y012205D01*
X013531Y012201D01*
X013466Y012202D01*
X013402Y012206D01*
X013337Y012214D01*
X013273Y012226D01*
X013210Y012242D01*
X013148Y012262D01*
X013088Y012285D01*
X013029Y012312D01*
X012971Y012342D01*
X012916Y012376D01*
X012862Y012413D01*
X012811Y012453D01*
X012763Y012496D01*
X012717Y012542D01*
X012674Y012591D01*
X012634Y012642D01*
X012597Y012695D01*
X012563Y012751D01*
X012533Y012808D01*
X012506Y012867D01*
X012799Y011575D02*
X012843Y011533D01*
X012889Y011495D01*
X012938Y011459D01*
X012989Y011426D01*
X013041Y011397D01*
X013096Y011370D01*
X013151Y011347D01*
X013208Y011327D01*
X013267Y011311D01*
X013326Y011298D01*
X013385Y011289D01*
X013446Y011284D01*
X013506Y011282D01*
X013566Y011284D01*
X013627Y011289D01*
X013686Y011298D01*
X013745Y011311D01*
X013804Y011327D01*
X013861Y011347D01*
X013916Y011370D01*
X013971Y011397D01*
X014023Y011426D01*
X014074Y011459D01*
X014123Y011495D01*
X014169Y011533D01*
X014213Y011575D01*
X015799Y013161D01*
X015841Y013205D01*
X015879Y013251D01*
X015915Y013300D01*
X015948Y013351D01*
X015977Y013403D01*
X016004Y013458D01*
X016027Y013513D01*
X016047Y013570D01*
X016063Y013629D01*
X016076Y013688D01*
X016085Y013747D01*
X016090Y013808D01*
X016092Y013868D01*
X016090Y013928D01*
X016085Y013989D01*
X016076Y014048D01*
X016063Y014107D01*
X016047Y014166D01*
X016027Y014223D01*
X016004Y014278D01*
X015977Y014333D01*
X015948Y014385D01*
X015915Y014436D01*
X015879Y014485D01*
X015841Y014531D01*
X015799Y014575D01*
X014213Y016161D01*
X014213Y016160D02*
X014169Y016202D01*
X014123Y016240D01*
X014074Y016276D01*
X014023Y016309D01*
X013971Y016338D01*
X013916Y016365D01*
X013861Y016388D01*
X013804Y016408D01*
X013745Y016424D01*
X013686Y016437D01*
X013627Y016446D01*
X013566Y016451D01*
X013506Y016453D01*
X013446Y016451D01*
X013385Y016446D01*
X013326Y016437D01*
X013267Y016424D01*
X013208Y016408D01*
X013151Y016388D01*
X013096Y016365D01*
X013041Y016338D01*
X012989Y016309D01*
X012938Y016276D01*
X012889Y016240D01*
X012843Y016202D01*
X012799Y016160D01*
X008299Y014575D02*
X006713Y016161D01*
X007006Y015368D02*
X006006Y014368D01*
X006006Y014367D02*
X006071Y014365D01*
X006136Y014359D01*
X006200Y014350D01*
X006263Y014336D01*
X006326Y014319D01*
X006387Y014298D01*
X006447Y014273D01*
X006506Y014245D01*
X006563Y014213D01*
X006617Y014178D01*
X006670Y014140D01*
X006720Y014098D01*
X006767Y014054D01*
X006812Y014007D01*
X006854Y013958D01*
X006893Y013906D01*
X006929Y013851D01*
X006961Y013795D01*
X006990Y013737D01*
X007015Y013677D01*
X007037Y013616D01*
X007055Y013554D01*
X007069Y013490D01*
X007080Y013426D01*
X007086Y013362D01*
X007089Y013297D01*
X007088Y013232D01*
X007083Y013167D01*
X007074Y013103D01*
X007061Y013039D01*
X007044Y012976D01*
X007024Y012915D01*
X007000Y012854D01*
X006973Y012795D01*
X006941Y012738D01*
X006907Y012683D01*
X006869Y012630D01*
X006829Y012580D01*
X006785Y012532D01*
X006739Y012486D01*
X006689Y012444D01*
X006638Y012404D01*
X006584Y012368D01*
X006528Y012335D01*
X006470Y012306D01*
X006411Y012280D01*
X006350Y012257D01*
X006288Y012238D01*
X006225Y012223D01*
X006161Y012212D01*
X006096Y012205D01*
X006031Y012201D01*
X005966Y012202D01*
X005902Y012206D01*
X005837Y012214D01*
X005773Y012226D01*
X005710Y012242D01*
X005648Y012262D01*
X005588Y012285D01*
X005529Y012312D01*
X005471Y012342D01*
X005416Y012376D01*
X005362Y012413D01*
X005311Y012453D01*
X005263Y012496D01*
X005217Y012542D01*
X005174Y012591D01*
X005134Y012642D01*
X005097Y012695D01*
X005063Y012751D01*
X005033Y012808D01*
X005006Y012867D01*
X003713Y013161D02*
X003671Y013205D01*
X003633Y013251D01*
X003597Y013300D01*
X003564Y013351D01*
X003535Y013403D01*
X003508Y013458D01*
X003485Y013513D01*
X003465Y013570D01*
X003449Y013629D01*
X003436Y013688D01*
X003427Y013747D01*
X003422Y013808D01*
X003420Y013868D01*
X003422Y013928D01*
X003427Y013989D01*
X003436Y014048D01*
X003449Y014107D01*
X003465Y014166D01*
X003485Y014223D01*
X003508Y014278D01*
X003535Y014333D01*
X003564Y014385D01*
X003597Y014436D01*
X003633Y014485D01*
X003671Y014531D01*
X003713Y014575D01*
X005299Y016161D01*
X005006Y015368D02*
X007006Y015368D01*
X006713Y016160D02*
X006669Y016202D01*
X006623Y016240D01*
X006574Y016276D01*
X006523Y016309D01*
X006471Y016338D01*
X006416Y016365D01*
X006361Y016388D01*
X006304Y016408D01*
X006245Y016424D01*
X006186Y016437D01*
X006127Y016446D01*
X006066Y016451D01*
X006006Y016453D01*
X005946Y016451D01*
X005885Y016446D01*
X005826Y016437D01*
X005767Y016424D01*
X005708Y016408D01*
X005651Y016388D01*
X005596Y016365D01*
X005541Y016338D01*
X005489Y016309D01*
X005438Y016276D01*
X005389Y016240D01*
X005343Y016202D01*
X005299Y016160D01*
X003713Y013161D02*
X005299Y011575D01*
X005343Y011533D01*
X005389Y011495D01*
X005438Y011459D01*
X005489Y011426D01*
X005541Y011397D01*
X005596Y011370D01*
X005651Y011347D01*
X005708Y011327D01*
X005767Y011311D01*
X005826Y011298D01*
X005885Y011289D01*
X005946Y011284D01*
X006006Y011282D01*
X006066Y011284D01*
X006127Y011289D01*
X006186Y011298D01*
X006245Y011311D01*
X006304Y011327D01*
X006361Y011347D01*
X006416Y011370D01*
X006471Y011397D01*
X006523Y011426D01*
X006574Y011459D01*
X006623Y011495D01*
X006669Y011533D01*
X006713Y011575D01*
X008299Y013161D01*
X008341Y013205D01*
X008379Y013251D01*
X008415Y013300D01*
X008448Y013351D01*
X008477Y013403D01*
X008504Y013458D01*
X008527Y013513D01*
X008547Y013570D01*
X008563Y013629D01*
X008576Y013688D01*
X008585Y013747D01*
X008590Y013808D01*
X008592Y013868D01*
X008590Y013928D01*
X008585Y013989D01*
X008576Y014048D01*
X008563Y014107D01*
X008547Y014166D01*
X008527Y014223D01*
X008504Y014278D01*
X008477Y014333D01*
X008448Y014385D01*
X008415Y014436D01*
X008379Y014485D01*
X008341Y014531D01*
X008299Y014575D01*
X008404Y022972D02*
X008954Y022972D01*
X008954Y023372D01*
X008054Y023372D01*
X008054Y023472D01*
X007454Y023472D01*
X004754Y023472D01*
X004754Y025972D01*
X014754Y025972D01*
X014754Y023472D01*
X013054Y023472D01*
X012454Y023472D01*
X010554Y023472D01*
X010554Y023372D01*
X010554Y022972D01*
X008954Y022972D01*
X008954Y023372D02*
X008954Y023472D01*
X008054Y023472D01*
X008054Y023372D02*
X008054Y023172D01*
X008254Y023172D01*
X008404Y022972D01*
X008054Y023172D02*
X007454Y023172D01*
X007254Y023172D01*
X007104Y022972D01*
X006554Y022972D01*
X006554Y023022D01*
X005954Y023022D01*
X005954Y022972D01*
X004254Y022972D01*
X004254Y026472D01*
X004754Y026472D01*
X004754Y026572D01*
X005254Y026572D01*
X005254Y026472D01*
X009504Y026472D01*
X009504Y026572D01*
X010004Y026572D01*
X010004Y026472D01*
X014254Y026472D01*
X014254Y026572D01*
X014754Y026572D01*
X014754Y026472D01*
X015254Y026472D01*
X015254Y022972D01*
X013404Y022972D01*
X013254Y023172D01*
X013054Y023172D01*
X012454Y023172D01*
X012254Y023172D01*
X012104Y022972D01*
X010554Y022972D01*
X010140Y023222D02*
X010140Y023297D01*
X010065Y023372D01*
X009840Y023372D01*
X009840Y023222D01*
X009915Y023147D01*
X010065Y023147D01*
X010140Y023222D01*
X009990Y023522D02*
X009840Y023372D01*
X009990Y023522D02*
X010140Y023597D01*
X010554Y023472D02*
X010554Y023772D01*
X008954Y023772D01*
X008954Y023472D01*
X009379Y023447D02*
X009529Y023597D01*
X009529Y023147D01*
X009379Y023147D02*
X009679Y023147D01*
X007454Y023172D02*
X007454Y023372D01*
X007454Y023472D01*
X007454Y023372D02*
X004654Y023372D01*
X005279Y023997D02*
X005579Y023997D01*
X005429Y023997D02*
X005429Y024447D01*
X005279Y024297D01*
X005279Y024997D02*
X005579Y025297D01*
X005579Y025372D01*
X005504Y025447D01*
X005354Y025447D01*
X005279Y025372D01*
X005279Y024997D02*
X005579Y024997D01*
X012454Y023472D02*
X012454Y023372D01*
X012454Y023172D01*
X013054Y023172D02*
X013054Y023372D01*
X013054Y023472D01*
X003938Y004321D02*
X003788Y004321D01*
X003038Y004321D02*
X002788Y004321D01*
X002288Y004321D02*
X002038Y004321D01*
X002038Y002021D02*
X003038Y002021D01*
X003438Y002021D02*
X003538Y002021D01*
X003538Y002171D01*
X005279Y002226D02*
X005429Y002377D01*
X005429Y001926D01*
X005279Y001926D02*
X005579Y001926D01*
X005579Y002926D02*
X005279Y002926D01*
X005579Y003226D01*
X005579Y003302D01*
X005504Y003377D01*
X005354Y003377D01*
X005279Y003302D01*
D14*
X004038Y003171D02*
X004038Y002021D01*
X003538Y002021D01*
X003538Y002421D01*
X003438Y002621D01*
X002638Y002621D01*
X002538Y002421D01*
X002538Y002021D01*
X002638Y002021D02*
X002638Y002421D01*
X002538Y002421D01*
X002638Y002421D02*
X003438Y002421D01*
X003438Y002021D01*
X003538Y002021D02*
X003038Y002021D01*
X003438Y002421D02*
X003538Y002421D01*
X004038Y003171D02*
X004038Y004321D01*
X003788Y004321D01*
X003788Y004071D01*
X003288Y004071D01*
X003288Y004321D01*
X002788Y004321D01*
X002788Y004071D01*
X002288Y004071D01*
X002288Y004321D01*
X002038Y004321D01*
X002038Y003171D01*
X002038Y002021D01*
X002288Y004321D02*
X002788Y004321D01*
X003038Y004321D02*
X004038Y004321D01*
X003156Y008868D02*
X003170Y008898D01*
X003188Y008926D01*
X003208Y008953D01*
X003230Y008978D01*
X003255Y009000D01*
X003282Y009019D01*
X003311Y009036D01*
X003342Y009049D01*
X003374Y009059D01*
X003406Y009067D01*
X003439Y009070D01*
X003473Y009071D01*
X003506Y009068D01*
X003506Y009067D02*
X003542Y009063D01*
X003579Y009063D01*
X003615Y009067D01*
X003651Y009073D01*
X003687Y009084D01*
X003721Y009097D01*
X003753Y009113D01*
X003784Y009133D01*
X003814Y009155D01*
X003841Y009179D01*
X003865Y009207D01*
X003887Y009236D01*
X003906Y009267D01*
X003906Y009268D02*
X004456Y010268D01*
X004456Y010267D02*
X004477Y010300D01*
X004500Y010332D01*
X004526Y010361D01*
X004554Y010387D01*
X004585Y010411D01*
X004618Y010431D01*
X004653Y010449D01*
X004689Y010463D01*
X004726Y010475D01*
X004764Y010482D01*
X004803Y010486D01*
X004842Y010487D01*
X004880Y010484D01*
X004919Y010477D01*
X004956Y010467D01*
X003506Y010818D02*
X002856Y009768D01*
X002834Y009737D01*
X002815Y009703D01*
X002799Y009668D01*
X002786Y009632D01*
X002777Y009594D01*
X002772Y009556D01*
X002770Y009518D01*
X002772Y009480D01*
X002777Y009442D01*
X002786Y009404D01*
X002799Y009368D01*
X002815Y009333D01*
X002834Y009299D01*
X002856Y009268D01*
X002873Y009244D01*
X002887Y009218D01*
X002897Y009190D01*
X002904Y009162D01*
X002908Y009133D01*
X002908Y009103D01*
X002904Y009074D01*
X002897Y009046D01*
X002887Y009018D01*
X002873Y008992D01*
X002856Y008968D01*
X002906Y008768D02*
X002929Y008760D01*
X002954Y008754D01*
X002979Y008752D01*
X003003Y008753D01*
X003028Y008758D01*
X003052Y008765D01*
X003074Y008776D01*
X003095Y008790D01*
X003114Y008806D01*
X003131Y008825D01*
X003145Y008846D01*
X003156Y008868D01*
X002906Y008767D02*
X002887Y008778D01*
X002870Y008791D01*
X002855Y008807D01*
X002844Y008825D01*
X002835Y008845D01*
X002830Y008866D01*
X002828Y008887D01*
X002830Y008909D01*
X002835Y008930D01*
X002844Y008950D01*
X002856Y008968D01*
X003506Y010817D02*
X003527Y010854D01*
X003544Y010893D01*
X003557Y010933D01*
X003567Y010974D01*
X003573Y011016D01*
X003575Y011058D01*
X003573Y011101D01*
X003567Y011142D01*
X003558Y011184D01*
X003544Y011224D01*
X003527Y011262D01*
X003507Y011299D01*
X003483Y011334D01*
X003456Y011367D01*
X002441Y013868D02*
X002445Y014043D01*
X002458Y014217D01*
X002480Y014391D01*
X002510Y014563D01*
X002548Y014734D01*
X002595Y014903D01*
X002649Y015069D01*
X002712Y015232D01*
X002783Y015392D01*
X002862Y015549D01*
X002948Y015701D01*
X003042Y015849D01*
X003143Y015992D01*
X003250Y016130D01*
X003365Y016262D01*
X003485Y016389D01*
X003612Y016509D01*
X003744Y016624D01*
X003882Y016731D01*
X004025Y016832D01*
X004173Y016926D01*
X004325Y017012D01*
X004482Y017091D01*
X004642Y017162D01*
X004805Y017225D01*
X004971Y017279D01*
X005140Y017326D01*
X005311Y017364D01*
X005483Y017394D01*
X005657Y017416D01*
X005831Y017429D01*
X006006Y017433D01*
X006181Y017429D01*
X006355Y017416D01*
X006529Y017394D01*
X006701Y017364D01*
X006872Y017326D01*
X007041Y017279D01*
X007207Y017225D01*
X007370Y017162D01*
X007530Y017091D01*
X007687Y017012D01*
X007839Y016926D01*
X007987Y016832D01*
X008130Y016731D01*
X008268Y016624D01*
X008400Y016509D01*
X008527Y016389D01*
X008647Y016262D01*
X008762Y016130D01*
X008869Y015992D01*
X008970Y015849D01*
X009064Y015701D01*
X009150Y015549D01*
X009229Y015392D01*
X009300Y015232D01*
X009363Y015069D01*
X009417Y014903D01*
X009464Y014734D01*
X009502Y014563D01*
X009532Y014391D01*
X009554Y014217D01*
X009567Y014043D01*
X009571Y013868D01*
X009567Y013693D01*
X009554Y013519D01*
X009532Y013345D01*
X009502Y013173D01*
X009464Y013002D01*
X009417Y012833D01*
X009363Y012667D01*
X009300Y012504D01*
X009229Y012344D01*
X009150Y012187D01*
X009064Y012035D01*
X008970Y011887D01*
X008869Y011744D01*
X008762Y011606D01*
X008647Y011474D01*
X008527Y011347D01*
X008400Y011227D01*
X008268Y011112D01*
X008130Y011005D01*
X007987Y010904D01*
X007839Y010810D01*
X007687Y010724D01*
X007530Y010645D01*
X007370Y010574D01*
X007207Y010511D01*
X007041Y010457D01*
X006872Y010410D01*
X006701Y010372D01*
X006529Y010342D01*
X006355Y010320D01*
X006181Y010307D01*
X006006Y010303D01*
X005831Y010307D01*
X005657Y010320D01*
X005483Y010342D01*
X005311Y010372D01*
X005140Y010410D01*
X004971Y010457D01*
X004805Y010511D01*
X004642Y010574D01*
X004482Y010645D01*
X004325Y010724D01*
X004173Y010810D01*
X004025Y010904D01*
X003882Y011005D01*
X003744Y011112D01*
X003612Y011227D01*
X003485Y011347D01*
X003365Y011474D01*
X003250Y011606D01*
X003143Y011744D01*
X003042Y011887D01*
X002948Y012035D01*
X002862Y012187D01*
X002783Y012344D01*
X002712Y012504D01*
X002649Y012667D01*
X002595Y012833D01*
X002548Y013002D01*
X002510Y013173D01*
X002480Y013345D01*
X002458Y013519D01*
X002445Y013693D01*
X002441Y013868D01*
X010356Y009268D02*
X010373Y009244D01*
X010387Y009218D01*
X010397Y009190D01*
X010404Y009162D01*
X010408Y009133D01*
X010408Y009103D01*
X010404Y009074D01*
X010397Y009046D01*
X010387Y009018D01*
X010373Y008992D01*
X010356Y008968D01*
X010406Y008768D02*
X010429Y008760D01*
X010454Y008754D01*
X010479Y008752D01*
X010503Y008753D01*
X010528Y008758D01*
X010552Y008765D01*
X010574Y008776D01*
X010595Y008790D01*
X010614Y008806D01*
X010631Y008825D01*
X010645Y008846D01*
X010656Y008868D01*
X010406Y008767D02*
X010387Y008778D01*
X010370Y008791D01*
X010355Y008807D01*
X010344Y008825D01*
X010335Y008845D01*
X010330Y008866D01*
X010328Y008887D01*
X010330Y008909D01*
X010335Y008930D01*
X010344Y008950D01*
X010356Y008968D01*
X010356Y009268D02*
X010334Y009299D01*
X010315Y009333D01*
X010299Y009368D01*
X010286Y009404D01*
X010277Y009442D01*
X010272Y009480D01*
X010270Y009518D01*
X010272Y009556D01*
X010277Y009594D01*
X010286Y009632D01*
X010299Y009668D01*
X010315Y009703D01*
X010334Y009737D01*
X010356Y009768D01*
X011006Y010818D01*
X011006Y010817D02*
X011027Y010854D01*
X011044Y010893D01*
X011057Y010933D01*
X011067Y010974D01*
X011073Y011016D01*
X011075Y011058D01*
X011073Y011101D01*
X011067Y011142D01*
X011058Y011184D01*
X011044Y011224D01*
X011027Y011262D01*
X011007Y011299D01*
X010983Y011334D01*
X010956Y011367D01*
X011956Y010268D02*
X011406Y009268D01*
X011406Y009267D02*
X011387Y009236D01*
X011365Y009207D01*
X011341Y009179D01*
X011314Y009155D01*
X011284Y009133D01*
X011253Y009113D01*
X011221Y009097D01*
X011187Y009084D01*
X011151Y009073D01*
X011115Y009067D01*
X011079Y009063D01*
X011042Y009063D01*
X011006Y009067D01*
X011006Y009068D02*
X010973Y009071D01*
X010939Y009070D01*
X010906Y009067D01*
X010874Y009059D01*
X010842Y009049D01*
X010811Y009036D01*
X010782Y009019D01*
X010755Y009000D01*
X010730Y008978D01*
X010708Y008953D01*
X010688Y008926D01*
X010670Y008898D01*
X010656Y008868D01*
X011956Y010267D02*
X011977Y010300D01*
X012000Y010332D01*
X012026Y010361D01*
X012054Y010387D01*
X012085Y010411D01*
X012118Y010431D01*
X012153Y010449D01*
X012189Y010463D01*
X012226Y010475D01*
X012264Y010482D01*
X012303Y010486D01*
X012342Y010487D01*
X012380Y010484D01*
X012419Y010477D01*
X012456Y010467D01*
X009941Y013868D02*
X009945Y014043D01*
X009958Y014217D01*
X009980Y014391D01*
X010010Y014563D01*
X010048Y014734D01*
X010095Y014903D01*
X010149Y015069D01*
X010212Y015232D01*
X010283Y015392D01*
X010362Y015549D01*
X010448Y015701D01*
X010542Y015849D01*
X010643Y015992D01*
X010750Y016130D01*
X010865Y016262D01*
X010985Y016389D01*
X011112Y016509D01*
X011244Y016624D01*
X011382Y016731D01*
X011525Y016832D01*
X011673Y016926D01*
X011825Y017012D01*
X011982Y017091D01*
X012142Y017162D01*
X012305Y017225D01*
X012471Y017279D01*
X012640Y017326D01*
X012811Y017364D01*
X012983Y017394D01*
X013157Y017416D01*
X013331Y017429D01*
X013506Y017433D01*
X013681Y017429D01*
X013855Y017416D01*
X014029Y017394D01*
X014201Y017364D01*
X014372Y017326D01*
X014541Y017279D01*
X014707Y017225D01*
X014870Y017162D01*
X015030Y017091D01*
X015187Y017012D01*
X015339Y016926D01*
X015487Y016832D01*
X015630Y016731D01*
X015768Y016624D01*
X015900Y016509D01*
X016027Y016389D01*
X016147Y016262D01*
X016262Y016130D01*
X016369Y015992D01*
X016470Y015849D01*
X016564Y015701D01*
X016650Y015549D01*
X016729Y015392D01*
X016800Y015232D01*
X016863Y015069D01*
X016917Y014903D01*
X016964Y014734D01*
X017002Y014563D01*
X017032Y014391D01*
X017054Y014217D01*
X017067Y014043D01*
X017071Y013868D01*
X017067Y013693D01*
X017054Y013519D01*
X017032Y013345D01*
X017002Y013173D01*
X016964Y013002D01*
X016917Y012833D01*
X016863Y012667D01*
X016800Y012504D01*
X016729Y012344D01*
X016650Y012187D01*
X016564Y012035D01*
X016470Y011887D01*
X016369Y011744D01*
X016262Y011606D01*
X016147Y011474D01*
X016027Y011347D01*
X015900Y011227D01*
X015768Y011112D01*
X015630Y011005D01*
X015487Y010904D01*
X015339Y010810D01*
X015187Y010724D01*
X015030Y010645D01*
X014870Y010574D01*
X014707Y010511D01*
X014541Y010457D01*
X014372Y010410D01*
X014201Y010372D01*
X014029Y010342D01*
X013855Y010320D01*
X013681Y010307D01*
X013506Y010303D01*
X013331Y010307D01*
X013157Y010320D01*
X012983Y010342D01*
X012811Y010372D01*
X012640Y010410D01*
X012471Y010457D01*
X012305Y010511D01*
X012142Y010574D01*
X011982Y010645D01*
X011825Y010724D01*
X011673Y010810D01*
X011525Y010904D01*
X011382Y011005D01*
X011244Y011112D01*
X011112Y011227D01*
X010985Y011347D01*
X010865Y011474D01*
X010750Y011606D01*
X010643Y011744D01*
X010542Y011887D01*
X010448Y012035D01*
X010362Y012187D01*
X010283Y012344D01*
X010212Y012504D01*
X010149Y012667D01*
X010095Y012833D01*
X010048Y013002D01*
X010010Y013173D01*
X009980Y013345D01*
X009958Y013519D01*
X009945Y013693D01*
X009941Y013868D01*
D15*
X010554Y023372D02*
X012454Y023372D01*
X013054Y023372D02*
X014854Y023372D01*
X014854Y026072D01*
X004654Y026072D01*
X004654Y023372D01*
X004654Y004001D02*
X004654Y001301D01*
X004654Y004001D02*
X014854Y004001D01*
X014854Y001301D01*
X013054Y001301D01*
X012454Y001301D02*
X010554Y001301D01*
D16*
X006643Y005317D02*
X006223Y005317D01*
X006433Y005317D02*
X006433Y004686D01*
X005999Y005317D02*
X005578Y005317D01*
X005578Y004686D01*
X005354Y004686D02*
X004934Y004686D01*
X004934Y005317D01*
X005354Y005317D01*
X005144Y005001D02*
X004934Y005001D01*
X004710Y004686D02*
X004289Y004686D01*
X004289Y005317D01*
X005578Y005001D02*
X005788Y005001D01*
X004288Y003407D02*
X004145Y003407D01*
X004073Y003335D01*
X004288Y003407D02*
X004360Y003335D01*
X004360Y003263D01*
X004073Y002976D01*
X004360Y002976D01*
X001610Y002946D02*
X001323Y002946D01*
X001466Y002946D02*
X001466Y003377D01*
X001323Y003233D01*
X004289Y026757D02*
X004289Y027388D01*
X004604Y027388D01*
X004710Y027282D01*
X004710Y027072D01*
X004604Y026967D01*
X004289Y026967D01*
X004499Y026967D02*
X004710Y026757D01*
X004934Y026757D02*
X005144Y026757D01*
X005039Y026757D02*
X005039Y027388D01*
X004934Y027388D02*
X005144Y027388D01*
X005363Y027282D02*
X005363Y026862D01*
X005469Y026757D01*
X005679Y026757D01*
X005784Y026862D01*
X005784Y027072D01*
X005574Y027072D01*
X005784Y027282D02*
X005679Y027388D01*
X005469Y027388D01*
X005363Y027282D01*
X006008Y027388D02*
X006008Y026757D01*
X006008Y027072D02*
X006428Y027072D01*
X006428Y026757D02*
X006428Y027388D01*
X006653Y027388D02*
X007073Y027388D01*
X006863Y027388D02*
X006863Y026757D01*
D17*
X004219Y010731D02*
X004219Y010424D01*
X003989Y010654D01*
X004449Y010654D01*
X004449Y010271D02*
X004449Y009964D01*
X004142Y010271D01*
X004065Y010271D01*
X003989Y010194D01*
X003989Y010041D01*
X004065Y009964D01*
X004065Y009810D02*
X004219Y009810D01*
X004296Y009734D01*
X004296Y009503D01*
X004449Y009503D02*
X003989Y009503D01*
X003989Y009734D01*
X004065Y009810D01*
X004296Y009657D02*
X004449Y009810D01*
X003464Y006323D02*
X003464Y006016D01*
X003157Y006323D01*
X003080Y006323D01*
X003004Y006247D01*
X003004Y006093D01*
X003080Y006016D01*
X003004Y005709D02*
X003464Y005709D01*
X003464Y005556D02*
X003464Y005863D01*
X003157Y005556D02*
X003004Y005709D01*
X003080Y005403D02*
X003234Y005403D01*
X003311Y005326D01*
X003311Y005096D01*
X003311Y005249D02*
X003464Y005403D01*
X003464Y005096D02*
X003004Y005096D01*
X003004Y005326D01*
X003080Y005403D01*
X002938Y004832D02*
X003245Y004372D01*
X003398Y004602D02*
X003705Y004602D01*
X003629Y004372D02*
X003629Y004832D01*
X003398Y004602D01*
X003245Y004832D02*
X002938Y004372D01*
X003431Y001862D02*
X003551Y001862D01*
X003491Y001862D02*
X003491Y001562D01*
X003431Y001501D01*
X003370Y001501D01*
X003310Y001562D01*
X003679Y001501D02*
X003919Y001501D01*
X003799Y001501D02*
X003799Y001862D01*
X003679Y001742D01*
X012335Y008314D02*
X012335Y008545D01*
X012412Y008621D01*
X012565Y008621D01*
X012642Y008545D01*
X012642Y008314D01*
X012796Y008314D02*
X012335Y008314D01*
X012642Y008468D02*
X012796Y008621D01*
X012796Y008775D02*
X012489Y009082D01*
X012412Y009082D01*
X012335Y009005D01*
X012335Y008852D01*
X012412Y008775D01*
X012796Y008775D02*
X012796Y009082D01*
X012719Y009235D02*
X012796Y009312D01*
X012796Y009465D01*
X012719Y009542D01*
X012565Y009542D01*
X012489Y009465D01*
X012489Y009389D01*
X012565Y009235D01*
X012335Y009235D01*
X012335Y009542D01*
X017702Y004809D02*
X018009Y004348D01*
X018162Y004425D02*
X018239Y004348D01*
X018392Y004348D01*
X018469Y004425D01*
X018469Y004502D01*
X018392Y004579D01*
X018316Y004579D01*
X018392Y004579D02*
X018469Y004655D01*
X018469Y004732D01*
X018392Y004809D01*
X018239Y004809D01*
X018162Y004732D01*
X018009Y004809D02*
X017702Y004348D01*
D18*
X018752Y005102D02*
X018752Y009651D01*
X014904Y009651D01*
X014904Y008943D01*
X015859Y008943D01*
X015859Y005811D01*
X014904Y005811D01*
X014904Y005102D01*
X018752Y005102D01*
X014904Y005811D02*
X014904Y008943D01*
X003988Y009675D02*
X003988Y005126D01*
X000140Y005126D01*
X000140Y005834D01*
X001095Y005834D01*
X001095Y008966D01*
X000140Y008966D01*
X000140Y005834D01*
X000140Y008966D02*
X000140Y009675D01*
X003988Y009675D01*
M02*
